<svg width="866" height="985" viewBox="0 0 866 985" fill="none" xmlns="http://www.w3.org/2000/svg">
<mask id="path-1-outside-1_0_4" maskUnits="userSpaceOnUse" x="-0.269043" y="0.645508" width="867" height="984" fill="black">
<rect fill="white" x="-0.269043" y="0.645508" width="867" height="984"/>
<path d="M775.881 290.761L782.807 295.693L783.021 291.149L787.343 297.806L778.068 307.406L775.69 304.694L772.37 307.713L777.15 305.728L776.685 313.828L769.902 312.278L774.748 315.199L768.669 317.389L774.164 319.917L775.738 310.088L780.858 323.579L793.434 313.363L786.568 321.723L791.509 325.517L784.178 330.702L792.588 332.869L787.569 330.005L791.968 325.052L787.11 321.723L795.747 324.509L800.491 311.456L806.094 317.276L799.746 319.094L804.342 321.922L796.927 323.693L801.66 333.435L799.687 323.857L804.461 323.576L804.646 337.551L810.72 329.617L806.535 319.789L815.118 326.908L816.352 319.818L832.136 327.513L825.537 327.761L834.329 330.705L829.978 334.821L833.87 340.686L836.242 331.397L848.294 337.762L839.27 344.787L850.768 342.838L851.614 352.681L861.646 348.965L854.088 363.121L859.87 357.247L860.025 373.731L850.381 374.351L856.651 378.502L853.158 384.874L838.215 380.842L800.903 395.072L808.669 405.19L798.799 412.447L802.774 423.817L793.661 436.605L788.749 473.977L770.701 485.358L768.144 495.95L755.746 490.204L757.451 514.86L726.629 541.869L745.369 583.903L769.998 609.92L763.405 619.937L768.353 634.93L789.941 651.736L778.134 667.197L746.841 674.579L761.981 681.267L776.936 709.615L775.332 724.406L763.06 726.453L769.718 771.249L784.207 774.581L794.698 792.62L807.93 793.562L813.354 802.202L806.333 816.856L818.218 837.777L805.969 845.591L803.221 861.911L812.681 902.364L825.204 906.561L834.436 932.149L824.917 981.066L768.436 946.701L749.452 954.501L753.624 943.939L745.041 952.712L728.161 947.163L720.132 954.81L688.649 910.715L685.18 834.868L670.613 779.269L623.99 763.024L607.939 747.804L592.048 727.791L577.373 683.827L551.69 672.383L505.049 591.532L477.72 576.139L468.279 551.928L432.862 534.547L378.032 540.725L364.507 535.095L332.41 505.734L294.132 446.663L265.546 423.2L262.071 431.097L243.42 408.772L233.478 411.565L171.215 342.853L184.698 342.54L170.303 341.693L118.441 293.086L106.86 291.303L110.949 282.631L98.605 283.561L86.3384 257.007L63.4979 237.027L49.8603 177.608L34.0234 164.381L33.481 154.854L27.6159 156.713L34.7148 150.592L34.3572 139.672L15.8917 124.559L16.1182 107.972L7.86292 109.992L19.1997 77.1798L12.5359 48.802L2.73096 39.6259L11.4928 26.2059L25.6132 34.4224L45.3662 18.0639L37.3374 24.0333L48.8709 27.1655L69.053 3.64551L92.2512 20.8951L118.978 11.7845L195.439 46.2837L201.614 65.9353L196.214 60.7021L195.439 68.5311L258.328 107.9L251.539 113.169L298.143 113.711L332.941 131.146L342.662 131.456L356.151 120.605L371.809 131.572L428.552 117.836L424.684 121.228L435.181 124.405L461.413 109.837L465.734 119.058L472.135 121.383L498.618 113.556L528.36 121.791L545.64 132.928L544.197 143.469L559.951 147.337L642.664 117.136L658.561 127.736L649.811 123.001L663.091 136.138L653.471 136.415L668.986 145.505L664.235 148.869L685.025 153.688L683.792 166.164L738.032 212.712L755.442 218.344L775.767 278.685L771.214 269.548L769.437 275.201L781.245 287.82L775.881 290.761Z"/>
</mask>
<path d="M775.881 290.761L782.807 295.693L783.021 291.149L787.343 297.806L778.068 307.406L775.69 304.694L772.37 307.713L777.15 305.728L776.685 313.828L769.902 312.278L774.748 315.199L768.669 317.389L774.164 319.917L775.738 310.088L780.858 323.579L793.434 313.363L786.568 321.723L791.509 325.517L784.178 330.702L792.588 332.869L787.569 330.005L791.968 325.052L787.11 321.723L795.747 324.509L800.491 311.456L806.094 317.276L799.746 319.094L804.342 321.922L796.927 323.693L801.66 333.435L799.687 323.857L804.461 323.576L804.646 337.551L810.72 329.617L806.535 319.789L815.118 326.908L816.352 319.818L832.136 327.513L825.537 327.761L834.329 330.705L829.978 334.821L833.87 340.686L836.242 331.397L848.294 337.762L839.27 344.787L850.768 342.838L851.614 352.681L861.646 348.965L854.088 363.121L859.87 357.247L860.025 373.731L850.381 374.351L856.651 378.502L853.158 384.874L838.215 380.842L800.903 395.072L808.669 405.19L798.799 412.447L802.774 423.817L793.661 436.605L788.749 473.977L770.701 485.358L768.144 495.95L755.746 490.204L757.451 514.86L726.629 541.869L745.369 583.903L769.998 609.92L763.405 619.937L768.353 634.93L789.941 651.736L778.134 667.197L746.841 674.579L761.981 681.267L776.936 709.615L775.332 724.406L763.06 726.453L769.718 771.249L784.207 774.581L794.698 792.62L807.93 793.562L813.354 802.202L806.333 816.856L818.218 837.777L805.969 845.591L803.221 861.911L812.681 902.364L825.204 906.561L834.436 932.149L824.917 981.066L768.436 946.701L749.452 954.501L753.624 943.939L745.041 952.712L728.161 947.163L720.132 954.81L688.649 910.715L685.18 834.868L670.613 779.269L623.99 763.024L607.939 747.804L592.048 727.791L577.373 683.827L551.69 672.383L505.049 591.532L477.72 576.139L468.279 551.928L432.862 534.547L378.032 540.725L364.507 535.095L332.41 505.734L294.132 446.663L265.546 423.2L262.071 431.097L243.42 408.772L233.478 411.565L171.215 342.853L184.698 342.54L170.303 341.693L118.441 293.086L106.86 291.303L110.949 282.631L98.605 283.561L86.3384 257.007L63.4979 237.027L49.8603 177.608L34.0234 164.381L33.481 154.854L27.6159 156.713L34.7148 150.592L34.3572 139.672L15.8917 124.559L16.1182 107.972L7.86292 109.992L19.1997 77.1798L12.5359 48.802L2.73096 39.6259L11.4928 26.2059L25.6132 34.4224L45.3662 18.0639L37.3374 24.0333L48.8709 27.1655L69.053 3.64551L92.2512 20.8951L118.978 11.7845L195.439 46.2837L201.614 65.9353L196.214 60.7021L195.439 68.5311L258.328 107.9L251.539 113.169L298.143 113.711L332.941 131.146L342.662 131.456L356.151 120.605L371.809 131.572L428.552 117.836L424.684 121.228L435.181 124.405L461.413 109.837L465.734 119.058L472.135 121.383L498.618 113.556L528.36 121.791L545.64 132.928L544.197 143.469L559.951 147.337L642.664 117.136L658.561 127.736L649.811 123.001L663.091 136.138L653.471 136.415L668.986 145.505L664.235 148.869L685.025 153.688L683.792 166.164L738.032 212.712L755.442 218.344L775.767 278.685L771.214 269.548L769.437 275.201L781.245 287.82L775.881 290.761Z" fill="#0D9488"/>
<path d="M775.881 290.761L782.807 295.693L783.021 291.149L787.343 297.806L778.068 307.406L775.69 304.694L772.37 307.713L777.15 305.728L776.685 313.828L769.902 312.278L774.748 315.199L768.669 317.389L774.164 319.917L775.738 310.088L780.858 323.579L793.434 313.363L786.568 321.723L791.509 325.517L784.178 330.702L792.588 332.869L787.569 330.005L791.968 325.052L787.11 321.723L795.747 324.509L800.491 311.456L806.094 317.276L799.746 319.094L804.342 321.922L796.927 323.693L801.66 333.435L799.687 323.857L804.461 323.576L804.646 337.551L810.72 329.617L806.535 319.789L815.118 326.908L816.352 319.818L832.136 327.513L825.537 327.761L834.329 330.705L829.978 334.821L833.87 340.686L836.242 331.397L848.294 337.762L839.27 344.787L850.768 342.838L851.614 352.681L861.646 348.965L854.088 363.121L859.87 357.247L860.025 373.731L850.381 374.351L856.651 378.502L853.158 384.874L838.215 380.842L800.903 395.072L808.669 405.19L798.799 412.447L802.774 423.817L793.661 436.605L788.749 473.977L770.701 485.358L768.144 495.95L755.746 490.204L757.451 514.86L726.629 541.869L745.369 583.903L769.998 609.92L763.405 619.937L768.353 634.93L789.941 651.736L778.134 667.197L746.841 674.579L761.981 681.267L776.936 709.615L775.332 724.406L763.06 726.453L769.718 771.249L784.207 774.581L794.698 792.62L807.93 793.562L813.354 802.202L806.333 816.856L818.218 837.777L805.969 845.591L803.221 861.911L812.681 902.364L825.204 906.561L834.436 932.149L824.917 981.066L768.436 946.701L749.452 954.501L753.624 943.939L745.041 952.712L728.161 947.163L720.132 954.81L688.649 910.715L685.18 834.868L670.613 779.269L623.99 763.024L607.939 747.804L592.048 727.791L577.373 683.827L551.69 672.383L505.049 591.532L477.72 576.139L468.279 551.928L432.862 534.547L378.032 540.725L364.507 535.095L332.41 505.734L294.132 446.663L265.546 423.2L262.071 431.097L243.42 408.772L233.478 411.565L171.215 342.853L184.698 342.54L170.303 341.693L118.441 293.086L106.86 291.303L110.949 282.631L98.605 283.561L86.3384 257.007L63.4979 237.027L49.8603 177.608L34.0234 164.381L33.481 154.854L27.6159 156.713L34.7148 150.592L34.3572 139.672L15.8917 124.559L16.1182 107.972L7.86292 109.992L19.1997 77.1798L12.5359 48.802L2.73096 39.6259L11.4928 26.2059L25.6132 34.4224L45.3662 18.0639L37.3374 24.0333L48.8709 27.1655L69.053 3.64551L92.2512 20.8951L118.978 11.7845L195.439 46.2837L201.614 65.9353L196.214 60.7021L195.439 68.5311L258.328 107.9L251.539 113.169L298.143 113.711L332.941 131.146L342.662 131.456L356.151 120.605L371.809 131.572L428.552 117.836L424.684 121.228L435.181 124.405L461.413 109.837L465.734 119.058L472.135 121.383L498.618 113.556L528.36 121.791L545.64 132.928L544.197 143.469L559.951 147.337L642.664 117.136L658.561 127.736L649.811 123.001L663.091 136.138L653.471 136.415L668.986 145.505L664.235 148.869L685.025 153.688L683.792 166.164L738.032 212.712L755.442 218.344L775.767 278.685L771.214 269.548L769.437 275.201L781.245 287.82L775.881 290.761Z" stroke="black" stroke-width="4" mask="url(#path-1-outside-1_0_4)"/>
</svg>
