<svg width="361" height="223" viewBox="0 0 361 223" fill="none" xmlns="http://www.w3.org/2000/svg">
<path d="M227.976 193.3L224.772 188.303L234.146 184.54L234.77 184.289L234.774 183.617L234.843 171.037L261.264 148.29L284.807 146.037L285.118 146.007L285.357 145.806L307.878 126.808L330.479 127.956L330.939 127.98L331.256 127.645L359.187 98.1587L359.596 97.7262L359.411 97.16L355.632 85.6145L355.541 85.3351L355.313 85.1496L287.024 29.6398L286.899 29.5383L286.748 29.4811L212.522 1.26424L212.206 1.14378L211.881 1.24084L192.712 6.96884L192.519 7.02637L192.364 7.15379L160.122 33.5986L123.91 39.0558L54.6474 18.5731L54.346 18.4839L54.0477 18.5833L28.3661 27.14L20.7155 11.4757L20.4364 10.9042L19.8005 10.9147L3.89202 11.1769L2.41231 11.2013L2.98697 12.5651L10.8418 31.2061L6.14031 34.3013L3.87748 31.0434L2.09429 31.8874L6.38582 46.9793L6.43541 47.1537L6.54306 47.2995L43.5039 97.3853L43.8097 97.7997L44.3247 97.7914L86.2509 97.115L132.202 114.418L199.29 173.676L206.106 201.434L184.366 219.499L182.096 221.386L185.045 221.268L221.082 219.825L221.548 219.807L221.833 219.438L228.235 211.159L228.577 210.716L228.379 210.193L223.086 196.192L221.158 196.43L220.244 204.234L212.462 198.762L215.88 192.306L222.22 190.011L226.401 194.52L227.976 193.3Z" fill="#0D9488" stroke="black" stroke-width="2"/>
</svg>
