<svg width="439" height="317" viewBox="0 0 439 317" fill="none" xmlns="http://www.w3.org/2000/svg">
<path d="M235.135 2.03165L234.669 1.92925L234.296 2.22637L219.687 13.8731L219.081 14.3566L219.398 15.0643L222.249 21.4186L217.203 35.3624L189.128 56.0561L188.877 56.2415L188.776 56.5371L172.986 102.635L172.891 102.913L172.961 103.199L177.458 121.438L165.508 172.918L142.965 183.886L133.017 177.895L133.884 169.286L134.016 167.97L132.714 168.201L125.305 169.519L124.671 169.631L124.511 170.254L113.629 212.613L84.8261 239.528L84.6601 239.683L84.5774 239.895L74.5137 265.665L53.9464 242.97L48.3699 216.745L47.9681 214.856L46.6572 216.275L17.2832 248.07L3.43705 244.342L1.70356 243.875L2.21913 245.594L9.86044 271.081L10.0141 271.594L10.5257 271.75L18.3935 274.158L18.8802 274.307L19.2871 274.001L35.4958 261.815L59.3821 275.929L59.9306 276.253L60.4561 275.893L67.2726 271.221L93.8813 281.673L94.1992 281.798L94.527 281.702L131.385 270.949L189.777 273.968L190.208 273.991L190.519 273.693L199.04 265.565L220.403 264.887L286.269 296.433L308.059 315.464L308.412 315.773L308.876 315.698L332.503 311.889L333.384 311.747L333.343 310.855L332.283 288.137L345.085 264.983L365.196 251.217L366.27 250.482L365.284 249.633L342.773 230.264L335.747 164.13L350.379 155.002L351.096 154.555L350.774 153.773L342.637 134.04L353.522 124.901L361.158 136.402L361.492 136.905L362.092 136.844L370.341 136.01L371.712 135.871L371.155 134.611L368.905 129.518L387.448 138.8L387.666 138.909L387.909 138.905L435.73 138.226L436.898 138.209L436.702 137.058L430.968 103.488L430.922 103.218L430.744 103.009L413.971 83.2805L414 64.7542L424.037 62.1809L424.941 61.9493L424.773 61.0319L422.508 48.6759L422.419 48.1897L421.978 47.9653L399.621 36.5689L399.184 36.3462L398.74 36.5552L383.192 43.8825L371.584 38.4206L371.096 38.191L370.636 38.4724L355.076 47.9944L335.589 40.7858L331.12 29.1151L330.862 28.4411L330.141 28.4738L322.277 28.8303L321.96 25.6657L321.737 23.4326L320.226 25.0922L314.67 31.1944L296.202 22.3599L295.415 21.9834L294.935 22.7121L284.134 39.1202L267.151 42.3748L250.905 30.6533L255.428 18.1727L255.608 17.6776L255.301 17.2496L246.354 4.76239L246.131 4.45057L245.756 4.36815L235.135 2.03165Z" fill="#0D9488" stroke="black" stroke-width="2"/>
</svg>
