<svg width="770" height="742" viewBox="0 0 770 742" fill="none" xmlns="http://www.w3.org/2000/svg">
<path d="M446.374 427.307L476.728 411.588L477.172 411.358L477.254 410.865L480.563 391.131L497.119 376.692L497.425 376.425L497.459 376.021L499.387 352.869L522.219 376.103L522.879 376.774L523.589 376.156L538.74 362.972L538.815 362.907L538.875 362.829L549.342 349.281L549.544 349.019L549.55 348.688L550.331 306.851L550.353 305.699L549.209 305.84L523.733 308.99L522.827 296.805L522.755 295.838L521.787 295.88L498.816 296.864L492.786 283.306L492.391 282.416L491.491 282.788L448.316 300.616L435.765 294.876L410.041 271.952L410.141 241.116L410.142 240.879L410.036 240.666L401.751 224.054L401.579 223.71L401.221 223.57L381.11 215.69L380.764 215.554L380.413 215.678L362.092 222.135L343.516 212.836L333.926 184.336L333.812 183.998L333.51 183.808L310.002 169.051L290.036 137.71L289.901 137.497L289.681 137.374L270.071 126.419L269.839 126.289L269.573 126.292L234.363 126.639L181.589 72.5142L181.153 72.0665L180.559 72.2629L148 83.0378L150.482 51.1468L150.529 50.5541L150.03 50.2304L76.46 2.46328L75.6536 1.93968L75.0988 2.72495L61.9106 21.3905L3.09548 58.2926L2.18754 58.8622L2.81873 59.7285L33.4317 101.744L33.5428 101.896L33.7018 101.998L85.8282 135.278L106.325 184.977L106.398 185.154L106.532 185.292L131.183 210.676L138.214 236.771L138.266 236.964L138.388 237.122L166.087 272.981L166.187 273.11L166.324 273.201L245.704 326.094L250.445 337.449L250.603 337.829L250.983 337.987L285.31 352.287L331.802 386.709L344.615 417.769L340.412 424.606L340.032 425.224L340.501 425.777L353.574 441.173L355.726 450.17L350.068 454.496L351.073 456.207L356.273 453.949L355.416 458.34L346.033 457.773L344.587 457.685L345.017 459.068L349.255 472.682L349.35 472.987L349.605 473.181L428.848 533.44L428.849 533.441L492.763 582.187L521.161 619.203L521.347 619.446L521.637 619.543L560.131 632.456L619.502 667.465L638.747 706.518L639.025 707.081L639.652 707.076L656.242 706.944L665.645 724.975L665.914 725.491L666.496 725.512L688.286 726.287L697.429 738.51L697.693 738.863L698.131 738.906L715.578 740.629L716.042 740.675L716.375 740.349L750.785 706.679L766.666 705.087L767.862 704.967L767.527 703.813L763.122 688.649L762.945 688.039L762.317 687.94L741.549 684.682L747.159 677.806L747.499 677.39L747.339 676.876L741.712 658.858L741.583 658.444L741.192 658.255L718.123 647.118L727.625 637.767L728.269 637.133L727.704 636.429L722.834 630.355L722.386 629.797L721.714 630.04L688.009 642.231L664.61 625.73L683.449 581.645L683.612 581.264L683.457 580.879L679.953 572.177L679.721 571.602L679.104 571.553L652.132 569.417L635.542 554.101L635.339 553.913L635.068 553.857L609.98 548.641L609.834 548.611L609.686 548.624L571.477 552.085L572.181 538.281L572.208 537.743L571.775 537.424L531.97 508.152L530.966 498.447L545.674 496.647L546.18 496.585L546.427 496.138L551.404 487.144L552.192 485.721L550.567 485.661L538.436 485.21L525.079 472.402L524.769 472.105L524.341 472.125L501.05 473.192L446.374 427.307Z" fill="#0D9488" stroke="black" stroke-width="2"/>
</svg>
