<svg width="663" height="211" viewBox="0 0 663 211" fill="none" xmlns="http://www.w3.org/2000/svg">
<path d="M390.585 152.166L396.683 157.376L397.263 157.871L397.894 157.443L404.06 153.256L415.071 162.104L416.496 163.249L416.691 161.431L417.773 151.375L428.785 162.862L429.1 163.191L429.555 163.169L527.753 158.508L528.305 158.482L528.576 158.002L532.39 151.259L577.278 197.379L577.437 197.543L577.652 197.621L610.363 209.542L610.616 209.634L610.882 209.587L644.177 203.62L644.686 203.529L644.906 203.061L658.871 173.318L658.952 173.147L658.964 172.957L661.354 135.672L661.373 135.382L661.233 135.127L650.933 116.325L650.709 115.915L650.251 115.824L612.923 108.436L588.378 90.0593L581.288 62.1077L581.177 61.6701L580.776 61.4639L551.322 46.342L546.861 35.6934L546.33 34.4245L545.287 35.3217L539.942 39.9191L538.987 34.9695L538.867 34.3428L538.247 34.1885L499.808 24.616L498.526 24.2968L498.567 25.6171L498.799 33.178L498.831 34.193L499.845 34.1462L506.356 33.8458L500.244 44.4759L472.648 69.6121L452.134 48.5781L451.756 48.1902L451.224 48.2952L436.893 51.1268L438.581 47.7139L438.941 46.9871L438.304 46.4852L410.987 24.953L410.083 24.2405L409.504 25.2352L406.667 30.107L393.288 25.9843L363.158 6.07498L362.185 5.43197L361.698 6.49182L357.264 16.144L346.682 11.0998L346.141 10.8419L345.658 11.1975L339.078 16.0467L330.634 3.87177L329.73 2.56786L328.944 3.94625L323.549 13.4053L301.908 16.8195L299.523 8.48777L299.212 7.40176L298.172 7.84208L240.399 32.2957L190.345 21.2363L190.039 21.1687L189.749 21.2879L104.783 56.2231L59.7217 53.187L59.3904 53.1646L59.1116 53.3449L34.1313 69.4948L33.9043 69.6415L33.7821 69.8827L20.6102 95.8827L3.90475 101.474L2.49652 101.946L3.46284 103.073L27.2272 130.805L27.4529 131.068L27.7932 131.135L54.217 136.342L53.0289 162.109L52.9822 163.121L53.9946 163.155L72.9906 163.787L73.4222 163.801L73.7286 163.497L80.5353 156.734L81.2914 164.276L81.407 165.43L82.5314 165.146L96.5743 161.596L97.0153 161.485L97.2211 161.079L107.559 140.695L125.985 148.099L127.042 148.523L127.326 147.421L128.233 143.904L130.56 148.901L131.311 150.516L132.299 149.033L135.98 143.503L159.006 149.545L181.863 180.361L182.275 180.916L182.939 180.728L268.731 156.424L278.729 166.205L279.119 166.586L279.65 166.466L349.959 150.523L378.517 152.183L383.251 158.671L383.987 159.679L384.81 158.741L390.585 152.166Z" fill="#0D9488" stroke="black" stroke-width="2"/>
</svg>
