<svg width="85" height="86" viewBox="0 0 85 86" fill="none" xmlns="http://www.w3.org/2000/svg">
<path d="M11.1807 39.6264L11.1662 39.9324L11.3256 40.194L27.2341 66.3128L27.5342 66.8056L28.1111 66.7923L35.5542 66.6209L32.3056 78.0846L31.8144 79.8181L33.5453 79.318L47.5486 75.2722L64.7535 83.1117L66.1946 83.7684L66.168 82.185L65.6738 52.7032L75.4198 49.5971L75.8492 49.4603L76.0311 49.0479L82.9929 33.2646L83.0731 33.0829L83.0777 32.8844L83.7811 2.77213L83.8052 1.73662L82.7695 1.74885L56.5137 2.05879L56.2485 2.06192L56.0197 2.19608L42.3381 10.2184L36.5491 3.05032L36.2335 2.65949L35.7315 2.6794L2.96089 3.97878L2.00196 4.0168L2.00051 4.97648L1.9707 24.646L1.9698 25.243L2.49489 25.5271L11.6159 30.4613L11.1807 39.6264Z" fill="#0D9488" stroke="black" stroke-width="2"/>
</svg>
