<svg width="941" height="568" viewBox="0 0 941 568" fill="none" xmlns="http://www.w3.org/2000/svg">
<mask id="path-1-outside-1_0_1034" maskUnits="userSpaceOnUse" x="-0.391602" y="-0.126221" width="941" height="568" fill="black">
<rect fill="white" x="-0.391602" y="-0.126221" width="941" height="568"/>
<path d="M269.458 564.832L242.583 552.292L208.751 553.692L153.873 498.212L119.886 509.46L122.485 476.069L49.3682 429.13L45.7085 380.004L4.44422 314.791L2.6084 262.059L12.6458 267.298L19.7745 261.528L29.1742 271.983L104.3 261.57L123.886 233.514L160.042 207.86L167.487 190.998L158.969 184.316L166.76 171.632L158.564 150.675L168.154 138.373L193.79 133.11L213.8 101.061L196.884 99.4929L195.859 67.0322L219.605 59.7068L223.527 48.7038L235.013 48.7992L240.866 40.1446L277.833 51.4694L291.268 45.2348L301.991 59.069L330.66 50.4085L336.084 63.1818L352.72 71.5324L351.671 80.783L368.354 80.4373L379.828 95.8689L416.771 99.6598L424.532 106.824L461.946 80.7651L464.747 66.9488L499.157 41.8135L525.419 5.58579L556.02 2.87378L623.236 18.6869L657.938 9.78196L655.381 19.9982L675.294 20.5823L675.569 33.7371L709.621 60.8572L724.141 61.2506L730.745 74.1133L746.516 71.8244L747.827 90.1171L755.314 76.2233L776.223 68.123L830.159 81.9334L837.139 85.4858L833.014 91.1185L836.716 98.1399L835.75 87.0653L858.15 93.4728L903.616 79.7757L913.648 107.867L910.119 133.605L928.072 166.596L922.827 214.607L936.977 256.962L919.823 248.761L904.796 251.187L896.833 278.486L864.551 279.177L826.929 291.825L767.217 279.827L751.505 294.627L695.655 305.272L672.356 324.494L666.986 379.7L678.167 390.191L649.116 400.598L647.966 450.803L606.994 417.078L598.971 392.42L585.286 389.368L567.851 416.22L578.956 426.347L580.279 440.557L557.17 450.594L538.418 439.734L529.245 448.401L488.142 437.606L478.838 454.486L489.173 467.367L465.713 501.055L418.488 524.784L409.75 541.134L373.653 546.76L316.498 524.355L308.678 543.714L279.961 553.293L269.458 564.832Z"/>
</mask>
<path d="M269.458 564.832L242.583 552.292L208.751 553.692L153.873 498.212L119.886 509.46L122.485 476.069L49.3682 429.13L45.7085 380.004L4.44422 314.791L2.6084 262.059L12.6458 267.298L19.7745 261.528L29.1742 271.983L104.3 261.57L123.886 233.514L160.042 207.86L167.487 190.998L158.969 184.316L166.76 171.632L158.564 150.675L168.154 138.373L193.79 133.11L213.8 101.061L196.884 99.4929L195.859 67.0322L219.605 59.7068L223.527 48.7038L235.013 48.7992L240.866 40.1446L277.833 51.4694L291.268 45.2348L301.991 59.069L330.66 50.4085L336.084 63.1818L352.72 71.5324L351.671 80.783L368.354 80.4373L379.828 95.8689L416.771 99.6598L424.532 106.824L461.946 80.7651L464.747 66.9488L499.157 41.8135L525.419 5.58579L556.02 2.87378L623.236 18.6869L657.938 9.78196L655.381 19.9982L675.294 20.5823L675.569 33.7371L709.621 60.8572L724.141 61.2506L730.745 74.1133L746.516 71.8244L747.827 90.1171L755.314 76.2233L776.223 68.123L830.159 81.9334L837.139 85.4858L833.014 91.1185L836.716 98.1399L835.75 87.0653L858.15 93.4728L903.616 79.7757L913.648 107.867L910.119 133.605L928.072 166.596L922.827 214.607L936.977 256.962L919.823 248.761L904.796 251.187L896.833 278.486L864.551 279.177L826.929 291.825L767.217 279.827L751.505 294.627L695.655 305.272L672.356 324.494L666.986 379.7L678.167 390.191L649.116 400.598L647.966 450.803L606.994 417.078L598.971 392.42L585.286 389.368L567.851 416.22L578.956 426.347L580.279 440.557L557.17 450.594L538.418 439.734L529.245 448.401L488.142 437.606L478.838 454.486L489.173 467.367L465.713 501.055L418.488 524.784L409.75 541.134L373.653 546.76L316.498 524.355L308.678 543.714L279.961 553.293L269.458 564.832Z" fill="#0D9488"/>
<path d="M269.458 564.832L242.583 552.292L208.751 553.692L153.873 498.212L119.886 509.46L122.485 476.069L49.3682 429.13L45.7085 380.004L4.44422 314.791L2.6084 262.059L12.6458 267.298L19.7745 261.528L29.1742 271.983L104.3 261.57L123.886 233.514L160.042 207.86L167.487 190.998L158.969 184.316L166.76 171.632L158.564 150.675L168.154 138.373L193.79 133.11L213.8 101.061L196.884 99.4929L195.859 67.0322L219.605 59.7068L223.527 48.7038L235.013 48.7992L240.866 40.1446L277.833 51.4694L291.268 45.2348L301.991 59.069L330.66 50.4085L336.084 63.1818L352.72 71.5324L351.671 80.783L368.354 80.4373L379.828 95.8689L416.771 99.6598L424.532 106.824L461.946 80.7651L464.747 66.9488L499.157 41.8135L525.419 5.58579L556.02 2.87378L623.236 18.6869L657.938 9.78196L655.381 19.9982L675.294 20.5823L675.569 33.7371L709.621 60.8572L724.141 61.2506L730.745 74.1133L746.516 71.8244L747.827 90.1171L755.314 76.2233L776.223 68.123L830.159 81.9334L837.139 85.4858L833.014 91.1185L836.716 98.1399L835.75 87.0653L858.15 93.4728L903.616 79.7757L913.648 107.867L910.119 133.605L928.072 166.596L922.827 214.607L936.977 256.962L919.823 248.761L904.796 251.187L896.833 278.486L864.551 279.177L826.929 291.825L767.217 279.827L751.505 294.627L695.655 305.272L672.356 324.494L666.986 379.7L678.167 390.191L649.116 400.598L647.966 450.803L606.994 417.078L598.971 392.42L585.286 389.368L567.851 416.22L578.956 426.347L580.279 440.557L557.17 450.594L538.418 439.734L529.245 448.401L488.142 437.606L478.838 454.486L489.173 467.367L465.713 501.055L418.488 524.784L409.75 541.134L373.653 546.76L316.498 524.355L308.678 543.714L279.961 553.293L269.458 564.832Z" stroke="black" stroke-width="4" mask="url(#path-1-outside-1_0_1034)"/>
</svg>
