<svg width="1035" height="574" viewBox="0 0 1035 574" fill="none" xmlns="http://www.w3.org/2000/svg">
<mask id="path-1-outside-1_0_221" maskUnits="userSpaceOnUse" x="-0.0244141" y="0.220459" width="1035" height="574" fill="black">
<rect fill="white" x="-0.0244141" y="0.220459" width="1035" height="574"/>
<path d="M750.459 272.097L771.256 278.212L783.677 270.19L797.333 278.6L819.631 263.496L844.629 268.014L875.653 241.699L893.779 269.874L930.686 267.4L945.712 281.324L968.165 282.105L989.307 296.511L993.044 320.43L980.974 329.77L983.561 368.883L958.289 470.64L965.775 487.484L961.609 500.121L968.863 499.989L971.319 477.423L981.29 521.686L988.407 531.407L997.485 525.494L1022.22 537.433L1031.96 552.889L1026.97 566.538L1011.53 571.217L959.636 560.649L966.979 541.075L951.852 526.972L927.581 521.03L942.953 521.596L934.37 516.506L925.828 519.677L925.19 533.052L889.231 524.779L877.656 533.714L867.958 517.65L851.609 524.707L852.664 510.194L836.606 514.163L818.242 507.768L816.466 500.121L811.274 509.735L807.215 489.433L783.91 500.591L785.334 488.176L765.51 491.073L763.626 479.652L720.842 468.643L719.435 457.932L694.097 464.483L672.026 436.022L651.659 431.742L607.754 432.612L580.67 443.18L561.763 464.161L557.752 458.934L557.829 464.936L543.554 466.808L539.31 455.578L533.367 465.174L522.388 460.591L517.858 471.492L505.204 469.305L489.707 477.709L462.921 464.316L411.589 457.432L400.342 445.129L381.131 450.434L348.116 440.695L317.7 441.929L294.478 430.002L290.854 438.108L280.28 437.488L250.162 423.034L244.404 427.194L247.665 443.454L238.307 448.795L237.83 438.001L228.466 433.781L231.565 441.338L221.868 446.292L232.364 456.204L218.977 460.108L201.775 441.923L199.027 447.466L188.227 447.078L184.293 437.875L178.66 445.672L163.497 437.524L156.899 442.089L156.815 429.078L148.435 424.244L145.711 430.157L111.379 428.988L101.884 421.657L72.9991 431.981L56.4409 414.016L48.2572 422.748L28.2778 423.219L2.97559 406.19L5.75912 386.043L18.2463 369.926L37.7847 375.451L52.0838 365.575L61.4835 370.051L69.9414 333.806L81.314 328.525L99.4278 336.553L117.661 310.208L109.471 280.615L94.5283 281.294L80.402 269.898L84.1392 242.378L73.4104 231.882L62.8425 188.913L71.5567 145.08L87.1433 140.478L157.96 177.314L156.255 161.62L147.159 157.942L154.955 142.385L180.884 135.686L198.288 111.141L203.158 66.7888L187.821 56.4891L199.611 44.9079L202.425 23.3013L212.456 23.2834L222.899 3.22046L263.692 16.2262L298.257 5.34834L321.175 38.7091L342.156 44.4251L399.555 33.5235L427.903 34.7454L450.66 45.8974L459.678 25.2384L480.051 46.4577L473.179 52.0545L488.926 77.166L481.279 102.665L489.928 103.523L480.975 104.453L495.173 119.461L488.539 127.627L491.394 133.927V128.331L504.125 134.625L507.904 127.162L520.326 126.691L542.32 149.639L541.009 204.493L532.956 206.258L550.42 220.992L544.019 234.302L555.224 244.381L582.517 255.867L593.938 252.362L628.043 279.071L656.749 279.226L663.693 291.218L720.943 267.543L750.459 272.097Z"/>
</mask>
<path d="M750.459 272.097L771.256 278.212L783.677 270.19L797.333 278.6L819.631 263.496L844.629 268.014L875.653 241.699L893.779 269.874L930.686 267.4L945.712 281.324L968.165 282.105L989.307 296.511L993.044 320.43L980.974 329.77L983.561 368.883L958.289 470.64L965.775 487.484L961.609 500.121L968.863 499.989L971.319 477.423L981.29 521.686L988.407 531.407L997.485 525.494L1022.22 537.433L1031.96 552.889L1026.97 566.538L1011.53 571.217L959.636 560.649L966.979 541.075L951.852 526.972L927.581 521.03L942.953 521.596L934.37 516.506L925.828 519.677L925.19 533.052L889.231 524.779L877.656 533.714L867.958 517.65L851.609 524.707L852.664 510.194L836.606 514.163L818.242 507.768L816.466 500.121L811.274 509.735L807.215 489.433L783.91 500.591L785.334 488.176L765.51 491.073L763.626 479.652L720.842 468.643L719.435 457.932L694.097 464.483L672.026 436.022L651.659 431.742L607.754 432.612L580.67 443.18L561.763 464.161L557.752 458.934L557.829 464.936L543.554 466.808L539.31 455.578L533.367 465.174L522.388 460.591L517.858 471.492L505.204 469.305L489.707 477.709L462.921 464.316L411.589 457.432L400.342 445.129L381.131 450.434L348.116 440.695L317.7 441.929L294.478 430.002L290.854 438.108L280.28 437.488L250.162 423.034L244.404 427.194L247.665 443.454L238.307 448.795L237.83 438.001L228.466 433.781L231.565 441.338L221.868 446.292L232.364 456.204L218.977 460.108L201.775 441.923L199.027 447.466L188.227 447.078L184.293 437.875L178.66 445.672L163.497 437.524L156.899 442.089L156.815 429.078L148.435 424.244L145.711 430.157L111.379 428.988L101.884 421.657L72.9991 431.981L56.4409 414.016L48.2572 422.748L28.2778 423.219L2.97559 406.19L5.75912 386.043L18.2463 369.926L37.7847 375.451L52.0838 365.575L61.4835 370.051L69.9414 333.806L81.314 328.525L99.4278 336.553L117.661 310.208L109.471 280.615L94.5283 281.294L80.402 269.898L84.1392 242.378L73.4104 231.882L62.8425 188.913L71.5567 145.08L87.1433 140.478L157.96 177.314L156.255 161.62L147.159 157.942L154.955 142.385L180.884 135.686L198.288 111.141L203.158 66.7888L187.821 56.4891L199.611 44.9079L202.425 23.3013L212.456 23.2834L222.899 3.22046L263.692 16.2262L298.257 5.34834L321.175 38.7091L342.156 44.4251L399.555 33.5235L427.903 34.7454L450.66 45.8974L459.678 25.2384L480.051 46.4577L473.179 52.0545L488.926 77.166L481.279 102.665L489.928 103.523L480.975 104.453L495.173 119.461L488.539 127.627L491.394 133.927V128.331L504.125 134.625L507.904 127.162L520.326 126.691L542.32 149.639L541.009 204.493L532.956 206.258L550.42 220.992L544.019 234.302L555.224 244.381L582.517 255.867L593.938 252.362L628.043 279.071L656.749 279.226L663.693 291.218L720.943 267.543L750.459 272.097Z" fill="#0D9488"/>
<path d="M750.459 272.097L771.256 278.212L783.677 270.19L797.333 278.6L819.631 263.496L844.629 268.014L875.653 241.699L893.779 269.874L930.686 267.4L945.712 281.324L968.165 282.105L989.307 296.511L993.044 320.43L980.974 329.77L983.561 368.883L958.289 470.64L965.775 487.484L961.609 500.121L968.863 499.989L971.319 477.423L981.29 521.686L988.407 531.407L997.485 525.494L1022.22 537.433L1031.96 552.889L1026.97 566.538L1011.53 571.217L959.636 560.649L966.979 541.075L951.852 526.972L927.581 521.03L942.953 521.596L934.37 516.506L925.828 519.677L925.19 533.052L889.231 524.779L877.656 533.714L867.958 517.65L851.609 524.707L852.664 510.194L836.606 514.163L818.242 507.768L816.466 500.121L811.274 509.735L807.215 489.433L783.91 500.591L785.334 488.176L765.51 491.073L763.626 479.652L720.842 468.643L719.435 457.932L694.097 464.483L672.026 436.022L651.659 431.742L607.754 432.612L580.67 443.18L561.763 464.161L557.752 458.934L557.829 464.936L543.554 466.808L539.31 455.578L533.367 465.174L522.388 460.591L517.858 471.492L505.204 469.305L489.707 477.709L462.921 464.316L411.589 457.432L400.342 445.129L381.131 450.434L348.116 440.695L317.7 441.929L294.478 430.002L290.854 438.108L280.28 437.488L250.162 423.034L244.404 427.194L247.665 443.454L238.307 448.795L237.83 438.001L228.466 433.781L231.565 441.338L221.868 446.292L232.364 456.204L218.977 460.108L201.775 441.923L199.027 447.466L188.227 447.078L184.293 437.875L178.66 445.672L163.497 437.524L156.899 442.089L156.815 429.078L148.435 424.244L145.711 430.157L111.379 428.988L101.884 421.657L72.9991 431.981L56.4409 414.016L48.2572 422.748L28.2778 423.219L2.97559 406.19L5.75912 386.043L18.2463 369.926L37.7847 375.451L52.0838 365.575L61.4835 370.051L69.9414 333.806L81.314 328.525L99.4278 336.553L117.661 310.208L109.471 280.615L94.5283 281.294L80.402 269.898L84.1392 242.378L73.4104 231.882L62.8425 188.913L71.5567 145.08L87.1433 140.478L157.96 177.314L156.255 161.62L147.159 157.942L154.955 142.385L180.884 135.686L198.288 111.141L203.158 66.7888L187.821 56.4891L199.611 44.9079L202.425 23.3013L212.456 23.2834L222.899 3.22046L263.692 16.2262L298.257 5.34834L321.175 38.7091L342.156 44.4251L399.555 33.5235L427.903 34.7454L450.66 45.8974L459.678 25.2384L480.051 46.4577L473.179 52.0545L488.926 77.166L481.279 102.665L489.928 103.523L480.975 104.453L495.173 119.461L488.539 127.627L491.394 133.927V128.331L504.125 134.625L507.904 127.162L520.326 126.691L542.32 149.639L541.009 204.493L532.956 206.258L550.42 220.992L544.019 234.302L555.224 244.381L582.517 255.867L593.938 252.362L628.043 279.071L656.749 279.226L663.693 291.218L720.943 267.543L750.459 272.097Z" stroke="black" stroke-width="4" mask="url(#path-1-outside-1_0_221)"/>
</svg>
