<svg width="687" height="537" viewBox="0 0 687 537" fill="none" xmlns="http://www.w3.org/2000/svg">
<path d="M177.514 35.0115L172.05 37.5006L170.748 38.0937L171.753 39.1126L179.217 46.685L168.503 49.7883L167.799 49.9923L167.782 50.7254L167.083 80.6392L160.383 95.8284L150.358 99.0235L149.649 99.2493L149.662 99.993L150.142 128.635L134.041 121.299L133.704 121.145L133.349 121.248L120.605 124.93L123.141 113.393L123.43 112.08L122.089 112.182L114.012 112.796L113.333 112.847L113.132 113.498L109.391 125.636L64.1285 125.904L43.3141 115.485L40.8283 114.241L41.9518 116.784L44.7685 123.159L38.4903 123.794L30.5687 111.863L29.9496 110.93L29.0926 111.65L16.7902 121.979L16.2297 122.45L16.5087 123.126L24.6024 142.753L10.1567 151.765L9.62538 152.096L9.69154 152.719L16.8262 219.869L16.8681 220.263L17.1684 220.522L39.0123 239.318L18.6051 253.866L18.4147 254.002L18.3043 254.208L6.3893 276.428L6.27426 276.643L6.2707 276.886L5.99056 296.055L5.97529 297.1L7.01975 297.069L40.2289 296.096L50.5294 311.7L24.6224 340.564L24.3204 340.901L24.3735 341.349L25.9564 354.743L9.72922 356.054L8.99375 356.114L8.8336 356.834L1.22208 391.065L1.15162 391.382L1.28071 391.68L10.281 412.446L10.7271 413.475L11.6986 412.914L21.8899 407.029L53.7239 422.526L53.8899 422.607L54.0738 422.623L117.475 428.208L118.492 428.297L118.561 427.28L118.625 426.338L118.874 427.374L119.04 428.068L119.751 428.136L287.073 444.12L342.863 465.708L365.036 490.922L365.256 491.172L365.582 491.24L401.476 498.759L410.751 511.966L411.071 512.422L411.627 512.39L437.501 510.89L537.222 534.032L537.314 534.053L537.409 534.057L577.803 535.619L578.067 535.629L578.301 535.508L593.047 527.896L593.665 527.577L593.581 526.887L591.063 506.221L598.14 501.528L631.612 498.5L639.425 510.35L641.054 512.821L641.258 509.869L642.141 497.07L669.611 502.004L670.162 502.103L670.535 501.685L677.169 494.241L677.849 493.477L677.071 492.814L659.097 477.506L664.298 462.078L664.411 461.744L664.289 461.412L644.53 407.864L644.474 407.713L644.375 407.587L638.605 400.333L638.335 399.994L637.902 399.959L610.622 397.761L609.413 385.247L617.399 369.502L617.574 369.158L617.472 368.786L612.831 351.804L627.954 344.265L647.473 348.173L647.842 348.247L648.169 348.058L670.628 335.082L671.014 334.86L671.106 334.424L676.983 306.714L677.13 306.02L676.524 305.652L666.468 299.54L664.725 281.301L684.317 257.061L684.519 256.81L684.537 256.488L685.825 233.487L685.883 232.446L684.841 232.431L676.681 232.312L675.545 232.295L675.673 233.424L676.88 244.109L667.622 250.324L651.607 250.619L642.255 236.874L641.936 236.406L641.371 236.438L622.005 237.548L613.167 222.934L604.564 160.291L604.512 159.909L604.216 159.661L561.655 123.954L552.091 91.9651L551.221 89.0528L550.192 91.9132L546.998 100.796L505.437 87.9937L503.043 87.2564L504.271 89.4396L511.071 101.532L489.53 117.659L424.63 90.9829L424.794 78.3229L424.817 76.4971L423.266 77.4605L414.071 83.1709L404.885 75.7327L404.428 75.3633L403.883 75.5817L361.804 92.4441L350.184 77.5285L349.987 77.275L349.678 77.184L306.477 64.4301L271.576 16.0224L271.236 15.5504L270.657 15.6131L222.37 20.845L203.709 6.58003L203.526 6.43986L203.299 6.39423L178.683 1.42916L178.053 1.30222L177.676 1.82167L172.657 8.72985L172.197 9.36364L172.702 9.96242L179.493 18.0127L172.161 26.8339L171.836 27.2248L171.96 27.7176L173.426 33.535L173.577 34.1323L174.178 34.2666L177.514 35.0115Z" fill="#0D9488" stroke="black" stroke-width="2"/>
</svg>
