<svg width="877" height="512" viewBox="0 0 877 512" fill="none" xmlns="http://www.w3.org/2000/svg">
<mask id="path-1-outside-1_0_1038" maskUnits="userSpaceOnUse" x="0.0629883" y="-0.162842" width="877" height="513" fill="black">
<rect fill="white" x="0.0629883" y="-0.162842" width="877" height="513"/>
<path d="M873.899 101.221L863.456 121.284L853.425 121.301L850.611 142.908L838.821 154.489L854.158 164.789L849.288 209.141L831.883 233.686L805.955 240.386L798.159 255.942L807.255 259.62L808.96 275.314L738.143 238.478L722.557 243.08L713.842 286.913L724.41 329.882L735.139 340.378L731.402 367.898L745.528 379.294L760.471 378.615L768.661 408.208L750.428 434.554L732.314 426.525L720.941 431.806L712.483 468.051L703.084 463.575L688.785 473.452L669.246 467.926L656.759 484.043L653.731 509.679L636.178 508.004L633.805 488.681L622.266 492.489L613.599 455.588L622.105 399.357L590.574 390.518L563.949 395.507L540.888 384.957L528.073 321.96L481.903 365.174L476.503 351.042L439.345 353.837L440.102 378.829L421.213 397.867L415.587 419.778L406.05 419.283L304.657 388.61L256.544 382.352L240.075 388.205L233.208 381.35L233.721 368.875L175.815 363.839L174.23 357.693L172.537 363.445L139.999 366.008L130.569 380.689L123.59 365.704L133.436 353.259L128.382 355.142L128.811 360.25L123.935 356.132L121.98 374.317L112.891 356.436L115.799 369.811L108.784 371.456L90.0738 363.63L86.7956 354.54L73.1819 357.652L76.3707 343.758L67.0188 357.234L51.9328 342.828L57.3509 326.759L37.592 273.21L31.8222 265.956L3.06299 262.487L10.5374 233.644L5.64983 216.275L21.8146 208.217L41.6689 212.193L64.1279 199.217L70.005 171.506L59.5205 165.135L57.6906 145.99L77.539 121.433L79.4285 97.7516L84.93 112.575L111.543 121.903L144.94 101.948L154.042 124.872L202.268 134.432L245.737 126.356L270.533 107.551L285.219 124.121L370.907 146.592L403.886 147.879L451.648 125.962L491.159 153.089L527.81 157.75L539.076 154.716L548.177 123.513L563.919 106.144L554.507 103.891L555.121 92.9355L575.727 87.8095L587.409 50.7414L582.516 45.5498L593.089 37.241L587.993 30.6368L606.047 11.301L675.958 2.83716L694.632 9.82878L699.025 35.6078L722.944 73.7488L780.588 87.1897L809.329 76.0972L818.222 63.5922L837.647 69.0162L873.899 101.221Z"/>
</mask>
<path d="M873.899 101.221L863.456 121.284L853.425 121.301L850.611 142.908L838.821 154.489L854.158 164.789L849.288 209.141L831.883 233.686L805.955 240.386L798.159 255.942L807.255 259.62L808.96 275.314L738.143 238.478L722.557 243.08L713.842 286.913L724.41 329.882L735.139 340.378L731.402 367.898L745.528 379.294L760.471 378.615L768.661 408.208L750.428 434.554L732.314 426.525L720.941 431.806L712.483 468.051L703.084 463.575L688.785 473.452L669.246 467.926L656.759 484.043L653.731 509.679L636.178 508.004L633.805 488.681L622.266 492.489L613.599 455.588L622.105 399.357L590.574 390.518L563.949 395.507L540.888 384.957L528.073 321.96L481.903 365.174L476.503 351.042L439.345 353.837L440.102 378.829L421.213 397.867L415.587 419.778L406.05 419.283L304.657 388.61L256.544 382.352L240.075 388.205L233.208 381.35L233.721 368.875L175.815 363.839L174.23 357.693L172.537 363.445L139.999 366.008L130.569 380.689L123.59 365.704L133.436 353.259L128.382 355.142L128.811 360.25L123.935 356.132L121.98 374.317L112.891 356.436L115.799 369.811L108.784 371.456L90.0738 363.63L86.7956 354.54L73.1819 357.652L76.3707 343.758L67.0188 357.234L51.9328 342.828L57.3509 326.759L37.592 273.21L31.8222 265.956L3.06299 262.487L10.5374 233.644L5.64983 216.275L21.8146 208.217L41.6689 212.193L64.1279 199.217L70.005 171.506L59.5205 165.135L57.6906 145.99L77.539 121.433L79.4285 97.7516L84.93 112.575L111.543 121.903L144.94 101.948L154.042 124.872L202.268 134.432L245.737 126.356L270.533 107.551L285.219 124.121L370.907 146.592L403.886 147.879L451.648 125.962L491.159 153.089L527.81 157.75L539.076 154.716L548.177 123.513L563.919 106.144L554.507 103.891L555.121 92.9355L575.727 87.8095L587.409 50.7414L582.516 45.5498L593.089 37.241L587.993 30.6368L606.047 11.301L675.958 2.83716L694.632 9.82878L699.025 35.6078L722.944 73.7488L780.588 87.1897L809.329 76.0972L818.222 63.5922L837.647 69.0162L873.899 101.221Z" fill="#0D9488"/>
<path d="M873.899 101.221L863.456 121.284L853.425 121.301L850.611 142.908L838.821 154.489L854.158 164.789L849.288 209.141L831.883 233.686L805.955 240.386L798.159 255.942L807.255 259.62L808.96 275.314L738.143 238.478L722.557 243.08L713.842 286.913L724.41 329.882L735.139 340.378L731.402 367.898L745.528 379.294L760.471 378.615L768.661 408.208L750.428 434.554L732.314 426.525L720.941 431.806L712.483 468.051L703.084 463.575L688.785 473.452L669.246 467.926L656.759 484.043L653.731 509.679L636.178 508.004L633.805 488.681L622.266 492.489L613.599 455.588L622.105 399.357L590.574 390.518L563.949 395.507L540.888 384.957L528.073 321.96L481.903 365.174L476.503 351.042L439.345 353.837L440.102 378.829L421.213 397.867L415.587 419.778L406.05 419.283L304.657 388.61L256.544 382.352L240.075 388.205L233.208 381.35L233.721 368.875L175.815 363.839L174.23 357.693L172.537 363.445L139.999 366.008L130.569 380.689L123.59 365.704L133.436 353.259L128.382 355.142L128.811 360.25L123.935 356.132L121.98 374.317L112.891 356.436L115.799 369.811L108.784 371.456L90.0738 363.63L86.7956 354.54L73.1819 357.652L76.3707 343.758L67.0188 357.234L51.9328 342.828L57.3509 326.759L37.592 273.21L31.8222 265.956L3.06299 262.487L10.5374 233.644L5.64983 216.275L21.8146 208.217L41.6689 212.193L64.1279 199.217L70.005 171.506L59.5205 165.135L57.6906 145.99L77.539 121.433L79.4285 97.7516L84.93 112.575L111.543 121.903L144.94 101.948L154.042 124.872L202.268 134.432L245.737 126.356L270.533 107.551L285.219 124.121L370.907 146.592L403.886 147.879L451.648 125.962L491.159 153.089L527.81 157.75L539.076 154.716L548.177 123.513L563.919 106.144L554.507 103.891L555.121 92.9355L575.727 87.8095L587.409 50.7414L582.516 45.5498L593.089 37.241L587.993 30.6368L606.047 11.301L675.958 2.83716L694.632 9.82878L699.025 35.6078L722.944 73.7488L780.588 87.1897L809.329 76.0972L818.222 63.5922L837.647 69.0162L873.899 101.221Z" stroke="black" stroke-width="4" mask="url(#path-1-outside-1_0_1038)"/>
</svg>
