<svg width="617" height="805" viewBox="0 0 617 805" fill="none" xmlns="http://www.w3.org/2000/svg">
<mask id="path-1-outside-1_0_1" maskUnits="userSpaceOnUse" x="-0.712891" y="0.386963" width="618" height="804" fill="black">
<rect fill="white" x="-0.712891" y="0.386963" width="618" height="804"/>
<path d="M47.2052 625.16L48.6714 613.943L25.6939 613.984L2.28711 602.808L2.51957 588.771L15.2332 545.737L37.9486 508.776L42.9971 474.45L68.9668 424.489L89.3218 419.166L93.7802 402.382L116.102 396.928L126.324 360.933L145.171 340.929L148.032 325.236L251.488 254.348L263.445 259.14L273.107 224.963L259.833 196.579L280.051 176.903L268.738 142.571L293.802 39.1988L328.187 37.7862L374.065 20.1313L392.853 2.38696L379.161 33.6377L368.975 41.6843L364.266 35.551L369.911 27.9574L362.371 26.1096L331.627 65.1626L359.438 70.3184L357.334 86.8467L368.242 95.9007L367.997 114.712L384.407 137.034L385.891 165.501L377.01 192.526L385.247 198.367L378.81 206.163L410.007 214.281L399.814 251.218L414.859 279.978L409.28 286.433L414.674 303.712L429.974 301.358L431.655 290.2L449.203 285.074L451.384 277.468L465.171 287.953L567.816 296.25L614.355 311.973L602.53 352.54L593.887 355.091L592.427 338.796L574.289 332.847L571.279 343.272L543.658 341.114L536.094 347.057L524.06 342.89L535.939 347.832L544.272 344.357L542.192 357.643L546.817 345.203L550.388 355.67L535.075 365.671L536.017 373.629L526.063 367.293L522.361 369.534L532.935 377.413L522.284 386.604L548.111 365.826L559.322 348.988L566.421 359.496L575.66 356.808L562.565 380.811L561.712 440.296L535.248 475.219L519.274 474.444L515.573 449.416L503.312 446.328L500.212 416.967L492.464 422.707L497.196 436.529L487.558 435.969L496.809 442.913L489.49 451.341L485.728 448.313L494.246 464.49L481.932 459.435L492.213 466.624L475.834 465.789L483.934 471.356L475.941 476.649L485.401 473.287L474.016 484.261L496.869 472.84L499.753 477.77L490.67 476.822L504.075 478.306L508.629 491.676L536.559 510.379L518.809 509.915L510.399 519.189L490.342 513.854L491.51 505.42L487.332 514.862L479.643 512.048L485.323 515.321L477.223 516.87L479.381 526.139L489.877 515.321L506.465 520.113L511.329 538.894L490.342 553.348L484.322 551.954L482.081 546.16L483.934 553.736L476.019 562.063L477.223 567.26L469.045 575.605L463.49 591.68L451.67 643.649L416.867 648.889L381.414 677.952L199.984 749.34L95.5267 801.936L76.8525 797.412L82.0441 763.52L72.4418 702.944L75.5889 655.147L59.4837 629.44L47.2052 625.16Z"/>
</mask>
<path d="M47.2052 625.16L48.6714 613.943L25.6939 613.984L2.28711 602.808L2.51957 588.771L15.2332 545.737L37.9486 508.776L42.9971 474.45L68.9668 424.489L89.3218 419.166L93.7802 402.382L116.102 396.928L126.324 360.933L145.171 340.929L148.032 325.236L251.488 254.348L263.445 259.14L273.107 224.963L259.833 196.579L280.051 176.903L268.738 142.571L293.802 39.1988L328.187 37.7862L374.065 20.1313L392.853 2.38696L379.161 33.6377L368.975 41.6843L364.266 35.551L369.911 27.9574L362.371 26.1096L331.627 65.1626L359.438 70.3184L357.334 86.8467L368.242 95.9007L367.997 114.712L384.407 137.034L385.891 165.501L377.01 192.526L385.247 198.367L378.81 206.163L410.007 214.281L399.814 251.218L414.859 279.978L409.28 286.433L414.674 303.712L429.974 301.358L431.655 290.2L449.203 285.074L451.384 277.468L465.171 287.953L567.816 296.25L614.355 311.973L602.53 352.54L593.887 355.091L592.427 338.796L574.289 332.847L571.279 343.272L543.658 341.114L536.094 347.057L524.06 342.89L535.939 347.832L544.272 344.357L542.192 357.643L546.817 345.203L550.388 355.67L535.075 365.671L536.017 373.629L526.063 367.293L522.361 369.534L532.935 377.413L522.284 386.604L548.111 365.826L559.322 348.988L566.421 359.496L575.66 356.808L562.565 380.811L561.712 440.296L535.248 475.219L519.274 474.444L515.573 449.416L503.312 446.328L500.212 416.967L492.464 422.707L497.196 436.529L487.558 435.969L496.809 442.913L489.49 451.341L485.728 448.313L494.246 464.49L481.932 459.435L492.213 466.624L475.834 465.789L483.934 471.356L475.941 476.649L485.401 473.287L474.016 484.261L496.869 472.84L499.753 477.77L490.67 476.822L504.075 478.306L508.629 491.676L536.559 510.379L518.809 509.915L510.399 519.189L490.342 513.854L491.51 505.42L487.332 514.862L479.643 512.048L485.323 515.321L477.223 516.87L479.381 526.139L489.877 515.321L506.465 520.113L511.329 538.894L490.342 553.348L484.322 551.954L482.081 546.16L483.934 553.736L476.019 562.063L477.223 567.26L469.045 575.605L463.49 591.68L451.67 643.649L416.867 648.889L381.414 677.952L199.984 749.34L95.5267 801.936L76.8525 797.412L82.0441 763.52L72.4418 702.944L75.5889 655.147L59.4837 629.44L47.2052 625.16Z" fill="#0D9488"/>
<path d="M47.2052 625.16L48.6714 613.943L25.6939 613.984L2.28711 602.808L2.51957 588.771L15.2332 545.737L37.9486 508.776L42.9971 474.45L68.9668 424.489L89.3218 419.166L93.7802 402.382L116.102 396.928L126.324 360.933L145.171 340.929L148.032 325.236L251.488 254.348L263.445 259.14L273.107 224.963L259.833 196.579L280.051 176.903L268.738 142.571L293.802 39.1988L328.187 37.7862L374.065 20.1313L392.853 2.38696L379.161 33.6377L368.975 41.6843L364.266 35.551L369.911 27.9574L362.371 26.1096L331.627 65.1626L359.438 70.3184L357.334 86.8467L368.242 95.9007L367.997 114.712L384.407 137.034L385.891 165.501L377.01 192.526L385.247 198.367L378.81 206.163L410.007 214.281L399.814 251.218L414.859 279.978L409.28 286.433L414.674 303.712L429.974 301.358L431.655 290.2L449.203 285.074L451.384 277.468L465.171 287.953L567.816 296.25L614.355 311.973L602.53 352.54L593.887 355.091L592.427 338.796L574.289 332.847L571.279 343.272L543.658 341.114L536.094 347.057L524.06 342.89L535.939 347.832L544.272 344.357L542.192 357.643L546.817 345.203L550.388 355.67L535.075 365.671L536.017 373.629L526.063 367.293L522.361 369.534L532.935 377.413L522.284 386.604L548.111 365.826L559.322 348.988L566.421 359.496L575.66 356.808L562.565 380.811L561.712 440.296L535.248 475.219L519.274 474.444L515.573 449.416L503.312 446.328L500.212 416.967L492.464 422.707L497.196 436.529L487.558 435.969L496.809 442.913L489.49 451.341L485.728 448.313L494.246 464.49L481.932 459.435L492.213 466.624L475.834 465.789L483.934 471.356L475.941 476.649L485.401 473.287L474.016 484.261L496.869 472.84L499.753 477.77L490.67 476.822L504.075 478.306L508.629 491.676L536.559 510.379L518.809 509.915L510.399 519.189L490.342 513.854L491.51 505.42L487.332 514.862L479.643 512.048L485.323 515.321L477.223 516.87L479.381 526.139L489.877 515.321L506.465 520.113L511.329 538.894L490.342 553.348L484.322 551.954L482.081 546.16L483.934 553.736L476.019 562.063L477.223 567.26L469.045 575.605L463.49 591.68L451.67 643.649L416.867 648.889L381.414 677.952L199.984 749.34L95.5267 801.936L76.8525 797.412L82.0441 763.52L72.4418 702.944L75.5889 655.147L59.4837 629.44L47.2052 625.16Z" stroke="black" stroke-width="4" mask="url(#path-1-outside-1_0_1)"/>
<path d="M537.043 621.24L547.504 615.999L548.018 615.741L548.054 615.167L548.59 606.506L548.611 606.178L548.432 605.902L530.679 578.424L540.548 531.369L541.015 529.144L539.059 530.303L491.757 558.359L491.209 558.685L491.272 559.319L492.384 570.449L470.295 607.783L470.129 608.063L470.16 608.386L471.858 626.333L460.868 663.8L460.756 664.181L460.935 664.534L481.926 705.949L475.111 725.425L474.934 725.93L475.257 726.357L480.617 733.461L468.627 760.245L468.445 760.652L468.626 761.06L472.781 770.406L473.44 771.889L474.468 770.633L479.646 764.303L485.893 768.649L484.652 776.343L486.586 776.825L491.156 763.438L518.972 749.483L519.551 749.193L519.522 748.545L519.135 739.793L536.29 727.915L546.268 730.438L547.367 730.716L547.506 729.591L549.36 714.582L549.496 713.474L548.38 713.46L543.049 713.39L537.111 701.428L555.255 677.562L556.052 676.512L554.827 676.027L544.782 672.045L546.969 638.828L546.989 638.526L546.838 638.263L537.043 621.24Z" fill="#0D9488" stroke="black" stroke-width="2"/>
<path d="M571.882 646.826L572.126 646.6L572.185 646.272L582.044 592.097L582.096 591.811L581.987 591.542L574.929 574.167L574.094 572.111L573.107 574.099L546.166 628.345L545.666 629.351L546.723 629.731L554.419 632.499L559.501 656.25L559.869 657.971L561.159 656.774L571.882 646.826Z" fill="#0D9488" stroke="black" stroke-width="2"/>
</svg>
