<?xml version="1.0"?>
<svg xmlns="http://www.w3.org/2000/svg" version="1.2" baseProfile="tiny" width="110" height="110" viewBox="320 50 110 110" stroke-linecap="round" stroke-linejoin="round">
<g id="indonesia-prov">
<path d="M 385.52 117.76 385.59 117.84 385.45 118.07 385.54 118.18 385.61 118.71 385.46 118.77 385.36 117.91 385.52 117.76 Z M 389.07 117.6 389.37 117.91 389.18 117.98 388.92 117.76 389.07 117.6 Z M 385.59 117.46 385.74 117.72 385.69 117.86 385.53 117.75 385.38 117.8 385.39 117.58 385.59 117.46 Z M 385.77 117.23 385.96 117.42 385.94 117.62 386.05 118.13 385.9 118.55 385.67 118.59 385.6 118.31 385.8 117.74 385.66 117.53 385.77 117.23 Z M 388.46 116.95 388.91 117.44 388.84 117.65 388.51 117.39 388.37 117.04 388.23 116.95 387.93 116.98 387.86 116.48 388.46 116.95 Z M 389 116.36 389.16 116.43 389.46 116.42 389.8 116.92 390.41 117.16 390.26 117.49 389.94 117.54 389.5 117.29 389.18 116.78 388.97 116.67 389 116.36 Z M 388.87 116.43 388.92 116.63 389.18 116.82 389.36 117.34 388.9 117 388.7 116.7 388.44 116.49 388.49 116.27 388.87 116.43 Z M 387.53 116.24 387.73 116.46 387.88 117 388.2 117.05 388.44 117.56 388.22 117.84 387.99 117.89 387.94 117.65 387.62 116.89 387.45 116.86 387.44 116.57 387.53 116.24 Z M 388.79 115.6 389 115.79 389.31 115.81 389.75 116.19 390.23 116.04 390.73 116.07 391.08 116.18 391.39 116.09 391.52 116.57 391.43 116.85 391.2 117.04 390.95 116.96 390.43 117.04 389.75 116.82 389.71 116.72 389.55 116.53 389.46 116.4 389.43 116.39 388.55 116.27 388.66 115.99 388.65 115.92 388.6 115.88 388.56 115.87 388.54 115.84 388.58 115.8 388.56 115.76 388.49 115.76 388.79 115.6 Z M 387.82 115.59 388.28 115.94 388.43 116.54 388.13 116.57 387.77 116.17 387.45 115.92 387.39 115.77 387.52 115.46 387.82 115.59 Z M 387.19 115.49 387.37 115.45 387.31 115.83 387.15 115.9 387.13 115.64 387 115.49 386.86 115.45 386.93 115.26 387.09 115.32 387.08 115.44 387.19 115.49 Z M 386.36 115.89 386.48 116.32 386.51 116.72 386.85 117.08 387.04 117.53 387.23 117.74 387.31 118.13 387.58 118.47 387.6 118.68 387.32 118.93 387.08 118.83 386.77 119.28 386.57 119.18 386.27 118.66 386.19 118.3 386.29 118.15 386.81 117.94 386.76 117.52 386.35 117.26 386.77 117.86 386.1 117.85 385.99 117.33 385.85 117.02 386.01 116.79 385.88 116.51 385.85 116.05 386.12 115.16 386.27 115.31 386.36 115.89 Z M 388.69 115.23 388.92 115.54 388.58 115.58 388.39 115.75 388.45 115.8 388.55 115.76 388.54 115.82 388.54 115.86 388.56 115.89 388.45 116.07 388.13 115.7 387.84 115.57 388.23 115.24 388.36 114.91 388.69 115.23 Z M 389.38 114.86 389.64 114.97 389.89 114.86 390.02 115.05 389.98 115.38 389.65 115.45 389.04 115.32 389.05 115.13 389.38 114.86 Z M 386.52 114.42 386.78 114.56 387.19 114.92 387.46 115.45 387.32 115.42 387.12 115.46 387.11 115.33 386.86 115.19 386.44 114.76 386.45 114.68 386.41 114.62 386.44 114.55 386.42 114.53 386.37 114.5 386.52 114.42 Z M 387.13 114.61 387.22 114.72 387.31 114.35 387.4 114.41 387.67 114.34 387.96 114.49 388.31 114.86 388.18 115.23 388.01 115.14 387.94 115.49 387.36 115.05 387.06 114.71 387.13 114.61 Z M 389.32 114.29 389.46 114.5 389.72 114.55 389.67 114.91 389.45 114.86 389.3 114.63 389.01 114.85 388.78 114.37 388.87 114.27 389.32 114.29 Z M 386.4 114.39 386.4 114.46 386.35 114.51 386.38 114.54 386.41 114.53 386.41 114.61 386.36 114.66 386.44 114.69 386.44 114.77 386.56 115.04 386.91 115.27 386.82 115.31 386.83 115.41 386.85 115.45 386.89 115.47 386.99 115.49 387.11 115.9 387.2 115.91 387.31 115.87 387.52 116.1 387.27 116.46 387.37 116.69 387.28 116.96 387.56 116.89 387.94 117.97 388.34 118.07 388.38 118.41 388.09 118.43 387.92 118.77 387.78 118.36 387.5 118 387.34 117.62 387.12 117.43 386.94 116.91 386.67 116.65 386.56 116.43 386.68 116.21 386.42 115.84 386.35 115.34 386.13 114.92 386.01 114.38 386.21 114.15 386.4 114.39 Z M 389.49 114.06 389.67 113.95 390.56 114.15 390.69 114.27 390.49 114.74 389.94 114.75 389.75 114.49 389.52 114.5 389.5 114.24 389.12 114.21 389.35 113.86 389.49 114.06 Z M 387.27 113.8 387.4 114.04 387.66 114.23 387.95 114.13 388.12 114.35 388.74 114.41 389.07 114.99 388.85 115.23 388.7 114.97 388.15 114.64 387.99 114.48 387.73 114.34 387.56 114.35 387.47 114.17 387.41 114.16 387.31 114.2 387.1 113.91 386.91 113.95 386.86 113.91 386.8 113.92 386.79 113.96 386.67 113.81 387.11 113.62 387.27 113.8 Z M 388.32 113.59 388.18 113.69 388.34 113.9 388.57 113.97 388.51 114.31 388.33 114.22 388.13 114.32 387.9 113.91 387.89 113.75 388.03 113.77 388.16 113.55 388.32 113.59 Z M 386.81 113.64 386.66 113.8 386.75 113.94 386.76 114.03 386.85 114 386.79 113.96 386.86 113.92 386.89 113.96 387.01 113.96 387.25 114.19 387.34 114.23 387.43 114.17 387.5 114.29 387.5 114.36 387.31 114.34 387.19 114.57 386.46 114.34 385.84 113.68 386.12 113.43 386.47 113.49 386.81 113.64 Z M 389.06 113.05 389.15 113.22 389.57 113.3 389.51 113.62 389.02 113.63 388.85 113.74 389.01 113.97 388.72 114.31 388.6 113.97 388.33 113.89 388.32 113.58 388.16 113.53 388.08 113.68 387.74 113.69 387.59 113.83 387.53 113.7 387.3 113.68 387.52 113.38 388.06 113.2 388.55 113.21 388.7 113.03 389.06 113.05 Z M 387.07 113.52 386.92 113.36 387.23 113.28 387.41 113.14 387.51 112.98 387.7 112.86 387.98 112.78 388.07 113 387.53 113.32 387.07 113.52 Z M 389.55 112.55 389.67 112.75 389.46 112.86 389.46 113.05 389.2 113.18 389.03 112.91 388.67 113 388.45 113.15 388.4 112.83 389.24 112.53 389.55 112.55 Z M 390.46 112.21 390.68 112.18 390.93 112.29 390.98 112.46 390.95 113.11 390.85 113.42 390.4 113.78 390.06 113.77 389.83 113.86 389.64 113.75 389.68 113.25 389.47 113.06 389.46 112.87 389.73 112.77 389.58 112.53 389.63 112.55 389.77 112.56 389.84 112.54 389.9 112.57 389.97 112.63 390.05 112.58 390.34 112.17 390.46 112.21 Z M 390.17 112.36 390.03 112.57 389.89 112.54 389.63 112.54 389.52 112.48 389.51 112.45 389.76 112.27 390.11 112.16 390.17 112.36 Z M 390.38 111.03 390.63 111.23 390.59 111.48 391.08 111.45 391.01 111.7 390.8 111.86 390.55 111.88 389.66 112.19 389.43 112.35 388.38 112.83 388.38 113.19 388.08 113.14 388.13 112.93 388.02 112.78 388.16 112.57 388.76 112.12 389.08 111.99 389.38 111.64 389.82 111.42 390.25 111.06 390.38 111.03 Z M 391.58 110.64 391.69 110.71 391.69 111.05 391.59 111.4 391.3 111.68 391.1 111.64 391.08 111.42 390.59 111.45 390.64 111.21 390.4 111 391.11 110.52 391.35 110.46 391.58 110.64 Z M 389.91 109.47 390.18 109.93 390.14 110.23 389.66 111.07 389.46 111.25 389.22 111.67 388.94 111.92 388.49 112.08 388.51 111.68 388.74 111.46 388.96 110.65 389.42 110.07 389.75 109.5 389.91 109.47 Z M 389.66 109.46 389.45 109.96 389.24 109.95 389.46 109.48 389.66 109.46 Z M 389.3 109.09 389.38 109.4 389.12 110.03 388.72 110.76 388.67 111.01 388.53 111.04 388.34 110.92 388.43 110.75 388.28 110.3 388.54 110.01 388.71 110.13 388.82 110.12 388.92 109.91 388.88 109.67 388.76 109.51 389.09 109.1 389.3 109.09 Z M 398.43 90.41 398.59 90.56 398.48 90.93 398.22 90.82 398.14 90.6 398.43 90.41 Z M 398.29 87.18 398.37 87.61 398.21 87.63 398.07 87.13 398.29 87.18 Z M 397.41 85.15 397.76 85.54 397.76 85.74 397.97 86.32 397.81 86.36 397.6 86.08 397.5 85.85 397.4 85.78 397.26 85.34 397.41 85.15 Z M 406.35 77.83 406.71 78.18 406.87 78.7 407.19 78.88 407.26 79.22 406.98 79.32 406.56 79.1 406.31 78.58 406.57 78.45 406.53 78.3 406.23 78.08 406.35 77.83 Z M 395.97 69.4 395.95 70.15 395.76 70.4 395.34 70.07 395.18 69.65 395.19 69.41 395.35 69.33 395.47 69.41 395.57 69.27 395.7 69.26 395.98 69.02 395.97 69.4 Z M 395.59 68.78 395.81 69.1 395.55 69.25 395.47 69.39 395.36 69.32 395.14 69.27 395.08 69.13 395 69.05 394.92 68.74 395.06 68.78 395.09 68.75 395.07 68.59 395.22 68.35 395.39 68.41 395.59 68.78 Z M 396.16 67.6 396.18 67.83 395.77 68.09 395.74 67.93 395.83 67.89 395.82 67.79 395.94 67.71 396.08 67.55 396.16 67.6 Z M 395.7 67.17 396.06 67.31 396.64 67.74 396.33 67.86 396.18 67.81 396.2 67.73 396.15 67.55 396.08 67.54 395.92 67.71 395.8 67.76 395.82 67.88 395.46 67.8 395.17 67.96 394.74 68.07 394.77 67.82 394.82 67.72 394.83 67.67 394.81 67.56 394.99 67.49 395.09 67.37 395.13 67.27 395.14 67.23 395.12 67.16 395.05 67.12 394.94 67.11 394.95 66.96 395.29 66.87 395.7 67.17 Z M 394.32 67.07 394.35 67.26 394.04 67.26 393.95 67.27 393.86 67.43 393.88 67.55 394.36 67.64 394.52 67.93 394.45 68.15 394.03 68.08 393.7 67.62 393.39 67.72 393.22 67.96 393.07 67.65 393.36 67.45 393.19 67.21 393.59 67.07 393.93 66.87 394.21 66.8 394.32 67.07 Z M 395.19 66.85 395.14 66.87 394.88 66.99 394.87 67.06 394.95 67.14 395.13 67.21 395.12 67.28 395.06 67.39 394.98 67.48 394.83 67.52 394.8 67.54 394.8 67.59 394.81 67.71 394.74 67.8 394.21 67.56 393.88 67.52 393.96 67.28 394.17 67.4 394.36 67.26 394.34 66.93 394.64 66.62 395.16 66.67 395.19 66.85 Z M 394.42 66.81 394.22 66.7 394.33 66.45 394.53 66.62 394.42 66.81 Z M 396.41 67.14 395.83 67.03 395.27 66.57 395.59 66.29 395.84 66 396.11 66.1 396.46 66.38 396.42 66.73 396.7 66.98 396.41 67.14 Z M 407.46 65.7 407.6 66.13 407.4 66.08 407 66.13 407.19 65.73 407.46 65.7 Z M 394.78 65.65 394.76 66.43 394.5 66.56 394.36 66.42 394.13 66.48 394.21 66.72 393.84 66.82 393.56 67.03 393.43 66.64 393.48 66.4 393.39 65.91 393.21 65.71 393.52 65.6 393.87 65.58 394.16 65.66 394.29 65.54 394.36 65.38 394.65 65.39 394.78 65.65 Z M 394.27 65.53 394.16 65.64 393.91 65.57 393.62 65.54 393.5 65.36 393.89 65.32 394.31 65.39 394.27 65.53 Z M 395.4 65.21 396.14 65.47 396.17 65.73 395.87 65.79 395.51 65.59 395.4 65.21 Z M 396.01 65.87 396.29 65.84 396.69 66.04 397.26 66.15 397.45 66.27 397.29 66.53 396.68 66.81 396.48 66.66 396.47 66.31 396.11 66.05 395.87 65.96 395.63 66.21 395.23 66.49 394.9 66.39 394.85 65.57 394.74 65.36 394.91 65.2 395.19 65.21 395.45 65.58 396.01 65.87 Z M 396.77 65.8 396.55 65.66 396.33 65.24 396.55 64.95 396.92 65.5 396.77 65.8 Z M 408.29 63.2 408.11 63.23 408.03 63.71 408.17 64.2 408.52 64.79 408.76 64.86 409.1 65.28 408.59 65.11 408.03 64.32 407.96 63.71 408.07 63.11 408.29 63.2 Z M 401.75 61.86 402.04 62.25 401.91 62.44 401.58 61.93 401.75 61.86 Z M 397.95 60.94 398.19 60.98 398.17 61.31 398.49 61.62 398.46 62.15 398.74 62.29 398.92 62.13 399.14 62.13 399.33 62.45 399.7 62.86 399.85 63.12 399.84 63.73 399.52 64.02 399.13 64.57 398.56 65.08 398.38 65.05 397.05 65.39 396.6 64.89 396.32 65.14 395.92 65.07 394.8 65.06 394.55 65.24 393.69 65.19 392.68 65.43 393.04 65.65 393.3 65.92 393.38 66.14 393.31 66.71 393.43 67.07 393.2 67.1 393.17 67.25 393.28 67.5 392.95 67.52 393 67.9 393.17 68.08 393.35 68.05 393.62 67.77 393.74 68 394.14 68.3 394.53 68.29 395.14 68.36 395.05 68.62 395.05 68.76 394.92 68.73 394.85 68.74 394.83 68.77 394.85 68.82 394.95 68.87 394.99 69.06 395.07 69.13 394.99 69.41 395.14 69.62 395.29 70.1 395.5 70.38 395.74 70.56 396.28 70.75 396.26 70.97 396.43 71.35 396.65 71.64 396.97 71.91 397.47 72.08 398.41 72.3 399.04 72.31 399.36 72.68 399.31 72.94 399.11 73.16 399.27 73.43 399.47 73.58 400.2 74.59 400.54 74.91 401.05 75.02 401.28 75.34 401.88 75.69 402.48 76.15 402.99 76.38 404.24 77.04 404.75 77.22 404.75 77.53 405.29 77.47 405.54 78.07 405.41 78.31 404.91 78.38 404.98 78.58 405.5 78.45 405.67 78.52 405.68 78.98 405.9 79.4 406.12 79.22 406.36 79.23 406.94 79.42 407.2 79.41 407.19 79.63 407.68 79.68 407.79 79.56 408.31 79.78 408.78 80.29 409.43 80.67 409.65 81 409.88 81.08 410.6 81.57 410.92 81.94 411.29 82.21 411.58 82.55 411.59 83.03 412.1 83.93 412.53 84.12 412.69 84.62 412.77 85.05 413.06 85.12 413.38 84.77 414.23 84.83 414.67 84.94 415.03 85.32 415.28 85.29 415.42 85.49 415.25 85.85 415.4 86.15 414.99 86.81 414.49 87.41 413.89 87.79 413.96 87.91 413.67 88.17 413.27 88.05 412.79 88.56 412.6 88.67 412.43 89.06 412.05 89.4 411.89 89.3 411.42 89.33 410.94 89.04 410.5 89.12 410.55 88.92 410.26 88.59 410 88.44 409.76 88.46 409.55 88.63 409.16 88.6 408.53 89.22 408.17 89.17 407.72 89.28 407.39 89.15 406.95 89.07 406.4 88.9 405.91 88.67 405.58 88.75 405.25 89.09 404.8 89.36 404.49 89.35 404.11 89.13 404.16 88.77 403.78 88.56 401.88 88.26 401.24 88.09 399.95 87.81 399.33 87.63 399.1 87.45 399.18 87.06 399.04 86.85 398.58 86.79 398.35 86.63 398.33 86.16 398.04 85.95 398.13 85.6 397.97 85.33 397.93 84.92 397.34 84.56 396.89 84.12 396.49 83.99 396.31 84.1 396.26 84.39 396.52 84.68 396.79 84.83 396.97 85.3 397.17 85.31 397.35 85.78 397.48 85.85 397.57 86.2 397.7 86.29 397.66 86.66 397.84 86.91 397.8 87.16 397.97 87.36 398.14 87.79 398.38 87.95 398.57 88.4 398.54 88.51 398.69 88.91 398.54 89.14 398.72 89.39 398.71 89.77 398.2 89.88 397.73 89.9 397.51 89.58 396.89 89.34 396.71 88.78 396.31 88.87 395.98 89.05 395.99 89.25 395.63 89.23 394.97 89.45 393.87 90.2 393.58 90.71 393.35 90.91 393.18 91.22 393.16 91.94 393.22 92.15 393.12 92.5 392.7 92.54 392.51 92.65 392.42 93.12 392.26 93.29 392.26 93.58 392.06 93.73 392 94.04 391.84 94.38 391.32 94.87 391.25 95.14 391.31 95.52 391.44 95.83 391.29 96.1 390.99 96.3 390.78 96.13 390.52 96.09 390.65 96.55 390.42 97.06 390.42 97.55 390.25 97.81 389.9 97.83 390.07 98.38 389.82 98.53 390.02 98.91 389.79 99.07 389.94 99.22 389.98 99.53 389.61 99.8 389.24 100.36 389.29 100.61 389.49 100.66 389.74 100.9 389.87 101.19 389.66 101.46 389.4 101.44 389.14 101.61 389.24 101.77 389.01 102.22 389.47 102.32 389.33 102.85 389.57 102.76 389.82 102.9 389.62 103.18 389.74 103.51 389.8 103.91 389.51 104.31 389.17 104.56 389.02 104.91 389.01 105.2 388.53 106.49 388.49 106.86 388.09 107.07 388.05 107.66 388.22 108.19 388.5 108.57 388.67 109.56 388.84 109.7 388.86 109.91 388.75 110.11 388.59 109.99 388.39 109.98 388.24 110.31 388.41 110.7 388.36 110.81 388.18 110.83 388.22 110.93 388.36 110.94 388.7 111.16 388.67 111.44 388.4 111.81 388.42 112.02 388.24 112.39 387.97 112.75 387.66 112.86 387.5 112.97 387.36 113.16 387.19 113.28 386.55 113.44 386.2 113.24 385.61 113.49 385.93 113.94 386.05 114.65 386.07 115.26 385.84 116 385.69 117.14 385.5 117.38 385.27 117.37 385.14 117.9 385.16 118.06 385.11 119.16 384.32 119.53 383.9 119.82 383.52 120.24 383.31 120.67 382.88 121.07 382.5 121.81 382.16 122.23 381.91 122.64 381.68 122.87 381.17 123.23 380.97 123.99 380.78 124.28 380.46 124.48 380.3 124.68 379.61 125.19 378.76 125.6 378.24 125.56 378.03 125.64 377.49 125.68 377.41 125.5 377.57 125.3 377.57 124.98 377.16 124.89 376.95 124.7 376.72 124.9 376.92 125.1 376.82 125.41 376.65 125.62 376.6 125.98 376.7 126.91 376.64 127.09 376.41 127.24 375.75 127.41 374.71 127.84 374.27 127.9 373.48 128.28 373.04 128.58 372.77 128.87 372.64 129.76 372.82 129.86 372.93 130.1 373.1 131.24 372.67 131.52 372.41 131.77 371.75 132.03 371.23 132.07 370.83 132.23 369.99 132.72 368.81 133.05 368.74 133.39 368.23 133.59 368.23 133.85 367.97 134.05 367.72 134.54 367.77 134.82 367.93 134.89 368.59 134.63 368.86 134.48 369.54 134.29 369.78 134.33 369.9 134.06 370.19 134.17 370.54 134.15 371.21 134.25 371.27 134.74 371.2 135.08 370.79 135.62 370.69 135.83 371 135.92 371.1 136.05 371.33 136.8 371.28 137.49 371.29 138.1 371.38 138.82 371.34 139.29 370.8 139.52 370.21 139.65 369.71 140.09 369.8 140.27 370.11 140.23 370.21 140.41 370.88 140.55 371.39 140.51 371.91 140.28 372.11 140.1 372.33 140.41 372.5 140.9 371.98 141.06 371.22 141.51 370.45 141.76 370.52 141.87 370.88 141.8 371.73 141.4 372.16 141.1 372.81 141.11 372.98 141.23 372.91 141.5 372.72 141.69 372.03 142.09 372.15 142.25 372.35 142.06 373.29 141.62 373.58 141.16 373.74 141.72 373.62 142.74 373.46 143.54 373.4 144.06 373.1 145.26 372.75 145.16 371.95 144.83 371.28 144.65 369.88 144.38 368.73 144.13 368.12 144.11 367.48 143.9 367.31 143.58 366.17 143.54 365.94 143.76 364.78 143.72 363.96 143.86 363.47 143.68 363.24 143.8 363.07 143.67 362.79 143.91 362.85 144.04 362.41 144.15 362.25 144.02 361.97 144.07 361.45 144.04 361.47 144.32 361.35 144.72 361.13 144.68 360.89 144.94 360.66 144.35 360.42 143.86 360.45 143.65 360.77 143.45 360.57 143.26 360.26 142.69 360.14 142.28 360.18 142.01 359.92 141.8 360 141.66 359.87 141.41 360.02 141.18 360.09 139.83 360.44 139.62 360.52 139.23 360.26 139.15 359.95 138.86 359.62 138.95 359.47 139.08 359.07 139.08 358.85 138.83 358.57 138.65 358.89 138.36 358.97 138.11 358.76 137.94 358.43 138.03 358.32 137.85 358.07 137.75 358.26 137.51 358.25 137.32 358.56 136.84 358.67 135.93 358.58 135.64 358.66 135.49 358.52 135.16 358.6 134.78 358.28 134.51 358.04 134.73 357.8 134.53 357.97 134.35 357.96 133.9 358.17 133.72 358.27 133.45 357.98 133.39 357.78 133.15 357.54 133.11 357.57 132.61 357.69 132.38 357.54 131.72 357.03 131.29 357.09 130.98 356.93 130.86 357.19 130.55 356.94 130.02 357.22 129.69 356.87 129.54 356.73 129.28 357.01 128.86 357.77 128.73 357.92 128.53 358.12 128.01 358.44 127.71 358.52 127.31 358.86 127.12 358.92 126.61 359.08 126.27 359.14 126.14 359.09 125.71 359.37 124.81 359.6 124.49 360.2 123.95 360.6 123.73 360.7 123.52 360.24 123.07 359.74 122.79 359.16 123.15 358.99 122.93 358.85 122.41 358.25 122.03 357.99 121.68 357.77 121.91 357.36 121.69 357.52 121.4 357.38 120.87 357.25 120.6 356.94 120.38 356.09 119.87 355.66 119.45 355.24 118.74 354.61 118.17 354.34 118.04 353.75 117.97 352.96 117.78 352.78 117.69 352.56 117.33 352.34 116.42 352.36 115.61 352.33 115.2 352.15 114.38 352.17 113.91 352.07 113.46 351.78 113.27 351.47 112.88 351.5 112.58 351.22 112.1 350.92 111.86 350.35 111.23 350.4 110.95 350.34 110.5 350.02 109.82 350.08 109.49 349.98 109.26 350 108.99 349.81 108.71 350 108.5 350.37 108.6 350.38 108.3 350.3 107.85 350.1 107.66 350.1 107.42 350.46 107.11 350.63 106.67 350.59 106.3 350.48 106.13 350.66 105.87 350.9 105.9 350.93 105.61 351.32 105.41 351.44 105.12 351.35 104.83 351.34 104.41 350.95 104.17 350.52 104.18 350.23 104.32 349.87 104.64 349.13 104.8 349.12 105 348.71 105.08 348.49 105.57 348.55 105.72 348.02 105.93 347.77 105.88 347.36 106.03 347.02 106.31 346.73 106.67 346.42 106.59 345.96 106.62 345.59 106.47 345.24 106.52 345.04 106.68 344.71 106.69 344.6 106.54 344.73 106.16 344.5 105.68 344.63 105.1 344.41 104.75 344.3 104.2 344.09 103.84 344.1 103.4 344.02 102.94 344.11 102.66 343.77 102.4 343.52 102.41 343.32 102.18 343.05 102.06 342.71 102.19 342.37 101.9 342.34 101.28 342.62 100.92 342.7 100.54 342.5 100.38 342.99 99.9 343.04 99.41 343.58 99.22 343.72 98.65 343.94 98.47 343.95 98.19 344.16 97.93 344.8 97.58 345.07 97.58 345.16 97.8 345.59 97.62 345.88 97.78 346.36 97.62 346.57 97.86 346.6 98.09 346.8 98.15 346.91 97.83 347.29 97.6 347.42 97.4 348.19 96.84 348.27 96.13 348.26 95.83 347.58 95.18 347.38 94.66 347.11 94.23 346.81 93.97 346.51 93.38 346.13 92.8 345.87 91.34 345.76 90.86 345.58 90.49 345.22 90.08 344.93 89.92 344.51 89.82 344.05 90.15 343.86 90.36 343.54 90.53 343.06 90.24 342.69 90.3 342.63 90.43 342.15 90.69 341.87 90.65 341.59 90.72 341.36 90.95 341 91.15 340.74 91.13 340.57 90.99 340.17 91.1 339.95 91.35 339.9 91.59 339.65 91.7 339.33 92.17 339.09 92.17 339.01 92.33 338.41 92.47 338.03 92.38 337.93 92.57 338.05 93.02 337.67 93.63 337.07 93.42 336.59 93.59 336.12 93.89 336.14 94.46 336.04 94.59 335.67 94.73 335.51 94.71 335.31 94.45 335.09 94.39 334.87 94.14 334.1 93.95 333.96 94.06 333.59 93.99 333.22 94.15 333 94.09 332.84 94.26 332.35 94.14 332.06 93.97 331.9 93.15 331.63 93.24 331.4 93.19 331.29 92.93 331.66 92.64 331.6 92.22 331.28 91.87 331.04 91.71 330.81 91.7 330.67 91.26 330.32 91.32 330.12 91.21 329.83 91.35 329.47 91.7 329.01 91.67 328.73 92.04 328.14 91.74 327.86 91.92 327.62 91.87 327.34 91.97 327 91.92 326.6 92.2 326.44 91.86 325.8 91.77 325.68 91.55 325.77 91.12 326.09 90.95 326.31 90.97 326.7 90.5 326.7 90.2 326.33 89.78 326.58 89.51 326.96 89.22 327.25 88.73 326.98 88.54 326.29 87.89 326.41 87.75 326.3 87.4 326.52 87.04 326.99 86.51 327.06 85.89 326.93 85.71 326.67 85.61 326.61 85.12 326.83 84.92 327.63 84.88 327.87 84.41 327.88 84.03 328.04 83.86 328.33 83.74 329.16 84.02 329.48 83.73 329.9 84.11 330.16 84.09 330.76 83.73 331.37 83.54 331.67 83.3 332.37 83.15 331.97 82.53 332.03 82.22 332.17 82.14 332.15 81.83 331.79 81.26 331.95 80.74 332.17 80.57 332.17 80.13 332.06 79.86 331.85 79.68 331.47 79.5 331.41 79.3 331.64 79.07 331.97 79.03 332.11 78.8 332.41 78.69 332.41 78.54 332.68 78.14 332.88 78.06 333.22 78.11 333.77 77.96 333.88 77.73 334.19 77.65 334.39 77.48 335.13 77.36 335.26 77.21 335.27 76.91 335.59 76.84 335.75 77.04 336.52 77.46 336.79 77.69 337.45 77.9 337.69 78.23 338.44 78.46 338.73 78.19 338.8 77.88 339.05 78.21 339.57 78.42 339.79 78.83 339.66 79.22 340.24 79.8 340.52 79.69 340.72 79.78 340.79 80.08 340.97 80.16 341.17 80.54 341 81.1 341.2 81.35 341.73 81.51 341.71 81.63 342.63 82.58 343.3 83.02 343.48 82.6 343.86 82.28 344.14 82.3 344.54 82.56 344.83 82.84 345.5 82.58 345.78 82.76 345.76 83.21 345.94 83.28 346.06 83.73 346.22 83.84 346.74 83.93 347 83.81 347.57 83.9 348.09 83.69 348.42 83.93 348.97 83.93 349.25 84.42 349.18 84.77 349.44 84.87 349.95 84.93 350.34 85.13 350.96 85.13 351.17 84.82 351.46 84.91 351.91 84.89 352.3 84.8 352.42 84.69 352.54 84.21 352.81 84.12 353.1 83.72 353.23 83.44 353.18 83.15 353.02 82.94 353.06 82.63 353.22 82.59 353.37 82.14 353.55 81.97 354.03 81.78 354.57 81.5 355.33 81.38 355.91 81.21 356.29 81.01 356.39 81.06 356.95 80.98 357.31 81.05 357.56 81.18 357.99 81.23 358.29 81.37 358.45 81.32 359.19 81.42 359.4 81.23 359.38 80.6 359.16 80.18 359.34 79.76 359.76 79.65 360.1 79.34 360.33 79.56 360.44 79.36 360.84 78.94 360.72 78.58 360.79 78.35 361.32 78.05 361.83 77.61 362.5 77.44 362.71 76.86 362.89 76.69 363.53 76.76 364.07 76.2 364.16 75.85 363.99 75.39 364.32 75.05 364.7 74.56 365.16 74.35 365.37 74.54 365.62 74.4 365.64 74.15 365.82 73.99 365.84 73.72 366.18 72.98 366.1 72.84 366.29 72.38 366.42 71.74 366.57 71.2 366.42 70.78 366.49 70.08 366.76 69.31 366.74 68.86 367.36 68.34 367.42 68.04 367.29 67.61 367.21 66.93 367.44 66.73 367.99 66.7 368.35 66.74 368.51 66.46 368.87 66.5 368.97 66.27 368.98 64.15 368.76 63.94 368.94 63.66 369.12 63.59 369.64 62.89 369.9 62.34 370.36 61.69 370.66 61.08 370.81 60.94 371.08 60.4 371.05 60.09 370.75 59.84 370.98 59.65 371.18 59.65 371.93 59.92 372.14 60.17 372.37 60.18 372.55 60.39 372.99 60.61 373.2 60.61 373.27 60.98 373.49 61.07 374.62 61.03 375.43 60.87 375.69 60.91 376.03 60.8 376.19 60.49 376.43 60.44 376.5 60.24 376.89 60.13 378.14 59.48 379.33 59.24 379.96 58.94 380.8 58.38 382.07 57.94 383.3 57.99 384.28 58.14 384.58 58.14 385 58.01 385.7 57.7 386.26 57.62 386.62 57.7 387.3 58.01 387.8 57.91 388.23 58.23 388.65 58.82 388.97 59.04 389.26 59.13 389.46 59.42 390.2 59.47 390.79 59.75 391.06 59.47 391.44 59.44 391.62 59.64 391.89 60.2 392.4 60.71 392.64 61.29 392.97 61.5 393.12 61.74 393.34 62.49 393.7 62.67 394.68 62.86 394.87 62.84 395.05 62.62 395.08 62.2 395.24 62.15 395.71 61.7 396.43 61.48 396.79 61.64 397.36 61.32 397.47 61.08 397.71 61.12 397.95 60.94 Z" fill="#0D9488" id="64"/>
</g>
</svg>