<svg width="1498" height="1428" viewBox="0 0 1498 1428" fill="none" xmlns="http://www.w3.org/2000/svg">
<mask id="path-1-outside-1_0_246" maskUnits="userSpaceOnUse" x="0.431152" y="-0.921021" width="1497" height="1429" fill="black">
<rect fill="white" x="0.431152" y="-0.921021" width="1497" height="1429"/>
<path d="M26.9392 424.406L26.1226 400.099L19.3277 387.055L12.5387 382.966L15.1613 366.84L3.43115 353.181L30.2115 334.275L39.8556 317.451L37.1435 283.373L21.2827 255.981L39.5456 253.087L37.382 241.587L58.9052 207.818L61.951 159.982L115.077 121.29L132.779 84.7192L149.439 71.2724L156.961 78.711L165.121 76.7948L169.251 87.2137L165.228 76.0557L156.687 76.9468L167.016 69.8449L161.288 66.2954L168.917 67.1954L171.564 62.433L161.294 65.5384L156.341 75.5341L150.81 67.7617L159.762 63.1274L161.765 56.41L129.406 84.9606L141.249 70.3873L141.565 39.9472L210.843 26.6881L226.722 1.07898L220.136 26.8729L197.307 45.7139L214.461 76.604L236.914 84.7013L231.598 129.724L270.257 171.352L280.176 167.751L278.536 183.872L304.524 184.569L314.317 192.222L319.729 218.818L342.731 229.812L337.128 244.91L378.219 252.199L383.375 268.862L392.328 270.704L402.818 288.621L402.127 302.422L434.897 303.57L448.988 326.586L483.404 341.988L498.352 337.213L502.107 327.245L510.369 335.41L534.687 328.89L538.508 321.213L548.659 328.326L548.551 316.808L562.111 315.8L578.288 294.203L668.559 278.676L712.571 297.77L736.962 291.926L757.323 314.811L758.89 303.951L788.299 288.907L804.732 298.423L844.62 300.372L865.785 268.132L921.516 260.246L929.026 218.159L942.872 194.27L935.153 187.567L937.805 177.914L1000.41 155.938L1018.24 140.602L1114.5 152.4L1125.59 139.019L1157.51 140.771L1176.7 153.235L1167.58 170.452L1152.82 177.071L1151.64 188.393L1186.05 179.309L1206.81 196.412L1248.18 196.731L1276.78 223.05L1308.5 212.16L1333.74 241.012L1383.14 218.108L1387.61 198.186L1430.16 176.221L1474.9 172.854L1493.49 188.533L1478.34 196.317L1481.97 227.502L1469.75 258.634L1433.47 261.459L1421.1 284.1L1407.96 287.14L1414.64 305.236L1401.93 331.575L1415.5 350.52L1405.88 360.933L1407.56 374.413L1393.94 383.333L1374.18 422.448L1345.92 439.108L1341.87 456.453L1284.85 503.221L1254.38 501.996L1234.26 512.49L1275.47 544.748L1273.01 565.735L1281.27 575.584L1274.91 592.22L1281.61 597.933L1269.39 614.217L1272.62 624.538L1257.85 640.509L1238.87 646.97L1216.76 673.479L1233.05 697.142L1219.56 719.36L1199.55 703.362L1176.32 718.37L1156.92 715.014L1116.25 738.442L1090.68 737.503L1087.85 751.832L1075.42 752.404L1073.27 760.552L1016.84 771.943L1013.35 782.797L1001.52 766.406L965.158 783.16L948.862 756.017L935.946 750.634L922.1 768.516L925.038 782.04L887.535 774.941L889.24 800.69L868.467 806.99L855.67 794.491L858.698 821.653L845.824 819.579L840.638 830.886L806.336 836.346L776.956 853.083L776.533 870.231L757.263 887.999L762.723 912.884L717.024 924.191L680.754 975.248L664.471 970.611L660.727 979.719L654.731 977.144L656.591 999.99L644.193 988.51L632.946 993.97L636.331 1010.67L624.869 1013.5L619.624 1006.09L607.131 1013.54L598.822 1006.47L563.894 1032.28L564.394 1045.02L579.397 1056.68L596.968 1042.66L604.806 1051.35L596.193 1122.55L604.592 1132.71L626.943 1133.55L625.9 1148.75L613.753 1155.61L625.376 1179.11L612.263 1202.91L632.093 1253.15L641.296 1305.19L636.373 1316.69L651.25 1328.29L642.119 1343.5L606.684 1356.17L594.84 1373.3L541.101 1391.99L527.588 1413.83L509.069 1424.88L495.265 1410.51L505.457 1410.15L491.337 1372.56L497.691 1367.22L457.928 1376.21L410.871 1412.22L397.263 1401.73L387.929 1381.84L397.77 1347.54L386.23 1340.9L385.056 1315.36L366.954 1307.76L380.431 1281.2L393.544 1291.54L400.797 1288.1L403.802 1280.13L425.968 1285.13L426.35 1282.04L403.986 1277.04L408.296 1266.29L420.95 1264.51L425.504 1259.49L420.64 1243.04L428.204 1233.69L435.38 1233.24L436.459 1220.57L432.43 1216.22L434.993 1233.24L427.971 1233.46L420.026 1242.5L424.961 1259.34L407.831 1265.21L399.015 1287.69L379.96 1279.23L366.531 1254.03L364.546 1220.75L354.097 1204.72L342.909 1203.52L351.165 1197.63L356.946 1146.39L362.77 1143.66L355.754 1142.47L344.256 1116.18L298.152 1087.73L304.822 1086.45L301.156 1072.15L310.002 1073.46L333.528 1045.7L335.53 1002.46L346.259 970.051L343.094 954.536L299.213 914.577L313.477 888.845L275.431 882.933L259.683 855.55L251.422 854.102L250.039 835.142L261.805 836.525L256.036 820.229L247.87 821.325L245.718 808.904L224.344 800.881L223.342 788.34L235.919 786.761L216.166 783.548L230.674 780.431L222.729 783.131L208.525 778.809L233.13 773.832L201.122 776.187L227.89 769.594L209.836 767.544L216.643 759.05L239.853 749.102L258.217 749.412L258.915 740.46L257.913 749.102L240.085 748.637L232.677 753.889L240.783 738.222L231.61 754.246L217.555 757.978L218.789 751.957L211.064 762.132L187.615 756.434L178.353 746.665L175.766 753.489L160.96 753.871L153.79 743.553L163.863 744.012L168.989 738.88L170.938 741.977L177.727 731.394L164.113 743.312L155.179 741.592L160.483 726.459L151.519 742.069L138.805 740.945L118.009 747.767L96.319 728.685L101.57 736.278L93.2494 739.208L83.6232 730.264L75.5289 676.429L93.0467 682.417L80.0589 675.219L72.0957 657.651L104.95 640.056L98.286 633.186L101.683 606.305L91.95 591.204L94.8885 570.822L144.545 586.042L96.7005 558.862L71.8692 509.891L25.0378 489.53L33.0606 466.15L22.1053 445.932L26.9392 424.406Z"/>
</mask>
<path d="M26.9392 424.406L26.1226 400.099L19.3277 387.055L12.5387 382.966L15.1613 366.84L3.43115 353.181L30.2115 334.275L39.8556 317.451L37.1435 283.373L21.2827 255.981L39.5456 253.087L37.382 241.587L58.9052 207.818L61.951 159.982L115.077 121.29L132.779 84.7192L149.439 71.2724L156.961 78.711L165.121 76.7948L169.251 87.2137L165.228 76.0557L156.687 76.9468L167.016 69.8449L161.288 66.2954L168.917 67.1954L171.564 62.433L161.294 65.5384L156.341 75.5341L150.81 67.7617L159.762 63.1274L161.765 56.41L129.406 84.9606L141.249 70.3873L141.565 39.9472L210.843 26.6881L226.722 1.07898L220.136 26.8729L197.307 45.7139L214.461 76.604L236.914 84.7013L231.598 129.724L270.257 171.352L280.176 167.751L278.536 183.872L304.524 184.569L314.317 192.222L319.729 218.818L342.731 229.812L337.128 244.91L378.219 252.199L383.375 268.862L392.328 270.704L402.818 288.621L402.127 302.422L434.897 303.57L448.988 326.586L483.404 341.988L498.352 337.213L502.107 327.245L510.369 335.41L534.687 328.89L538.508 321.213L548.659 328.326L548.551 316.808L562.111 315.8L578.288 294.203L668.559 278.676L712.571 297.77L736.962 291.926L757.323 314.811L758.89 303.951L788.299 288.907L804.732 298.423L844.62 300.372L865.785 268.132L921.516 260.246L929.026 218.159L942.872 194.27L935.153 187.567L937.805 177.914L1000.41 155.938L1018.24 140.602L1114.5 152.4L1125.59 139.019L1157.51 140.771L1176.7 153.235L1167.58 170.452L1152.82 177.071L1151.64 188.393L1186.05 179.309L1206.81 196.412L1248.18 196.731L1276.78 223.05L1308.5 212.16L1333.74 241.012L1383.14 218.108L1387.61 198.186L1430.16 176.221L1474.9 172.854L1493.49 188.533L1478.34 196.317L1481.97 227.502L1469.75 258.634L1433.47 261.459L1421.1 284.1L1407.96 287.14L1414.64 305.236L1401.93 331.575L1415.5 350.52L1405.88 360.933L1407.56 374.413L1393.94 383.333L1374.18 422.448L1345.92 439.108L1341.87 456.453L1284.85 503.221L1254.38 501.996L1234.26 512.49L1275.47 544.748L1273.01 565.735L1281.27 575.584L1274.91 592.22L1281.61 597.933L1269.39 614.217L1272.62 624.538L1257.85 640.509L1238.87 646.97L1216.76 673.479L1233.05 697.142L1219.56 719.36L1199.55 703.362L1176.32 718.37L1156.92 715.014L1116.25 738.442L1090.68 737.503L1087.85 751.832L1075.42 752.404L1073.27 760.552L1016.84 771.943L1013.35 782.797L1001.52 766.406L965.158 783.16L948.862 756.017L935.946 750.634L922.1 768.516L925.038 782.04L887.535 774.941L889.24 800.69L868.467 806.99L855.67 794.491L858.698 821.653L845.824 819.579L840.638 830.886L806.336 836.346L776.956 853.083L776.533 870.231L757.263 887.999L762.723 912.884L717.024 924.191L680.754 975.248L664.471 970.611L660.727 979.719L654.731 977.144L656.591 999.99L644.193 988.51L632.946 993.97L636.331 1010.67L624.869 1013.5L619.624 1006.09L607.131 1013.54L598.822 1006.47L563.894 1032.28L564.394 1045.02L579.397 1056.68L596.968 1042.66L604.806 1051.35L596.193 1122.55L604.592 1132.71L626.943 1133.55L625.9 1148.75L613.753 1155.61L625.376 1179.11L612.263 1202.91L632.093 1253.15L641.296 1305.19L636.373 1316.69L651.25 1328.29L642.119 1343.5L606.684 1356.17L594.84 1373.3L541.101 1391.99L527.588 1413.83L509.069 1424.88L495.265 1410.51L505.457 1410.15L491.337 1372.56L497.691 1367.22L457.928 1376.21L410.871 1412.22L397.263 1401.73L387.929 1381.84L397.77 1347.54L386.23 1340.9L385.056 1315.36L366.954 1307.76L380.431 1281.2L393.544 1291.54L400.797 1288.1L403.802 1280.13L425.968 1285.13L426.35 1282.04L403.986 1277.04L408.296 1266.29L420.95 1264.51L425.504 1259.49L420.64 1243.04L428.204 1233.69L435.38 1233.24L436.459 1220.57L432.43 1216.22L434.993 1233.24L427.971 1233.46L420.026 1242.5L424.961 1259.34L407.831 1265.21L399.015 1287.69L379.96 1279.23L366.531 1254.03L364.546 1220.75L354.097 1204.72L342.909 1203.52L351.165 1197.63L356.946 1146.39L362.77 1143.66L355.754 1142.47L344.256 1116.18L298.152 1087.73L304.822 1086.45L301.156 1072.15L310.002 1073.46L333.528 1045.7L335.53 1002.46L346.259 970.051L343.094 954.536L299.213 914.577L313.477 888.845L275.431 882.933L259.683 855.55L251.422 854.102L250.039 835.142L261.805 836.525L256.036 820.229L247.87 821.325L245.718 808.904L224.344 800.881L223.342 788.34L235.919 786.761L216.166 783.548L230.674 780.431L222.729 783.131L208.525 778.809L233.13 773.832L201.122 776.187L227.89 769.594L209.836 767.544L216.643 759.05L239.853 749.102L258.217 749.412L258.915 740.46L257.913 749.102L240.085 748.637L232.677 753.889L240.783 738.222L231.61 754.246L217.555 757.978L218.789 751.957L211.064 762.132L187.615 756.434L178.353 746.665L175.766 753.489L160.96 753.871L153.79 743.553L163.863 744.012L168.989 738.88L170.938 741.977L177.727 731.394L164.113 743.312L155.179 741.592L160.483 726.459L151.519 742.069L138.805 740.945L118.009 747.767L96.319 728.685L101.57 736.278L93.2494 739.208L83.6232 730.264L75.5289 676.429L93.0467 682.417L80.0589 675.219L72.0957 657.651L104.95 640.056L98.286 633.186L101.683 606.305L91.95 591.204L94.8885 570.822L144.545 586.042L96.7005 558.862L71.8692 509.891L25.0378 489.53L33.0606 466.15L22.1053 445.932L26.9392 424.406Z" fill="#0D9488"/>
<path d="M26.9392 424.406L26.1226 400.099L19.3277 387.055L12.5387 382.966L15.1613 366.84L3.43115 353.181L30.2115 334.275L39.8556 317.451L37.1435 283.373L21.2827 255.981L39.5456 253.087L37.382 241.587L58.9052 207.818L61.951 159.982L115.077 121.29L132.779 84.7192L149.439 71.2724L156.961 78.711L165.121 76.7948L169.251 87.2137L165.228 76.0557L156.687 76.9468L167.016 69.8449L161.288 66.2954L168.917 67.1954L171.564 62.433L161.294 65.5384L156.341 75.5341L150.81 67.7617L159.762 63.1274L161.765 56.41L129.406 84.9606L141.249 70.3873L141.565 39.9472L210.843 26.6881L226.722 1.07898L220.136 26.8729L197.307 45.7139L214.461 76.604L236.914 84.7013L231.598 129.724L270.257 171.352L280.176 167.751L278.536 183.872L304.524 184.569L314.317 192.222L319.729 218.818L342.731 229.812L337.128 244.91L378.219 252.199L383.375 268.862L392.328 270.704L402.818 288.621L402.127 302.422L434.897 303.57L448.988 326.586L483.404 341.988L498.352 337.213L502.107 327.245L510.369 335.41L534.687 328.89L538.508 321.213L548.659 328.326L548.551 316.808L562.111 315.8L578.288 294.203L668.559 278.676L712.571 297.77L736.962 291.926L757.323 314.811L758.89 303.951L788.299 288.907L804.732 298.423L844.62 300.372L865.785 268.132L921.516 260.246L929.026 218.159L942.872 194.27L935.153 187.567L937.805 177.914L1000.41 155.938L1018.24 140.602L1114.5 152.4L1125.59 139.019L1157.51 140.771L1176.7 153.235L1167.58 170.452L1152.82 177.071L1151.64 188.393L1186.05 179.309L1206.81 196.412L1248.18 196.731L1276.78 223.05L1308.5 212.16L1333.74 241.012L1383.14 218.108L1387.61 198.186L1430.16 176.221L1474.9 172.854L1493.49 188.533L1478.34 196.317L1481.97 227.502L1469.75 258.634L1433.47 261.459L1421.1 284.1L1407.96 287.14L1414.64 305.236L1401.93 331.575L1415.5 350.52L1405.88 360.933L1407.56 374.413L1393.94 383.333L1374.18 422.448L1345.92 439.108L1341.87 456.453L1284.85 503.221L1254.38 501.996L1234.26 512.49L1275.47 544.748L1273.01 565.735L1281.27 575.584L1274.91 592.22L1281.61 597.933L1269.39 614.217L1272.62 624.538L1257.85 640.509L1238.87 646.97L1216.76 673.479L1233.05 697.142L1219.56 719.36L1199.55 703.362L1176.32 718.37L1156.92 715.014L1116.25 738.442L1090.68 737.503L1087.85 751.832L1075.42 752.404L1073.27 760.552L1016.84 771.943L1013.35 782.797L1001.52 766.406L965.158 783.16L948.862 756.017L935.946 750.634L922.1 768.516L925.038 782.04L887.535 774.941L889.24 800.69L868.467 806.99L855.67 794.491L858.698 821.653L845.824 819.579L840.638 830.886L806.336 836.346L776.956 853.083L776.533 870.231L757.263 887.999L762.723 912.884L717.024 924.191L680.754 975.248L664.471 970.611L660.727 979.719L654.731 977.144L656.591 999.99L644.193 988.51L632.946 993.97L636.331 1010.67L624.869 1013.5L619.624 1006.09L607.131 1013.54L598.822 1006.47L563.894 1032.28L564.394 1045.02L579.397 1056.68L596.968 1042.66L604.806 1051.35L596.193 1122.55L604.592 1132.71L626.943 1133.55L625.9 1148.75L613.753 1155.61L625.376 1179.11L612.263 1202.91L632.093 1253.15L641.296 1305.19L636.373 1316.69L651.25 1328.29L642.119 1343.5L606.684 1356.17L594.84 1373.3L541.101 1391.99L527.588 1413.83L509.069 1424.88L495.265 1410.51L505.457 1410.15L491.337 1372.56L497.691 1367.22L457.928 1376.21L410.871 1412.22L397.263 1401.73L387.929 1381.84L397.77 1347.54L386.23 1340.9L385.056 1315.36L366.954 1307.76L380.431 1281.2L393.544 1291.54L400.797 1288.1L403.802 1280.13L425.968 1285.13L426.35 1282.04L403.986 1277.04L408.296 1266.29L420.95 1264.51L425.504 1259.49L420.64 1243.04L428.204 1233.69L435.38 1233.24L436.459 1220.57L432.43 1216.22L434.993 1233.24L427.971 1233.46L420.026 1242.5L424.961 1259.34L407.831 1265.21L399.015 1287.69L379.96 1279.23L366.531 1254.03L364.546 1220.75L354.097 1204.72L342.909 1203.52L351.165 1197.63L356.946 1146.39L362.77 1143.66L355.754 1142.47L344.256 1116.18L298.152 1087.73L304.822 1086.45L301.156 1072.15L310.002 1073.46L333.528 1045.7L335.53 1002.46L346.259 970.051L343.094 954.536L299.213 914.577L313.477 888.845L275.431 882.933L259.683 855.55L251.422 854.102L250.039 835.142L261.805 836.525L256.036 820.229L247.87 821.325L245.718 808.904L224.344 800.881L223.342 788.34L235.919 786.761L216.166 783.548L230.674 780.431L222.729 783.131L208.525 778.809L233.13 773.832L201.122 776.187L227.89 769.594L209.836 767.544L216.643 759.05L239.853 749.102L258.217 749.412L258.915 740.46L257.913 749.102L240.085 748.637L232.677 753.889L240.783 738.222L231.61 754.246L217.555 757.978L218.789 751.957L211.064 762.132L187.615 756.434L178.353 746.665L175.766 753.489L160.96 753.871L153.79 743.553L163.863 744.012L168.989 738.88L170.938 741.977L177.727 731.394L164.113 743.312L155.179 741.592L160.483 726.459L151.519 742.069L138.805 740.945L118.009 747.767L96.319 728.685L101.57 736.278L93.2494 739.208L83.6232 730.264L75.5289 676.429L93.0467 682.417L80.0589 675.219L72.0957 657.651L104.95 640.056L98.286 633.186L101.683 606.305L91.95 591.204L94.8885 570.822L144.545 586.042L96.7005 558.862L71.8692 509.891L25.0378 489.53L33.0606 466.15L22.1053 445.932L26.9392 424.406Z" stroke="black" stroke-width="4" mask="url(#path-1-outside-1_0_246)"/>
</svg>
