<svg width="944" height="927" viewBox="0 0 944 927" fill="none" xmlns="http://www.w3.org/2000/svg">
<mask id="path-1-outside-1_0_1089" maskUnits="userSpaceOnUse" x="-0.00488281" y="-0.755371" width="944" height="928" fill="black">
<rect fill="white" x="-0.00488281" y="-0.755371" width="944" height="928"/>
<path d="M568.721 22.3016L575.754 21.1393L579.819 18.2187L580.898 18.2962L584.683 20.5045L590.625 20.88L592.729 20.5105L598.583 16.9491L600.144 14.3354L601.879 8.61935L603.375 8.19913L604.859 8.93525L608.578 12.4221L611.582 16.213L613.728 19.9889L614.664 20.5969L615.945 20.579L619.832 18.7968L622.085 20.0277L625.625 23.6576L628.003 23.6546L632.301 21.8903L636.515 21.1184L638.929 19.5449L645.456 13.951L648.245 13.1165L652.185 15.754L657.842 16.1504L660.691 19.5568L662.413 20.4538L664.887 20.6744L673.106 19.9711L674.37 20.9039L675.425 24.2924L676.42 25.7825L678.167 26.3577L679.979 25.3653L682.214 20.5969L683.483 19.5091L685.504 18.8505L690.469 20.287L701.812 22.3821L704.768 21.932L709.739 19.4823L711.921 18.9697L721.177 21.9916L722.596 21.643L726.077 19.6879L729.516 21.0171L732.24 18.7283L732.276 15.6855L733.075 14.9017L736.621 13.6559L741.991 10.8217L743.857 13.2059L746.73 15.0775L750.098 19.077L757.191 25.5113L761.369 28.6465L770.035 33.8321L775.465 34.151L777.081 34.8245L778.04 38.5528L779.524 40.0727L790.933 46.9392L793.383 50.6347L793.347 51.4363L791.773 52.0115L791.535 52.8102L793.603 55.5133L794.962 58.2044L796.762 60.2042L801.161 63.6285L802.347 65.3391L803.015 65.5954L804.988 63.9176L806.162 63.694L810.155 66.558L811.264 66.8143L814.012 66.3971L818.416 68.7038L820.097 68.9899L820.926 68.4803L822.327 65.7623L823.155 65.6431L824.466 67.473L825.593 67.315L830.111 64.4182L831.953 63.846L834.73 63.9742L837.502 65.5746L838.307 67.0945L837.794 68.373L832.245 71.9076L826.886 73.6659L824.502 75.6656L822.225 79.2479L819.865 85.709L819.072 86.764L818.083 86.9071L812.158 84.9878L810.513 83.5632L807.896 83.4202L802.264 81.6112L788.513 75.0338L786.427 76.4256L786.17 78.2644L789.061 82.0403L790.259 85.0802L792.769 88.1826L798.02 90.1198L799.528 90.087L802.919 91.0317L804.374 91.8662L805.542 95.1444L803.724 98.1813L803.587 99.9903L805.613 102.488L807.366 103.224L808.308 103.111L809.494 102.583L811.663 100.506L813.124 100.363L817.725 104.699L820.264 106.058L822.261 106.49L824.776 108.937L826.505 112.331L826.636 115.318L827.655 117.669L831.732 123.001L832.763 125.26L833.991 124.649L835.04 125.561L838.259 132.379L839.689 134.042L843.17 136.012L843.945 135.917L845.262 136.909L847.056 137.291L848.439 139.246L852.361 140.507L856.54 140.825L860.462 140.262L862.649 139.428L863.317 139.651L864.509 142.006L864.556 143.093L862.935 148.932L863.364 151.343L869.796 156.174L872.764 160.414L874.081 160.254L876.495 161.151L876.811 162.319L875.762 167.218L876.209 168.261L879.398 170.821L883.189 171.57L888.541 175.092L889.066 175.539L889.429 177.125L889.209 180.278L890.794 180.403L892.416 182.021L892.493 182.614L891.539 183.654L889.912 183.681L885.686 182.167L884.47 182.364L884.017 181.929L879.303 181.097L877.997 182.722L878.254 185.63L894.842 191.418L897.065 192.586L900.528 193.367L901.082 193.674L901.887 195.465L903.27 196.055L903.806 197.417L903.127 198.779L899.86 198.457L893.381 202.656L888.935 203.091L887.093 204.978L886.425 207.332L884.774 208.504V209.144L885.823 209.91L882.599 213.963L882.676 215.084L880.107 216.607L878.295 216.35L877.979 216.926H876.978L874.504 216.288L872.824 216.464L871.709 214.577L871.125 214.738L871.167 217.122L869.885 218.082L865.665 218.916L863.394 220.761L862.774 220.904L862.363 220.249L861.791 220.183L861.123 221.226L857.726 222.815L856.248 223.005L853.792 222.895L847.009 221.107L841.632 220.579L838.992 220.952L832.883 218.425L826.612 214.124L817.868 207.183L816.122 205.198L813.565 200.704L809.225 195.918L806.18 195.793L798.479 198.582L796.607 200.156L795.594 202.174L792.512 203.971L791.368 206.307L791.654 207.3L792.369 207.86L797.99 208.158L800.624 206.811L802.454 208.73L803.784 209.356L806.627 207.639L808.099 207.541L808.737 208.283L808.701 212.345L809.184 214.622L810.817 217.003L813.612 218.246L817.743 217.027L817.505 218.949L816.14 221.974L811.139 228.191L809.869 228.352L805.87 226.337L803.694 225.78L801.709 227.327L800.326 229.538L799.707 231.475L801.519 233.239L802.138 236.249L799.122 237.966L796.315 238.318L793.985 237.522L792.393 235.713L790.986 237.373L790.378 239.701L796.571 241.825L800.583 241.599L808.457 242.201L814.536 244.114L823.423 248.239L830.188 249.628L833.365 251.177L841.632 254.116L844.279 255.669L845.155 257.156L845.644 259.972L845.423 260.786L843.492 262.47L842.509 262.791L838.73 263.015L834.951 262.252L833.413 262.651L830.504 262.464L826.368 263.379L824.383 262.657L823.209 259.841L822.16 258.646L820.938 258.902L819.305 258.422L817.32 260.008V261.575L816.891 262.264L811.86 265.471L809.637 267.712L808.987 269.89L808.814 273.875L807.515 274.101L800.779 268.505L792.035 266.254L790.986 265.134L789.228 265.679L779.608 263.927L774.434 261.212L764.766 257.844L764.289 257.269L762.627 257.26L761.399 257.752L760.433 260.67L760.648 263.006L761.5 264.824L763.36 265.706L763.527 267.253L765.041 268.952L772.36 269.616L773.659 271.297L775.185 272.096L776.502 271.839L786.069 276.247L793.818 278.512L795.498 279.391L796.422 280.673L796.72 283.167L795.105 290.388L795.457 294.659L794.885 296.82L795.433 298.638L796.327 299.46L797.871 299.541L803.885 302.077L811.52 303.785L814.614 305.015L818.583 310.115L819.513 312.484L818.852 315.205L816.616 317.702L814.834 317.926L810.078 316.862L800.988 318.149L799.158 317.348L795.445 319.61L791.624 323.678L788.608 324.879L786.689 324.593L785.342 322.05L784.352 321.392L782.976 322.885L779.679 328.392L777.581 330.553L771.269 331.65L770.316 330.624L767.496 332.454L765.523 334.901L762.048 334.713L761.542 334.266L760.302 334.868L758.925 335.935L759.158 337.068L762.358 345.213L763.467 345.851L765.088 345.561L766.96 343.624L768.271 343.043L773.385 343.794L776.002 343.583L780.824 346.697L782.332 347.111L783.822 348.858L784.823 349.063L786.76 347.907L788.775 345.922L789.27 346.289L789.979 345.985L791.195 346.709L792.375 345.985L793.025 346.128L795.6 348.652L796.786 349.033L797.978 351.179L801.691 354.615L802.836 357.718L802.436 358.359L801.632 358.502L799.665 358.201L799.128 358.871L799.367 359.595L801.346 361.783L805.631 364.981L806.376 366.915L805.345 367.973L801.077 369.174L796.553 372.589L795.141 377.071L795.713 378.541L796.577 379.307L804.654 378.496L807.622 376.785L810.793 375.823L823.244 375.06L825.194 375.715L826.463 377.945L830.433 380.958L833.032 380.746L839.379 378.15L846.139 377.891L847.009 379.828L846.884 381.199L844.517 380.388L843.564 381.557L844.869 382.132L845.566 383.667L845.596 385.97L844.839 389.106L844.172 389.538L840.899 389.86L840.488 391.511L838.33 394.536L834.641 397.99L831.744 399.727L830.308 401.214L829.014 403.473L827.363 404.993L818.273 410.352L817.51 410.224L816.414 407.842L814.727 406.418L814.22 407.026L816.014 409.213L816.444 410.542L814.536 410.766L812.104 409.475L812.408 410.495L814.202 411.279L817.91 411.6L825.378 409.568L831.38 406.823L834.116 407.759L834.486 405.968L834.164 403.986L835.851 402.29L839.916 402.019L840.935 400.645L842.974 400.052L845.34 399.796L848.219 400.451L851.426 399.572L855.276 397.701L857.94 397.364L858.417 397.668L859.502 399.173L859.931 401.22L858.983 404.019L859.085 404.913L863.072 405.378L865.886 407.458L865.629 409.967L855.812 412.62L850.436 413.099L847.343 414.107L838.903 415.004L833.067 416.202L830.731 415.788L826.427 417.752L826.457 419.015L827.202 419.978L829.479 419.96L834.212 421.224L841.889 421.078L843.999 421.7L846.973 421.814L850.99 423.223L853.601 423.605L858.191 423.7L862.071 423.238L865.802 423.942L871.715 423.781L872.973 424.964L873.372 426.037L872.698 428.85L872.853 430.304L870.284 433.44L863.972 433.389L863.305 432.385L861.272 434.125L858.048 435.308L856.885 436.238L856.456 437.817L853.243 440.425L851.002 444.085L850.162 444.469L846.317 444.63L841.68 443.191L840.196 444.621L839.534 446.293L842.932 448.993L843.742 450.74L844.362 451.103L848.082 451.553L850.049 452.275L852.755 451.935L860.617 453.89L865.254 454.319L871.53 456.748L873.724 456.495L876.424 458.22L877.681 460.348L879.35 461.403L880.781 463.29L883.499 463.337L885.674 464.374L888.738 464.505L889.453 465.176L892.63 472.084L892.785 477.598L891.194 484.95L890.955 488.356L891.402 491.924L893.167 496.573L896.898 502.167L904.486 507.54L913.432 518.427L913.975 518.814L914.446 518.412L917.163 521.833L919.178 522.87L922.182 527.585L924.817 530.398L930.867 538.63L935.104 543.252L941.351 547.487L940.296 549.946L935.414 555.683L925.043 564.397L921.646 567.982L919.011 571.576L917.038 574.855L916.168 577.507L915.453 581.664L915.804 584.94L915.328 587.16L914.487 588.501L913.075 589.607L911.179 589.896L905.123 585.858L900.319 583.56L896.665 582.362L888.422 580.651L881.18 577.745L875.446 574.691L871.572 571.862L866.625 567.762L859.436 560.391L850.192 547.952L845.65 540.725L842.473 537.175L839.791 535.325L827.637 536.49L822.887 536.314L813.69 535.068L802.019 531.477L792.292 527.174L787.196 520.829L783.566 514.886L778.583 510.893L772.998 507.433L769.356 505.82L763.586 504.324L756.749 504.187L750.861 503.552L747.284 503.94L740.859 503.645L735.775 504.61L733.009 505.555L721.994 511.131L706.777 511.34L700.721 512.305L694.284 514.025L689.45 516.093L688.18 517.038L676.617 527.651L674.298 530.196L673.226 532.175L671.938 532.997L663.099 534.544L658.104 536.314L652.775 537.199L647.667 538.838L631.157 550.578L609.335 556.69L600.275 557.983L586.286 558.594L584.546 558.454L574.21 555.59L567.451 554.86L556.782 554.911L550.404 553.722L547.948 552.78L543.21 549.219L539.204 543.753L537.077 539.706L536.409 538.922L534.621 538.943L532.57 540.448L531.229 542.579L530.127 545.621L528.947 552.476L525.007 560.275L511.935 574.461L507.507 576.294L499.323 576.78L486.806 579.834L484.613 581.25L480.673 587.804L477.126 595.606L473.49 611.356L470.808 636.009L466.749 657.312L465.325 661.988L464.794 662.9L457.82 666.372L451.788 670.368L448.617 675.273L445.065 683.067L444.266 688.211L444.368 696.528L446.573 703.455L449.559 707.943L450.852 708.935L449.404 712.291L443.634 722.862L435.975 732.533L430.921 740.952L425.437 748.259L418.732 759.763L410.399 771.216L403.145 782.225L400.284 785.891L392.744 793.633L385.401 802.553L379.238 813.503L377.557 818.214L376.764 822.351L373.599 826.35L370.482 828.761L366.709 830.734L362.822 831.736L356.188 832.391L352.183 834.799L349.215 835.854L331.482 840.167L305.894 844.667L299.296 846.276L281.683 848.92L260.469 849.73L259.081 850.282L257.745 852.058L255.826 858.498L255.588 891.716L254.127 904.388L252.286 915.12L250.092 920.108L248.37 921.625L237.343 922.904L217.727 924.153L197.592 924.668L178.978 923.616L166.395 923.44L156.09 922.502L152.883 921.703L146.648 918.055L141.224 907.633L138.256 904.754L130.74 895.799L124.153 889.314L117.317 884.37L95.5671 871.611L81.6792 866.142L64.7038 861.756L48.3423 856.135L39.95 853.813L27.0337 851.268L25.2276 850.666L23.2667 849.349L15.5121 838.328L5.83826 826.005L4.36006 823.275L2.99512 819.293L7.28069 813.607L8.69928 809.655L9.33705 805.957L9.17016 804.723L7.19128 801.492L6.94691 799.427L7.51911 796.915L9.47414 793.49L9.65296 788.91L10.8093 787.712L20.352 783.229L22.9806 781.286L25.9906 776.44L28.792 768.552L34.3233 764.421L36.4035 761L37.238 756.228L36.9221 750.62L38.8533 745.661L37.3214 741.712L36.6241 738.168L36.5525 736.803L37.8698 731.281L36.8088 727.541L34.0372 724.856L33.4889 722.948L40.9812 717.044L41.5295 714.645L40.3136 711.161L40.4745 710.425L41.4461 709.37L43.9137 708.098L47.2218 707.484L50.5835 708.136L55.2565 711.6L58.034 711.835L60.6447 710.562L62.7667 705.746L65.5681 703.383L68.7212 699.276L70.2947 698.931L76.2254 699.303L77.8824 698.877L84.1468 693.194L83.5389 691.331L77.03 685.394L76.6307 680.361L77.1969 678.292L78.5082 676.65L88.2894 667.799L87.5503 664.464L86.7992 663.522L84.2422 661.976L81.9892 661.12L80.511 661.049L78.7407 661.511L74.3955 664.661L70.5868 666.696L68.9238 666.917L67.7794 666.425L63.8693 658.346L64.7098 657.085L67.4516 655.41L67.4993 654.635L64.9422 652.141L63.9707 649.891L64.4773 648.407L67.0165 646.008L67.1416 644.559L66.5456 641.937L66.1641 640.795L64.5488 639.728L62.0276 639.838L60.4421 639.234L59.5003 638.113L58.4334 635.493L57.7599 630.379L58.4692 622.902L59.7745 617.74L60.2931 612.724L62.4448 607.914L62.3792 605.047L63.1362 603.045L64.7038 601.763L66.8913 600.914L68.0655 601.084L69.1801 602.234L70.1338 602.55L75.6353 599.987L78.0612 599.394L84.6594 598.562L92.0981 599.275L94.9055 598.306L99.501 593.013L105.146 591.368L106.445 589.654L106.665 586.927L105.998 585.95L103 584.066L102.237 582.526L102.136 581.14L103.572 574.011L104.663 571.493L106.516 569.144L107.595 568.396L109.908 568.304L111.613 569.517L113.472 572.145L114.39 572.804L116.011 572.986L118.163 570.572L119.719 569.547L122.842 568.787L123.635 568.221L125.173 565.115L127.497 562.701L129.846 563.315L131.115 562.889L130.466 560.299L132.051 558.18L135.031 557.808L142.16 558.907L143.155 558.401L143.74 557.125L144.401 552.336L145.844 549.073L148.663 545.639L152.042 543.428L155.243 540.412L163.367 538.672L172.463 539.905L181.535 535.322L184.527 532.193L185.093 526.375L184.283 523.559L183.728 522.951L179.186 521.753L177.47 520.766L176.927 519.223L176.689 514.889L171.885 510.291L166.056 502.447L164.542 501.779L162.992 501.773L158.402 503.442L154.57 506.917L150.076 507.284L149.301 507.03L147.96 503.701L144.687 500.563L144.24 498.859L144.526 497.374L145.474 496.355L148.329 494.805L149.283 493.622L151.095 486.696L149.742 482.05L151.089 479.091L150.564 478.194L148.436 477.467L147.703 476.599L147.143 474.039L147.411 469.929L148.961 467.906L155.511 464.24L157.413 461.615L157.759 460.551L157.133 454.674L158.134 452.072L159.809 450.126L160.268 448.901L159.523 446.678L157.788 445.048L156.614 444.681L152.68 445.256L150.88 444.672L147.876 442.726L144.228 441.069L143.62 439.719L144.109 438.798L149.092 437.254L150.38 436.47L159.284 425.518L159.6 424.114L158.653 417.126L160.19 414.247L162.992 411.311L164.965 409.928L170.037 408.367L172.97 404.364L175.539 402.269L181.922 401.038L185.397 399.226L184.61 396.103L186.405 393.579L190.082 389.797L192.818 384.561L195.023 381.837L196.382 378.088L197.145 377.855L198.022 378.335L200.424 380.466L203.666 385.231L206.462 387.067L207.832 390.527L208.19 394.956L209.001 396.532L210.842 397.292L212.72 397.459L217.196 396.24L223.401 395.364L227.621 395.594L231.656 392.426L234.428 388.846L236.186 385.58L237.295 384.638L239.852 384.605L242.409 382.302L244.853 381.431L246.868 381.855L250.414 383.655L252.22 383.968L255.004 382.272L261.703 372.762L261.882 370.795L260.72 365.904L260.529 362.564L261.512 359.032L263.455 354.967L265.667 351.865L267.079 350.729L268.278 350.342L270.435 350.997L271.735 350.544L273.898 347.028L274.47 344.405L273.91 342.933L270.513 340.444L264.701 337.974L262.782 334.377L262.877 331.533L263.605 328.637L265.947 325.597L266.013 324.673L264.63 321.571L264.612 316.999L265.434 313.449L266.621 311.56L267.05 309.879L266.489 302.64L266.936 301.678L270.274 298.653L269.893 290.356L270.393 288.132L273.654 283.045L274.304 277.925L278.208 274.212L279.984 269.33L281.391 266.931L283.161 266.338L287.059 267.101L288.138 267.771L290.307 274.388L291.118 275.761L292.096 276.143L293.919 275.568L295.231 274.557L297.478 271.437L298.843 270.284L299.743 268.043L299.332 266.716L295.243 262.47L292.96 257.114L287.637 247.318L287.369 245.223L288.537 239.417L286.934 232.301L286.081 231.231L282.976 230.307L281.832 229.446L278.285 222.207L278.029 219.581L278.518 212.464L277.308 209.41L276.628 204.215L276.849 202.391L279.376 194.997L278.696 188.807L279.787 186.199L280.449 181.175L282.094 177.941L282.785 172.183L289.02 159.422L289.86 155.324L289.938 152.687L289.491 149.343L288.776 147.614L288.382 147.17L287.017 147.075L285.64 148.866L285.009 148.789L282.91 143.707L281.218 144.682L280.491 144.619L275.448 137.908L275.114 136.71L275.418 134.916L278.392 130.496L280.085 129.2L282.523 128.922L286.421 129.62L289.366 129.119L291.744 127.695L295.988 123.269L299.79 110.651L300.625 106.437L302.294 102.61L302.389 99.6982L304.779 95.0014L306.448 90.2807L306.305 84.1653L307.688 78.9945L308.928 71.0224L313.714 61.441L315.49 60.3472L319.579 61.3963L320.974 60.991L322.959 56.8723L324.705 55.9484L327.554 55.4865L328.615 54.506L331.852 47.6812L333.211 46.3997L338.492 46.7514L340.667 51.2605L341.764 52.5569L344.774 52.7715L346.64 51.937L348.1 50.4916L348.786 48.9687L348.994 44.3285L350.025 41.7327L353.667 39.3694L355.604 36.1328L360.647 33.3851L361.571 32.3748L361.237 30.086L359.163 25.5292L361.696 8.66703L362.173 7.36765L363.186 6.40503L367.668 5.77322L370.41 6.50338L374.147 13.1702L376.347 15.4351L378.01 16.2338L386.342 16.1683L395.533 17.7478L396.535 18.2604L399.891 20.877L402.597 22.1019L403.956 23.2076L404.844 25.3146L405.613 31.2214L406.721 33.397L411.692 36.2193L414.875 38.7733L416.318 39.1399L417.349 39.0416L418.773 37.5157L424.352 26.316L427.541 21.8605L435.844 20.725L438.872 18.8296L440.416 15.3219L440.899 9.53726L441.465 8.30642L442.591 7.51964L444.856 7.70441L453.082 10.2853L457.582 9.47467L464.967 10.3747L466.552 10.9648L469.258 13.4414L470.838 13.9987L472.996 13.7215L477.15 11.683L481.829 11.7516L487.867 8.60444L490.74 7.62395L493.255 7.42725L494.763 7.79382L499.848 10.9231L502.697 14.3295L506.672 15.3129L510.213 21.8248L514.278 23.3387L515.243 25.1954L515.822 31.7728L516.579 33.0364L518.909 34.0407L524.995 32.2884L527.504 30.7327L528.488 28.9386L530.085 23.1539L531.051 22.0155L531.778 21.9529L534.978 24.7007L536.117 25.1L541.106 24.9004L544.235 23.7589L544.724 21.9976L543.085 18.1561L542.691 15.7868L544.235 11.3969L545.648 9.79654L550.47 6.63451L551.316 5.51394L552.443 2.3251L553.235 2.24463L557.062 9.54024L559.005 10.7055L563.16 11.084L564.805 12.6188L565.532 14.4427L566.438 20.5105L567.058 21.5655L568.721 22.3016Z"/>
</mask>
<path d="M568.721 22.3016L575.754 21.1393L579.819 18.2187L580.898 18.2962L584.683 20.5045L590.625 20.88L592.729 20.5105L598.583 16.9491L600.144 14.3354L601.879 8.61935L603.375 8.19913L604.859 8.93525L608.578 12.4221L611.582 16.213L613.728 19.9889L614.664 20.5969L615.945 20.579L619.832 18.7968L622.085 20.0277L625.625 23.6576L628.003 23.6546L632.301 21.8903L636.515 21.1184L638.929 19.5449L645.456 13.951L648.245 13.1165L652.185 15.754L657.842 16.1504L660.691 19.5568L662.413 20.4538L664.887 20.6744L673.106 19.9711L674.37 20.9039L675.425 24.2924L676.42 25.7825L678.167 26.3577L679.979 25.3653L682.214 20.5969L683.483 19.5091L685.504 18.8505L690.469 20.287L701.812 22.3821L704.768 21.932L709.739 19.4823L711.921 18.9697L721.177 21.9916L722.596 21.643L726.077 19.6879L729.516 21.0171L732.24 18.7283L732.276 15.6855L733.075 14.9017L736.621 13.6559L741.991 10.8217L743.857 13.2059L746.73 15.0775L750.098 19.077L757.191 25.5113L761.369 28.6465L770.035 33.8321L775.465 34.151L777.081 34.8245L778.04 38.5528L779.524 40.0727L790.933 46.9392L793.383 50.6347L793.347 51.4363L791.773 52.0115L791.535 52.8102L793.603 55.5133L794.962 58.2044L796.762 60.2042L801.161 63.6285L802.347 65.3391L803.015 65.5954L804.988 63.9176L806.162 63.694L810.155 66.558L811.264 66.8143L814.012 66.3971L818.416 68.7038L820.097 68.9899L820.926 68.4803L822.327 65.7623L823.155 65.6431L824.466 67.473L825.593 67.315L830.111 64.4182L831.953 63.846L834.73 63.9742L837.502 65.5746L838.307 67.0945L837.794 68.373L832.245 71.9076L826.886 73.6659L824.502 75.6656L822.225 79.2479L819.865 85.709L819.072 86.764L818.083 86.9071L812.158 84.9878L810.513 83.5632L807.896 83.4202L802.264 81.6112L788.513 75.0338L786.427 76.4256L786.17 78.2644L789.061 82.0403L790.259 85.0802L792.769 88.1826L798.02 90.1198L799.528 90.087L802.919 91.0317L804.374 91.8662L805.542 95.1444L803.724 98.1813L803.587 99.9903L805.613 102.488L807.366 103.224L808.308 103.111L809.494 102.583L811.663 100.506L813.124 100.363L817.725 104.699L820.264 106.058L822.261 106.49L824.776 108.937L826.505 112.331L826.636 115.318L827.655 117.669L831.732 123.001L832.763 125.26L833.991 124.649L835.04 125.561L838.259 132.379L839.689 134.042L843.17 136.012L843.945 135.917L845.262 136.909L847.056 137.291L848.439 139.246L852.361 140.507L856.54 140.825L860.462 140.262L862.649 139.428L863.317 139.651L864.509 142.006L864.556 143.093L862.935 148.932L863.364 151.343L869.796 156.174L872.764 160.414L874.081 160.254L876.495 161.151L876.811 162.319L875.762 167.218L876.209 168.261L879.398 170.821L883.189 171.57L888.541 175.092L889.066 175.539L889.429 177.125L889.209 180.278L890.794 180.403L892.416 182.021L892.493 182.614L891.539 183.654L889.912 183.681L885.686 182.167L884.47 182.364L884.017 181.929L879.303 181.097L877.997 182.722L878.254 185.63L894.842 191.418L897.065 192.586L900.528 193.367L901.082 193.674L901.887 195.465L903.27 196.055L903.806 197.417L903.127 198.779L899.86 198.457L893.381 202.656L888.935 203.091L887.093 204.978L886.425 207.332L884.774 208.504V209.144L885.823 209.91L882.599 213.963L882.676 215.084L880.107 216.607L878.295 216.35L877.979 216.926H876.978L874.504 216.288L872.824 216.464L871.709 214.577L871.125 214.738L871.167 217.122L869.885 218.082L865.665 218.916L863.394 220.761L862.774 220.904L862.363 220.249L861.791 220.183L861.123 221.226L857.726 222.815L856.248 223.005L853.792 222.895L847.009 221.107L841.632 220.579L838.992 220.952L832.883 218.425L826.612 214.124L817.868 207.183L816.122 205.198L813.565 200.704L809.225 195.918L806.18 195.793L798.479 198.582L796.607 200.156L795.594 202.174L792.512 203.971L791.368 206.307L791.654 207.3L792.369 207.86L797.99 208.158L800.624 206.811L802.454 208.73L803.784 209.356L806.627 207.639L808.099 207.541L808.737 208.283L808.701 212.345L809.184 214.622L810.817 217.003L813.612 218.246L817.743 217.027L817.505 218.949L816.14 221.974L811.139 228.191L809.869 228.352L805.87 226.337L803.694 225.78L801.709 227.327L800.326 229.538L799.707 231.475L801.519 233.239L802.138 236.249L799.122 237.966L796.315 238.318L793.985 237.522L792.393 235.713L790.986 237.373L790.378 239.701L796.571 241.825L800.583 241.599L808.457 242.201L814.536 244.114L823.423 248.239L830.188 249.628L833.365 251.177L841.632 254.116L844.279 255.669L845.155 257.156L845.644 259.972L845.423 260.786L843.492 262.47L842.509 262.791L838.73 263.015L834.951 262.252L833.413 262.651L830.504 262.464L826.368 263.379L824.383 262.657L823.209 259.841L822.16 258.646L820.938 258.902L819.305 258.422L817.32 260.008V261.575L816.891 262.264L811.86 265.471L809.637 267.712L808.987 269.89L808.814 273.875L807.515 274.101L800.779 268.505L792.035 266.254L790.986 265.134L789.228 265.679L779.608 263.927L774.434 261.212L764.766 257.844L764.289 257.269L762.627 257.26L761.399 257.752L760.433 260.67L760.648 263.006L761.5 264.824L763.36 265.706L763.527 267.253L765.041 268.952L772.36 269.616L773.659 271.297L775.185 272.096L776.502 271.839L786.069 276.247L793.818 278.512L795.498 279.391L796.422 280.673L796.72 283.167L795.105 290.388L795.457 294.659L794.885 296.82L795.433 298.638L796.327 299.46L797.871 299.541L803.885 302.077L811.52 303.785L814.614 305.015L818.583 310.115L819.513 312.484L818.852 315.205L816.616 317.702L814.834 317.926L810.078 316.862L800.988 318.149L799.158 317.348L795.445 319.61L791.624 323.678L788.608 324.879L786.689 324.593L785.342 322.05L784.352 321.392L782.976 322.885L779.679 328.392L777.581 330.553L771.269 331.65L770.316 330.624L767.496 332.454L765.523 334.901L762.048 334.713L761.542 334.266L760.302 334.868L758.925 335.935L759.158 337.068L762.358 345.213L763.467 345.851L765.088 345.561L766.96 343.624L768.271 343.043L773.385 343.794L776.002 343.583L780.824 346.697L782.332 347.111L783.822 348.858L784.823 349.063L786.76 347.907L788.775 345.922L789.27 346.289L789.979 345.985L791.195 346.709L792.375 345.985L793.025 346.128L795.6 348.652L796.786 349.033L797.978 351.179L801.691 354.615L802.836 357.718L802.436 358.359L801.632 358.502L799.665 358.201L799.128 358.871L799.367 359.595L801.346 361.783L805.631 364.981L806.376 366.915L805.345 367.973L801.077 369.174L796.553 372.589L795.141 377.071L795.713 378.541L796.577 379.307L804.654 378.496L807.622 376.785L810.793 375.823L823.244 375.06L825.194 375.715L826.463 377.945L830.433 380.958L833.032 380.746L839.379 378.15L846.139 377.891L847.009 379.828L846.884 381.199L844.517 380.388L843.564 381.557L844.869 382.132L845.566 383.667L845.596 385.97L844.839 389.106L844.172 389.538L840.899 389.86L840.488 391.511L838.33 394.536L834.641 397.99L831.744 399.727L830.308 401.214L829.014 403.473L827.363 404.993L818.273 410.352L817.51 410.224L816.414 407.842L814.727 406.418L814.22 407.026L816.014 409.213L816.444 410.542L814.536 410.766L812.104 409.475L812.408 410.495L814.202 411.279L817.91 411.6L825.378 409.568L831.38 406.823L834.116 407.759L834.486 405.968L834.164 403.986L835.851 402.29L839.916 402.019L840.935 400.645L842.974 400.052L845.34 399.796L848.219 400.451L851.426 399.572L855.276 397.701L857.94 397.364L858.417 397.668L859.502 399.173L859.931 401.22L858.983 404.019L859.085 404.913L863.072 405.378L865.886 407.458L865.629 409.967L855.812 412.62L850.436 413.099L847.343 414.107L838.903 415.004L833.067 416.202L830.731 415.788L826.427 417.752L826.457 419.015L827.202 419.978L829.479 419.96L834.212 421.224L841.889 421.078L843.999 421.7L846.973 421.814L850.99 423.223L853.601 423.605L858.191 423.7L862.071 423.238L865.802 423.942L871.715 423.781L872.973 424.964L873.372 426.037L872.698 428.85L872.853 430.304L870.284 433.44L863.972 433.389L863.305 432.385L861.272 434.125L858.048 435.308L856.885 436.238L856.456 437.817L853.243 440.425L851.002 444.085L850.162 444.469L846.317 444.63L841.68 443.191L840.196 444.621L839.534 446.293L842.932 448.993L843.742 450.74L844.362 451.103L848.082 451.553L850.049 452.275L852.755 451.935L860.617 453.89L865.254 454.319L871.53 456.748L873.724 456.495L876.424 458.22L877.681 460.348L879.35 461.403L880.781 463.29L883.499 463.337L885.674 464.374L888.738 464.505L889.453 465.176L892.63 472.084L892.785 477.598L891.194 484.95L890.955 488.356L891.402 491.924L893.167 496.573L896.898 502.167L904.486 507.54L913.432 518.427L913.975 518.814L914.446 518.412L917.163 521.833L919.178 522.87L922.182 527.585L924.817 530.398L930.867 538.63L935.104 543.252L941.351 547.487L940.296 549.946L935.414 555.683L925.043 564.397L921.646 567.982L919.011 571.576L917.038 574.855L916.168 577.507L915.453 581.664L915.804 584.94L915.328 587.16L914.487 588.501L913.075 589.607L911.179 589.896L905.123 585.858L900.319 583.56L896.665 582.362L888.422 580.651L881.18 577.745L875.446 574.691L871.572 571.862L866.625 567.762L859.436 560.391L850.192 547.952L845.65 540.725L842.473 537.175L839.791 535.325L827.637 536.49L822.887 536.314L813.69 535.068L802.019 531.477L792.292 527.174L787.196 520.829L783.566 514.886L778.583 510.893L772.998 507.433L769.356 505.82L763.586 504.324L756.749 504.187L750.861 503.552L747.284 503.94L740.859 503.645L735.775 504.61L733.009 505.555L721.994 511.131L706.777 511.34L700.721 512.305L694.284 514.025L689.45 516.093L688.18 517.038L676.617 527.651L674.298 530.196L673.226 532.175L671.938 532.997L663.099 534.544L658.104 536.314L652.775 537.199L647.667 538.838L631.157 550.578L609.335 556.69L600.275 557.983L586.286 558.594L584.546 558.454L574.21 555.59L567.451 554.86L556.782 554.911L550.404 553.722L547.948 552.78L543.21 549.219L539.204 543.753L537.077 539.706L536.409 538.922L534.621 538.943L532.57 540.448L531.229 542.579L530.127 545.621L528.947 552.476L525.007 560.275L511.935 574.461L507.507 576.294L499.323 576.78L486.806 579.834L484.613 581.25L480.673 587.804L477.126 595.606L473.49 611.356L470.808 636.009L466.749 657.312L465.325 661.988L464.794 662.9L457.82 666.372L451.788 670.368L448.617 675.273L445.065 683.067L444.266 688.211L444.368 696.528L446.573 703.455L449.559 707.943L450.852 708.935L449.404 712.291L443.634 722.862L435.975 732.533L430.921 740.952L425.437 748.259L418.732 759.763L410.399 771.216L403.145 782.225L400.284 785.891L392.744 793.633L385.401 802.553L379.238 813.503L377.557 818.214L376.764 822.351L373.599 826.35L370.482 828.761L366.709 830.734L362.822 831.736L356.188 832.391L352.183 834.799L349.215 835.854L331.482 840.167L305.894 844.667L299.296 846.276L281.683 848.92L260.469 849.73L259.081 850.282L257.745 852.058L255.826 858.498L255.588 891.716L254.127 904.388L252.286 915.12L250.092 920.108L248.37 921.625L237.343 922.904L217.727 924.153L197.592 924.668L178.978 923.616L166.395 923.44L156.09 922.502L152.883 921.703L146.648 918.055L141.224 907.633L138.256 904.754L130.74 895.799L124.153 889.314L117.317 884.37L95.5671 871.611L81.6792 866.142L64.7038 861.756L48.3423 856.135L39.95 853.813L27.0337 851.268L25.2276 850.666L23.2667 849.349L15.5121 838.328L5.83826 826.005L4.36006 823.275L2.99512 819.293L7.28069 813.607L8.69928 809.655L9.33705 805.957L9.17016 804.723L7.19128 801.492L6.94691 799.427L7.51911 796.915L9.47414 793.49L9.65296 788.91L10.8093 787.712L20.352 783.229L22.9806 781.286L25.9906 776.44L28.792 768.552L34.3233 764.421L36.4035 761L37.238 756.228L36.9221 750.62L38.8533 745.661L37.3214 741.712L36.6241 738.168L36.5525 736.803L37.8698 731.281L36.8088 727.541L34.0372 724.856L33.4889 722.948L40.9812 717.044L41.5295 714.645L40.3136 711.161L40.4745 710.425L41.4461 709.37L43.9137 708.098L47.2218 707.484L50.5835 708.136L55.2565 711.6L58.034 711.835L60.6447 710.562L62.7667 705.746L65.5681 703.383L68.7212 699.276L70.2947 698.931L76.2254 699.303L77.8824 698.877L84.1468 693.194L83.5389 691.331L77.03 685.394L76.6307 680.361L77.1969 678.292L78.5082 676.65L88.2894 667.799L87.5503 664.464L86.7992 663.522L84.2422 661.976L81.9892 661.12L80.511 661.049L78.7407 661.511L74.3955 664.661L70.5868 666.696L68.9238 666.917L67.7794 666.425L63.8693 658.346L64.7098 657.085L67.4516 655.41L67.4993 654.635L64.9422 652.141L63.9707 649.891L64.4773 648.407L67.0165 646.008L67.1416 644.559L66.5456 641.937L66.1641 640.795L64.5488 639.728L62.0276 639.838L60.4421 639.234L59.5003 638.113L58.4334 635.493L57.7599 630.379L58.4692 622.902L59.7745 617.74L60.2931 612.724L62.4448 607.914L62.3792 605.047L63.1362 603.045L64.7038 601.763L66.8913 600.914L68.0655 601.084L69.1801 602.234L70.1338 602.55L75.6353 599.987L78.0612 599.394L84.6594 598.562L92.0981 599.275L94.9055 598.306L99.501 593.013L105.146 591.368L106.445 589.654L106.665 586.927L105.998 585.95L103 584.066L102.237 582.526L102.136 581.14L103.572 574.011L104.663 571.493L106.516 569.144L107.595 568.396L109.908 568.304L111.613 569.517L113.472 572.145L114.39 572.804L116.011 572.986L118.163 570.572L119.719 569.547L122.842 568.787L123.635 568.221L125.173 565.115L127.497 562.701L129.846 563.315L131.115 562.889L130.466 560.299L132.051 558.18L135.031 557.808L142.16 558.907L143.155 558.401L143.74 557.125L144.401 552.336L145.844 549.073L148.663 545.639L152.042 543.428L155.243 540.412L163.367 538.672L172.463 539.905L181.535 535.322L184.527 532.193L185.093 526.375L184.283 523.559L183.728 522.951L179.186 521.753L177.47 520.766L176.927 519.223L176.689 514.889L171.885 510.291L166.056 502.447L164.542 501.779L162.992 501.773L158.402 503.442L154.57 506.917L150.076 507.284L149.301 507.03L147.96 503.701L144.687 500.563L144.24 498.859L144.526 497.374L145.474 496.355L148.329 494.805L149.283 493.622L151.095 486.696L149.742 482.05L151.089 479.091L150.564 478.194L148.436 477.467L147.703 476.599L147.143 474.039L147.411 469.929L148.961 467.906L155.511 464.24L157.413 461.615L157.759 460.551L157.133 454.674L158.134 452.072L159.809 450.126L160.268 448.901L159.523 446.678L157.788 445.048L156.614 444.681L152.68 445.256L150.88 444.672L147.876 442.726L144.228 441.069L143.62 439.719L144.109 438.798L149.092 437.254L150.38 436.47L159.284 425.518L159.6 424.114L158.653 417.126L160.19 414.247L162.992 411.311L164.965 409.928L170.037 408.367L172.97 404.364L175.539 402.269L181.922 401.038L185.397 399.226L184.61 396.103L186.405 393.579L190.082 389.797L192.818 384.561L195.023 381.837L196.382 378.088L197.145 377.855L198.022 378.335L200.424 380.466L203.666 385.231L206.462 387.067L207.832 390.527L208.19 394.956L209.001 396.532L210.842 397.292L212.72 397.459L217.196 396.24L223.401 395.364L227.621 395.594L231.656 392.426L234.428 388.846L236.186 385.58L237.295 384.638L239.852 384.605L242.409 382.302L244.853 381.431L246.868 381.855L250.414 383.655L252.22 383.968L255.004 382.272L261.703 372.762L261.882 370.795L260.72 365.904L260.529 362.564L261.512 359.032L263.455 354.967L265.667 351.865L267.079 350.729L268.278 350.342L270.435 350.997L271.735 350.544L273.898 347.028L274.47 344.405L273.91 342.933L270.513 340.444L264.701 337.974L262.782 334.377L262.877 331.533L263.605 328.637L265.947 325.597L266.013 324.673L264.63 321.571L264.612 316.999L265.434 313.449L266.621 311.56L267.05 309.879L266.489 302.64L266.936 301.678L270.274 298.653L269.893 290.356L270.393 288.132L273.654 283.045L274.304 277.925L278.208 274.212L279.984 269.33L281.391 266.931L283.161 266.338L287.059 267.101L288.138 267.771L290.307 274.388L291.118 275.761L292.096 276.143L293.919 275.568L295.231 274.557L297.478 271.437L298.843 270.284L299.743 268.043L299.332 266.716L295.243 262.47L292.96 257.114L287.637 247.318L287.369 245.223L288.537 239.417L286.934 232.301L286.081 231.231L282.976 230.307L281.832 229.446L278.285 222.207L278.029 219.581L278.518 212.464L277.308 209.41L276.628 204.215L276.849 202.391L279.376 194.997L278.696 188.807L279.787 186.199L280.449 181.175L282.094 177.941L282.785 172.183L289.02 159.422L289.86 155.324L289.938 152.687L289.491 149.343L288.776 147.614L288.382 147.17L287.017 147.075L285.64 148.866L285.009 148.789L282.91 143.707L281.218 144.682L280.491 144.619L275.448 137.908L275.114 136.71L275.418 134.916L278.392 130.496L280.085 129.2L282.523 128.922L286.421 129.62L289.366 129.119L291.744 127.695L295.988 123.269L299.79 110.651L300.625 106.437L302.294 102.61L302.389 99.6982L304.779 95.0014L306.448 90.2807L306.305 84.1653L307.688 78.9945L308.928 71.0224L313.714 61.441L315.49 60.3472L319.579 61.3963L320.974 60.991L322.959 56.8723L324.705 55.9484L327.554 55.4865L328.615 54.506L331.852 47.6812L333.211 46.3997L338.492 46.7514L340.667 51.2605L341.764 52.5569L344.774 52.7715L346.64 51.937L348.1 50.4916L348.786 48.9687L348.994 44.3285L350.025 41.7327L353.667 39.3694L355.604 36.1328L360.647 33.3851L361.571 32.3748L361.237 30.086L359.163 25.5292L361.696 8.66703L362.173 7.36765L363.186 6.40503L367.668 5.77322L370.41 6.50338L374.147 13.1702L376.347 15.4351L378.01 16.2338L386.342 16.1683L395.533 17.7478L396.535 18.2604L399.891 20.877L402.597 22.1019L403.956 23.2076L404.844 25.3146L405.613 31.2214L406.721 33.397L411.692 36.2193L414.875 38.7733L416.318 39.1399L417.349 39.0416L418.773 37.5157L424.352 26.316L427.541 21.8605L435.844 20.725L438.872 18.8296L440.416 15.3219L440.899 9.53726L441.465 8.30642L442.591 7.51964L444.856 7.70441L453.082 10.2853L457.582 9.47467L464.967 10.3747L466.552 10.9648L469.258 13.4414L470.838 13.9987L472.996 13.7215L477.15 11.683L481.829 11.7516L487.867 8.60444L490.74 7.62395L493.255 7.42725L494.763 7.79382L499.848 10.9231L502.697 14.3295L506.672 15.3129L510.213 21.8248L514.278 23.3387L515.243 25.1954L515.822 31.7728L516.579 33.0364L518.909 34.0407L524.995 32.2884L527.504 30.7327L528.488 28.9386L530.085 23.1539L531.051 22.0155L531.778 21.9529L534.978 24.7007L536.117 25.1L541.106 24.9004L544.235 23.7589L544.724 21.9976L543.085 18.1561L542.691 15.7868L544.235 11.3969L545.648 9.79654L550.47 6.63451L551.316 5.51394L552.443 2.3251L553.235 2.24463L557.062 9.54024L559.005 10.7055L563.16 11.084L564.805 12.6188L565.532 14.4427L566.438 20.5105L567.058 21.5655L568.721 22.3016Z" fill="#0D9488"/>
<path d="M568.721 22.3016L575.754 21.1393L579.819 18.2187L580.898 18.2962L584.683 20.5045L590.625 20.88L592.729 20.5105L598.583 16.9491L600.144 14.3354L601.879 8.61935L603.375 8.19913L604.859 8.93525L608.578 12.4221L611.582 16.213L613.728 19.9889L614.664 20.5969L615.945 20.579L619.832 18.7968L622.085 20.0277L625.625 23.6576L628.003 23.6546L632.301 21.8903L636.515 21.1184L638.929 19.5449L645.456 13.951L648.245 13.1165L652.185 15.754L657.842 16.1504L660.691 19.5568L662.413 20.4538L664.887 20.6744L673.106 19.9711L674.37 20.9039L675.425 24.2924L676.42 25.7825L678.167 26.3577L679.979 25.3653L682.214 20.5969L683.483 19.5091L685.504 18.8505L690.469 20.287L701.812 22.3821L704.768 21.932L709.739 19.4823L711.921 18.9697L721.177 21.9916L722.596 21.643L726.077 19.6879L729.516 21.0171L732.24 18.7283L732.276 15.6855L733.075 14.9017L736.621 13.6559L741.991 10.8217L743.857 13.2059L746.73 15.0775L750.098 19.077L757.191 25.5113L761.369 28.6465L770.035 33.8321L775.465 34.151L777.081 34.8245L778.04 38.5528L779.524 40.0727L790.933 46.9392L793.383 50.6347L793.347 51.4363L791.773 52.0115L791.535 52.8102L793.603 55.5133L794.962 58.2044L796.762 60.2042L801.161 63.6285L802.347 65.3391L803.015 65.5954L804.988 63.9176L806.162 63.694L810.155 66.558L811.264 66.8143L814.012 66.3971L818.416 68.7038L820.097 68.9899L820.926 68.4803L822.327 65.7623L823.155 65.6431L824.466 67.473L825.593 67.315L830.111 64.4182L831.953 63.846L834.73 63.9742L837.502 65.5746L838.307 67.0945L837.794 68.373L832.245 71.9076L826.886 73.6659L824.502 75.6656L822.225 79.2479L819.865 85.709L819.072 86.764L818.083 86.9071L812.158 84.9878L810.513 83.5632L807.896 83.4202L802.264 81.6112L788.513 75.0338L786.427 76.4256L786.17 78.2644L789.061 82.0403L790.259 85.0802L792.769 88.1826L798.02 90.1198L799.528 90.087L802.919 91.0317L804.374 91.8662L805.542 95.1444L803.724 98.1813L803.587 99.9903L805.613 102.488L807.366 103.224L808.308 103.111L809.494 102.583L811.663 100.506L813.124 100.363L817.725 104.699L820.264 106.058L822.261 106.49L824.776 108.937L826.505 112.331L826.636 115.318L827.655 117.669L831.732 123.001L832.763 125.26L833.991 124.649L835.04 125.561L838.259 132.379L839.689 134.042L843.17 136.012L843.945 135.917L845.262 136.909L847.056 137.291L848.439 139.246L852.361 140.507L856.54 140.825L860.462 140.262L862.649 139.428L863.317 139.651L864.509 142.006L864.556 143.093L862.935 148.932L863.364 151.343L869.796 156.174L872.764 160.414L874.081 160.254L876.495 161.151L876.811 162.319L875.762 167.218L876.209 168.261L879.398 170.821L883.189 171.57L888.541 175.092L889.066 175.539L889.429 177.125L889.209 180.278L890.794 180.403L892.416 182.021L892.493 182.614L891.539 183.654L889.912 183.681L885.686 182.167L884.47 182.364L884.017 181.929L879.303 181.097L877.997 182.722L878.254 185.63L894.842 191.418L897.065 192.586L900.528 193.367L901.082 193.674L901.887 195.465L903.27 196.055L903.806 197.417L903.127 198.779L899.86 198.457L893.381 202.656L888.935 203.091L887.093 204.978L886.425 207.332L884.774 208.504V209.144L885.823 209.91L882.599 213.963L882.676 215.084L880.107 216.607L878.295 216.35L877.979 216.926H876.978L874.504 216.288L872.824 216.464L871.709 214.577L871.125 214.738L871.167 217.122L869.885 218.082L865.665 218.916L863.394 220.761L862.774 220.904L862.363 220.249L861.791 220.183L861.123 221.226L857.726 222.815L856.248 223.005L853.792 222.895L847.009 221.107L841.632 220.579L838.992 220.952L832.883 218.425L826.612 214.124L817.868 207.183L816.122 205.198L813.565 200.704L809.225 195.918L806.18 195.793L798.479 198.582L796.607 200.156L795.594 202.174L792.512 203.971L791.368 206.307L791.654 207.3L792.369 207.86L797.99 208.158L800.624 206.811L802.454 208.73L803.784 209.356L806.627 207.639L808.099 207.541L808.737 208.283L808.701 212.345L809.184 214.622L810.817 217.003L813.612 218.246L817.743 217.027L817.505 218.949L816.14 221.974L811.139 228.191L809.869 228.352L805.87 226.337L803.694 225.78L801.709 227.327L800.326 229.538L799.707 231.475L801.519 233.239L802.138 236.249L799.122 237.966L796.315 238.318L793.985 237.522L792.393 235.713L790.986 237.373L790.378 239.701L796.571 241.825L800.583 241.599L808.457 242.201L814.536 244.114L823.423 248.239L830.188 249.628L833.365 251.177L841.632 254.116L844.279 255.669L845.155 257.156L845.644 259.972L845.423 260.786L843.492 262.47L842.509 262.791L838.73 263.015L834.951 262.252L833.413 262.651L830.504 262.464L826.368 263.379L824.383 262.657L823.209 259.841L822.16 258.646L820.938 258.902L819.305 258.422L817.32 260.008V261.575L816.891 262.264L811.86 265.471L809.637 267.712L808.987 269.89L808.814 273.875L807.515 274.101L800.779 268.505L792.035 266.254L790.986 265.134L789.228 265.679L779.608 263.927L774.434 261.212L764.766 257.844L764.289 257.269L762.627 257.26L761.399 257.752L760.433 260.67L760.648 263.006L761.5 264.824L763.36 265.706L763.527 267.253L765.041 268.952L772.36 269.616L773.659 271.297L775.185 272.096L776.502 271.839L786.069 276.247L793.818 278.512L795.498 279.391L796.422 280.673L796.72 283.167L795.105 290.388L795.457 294.659L794.885 296.82L795.433 298.638L796.327 299.46L797.871 299.541L803.885 302.077L811.52 303.785L814.614 305.015L818.583 310.115L819.513 312.484L818.852 315.205L816.616 317.702L814.834 317.926L810.078 316.862L800.988 318.149L799.158 317.348L795.445 319.61L791.624 323.678L788.608 324.879L786.689 324.593L785.342 322.05L784.352 321.392L782.976 322.885L779.679 328.392L777.581 330.553L771.269 331.65L770.316 330.624L767.496 332.454L765.523 334.901L762.048 334.713L761.542 334.266L760.302 334.868L758.925 335.935L759.158 337.068L762.358 345.213L763.467 345.851L765.088 345.561L766.96 343.624L768.271 343.043L773.385 343.794L776.002 343.583L780.824 346.697L782.332 347.111L783.822 348.858L784.823 349.063L786.76 347.907L788.775 345.922L789.27 346.289L789.979 345.985L791.195 346.709L792.375 345.985L793.025 346.128L795.6 348.652L796.786 349.033L797.978 351.179L801.691 354.615L802.836 357.718L802.436 358.359L801.632 358.502L799.665 358.201L799.128 358.871L799.367 359.595L801.346 361.783L805.631 364.981L806.376 366.915L805.345 367.973L801.077 369.174L796.553 372.589L795.141 377.071L795.713 378.541L796.577 379.307L804.654 378.496L807.622 376.785L810.793 375.823L823.244 375.06L825.194 375.715L826.463 377.945L830.433 380.958L833.032 380.746L839.379 378.15L846.139 377.891L847.009 379.828L846.884 381.199L844.517 380.388L843.564 381.557L844.869 382.132L845.566 383.667L845.596 385.97L844.839 389.106L844.172 389.538L840.899 389.86L840.488 391.511L838.33 394.536L834.641 397.99L831.744 399.727L830.308 401.214L829.014 403.473L827.363 404.993L818.273 410.352L817.51 410.224L816.414 407.842L814.727 406.418L814.22 407.026L816.014 409.213L816.444 410.542L814.536 410.766L812.104 409.475L812.408 410.495L814.202 411.279L817.91 411.6L825.378 409.568L831.38 406.823L834.116 407.759L834.486 405.968L834.164 403.986L835.851 402.29L839.916 402.019L840.935 400.645L842.974 400.052L845.34 399.796L848.219 400.451L851.426 399.572L855.276 397.701L857.94 397.364L858.417 397.668L859.502 399.173L859.931 401.22L858.983 404.019L859.085 404.913L863.072 405.378L865.886 407.458L865.629 409.967L855.812 412.62L850.436 413.099L847.343 414.107L838.903 415.004L833.067 416.202L830.731 415.788L826.427 417.752L826.457 419.015L827.202 419.978L829.479 419.96L834.212 421.224L841.889 421.078L843.999 421.7L846.973 421.814L850.99 423.223L853.601 423.605L858.191 423.7L862.071 423.238L865.802 423.942L871.715 423.781L872.973 424.964L873.372 426.037L872.698 428.85L872.853 430.304L870.284 433.44L863.972 433.389L863.305 432.385L861.272 434.125L858.048 435.308L856.885 436.238L856.456 437.817L853.243 440.425L851.002 444.085L850.162 444.469L846.317 444.63L841.68 443.191L840.196 444.621L839.534 446.293L842.932 448.993L843.742 450.74L844.362 451.103L848.082 451.553L850.049 452.275L852.755 451.935L860.617 453.89L865.254 454.319L871.53 456.748L873.724 456.495L876.424 458.22L877.681 460.348L879.35 461.403L880.781 463.29L883.499 463.337L885.674 464.374L888.738 464.505L889.453 465.176L892.63 472.084L892.785 477.598L891.194 484.95L890.955 488.356L891.402 491.924L893.167 496.573L896.898 502.167L904.486 507.54L913.432 518.427L913.975 518.814L914.446 518.412L917.163 521.833L919.178 522.87L922.182 527.585L924.817 530.398L930.867 538.63L935.104 543.252L941.351 547.487L940.296 549.946L935.414 555.683L925.043 564.397L921.646 567.982L919.011 571.576L917.038 574.855L916.168 577.507L915.453 581.664L915.804 584.94L915.328 587.16L914.487 588.501L913.075 589.607L911.179 589.896L905.123 585.858L900.319 583.56L896.665 582.362L888.422 580.651L881.18 577.745L875.446 574.691L871.572 571.862L866.625 567.762L859.436 560.391L850.192 547.952L845.65 540.725L842.473 537.175L839.791 535.325L827.637 536.49L822.887 536.314L813.69 535.068L802.019 531.477L792.292 527.174L787.196 520.829L783.566 514.886L778.583 510.893L772.998 507.433L769.356 505.82L763.586 504.324L756.749 504.187L750.861 503.552L747.284 503.94L740.859 503.645L735.775 504.61L733.009 505.555L721.994 511.131L706.777 511.34L700.721 512.305L694.284 514.025L689.45 516.093L688.18 517.038L676.617 527.651L674.298 530.196L673.226 532.175L671.938 532.997L663.099 534.544L658.104 536.314L652.775 537.199L647.667 538.838L631.157 550.578L609.335 556.69L600.275 557.983L586.286 558.594L584.546 558.454L574.21 555.59L567.451 554.86L556.782 554.911L550.404 553.722L547.948 552.78L543.21 549.219L539.204 543.753L537.077 539.706L536.409 538.922L534.621 538.943L532.57 540.448L531.229 542.579L530.127 545.621L528.947 552.476L525.007 560.275L511.935 574.461L507.507 576.294L499.323 576.78L486.806 579.834L484.613 581.25L480.673 587.804L477.126 595.606L473.49 611.356L470.808 636.009L466.749 657.312L465.325 661.988L464.794 662.9L457.82 666.372L451.788 670.368L448.617 675.273L445.065 683.067L444.266 688.211L444.368 696.528L446.573 703.455L449.559 707.943L450.852 708.935L449.404 712.291L443.634 722.862L435.975 732.533L430.921 740.952L425.437 748.259L418.732 759.763L410.399 771.216L403.145 782.225L400.284 785.891L392.744 793.633L385.401 802.553L379.238 813.503L377.557 818.214L376.764 822.351L373.599 826.35L370.482 828.761L366.709 830.734L362.822 831.736L356.188 832.391L352.183 834.799L349.215 835.854L331.482 840.167L305.894 844.667L299.296 846.276L281.683 848.92L260.469 849.73L259.081 850.282L257.745 852.058L255.826 858.498L255.588 891.716L254.127 904.388L252.286 915.12L250.092 920.108L248.37 921.625L237.343 922.904L217.727 924.153L197.592 924.668L178.978 923.616L166.395 923.44L156.09 922.502L152.883 921.703L146.648 918.055L141.224 907.633L138.256 904.754L130.74 895.799L124.153 889.314L117.317 884.37L95.5671 871.611L81.6792 866.142L64.7038 861.756L48.3423 856.135L39.95 853.813L27.0337 851.268L25.2276 850.666L23.2667 849.349L15.5121 838.328L5.83826 826.005L4.36006 823.275L2.99512 819.293L7.28069 813.607L8.69928 809.655L9.33705 805.957L9.17016 804.723L7.19128 801.492L6.94691 799.427L7.51911 796.915L9.47414 793.49L9.65296 788.91L10.8093 787.712L20.352 783.229L22.9806 781.286L25.9906 776.44L28.792 768.552L34.3233 764.421L36.4035 761L37.238 756.228L36.9221 750.62L38.8533 745.661L37.3214 741.712L36.6241 738.168L36.5525 736.803L37.8698 731.281L36.8088 727.541L34.0372 724.856L33.4889 722.948L40.9812 717.044L41.5295 714.645L40.3136 711.161L40.4745 710.425L41.4461 709.37L43.9137 708.098L47.2218 707.484L50.5835 708.136L55.2565 711.6L58.034 711.835L60.6447 710.562L62.7667 705.746L65.5681 703.383L68.7212 699.276L70.2947 698.931L76.2254 699.303L77.8824 698.877L84.1468 693.194L83.5389 691.331L77.03 685.394L76.6307 680.361L77.1969 678.292L78.5082 676.65L88.2894 667.799L87.5503 664.464L86.7992 663.522L84.2422 661.976L81.9892 661.12L80.511 661.049L78.7407 661.511L74.3955 664.661L70.5868 666.696L68.9238 666.917L67.7794 666.425L63.8693 658.346L64.7098 657.085L67.4516 655.41L67.4993 654.635L64.9422 652.141L63.9707 649.891L64.4773 648.407L67.0165 646.008L67.1416 644.559L66.5456 641.937L66.1641 640.795L64.5488 639.728L62.0276 639.838L60.4421 639.234L59.5003 638.113L58.4334 635.493L57.7599 630.379L58.4692 622.902L59.7745 617.74L60.2931 612.724L62.4448 607.914L62.3792 605.047L63.1362 603.045L64.7038 601.763L66.8913 600.914L68.0655 601.084L69.1801 602.234L70.1338 602.55L75.6353 599.987L78.0612 599.394L84.6594 598.562L92.0981 599.275L94.9055 598.306L99.501 593.013L105.146 591.368L106.445 589.654L106.665 586.927L105.998 585.95L103 584.066L102.237 582.526L102.136 581.14L103.572 574.011L104.663 571.493L106.516 569.144L107.595 568.396L109.908 568.304L111.613 569.517L113.472 572.145L114.39 572.804L116.011 572.986L118.163 570.572L119.719 569.547L122.842 568.787L123.635 568.221L125.173 565.115L127.497 562.701L129.846 563.315L131.115 562.889L130.466 560.299L132.051 558.18L135.031 557.808L142.16 558.907L143.155 558.401L143.74 557.125L144.401 552.336L145.844 549.073L148.663 545.639L152.042 543.428L155.243 540.412L163.367 538.672L172.463 539.905L181.535 535.322L184.527 532.193L185.093 526.375L184.283 523.559L183.728 522.951L179.186 521.753L177.47 520.766L176.927 519.223L176.689 514.889L171.885 510.291L166.056 502.447L164.542 501.779L162.992 501.773L158.402 503.442L154.57 506.917L150.076 507.284L149.301 507.03L147.96 503.701L144.687 500.563L144.24 498.859L144.526 497.374L145.474 496.355L148.329 494.805L149.283 493.622L151.095 486.696L149.742 482.05L151.089 479.091L150.564 478.194L148.436 477.467L147.703 476.599L147.143 474.039L147.411 469.929L148.961 467.906L155.511 464.24L157.413 461.615L157.759 460.551L157.133 454.674L158.134 452.072L159.809 450.126L160.268 448.901L159.523 446.678L157.788 445.048L156.614 444.681L152.68 445.256L150.88 444.672L147.876 442.726L144.228 441.069L143.62 439.719L144.109 438.798L149.092 437.254L150.38 436.47L159.284 425.518L159.6 424.114L158.653 417.126L160.19 414.247L162.992 411.311L164.965 409.928L170.037 408.367L172.97 404.364L175.539 402.269L181.922 401.038L185.397 399.226L184.61 396.103L186.405 393.579L190.082 389.797L192.818 384.561L195.023 381.837L196.382 378.088L197.145 377.855L198.022 378.335L200.424 380.466L203.666 385.231L206.462 387.067L207.832 390.527L208.19 394.956L209.001 396.532L210.842 397.292L212.72 397.459L217.196 396.24L223.401 395.364L227.621 395.594L231.656 392.426L234.428 388.846L236.186 385.58L237.295 384.638L239.852 384.605L242.409 382.302L244.853 381.431L246.868 381.855L250.414 383.655L252.22 383.968L255.004 382.272L261.703 372.762L261.882 370.795L260.72 365.904L260.529 362.564L261.512 359.032L263.455 354.967L265.667 351.865L267.079 350.729L268.278 350.342L270.435 350.997L271.735 350.544L273.898 347.028L274.47 344.405L273.91 342.933L270.513 340.444L264.701 337.974L262.782 334.377L262.877 331.533L263.605 328.637L265.947 325.597L266.013 324.673L264.63 321.571L264.612 316.999L265.434 313.449L266.621 311.56L267.05 309.879L266.489 302.64L266.936 301.678L270.274 298.653L269.893 290.356L270.393 288.132L273.654 283.045L274.304 277.925L278.208 274.212L279.984 269.33L281.391 266.931L283.161 266.338L287.059 267.101L288.138 267.771L290.307 274.388L291.118 275.761L292.096 276.143L293.919 275.568L295.231 274.557L297.478 271.437L298.843 270.284L299.743 268.043L299.332 266.716L295.243 262.47L292.96 257.114L287.637 247.318L287.369 245.223L288.537 239.417L286.934 232.301L286.081 231.231L282.976 230.307L281.832 229.446L278.285 222.207L278.029 219.581L278.518 212.464L277.308 209.41L276.628 204.215L276.849 202.391L279.376 194.997L278.696 188.807L279.787 186.199L280.449 181.175L282.094 177.941L282.785 172.183L289.02 159.422L289.86 155.324L289.938 152.687L289.491 149.343L288.776 147.614L288.382 147.17L287.017 147.075L285.64 148.866L285.009 148.789L282.91 143.707L281.218 144.682L280.491 144.619L275.448 137.908L275.114 136.71L275.418 134.916L278.392 130.496L280.085 129.2L282.523 128.922L286.421 129.62L289.366 129.119L291.744 127.695L295.988 123.269L299.79 110.651L300.625 106.437L302.294 102.61L302.389 99.6982L304.779 95.0014L306.448 90.2807L306.305 84.1653L307.688 78.9945L308.928 71.0224L313.714 61.441L315.49 60.3472L319.579 61.3963L320.974 60.991L322.959 56.8723L324.705 55.9484L327.554 55.4865L328.615 54.506L331.852 47.6812L333.211 46.3997L338.492 46.7514L340.667 51.2605L341.764 52.5569L344.774 52.7715L346.64 51.937L348.1 50.4916L348.786 48.9687L348.994 44.3285L350.025 41.7327L353.667 39.3694L355.604 36.1328L360.647 33.3851L361.571 32.3748L361.237 30.086L359.163 25.5292L361.696 8.66703L362.173 7.36765L363.186 6.40503L367.668 5.77322L370.41 6.50338L374.147 13.1702L376.347 15.4351L378.01 16.2338L386.342 16.1683L395.533 17.7478L396.535 18.2604L399.891 20.877L402.597 22.1019L403.956 23.2076L404.844 25.3146L405.613 31.2214L406.721 33.397L411.692 36.2193L414.875 38.7733L416.318 39.1399L417.349 39.0416L418.773 37.5157L424.352 26.316L427.541 21.8605L435.844 20.725L438.872 18.8296L440.416 15.3219L440.899 9.53726L441.465 8.30642L442.591 7.51964L444.856 7.70441L453.082 10.2853L457.582 9.47467L464.967 10.3747L466.552 10.9648L469.258 13.4414L470.838 13.9987L472.996 13.7215L477.15 11.683L481.829 11.7516L487.867 8.60444L490.74 7.62395L493.255 7.42725L494.763 7.79382L499.848 10.9231L502.697 14.3295L506.672 15.3129L510.213 21.8248L514.278 23.3387L515.243 25.1954L515.822 31.7728L516.579 33.0364L518.909 34.0407L524.995 32.2884L527.504 30.7327L528.488 28.9386L530.085 23.1539L531.051 22.0155L531.778 21.9529L534.978 24.7007L536.117 25.1L541.106 24.9004L544.235 23.7589L544.724 21.9976L543.085 18.1561L542.691 15.7868L544.235 11.3969L545.648 9.79654L550.47 6.63451L551.316 5.51394L552.443 2.3251L553.235 2.24463L557.062 9.54024L559.005 10.7055L563.16 11.084L564.805 12.6188L565.532 14.4427L566.438 20.5105L567.058 21.5655L568.721 22.3016Z" stroke="black" stroke-width="4" mask="url(#path-1-outside-1_0_1089)"/>
</svg>
