<svg width="1428" height="1211" viewBox="0 0 1428 1211" fill="none" xmlns="http://www.w3.org/2000/svg">
<mask id="path-1-outside-1_0_1044" maskUnits="userSpaceOnUse" x="0.513672" y="0.225342" width="1427" height="1211" fill="black">
<rect fill="white" x="0.513672" y="0.225342" width="1427" height="1211"/>
<path d="M1399.63 585.619L1381.07 603.131L1335.19 620.786L1300.8 622.199L1275.74 725.571L1287.05 759.903L1266.83 779.579L1280.11 807.963L1270.44 842.14L1258.49 837.348L1155.03 908.235L1152.17 923.929L1133.32 943.933L1123.1 979.928L1100.78 985.382L1096.32 1002.17L1075.97 1007.49L1050 1057.45L1044.63 1092.58L1022.23 1128.74L1009.29 1185.81L973.953 1161.7L960.221 1166.79L932.814 1152.95L902.732 1158.54L854.977 1185.03L808.64 1186.79L795.163 1180.63L809.063 1149.94L801.261 1104.85L810.035 1094.04L800.498 1103.49L758.959 1110.07L753.017 1122.85L729.324 1135.45L685.36 1080.8L643.136 1050.02L617.977 1090.33L632.854 1100.78L644.805 1094.49L611.074 1124.59L577.153 1142.73L574.847 1137.54L577.141 1142.74L512.464 1181.25L469.281 1153.42L428.666 1144.31L379.206 1169.58L330.134 1207.3L315.239 1208.23L291.474 1197.87L305.827 1165.64L299.884 1111.92L307.371 1070.19L280.209 1020.13L283.988 1008.85L273.885 1000.5L277.974 1014.56L264.271 1028.3L269.331 1035.04L274.809 1031.02L270.255 1040.91L230.529 1063.77L214.698 1042.28L193.252 1030.01L185.688 1034.96L173.97 1029.6L116.088 1062.24L73.959 1075.61L30.096 1052.9L4.51367 1054.14L16.9591 1035.98L68.4754 1018.02L81.6838 1000.17L117.119 987.504L126.399 971.154L111.373 960.688L116.296 949.19L107.093 897.149L87.2628 846.908L100.376 823.114L88.7529 799.606L100.9 792.745L101.943 777.546L79.5917 776.712L71.1934 766.549L79.8063 695.346L71.9682 686.655L54.3968 700.68L39.3943 689.021L38.8936 676.284L73.822 650.469L82.1308 657.538L94.624 650.094L99.8692 657.503L111.331 654.671L107.946 637.97L119.193 632.51L131.591 643.99L129.731 621.144L135.727 623.719L139.471 614.611L155.754 619.248L192.024 568.191L237.723 556.884L232.263 531.999L251.533 514.231L251.956 497.083L281.336 480.346L315.638 474.886L320.824 463.579L333.698 465.653L330.67 438.491L343.467 450.99L364.24 444.69L362.535 418.941L400.038 426.04L397.1 412.516L410.946 394.634L423.862 400.016L440.158 427.16L476.523 410.406L488.354 426.797L491.841 415.943L548.269 404.552L550.421 396.404L562.848 395.832L565.679 381.503L591.25 382.442L631.924 359.014L651.319 362.37L674.553 347.362L694.557 363.36L708.045 341.142L691.755 317.479L713.869 290.97L732.847 284.509L747.623 268.538L744.392 258.217L756.611 241.933L749.911 236.22L756.271 219.584L748.01 209.735L750.472 188.748L709.255 156.49L729.384 145.996L759.848 147.221L816.865 100.452L820.918 83.1075L849.177 66.448L868.215 38.6752L880.934 45.4791L913.186 41.7329L941.809 28.4202L954.814 37.951L959.69 50.006L952.955 60.2402L966.354 72.8913L999.428 72.2922L1026.12 85.6645L1039.23 64.9728L1055.9 66.296L1061.33 48.1881L1082.66 45.1095L1106.08 20.9547L1110.22 27.6781L1140.45 14.7469L1155.3 29.2994L1152.08 18.2934L1164.28 3.22534L1183.92 16.7705L1191.64 51.7793L1227.12 104.184L1226.13 117.04L1202.85 140.09L1194.45 131.888L1163.96 135.065L1134.23 174.72L1130.73 196.711L1160.38 211.377L1171.36 275.69L1201.49 276.593L1229.51 261.504L1243.07 244.192L1273.11 232.441L1278.84 249.878L1264.51 264.24L1255.67 289.536L1259.8 304.405L1252.75 306.083L1261.79 332.657L1257.52 348.068L1287.84 385.574L1297.85 450.156L1328.6 458.965L1372.69 501.47L1376.51 517.479L1396.03 526.706L1399.36 538.716L1411.33 532.5L1424.43 544.319L1403.5 565.246L1399.63 585.619Z"/>
</mask>
<path d="M1399.63 585.619L1381.07 603.131L1335.19 620.786L1300.8 622.199L1275.74 725.571L1287.05 759.903L1266.83 779.579L1280.11 807.963L1270.44 842.14L1258.49 837.348L1155.03 908.235L1152.17 923.929L1133.32 943.933L1123.1 979.928L1100.78 985.382L1096.32 1002.17L1075.97 1007.49L1050 1057.45L1044.63 1092.58L1022.23 1128.74L1009.29 1185.81L973.953 1161.7L960.221 1166.79L932.814 1152.95L902.732 1158.54L854.977 1185.03L808.64 1186.79L795.163 1180.63L809.063 1149.94L801.261 1104.85L810.035 1094.04L800.498 1103.49L758.959 1110.07L753.017 1122.85L729.324 1135.45L685.36 1080.8L643.136 1050.02L617.977 1090.33L632.854 1100.78L644.805 1094.49L611.074 1124.59L577.153 1142.73L574.847 1137.54L577.141 1142.74L512.464 1181.25L469.281 1153.42L428.666 1144.31L379.206 1169.58L330.134 1207.3L315.239 1208.23L291.474 1197.87L305.827 1165.64L299.884 1111.92L307.371 1070.19L280.209 1020.13L283.988 1008.85L273.885 1000.5L277.974 1014.56L264.271 1028.3L269.331 1035.04L274.809 1031.02L270.255 1040.91L230.529 1063.77L214.698 1042.28L193.252 1030.01L185.688 1034.96L173.97 1029.6L116.088 1062.24L73.959 1075.61L30.096 1052.9L4.51367 1054.14L16.9591 1035.98L68.4754 1018.02L81.6838 1000.17L117.119 987.504L126.399 971.154L111.373 960.688L116.296 949.19L107.093 897.149L87.2628 846.908L100.376 823.114L88.7529 799.606L100.9 792.745L101.943 777.546L79.5917 776.712L71.1934 766.549L79.8063 695.346L71.9682 686.655L54.3968 700.68L39.3943 689.021L38.8936 676.284L73.822 650.469L82.1308 657.538L94.624 650.094L99.8692 657.503L111.331 654.671L107.946 637.97L119.193 632.51L131.591 643.99L129.731 621.144L135.727 623.719L139.471 614.611L155.754 619.248L192.024 568.191L237.723 556.884L232.263 531.999L251.533 514.231L251.956 497.083L281.336 480.346L315.638 474.886L320.824 463.579L333.698 465.653L330.67 438.491L343.467 450.99L364.24 444.69L362.535 418.941L400.038 426.04L397.1 412.516L410.946 394.634L423.862 400.016L440.158 427.16L476.523 410.406L488.354 426.797L491.841 415.943L548.269 404.552L550.421 396.404L562.848 395.832L565.679 381.503L591.25 382.442L631.924 359.014L651.319 362.37L674.553 347.362L694.557 363.36L708.045 341.142L691.755 317.479L713.869 290.97L732.847 284.509L747.623 268.538L744.392 258.217L756.611 241.933L749.911 236.22L756.271 219.584L748.01 209.735L750.472 188.748L709.255 156.49L729.384 145.996L759.848 147.221L816.865 100.452L820.918 83.1075L849.177 66.448L868.215 38.6752L880.934 45.4791L913.186 41.7329L941.809 28.4202L954.814 37.951L959.69 50.006L952.955 60.2402L966.354 72.8913L999.428 72.2922L1026.12 85.6645L1039.23 64.9728L1055.9 66.296L1061.33 48.1881L1082.66 45.1095L1106.08 20.9547L1110.22 27.6781L1140.45 14.7469L1155.3 29.2994L1152.08 18.2934L1164.28 3.22534L1183.92 16.7705L1191.64 51.7793L1227.12 104.184L1226.13 117.04L1202.85 140.09L1194.45 131.888L1163.96 135.065L1134.23 174.72L1130.73 196.711L1160.38 211.377L1171.36 275.69L1201.49 276.593L1229.51 261.504L1243.07 244.192L1273.11 232.441L1278.84 249.878L1264.51 264.24L1255.67 289.536L1259.8 304.405L1252.75 306.083L1261.79 332.657L1257.52 348.068L1287.84 385.574L1297.85 450.156L1328.6 458.965L1372.69 501.47L1376.51 517.479L1396.03 526.706L1399.36 538.716L1411.33 532.5L1424.43 544.319L1403.5 565.246L1399.63 585.619Z" fill="#0D9488"/>
<path d="M1399.63 585.619L1381.07 603.131L1335.19 620.786L1300.8 622.199L1275.74 725.571L1287.05 759.903L1266.83 779.579L1280.11 807.963L1270.44 842.14L1258.49 837.348L1155.03 908.235L1152.17 923.929L1133.32 943.933L1123.1 979.928L1100.78 985.382L1096.32 1002.17L1075.97 1007.49L1050 1057.45L1044.63 1092.58L1022.23 1128.74L1009.29 1185.81L973.953 1161.7L960.221 1166.79L932.814 1152.95L902.732 1158.54L854.977 1185.03L808.64 1186.79L795.163 1180.63L809.063 1149.94L801.261 1104.85L810.035 1094.04L800.498 1103.49L758.959 1110.07L753.017 1122.85L729.324 1135.45L685.36 1080.8L643.136 1050.02L617.977 1090.33L632.854 1100.78L644.805 1094.49L611.074 1124.59L577.153 1142.73L574.847 1137.54L577.141 1142.74L512.464 1181.25L469.281 1153.42L428.666 1144.31L379.206 1169.58L330.134 1207.3L315.239 1208.23L291.474 1197.87L305.827 1165.64L299.884 1111.92L307.371 1070.19L280.209 1020.13L283.988 1008.85L273.885 1000.5L277.974 1014.56L264.271 1028.3L269.331 1035.04L274.809 1031.02L270.255 1040.91L230.529 1063.77L214.698 1042.28L193.252 1030.01L185.688 1034.96L173.97 1029.6L116.088 1062.24L73.959 1075.61L30.096 1052.9L4.51367 1054.14L16.9591 1035.98L68.4754 1018.02L81.6838 1000.17L117.119 987.504L126.399 971.154L111.373 960.688L116.296 949.19L107.093 897.149L87.2628 846.908L100.376 823.114L88.7529 799.606L100.9 792.745L101.943 777.546L79.5917 776.712L71.1934 766.549L79.8063 695.346L71.9682 686.655L54.3968 700.68L39.3943 689.021L38.8936 676.284L73.822 650.469L82.1308 657.538L94.624 650.094L99.8692 657.503L111.331 654.671L107.946 637.97L119.193 632.51L131.591 643.99L129.731 621.144L135.727 623.719L139.471 614.611L155.754 619.248L192.024 568.191L237.723 556.884L232.263 531.999L251.533 514.231L251.956 497.083L281.336 480.346L315.638 474.886L320.824 463.579L333.698 465.653L330.67 438.491L343.467 450.99L364.24 444.69L362.535 418.941L400.038 426.04L397.1 412.516L410.946 394.634L423.862 400.016L440.158 427.16L476.523 410.406L488.354 426.797L491.841 415.943L548.269 404.552L550.421 396.404L562.848 395.832L565.679 381.503L591.25 382.442L631.924 359.014L651.319 362.37L674.553 347.362L694.557 363.36L708.045 341.142L691.755 317.479L713.869 290.97L732.847 284.509L747.623 268.538L744.392 258.217L756.611 241.933L749.911 236.22L756.271 219.584L748.01 209.735L750.472 188.748L709.255 156.49L729.384 145.996L759.848 147.221L816.865 100.452L820.918 83.1075L849.177 66.448L868.215 38.6752L880.934 45.4791L913.186 41.7329L941.809 28.4202L954.814 37.951L959.69 50.006L952.955 60.2402L966.354 72.8913L999.428 72.2922L1026.12 85.6645L1039.23 64.9728L1055.9 66.296L1061.33 48.1881L1082.66 45.1095L1106.08 20.9547L1110.22 27.6781L1140.45 14.7469L1155.3 29.2994L1152.08 18.2934L1164.28 3.22534L1183.92 16.7705L1191.64 51.7793L1227.12 104.184L1226.13 117.04L1202.85 140.09L1194.45 131.888L1163.96 135.065L1134.23 174.72L1130.73 196.711L1160.38 211.377L1171.36 275.69L1201.49 276.593L1229.51 261.504L1243.07 244.192L1273.11 232.441L1278.84 249.878L1264.51 264.24L1255.67 289.536L1259.8 304.405L1252.75 306.083L1261.79 332.657L1257.52 348.068L1287.84 385.574L1297.85 450.156L1328.6 458.965L1372.69 501.47L1376.51 517.479L1396.03 526.706L1399.36 538.716L1411.33 532.5L1424.43 544.319L1403.5 565.246L1399.63 585.619Z" stroke="black" stroke-width="4" mask="url(#path-1-outside-1_0_1044)"/>
</svg>
