<svg width="886" height="500" viewBox="0 0 886 500" fill="none" xmlns="http://www.w3.org/2000/svg">
<path d="M92.3501 179.434L123.526 162.791L122.467 164.785L122.151 165.381L122.585 165.897L131.192 176.137L131.545 176.558L132.09 176.485L148.401 174.3L179.567 179.705L196.318 227.035L189.576 242.745L189.276 243.445L189.87 243.92L225.623 272.513L227.502 288.418L214.222 303.862L213.999 304.122L213.982 304.465L213.201 320.266L213.191 320.465L213.258 320.652L230.907 369.934L231.118 370.523L231.74 370.59L269.917 374.757L284.471 385.481L284.645 385.61L284.856 385.655L324.032 393.957L338.037 410.96L338.325 411.309L338.777 411.324L362.342 412.081L387.135 451.731L387.623 452.512L388.441 452.09L408.584 441.703L428.155 448.668L428.418 448.762L428.692 448.706L451.162 444.092L451.942 443.932L451.961 443.137L452.486 421.268L452.508 420.326L451.569 420.247L438.556 419.16L414.634 407.71L411.267 391.627L443.278 320.716L456.721 308.95L481.664 300.972L485.299 299.81L481.561 299.04L350.43 272.045L329.532 257.477L311.962 232.293L290.345 166.075L288.295 135.887L298.356 112.506L298.583 111.98L298.244 111.518L253.609 50.7382L260.041 30.4924L260.258 29.8106L259.682 29.3854L240.955 15.5452L240.717 15.3698L240.423 15.3514L225.032 14.3881L223.115 2.4814L222.961 1.53029L222.005 1.64786L163.009 8.90174L161.843 9.04508L162.17 10.1731L170.855 40.0886L170.976 40.5061L171.364 40.7022L179.303 44.7168L172.69 53.701L172.379 54.1236L172.55 54.6197L176.454 65.9446L176.526 66.1512L176.677 66.3092L196.697 87.2763L192.818 88.206L183.983 75.8551L183.579 75.2908L182.909 75.4713L174.04 77.8615L172.631 78.2412L173.494 79.4182L175.233 81.7911L161.518 79.5209L150.382 62.7072L150.983 62.8355L151.545 62.9556L151.932 62.5304L169.724 42.9682L171.232 41.3094L168.99 41.2954L146.807 41.1568L136.813 10.2837L136.595 9.60951L135.886 9.59195L124.102 9.29988L123.587 9.28711L123.278 9.6995L116.087 19.2845L98.3666 18.0757L98.0159 18.0518L97.7274 18.2526L62.7573 42.5892L61.939 43.1586L62.506 43.9787L67.9572 51.8632L56.1205 56.5101L54.0048 57.3406L56.0466 58.3392L76.4157 68.3009L75.3478 83.3914L63.6703 97.2816L2.03365 128.899L1.49096 129.178L1.49007 129.788L1.44238 162.367L1.44087 163.4L2.47252 163.368L34.5462 162.402L49.705 184.652L50.2209 185.409L51.0203 184.961L67.3734 175.795L91.7272 179.54L92.0563 179.591L92.3501 179.434ZM134.368 137.318L132.241 139.468L133.103 133.163L134.368 137.318Z" fill="#0D9488" stroke="black" stroke-width="2"/>
<path d="M539.577 368.252L538.582 367.135L537.93 368.481L535.414 373.678L527.893 385.055L527.274 385.991L528.275 386.498L546.562 395.767L547.813 396.401L548.005 395.011L550.008 380.486L550.071 380.029L549.764 379.684L539.577 368.252Z" fill="#0D9488" stroke="black" stroke-width="2"/>
<path d="M490.321 426.377L490.876 426.278L491.079 425.752L499.429 404.086L499.742 403.274L498.982 402.852L470.103 386.818L469.509 386.489L468.984 386.919L441.995 409.014L440.884 409.924L442.123 410.65L473.588 429.116L473.906 429.303L474.269 429.238L490.321 426.377Z" fill="#0D9488" stroke="black" stroke-width="2"/>
<path d="M811.4 307.722L807.637 322.333L799.262 299.973L799.004 299.285L798.27 299.325L774.59 300.638L750.68 286.716L750.147 286.406L749.63 286.743L736.374 295.387L706.339 295.694L705.621 295.701L705.399 296.384L692.125 337.166L691.968 337.648L692.264 338.06L700.007 348.808L690.837 352.702L689.827 353.131L690.347 354.097L692.381 357.871L684.388 361.772L683.647 362.133L683.86 362.929L688.251 379.329L669.483 396.455L667.22 398.52L670.266 398.187L692.311 395.781L678.259 418.531L678.039 418.887L678.139 419.293L684.081 443.636L684.136 443.861L684.285 444.04L696.771 458.995L684.973 473.286L684.565 473.779L684.843 474.356L690.941 487.028L691.323 487.822L692.159 487.543L753.814 466.913L754.243 466.77L754.418 466.353L760.051 452.984L760.332 452.316L759.785 451.841L749.89 443.237L758.498 437.263L790.231 466.556L796.033 495.837L796.415 497.762L797.748 496.322L805.386 488.07L823.764 488.524L825.047 488.555L824.764 487.304L821.295 471.943L829.787 466.987L859.337 460.685L861.397 460.245L859.754 458.927L852.278 452.927L861.198 439.31L861.389 439.018L861.358 438.671L859.921 422.928L884.524 382.105L884.735 381.755L884.64 381.358L877.154 349.839L877.082 349.536L876.852 349.328L854.554 329.164L854.152 328.8L853.627 328.939L846.763 330.752L826.09 306.776L825.774 306.409L825.29 306.43L812.326 306.972L811.585 307.003L811.4 307.722Z" fill="#0D9488" stroke="black" stroke-width="2"/>
<path d="M651.604 368.781L651.084 368.217L650.405 368.574L616.996 386.109L615.691 386.795L616.81 387.754L637.1 405.141L638.707 406.518L638.75 404.402L638.889 397.595L654.582 393.76L655.156 393.62L655.31 393.049L659.399 377.91L659.543 377.376L659.168 376.97L651.604 368.781Z" fill="#0D9488" stroke="black" stroke-width="2"/>
</svg>
