<svg width="475" height="537" viewBox="0 0 475 537" fill="none" xmlns="http://www.w3.org/2000/svg">
<path d="M170.873 27.3433L175.151 42.2179L163.066 40.1008L161.293 39.7903L161.966 41.4597L168.063 56.5873L168.148 56.7979L168.315 56.9512L177.387 65.2541L177.758 65.5932L178.251 65.4985L190.925 63.0653L195.501 71.1997L195.755 71.6495L196.268 71.7038L205.143 72.6426L206.82 72.8199L206.171 71.2635L204.261 66.6802L221.487 72.6027L223.776 73.3896L222.71 71.2167L217.374 60.3369L222.484 56.0285L231.959 56.7457L233.018 56.8259L233.034 55.7635L233.571 19.801L233.578 19.2946L233.175 18.9889L222.064 10.5757L221.599 10.2232L221.063 10.4554L213.582 13.6979L212.506 14.1646L213.137 15.1536L220.957 27.4006L214.071 32.3927L198.546 13.5182L197.468 12.2082L196.844 13.7853L191.106 28.2747L171.948 26.0734L170.458 25.9022L170.873 27.3433Z" fill="#0D9488" stroke="black" stroke-width="2"/>
<path d="M163.89 22.5585L163.756 20.9446L162.373 21.7871L157.05 25.0296L155.042 26.2531L157.316 26.8508L163.032 28.3528L164.4 28.7122L164.283 27.303L163.89 22.5585Z" fill="#0D9488" stroke="black" stroke-width="2"/>
<path d="M152.609 46.6692L152.229 46.4838L151.831 46.6271L147.141 48.3168L146.352 48.6008L146.494 49.4266L148.187 59.3031L148.432 60.7325L149.681 59.9953L161.762 52.8636L163.363 51.919L161.693 51.1038L152.609 46.6692Z" fill="#0D9488" stroke="black" stroke-width="2"/>
<path d="M245.336 48.0889L243.664 47.1006L236.332 54.587L235.771 55.1602L236.209 55.8324L239.678 61.1581L240.852 62.961L241.473 60.9009L245.336 48.0889Z" fill="#0D9488" stroke="black" stroke-width="2"/>
<path d="M124.1 58.4614L123.062 58.9574L123.698 59.9162L132.781 73.6193L133.013 73.9678L133.423 74.0481L139.967 75.3296L141.438 75.6175L141.14 74.1493L136.985 53.6811L136.73 52.4251L135.574 52.9778L124.1 58.4614Z" fill="#0D9488" stroke="black" stroke-width="2"/>
<path d="M167.845 57.0666L167.478 56.6255L166.912 56.7203L161.911 57.5577L160.376 57.8149L161.248 59.1043L166.29 66.5579L166.824 67.3461L167.637 66.8526L172.197 64.0869L173.19 63.4845L172.447 62.592L167.845 57.0666Z" fill="#0D9488" stroke="black" stroke-width="2"/>
<path d="M146.65 69.2467L146.053 70.0583L146.869 70.6491L177.268 92.6551L178.069 93.235L178.657 92.4405L187.848 80.0367L188.342 79.37L187.778 78.7615L173.968 63.8663L173.513 63.376L172.886 63.6087L166.438 66.0033L160.846 62.6095L158.333 55.9641L157.682 54.2427L156.592 55.7254L146.65 69.2467Z" fill="#0D9488" stroke="black" stroke-width="2"/>
<path d="M244.66 58.966L244.925 57.0318L243.201 57.9467L236.644 61.4246L236.102 61.7123L236.113 62.3261L236.202 67.2673L236.22 68.2636L237.217 68.2491L242.539 68.1716L243.399 68.1591L243.516 67.3077L244.66 58.966Z" fill="#0D9488" stroke="black" stroke-width="2"/>
<path d="M191.307 67.5239L192.715 68.228L192.754 66.6539L192.831 63.4919L192.874 61.7321L191.34 62.5962L188.33 64.2919L186.691 65.2158L188.374 66.0576L191.307 67.5239Z" fill="#0D9488" stroke="black" stroke-width="2"/>
<path d="M263.153 66.9952L262.413 65.6557L261.484 66.8713L257.705 71.8125L256.75 73.0612L258.285 73.3969L265.688 75.0152L267.845 75.4865L266.777 73.5547L263.153 66.9952Z" fill="#0D9488" stroke="black" stroke-width="2"/>
<path d="M236.156 73.8296L235.258 73.9403L235.279 74.8445L235.511 85.2127L235.54 86.4876L236.771 86.1558L249.27 82.7882L250.876 82.3556L249.741 81.1402L242.564 73.4541L242.217 73.0817L241.711 73.1441L236.156 73.8296Z" fill="#0D9488" stroke="black" stroke-width="2"/>
<path d="M212.071 75.1969L211.176 74.2711L210.501 75.3675L205.524 83.4469L205.109 84.1194L205.668 84.6782L212.29 91.3062L213.45 92.4676L213.95 90.9038L217.073 81.1286L217.255 80.5591L216.839 80.1292L212.071 75.1969Z" fill="#0D9488" stroke="black" stroke-width="2"/>
<path d="M242.721 127.679L243.171 128.687L244.13 128.139L262.637 117.569L262.888 117.425L263.024 117.169L268.752 106.368L269.316 105.306L268.168 104.946L245.542 97.8498L244.967 97.6693L244.538 98.0942L240.84 101.765L233.978 82.5003L233.897 82.2746L233.723 82.1098L227.936 76.6291L227.625 76.3347L227.197 76.3565L215.61 76.9466L214.087 77.0242L214.766 78.3903L219.217 87.3486L218.584 102.756L218.551 103.568L219.338 103.767L233.656 107.388L242.721 127.679Z" fill="#0D9488" stroke="black" stroke-width="2"/>
<path d="M241.33 82.0772L240.152 81.3783L239.845 82.7135L237.849 91.4098L237.327 93.6829L239.333 92.4938L247.666 87.5556L249.117 86.6957L247.666 85.8352L241.33 82.0772Z" fill="#0D9488" stroke="black" stroke-width="2"/>
<path d="M254.127 90.7488L255.485 89.822L254.038 89.0425L251.189 87.5077L250.313 87.0358L249.836 87.9094L246.814 93.4526L248.256 94.7572L254.127 90.7488Z" fill="#0D9488" stroke="black" stroke-width="2"/>
<path d="M208.552 88.5684L208.1 85.1095L206.651 88.2825L202.985 96.3083L201.75 99.013L204.369 97.6044L208.774 95.2352L209.381 94.9086L209.291 94.2249L208.552 88.5684Z" fill="#0D9488" stroke="black" stroke-width="2"/>
<path d="M247.746 124.67L247.625 124.682L247.511 124.723L241.067 127.03L240.06 127.391L240.488 128.371L247.628 144.739L247.939 145.45L248.705 145.326L254.395 144.403L263.675 152.94L265.736 154.836L265.342 152.063L264.329 144.935L279.585 149.121L280.48 147.38L268.447 137.607L271.868 123.553L272.203 122.178L270.795 122.322L247.746 124.67Z" fill="#0D9488" stroke="black" stroke-width="2"/>
<path d="M280.125 131.657L279.562 131.41L279.088 131.801L276.608 133.846L275.065 135.119L277.009 135.589L292.977 139.455L293.614 137.567L280.125 131.657Z" fill="#0D9488" stroke="black" stroke-width="2"/>
<path d="M266.72 172.44L266.881 172.739L267.192 172.878L273.909 175.888L275.434 176.571L275.315 174.905L274.308 160.701L274.277 160.258L273.927 159.985L253.626 144.085L252.129 145.347L266.72 172.44Z" fill="#0D9488" stroke="black" stroke-width="2"/>
<path d="M276.345 152.502L275.982 151.69L275.133 151.956L268.809 153.938L265.978 154.825L268.769 155.833L277.37 158.938L279.584 159.737L278.622 157.589L276.345 152.502Z" fill="#0D9488" stroke="black" stroke-width="2"/>
<path d="M285.785 156.055L285.71 155.564L285.273 155.327L281.786 153.435L280.45 152.709L280.313 154.224L279.747 160.518L279.659 161.498L280.637 161.602L285.441 162.115L286.732 162.253L286.536 160.97L285.785 156.055Z" fill="#0D9488" stroke="black" stroke-width="2"/>
<path d="M218.46 165.14L216.729 163.381L216.747 165.849L216.831 177.221L216.851 179.945L218.598 177.855L223.7 171.752L224.282 171.056L223.645 170.409L218.46 165.14Z" fill="#0D9488" stroke="black" stroke-width="2"/>
<path d="M249.87 174.913L248.135 172.817L248.099 175.538L247.855 194.099L249.836 194.305L251.334 186.699L257.808 187.161L260.14 187.327L258.65 185.526L249.87 174.913Z" fill="#0D9488" stroke="black" stroke-width="2"/>
<path d="M257.46 189.242L256.44 187.149L255.625 189.33L253.944 193.83L253.643 194.638L254.396 195.055L259.707 197.997L262.48 199.533L261.09 196.683L257.46 189.242Z" fill="#0D9488" stroke="black" stroke-width="2"/>
<path d="M21.3575 28.2269L21.0305 26.6405L19.7588 27.6437L1.95484 41.6896L1.55933 42.0016L1.57468 42.5051L1.94423 54.6228L1.95622 55.0159L2.23285 55.2956L12.9259 66.1049L13.1452 66.3265L13.4515 66.3843L37.9491 71.0036L39.4726 71.2909L39.106 69.7845L35.2376 53.8909L35.1387 53.4843L34.7796 53.2693L25.3577 47.6299L21.3575 28.2269Z" fill="#0D9488" stroke="black" stroke-width="2"/>
<path d="M39.9975 76.2102L39.6303 76.0489L39.2534 76.186L34.1572 78.0397L32.4021 78.6781L33.9064 79.7849L47.6452 89.8938L49.3342 91.1365L49.2368 89.042L48.8494 80.7062L48.8206 80.0866L48.2527 79.8371L39.9975 76.2102Z" fill="#0D9488" stroke="black" stroke-width="2"/>
<path d="M33.0136 79.9353L32.3629 79.3439L31.6931 79.9135L28.6056 82.5391L28.0327 83.0263L28.3418 83.7118L31.781 91.3412L32.3421 92.586L33.3595 91.6754L38.867 86.7461L39.6931 86.0067L38.8727 85.261L33.0136 79.9353Z" fill="#0D9488" stroke="black" stroke-width="2"/>
<path d="M62.7258 104.493L64.0707 104.166L63.3373 102.992L53.121 86.6393L51.2892 87.3486L54.5794 105.388L54.7696 106.431L55.7998 106.18L62.7258 104.493Z" fill="#0D9488" stroke="black" stroke-width="2"/>
<path d="M41.2337 87.5569L40.6936 87.3133L40.2205 87.67L29.3784 95.8448L28.0767 96.8263L29.5416 97.5418L50.9397 107.994L52.633 108.821L52.3687 106.955L50.2706 92.143L50.1934 91.5979L49.6916 91.3716L41.2337 87.5569Z" fill="#0D9488" stroke="black" stroke-width="2"/>
<path d="M175.941 132.302L176.521 131.844L176.252 131.155L169.076 112.725L168.131 110.299L167.209 112.734L166.392 114.893L166.711 107.232L166.738 106.593L166.169 106.301L141.814 93.8045L139.386 92.5584L140.435 95.0785L147.474 111.991L147.549 112.171L147.686 112.31L170.526 135.448L171.155 136.085L171.858 135.53L175.941 132.302Z" fill="#0D9488" stroke="black" stroke-width="2"/>
<path d="M57.5759 143.99L57.7734 143.635L57.6668 143.242L52.362 123.704L52.2654 123.348L51.9612 123.14L31.6281 109.246L29.8081 99.3737L29.7032 98.8047L29.1576 98.6121L19.4003 95.1669L18.3991 94.8134L18.1062 95.834L10.6199 121.917L10.5288 122.234L10.6445 122.543L26.392 164.621L26.5899 165.15L27.1447 165.254L43.2976 168.276L44.0056 168.408L44.3555 167.778L57.5759 143.99Z" fill="#0D9488" stroke="black" stroke-width="2"/>
<path d="M124.739 97.5917L123.97 96.9264L123.317 97.7067L115.384 107.199L114.77 107.934L115.478 108.579L146.007 136.391L147.52 137.769L147.678 135.729L148.965 119.081L149.004 118.578L148.622 118.248L124.739 97.5917Z" fill="#0D9488" stroke="black" stroke-width="2"/>
<path d="M33.9555 100.427L32.6222 99.8685L32.5699 101.313L32.2301 110.692L32.204 111.415L32.8826 111.666L46.9836 116.881L62.0677 132.254L63.7021 131.163L54.4336 109.309L54.2746 108.935L53.8992 108.777L33.9555 100.427Z" fill="#0D9488" stroke="black" stroke-width="2"/>
<path d="M111.284 120.507L111.174 120.36L111.02 120.262L100.44 113.518L99.0738 114.92L113.456 136.241L114.115 137.217L114.972 136.409L119.126 132.487L119.774 131.875L119.241 131.161L111.284 120.507Z" fill="#0D9488" stroke="black" stroke-width="2"/>
<path d="M184.882 132.117L185.873 131.793L185.509 130.817L184.507 128.132L183.887 126.47L182.786 127.86L179.568 131.925L177.506 134.529L180.662 133.497L184.882 132.117Z" fill="#0D9488" stroke="black" stroke-width="2"/>
<path d="M124.472 140.109L124.593 138.839L123.331 139.025L108.46 141.219L107.576 141.349L107.606 142.241L107.773 147.257L107.792 147.836L108.304 148.107L121.649 155.182L122.972 155.883L123.113 154.394L124.472 140.109Z" fill="#0D9488" stroke="black" stroke-width="2"/>
<path d="M61.8106 153.132L62.7346 151.146L60.6288 151.749L51.5391 154.351L51.0897 154.479L50.9002 154.907L43.6582 171.226L42.9653 172.788L44.6661 172.628L52.5399 171.885L53.1108 171.832L53.3527 171.312L61.8106 153.132Z" fill="#0D9488" stroke="black" stroke-width="2"/>
<path d="M106.578 168.136L105.622 167.438L105.094 168.497L102.471 173.754L101.703 175.295L103.422 175.199L112.547 174.69L115.341 174.534L113.081 172.884L106.578 168.136Z" fill="#0D9488" stroke="black" stroke-width="2"/>
<path d="M93.9227 196.791L94.1029 195.207L92.5987 195.734L88.027 197.334L86.3393 197.925L87.7262 199.054L91.7436 202.323L93.1616 203.477L93.3684 201.661L93.9227 196.791Z" fill="#0D9488" stroke="black" stroke-width="2"/>
<path d="M254.445 50.2427L254.343 50.6265L254.531 50.976L262.709 66.1007L262.956 66.5568L263.471 66.6181L285.918 69.2913L287.464 69.4755L286.988 67.9927L283.649 57.5902L298.915 64.7512L299.704 65.1211L300.178 64.3909L308.788 51.1463L308.812 55.7419L308.817 56.6962L309.771 56.7358L330.43 57.5939L327.15 61.7983L317.88 60.993L317.052 60.921L316.83 61.7216L315.346 67.0651L315.091 67.9822L315.994 68.2819L325.71 71.5048L309.339 71.739L308.69 71.7483L308.434 72.3447L306.652 76.4991L306.216 77.5168L307.272 77.8477L330.341 85.0703L326.287 88.0892L316.017 84.5228L314.647 84.0468L314.69 85.4972L314.91 92.9001L314.927 93.4509L315.401 93.7313L329.141 101.851L325.419 108.008L324.835 108.976L325.866 109.438L348.391 119.535L348.55 119.606L348.724 119.62L359.006 120.4L359.811 120.462L360.04 119.687L367.307 95.105L377.713 91.2818L378.651 90.9372L378.307 89.9992L371.213 70.6325L377.437 54.5387L377.632 54.0343L377.316 53.5949L355.345 22.9807L357.252 3.4443L357.394 1.98927L355.986 2.38438L345.263 5.39442L343.984 5.75348L344.683 6.8833L348.654 13.3019L332.721 18.7307L303.722 9.03574L303.092 8.82517L302.654 9.32404L296.817 15.9657L280.619 15.0832L278.701 14.9787L279.715 16.6098L285.444 25.8231L260.058 31.3108L259.46 31.4399L259.303 32.0305L254.445 50.2427Z" fill="#0D9488" stroke="black" stroke-width="2"/>
<path d="M421.29 76.1611L421.739 76.9357L422.559 76.5746L431.66 72.5632L432.362 72.2542L432.246 71.4968L430.934 62.9317L430.833 62.2714L430.185 62.1119L412.595 57.7876L410.312 57.2263L411.491 59.2603L421.29 76.1611Z" fill="#0D9488" stroke="black" stroke-width="2"/>
<path d="M368.612 94.7867L367.161 94.134L367.201 95.724L367.494 107.231L367.543 109.189L369.1 108L378.47 100.841L379.803 99.8232L378.273 99.1349L368.612 94.7867Z" fill="#0D9488" stroke="black" stroke-width="2"/>
<path d="M384.851 95.4738L384.306 93.3784L383.064 95.1518L376.579 104.411L376.098 105.099L376.691 105.692L381.168 110.168L381.515 110.516L382.002 110.453L387.402 109.759L388.528 109.614L388.243 108.515L384.851 95.4738Z" fill="#0D9488" stroke="black" stroke-width="2"/>
<path d="M322.091 98.0921L321.781 97.9236L321.434 97.9872L309.519 100.169L309.611 102.148L328.649 103.835L329.214 101.96L322.091 98.0921Z" fill="#0D9488" stroke="black" stroke-width="2"/>
<path d="M375.023 102.863L374.049 100.224L373.139 102.885L366.94 120.993L366.231 123.063L368.26 122.244L379.472 117.72L380.372 117.357L380.036 116.446L375.023 102.863Z" fill="#0D9488" stroke="black" stroke-width="2"/>
<path d="M367.426 109.622L368.217 109.365L368.108 108.541L367.679 105.292L367.277 102.248L365.809 104.945L363.568 109.064L362.367 111.271L364.756 110.493L367.426 109.622Z" fill="#0D9488" stroke="black" stroke-width="2"/>
<path d="M296.155 109.712L296.513 108.297L295.064 108.475L292.006 108.85L291.047 108.968L291.132 109.931L291.901 118.612L293.866 118.769L296.155 109.712Z" fill="#0D9488" stroke="black" stroke-width="2"/>
<path d="M346.668 122.76L346.201 122.533L345.746 122.785L334.838 128.835L334.305 129.13L334.324 129.74L334.58 138.12L334.625 139.577L335.968 139.011L357.575 129.906L359.607 129.05L357.623 128.085L346.668 122.76Z" fill="#0D9488" stroke="black" stroke-width="2"/>
<path d="M359.191 122.994L358.176 122.75L357.975 123.774L355.663 135.582L355.217 137.855L357.177 136.62L371.375 127.67L373.38 126.406L371.076 125.852L359.191 122.994Z" fill="#0D9488" stroke="black" stroke-width="2"/>
<path d="M390.285 124.076L389.829 124.032L389.498 124.35L384.383 129.252L383.156 130.429L384.781 130.93L402.072 136.261L403.503 136.703L403.362 135.212L402.498 126.065L402.42 125.243L401.598 125.164L390.285 124.076Z" fill="#0D9488" stroke="black" stroke-width="2"/>
<path d="M387.61 131.567L384.569 130.775L386.593 133.178L397.227 145.806L397.757 146.436L398.478 146.036L406.202 141.741L406.924 141.34L406.667 140.555L405.391 136.669L405.221 136.151L404.693 136.013L387.61 131.567Z" fill="#0D9488" stroke="black" stroke-width="2"/>
<path d="M377.914 135.885L379.691 133.343L376.764 134.368L364.658 138.609L364.207 138.767L364.047 139.217L360.208 149.991L359.778 151.199L361.055 151.322L366.163 151.813L366.744 151.869L367.078 151.391L377.914 135.885Z" fill="#0D9488" stroke="black" stroke-width="2"/>
<path d="M308.002 212.385L307.137 211.751L306.565 212.658L304.723 215.579L303.866 216.938L305.464 217.106L312.271 217.825L315.955 218.213L312.967 216.024L308.002 212.385Z" fill="#0D9488" stroke="black" stroke-width="2"/>
<path d="M339.101 225.571L337.526 225.094L337.827 226.711L341.106 244.315L343.085 244.04L342.056 232.863L350.462 230.969L354.16 230.137L350.533 229.037L339.101 225.571Z" fill="#0D9488" stroke="black" stroke-width="2"/>
<path d="M285.06 237.777L284.985 236.901L284.107 236.863L278.832 236.633L275.699 236.497L278.174 238.422L283.801 242.797L285.604 244.199L285.411 241.923L285.06 237.777Z" fill="#0D9488" stroke="black" stroke-width="2"/>
<path d="M314.527 237.456L314.291 236.37L313.236 236.718L307.276 238.688L303.921 239.797L307.359 240.611L314.094 242.205L315.639 242.571L315.302 241.02L314.527 237.456Z" fill="#0D9488" stroke="black" stroke-width="2"/>
<path d="M309.895 261.544L310.649 260.733L309.766 260.065L308.561 259.155L314.235 260.222L316.184 260.588L315.32 258.803L312.674 253.334L312.528 253.033L312.229 252.88L285.765 239.338L283.339 238.096L284.386 240.612L291.526 257.769L291.743 258.291L292.302 258.374L301.521 259.754L303.859 265.917L304.43 267.423L305.526 266.244L309.895 261.544Z" fill="#0D9488" stroke="black" stroke-width="2"/>
<path d="M324.726 242.528L323.8 241.76L323.214 242.811L320.758 247.215L320.004 248.569L321.548 248.699L330.191 249.426L333.364 249.693L330.913 247.66L324.726 242.528Z" fill="#0D9488" stroke="black" stroke-width="2"/>
<path d="M278.491 247.321L277.068 246.559L277.02 248.173L276.71 258.592L276.682 259.545L277.632 259.619L282.573 260.003L283.541 260.079L283.645 259.113L284.491 251.242L284.563 250.572L283.969 250.254L278.491 247.321Z" fill="#0D9488" stroke="black" stroke-width="2"/>
<path d="M285.441 252.569L282.394 250.915L284.091 253.938L291.804 267.674L292.041 268.096L292.519 268.172L301.245 269.56L303.252 269.88L302.281 268.095L297.495 259.297L297.353 259.038L297.093 258.896L285.441 252.569Z" fill="#0D9488" stroke="black" stroke-width="2"/>
<path d="M295.605 269.828L295.538 269.312L295.078 269.07L292.146 267.53L290.848 268.969L294.24 274.065L296.064 273.383L295.605 269.828Z" fill="#0D9488" stroke="black" stroke-width="2"/>
<path d="M333.177 271.171L333.106 271.113L333.026 271.069L330.421 269.645L329.366 271.34L335.69 275.789L336.896 274.196L333.177 271.171Z" fill="#0D9488" stroke="black" stroke-width="2"/>
<path d="M317.827 274.108L315.653 272.43L316.239 275.113L317.252 279.751L317.385 280.358L317.989 280.508L325.338 282.326L326.189 280.563L317.827 274.108Z" fill="#0D9488" stroke="black" stroke-width="2"/>
<path d="M337.92 281.227L337.782 281.083L337.599 281.004L326.566 276.221L325.482 277.866L338.711 290.328L339.149 291.784L334.464 290.452L331.497 289.608L333.405 292.032L342.328 303.372L343.319 304.631L343.804 303.624L344.569 304.805L349.832 312.932L349.93 313.084L350.076 313.191L365.382 324.546L365.68 324.266L366.182 324.62L388.427 340.314L389.852 341.319L390 339.581L390.673 331.636L390.711 331.189L390.403 330.864L337.641 275.095L335.997 276.18L338.406 281.73L337.92 281.227ZM344.061 303.09L345.719 299.65L349.508 303.751L345.529 303.268L344.061 303.09ZM368.831 322.317L366.571 322.82L364.059 318.955H367.663L368.831 322.317Z" fill="#0D9488" stroke="black" stroke-width="2"/>
<path d="M259.492 288.761L258.958 287.444L257.899 288.391L248.958 296.378L247.938 297.289L249.115 297.984L256.685 302.458L257.509 302.945L258.032 302.143L261.989 296.072L262.274 295.635L262.078 295.151L259.492 288.761Z" fill="#0D9488" stroke="black" stroke-width="2"/>
<path d="M326.333 294.819L325.805 294.028L324.988 294.515L321.794 296.42L320.057 297.455L321.934 298.207L328.025 300.648L331.017 301.846L329.229 299.165L326.333 294.819Z" fill="#0D9488" stroke="black" stroke-width="2"/>
<path d="M277.668 297.549L275.847 295.805L275.978 298.323L276.532 308.959L276.56 309.486L277.009 309.76L287.065 315.909L288.631 316.867L288.586 315.031L288.419 308.245L288.409 307.833L288.111 307.547L277.668 297.549Z" fill="#0D9488" stroke="black" stroke-width="2"/>
<path d="M314.134 327.244L314.167 327.278L314.204 327.308L330.786 341.315L332.248 339.975L326.409 331.696L328.643 333.2L329.907 334.051L330.185 332.553L331.639 324.706L331.735 324.189L331.364 323.817L306.348 298.751L304.719 299.846L312.065 317.235L299.525 309.493L298.285 311.043L314.134 327.244Z" fill="#0D9488" stroke="black" stroke-width="2"/>
<path d="M330.401 301.576L328.945 302.9L336.586 315.092L338.433 318.039V314.561V308.234V307.741L338.042 307.441L330.401 301.576Z" fill="#0D9488" stroke="black" stroke-width="2"/>
<path d="M345.353 315.637L344.752 314.691L343.88 315.395L341.699 317.156L340.778 317.9L341.665 318.684L349.175 325.318L350.682 324.033L345.353 315.637Z" fill="#0D9488" stroke="black" stroke-width="2"/>
<path d="M401.153 319.704L399.969 318.805L399.583 320.241L398.719 323.457L398.288 325.058L399.906 324.691L403.834 323.8L405.926 323.326L404.217 322.028L401.153 319.704Z" fill="#0D9488" stroke="black" stroke-width="2"/>
<path d="M331.4 319.626L331.109 318.983L330.406 319.042L327.485 319.286L325.114 319.485L326.915 321.04L331.892 325.337L333.457 324.168L331.4 319.626Z" fill="#0D9488" stroke="black" stroke-width="2"/>
<path d="M408.592 327.604L408.186 326.835L407.368 327.13L398.821 330.211L398.135 330.458L398.161 331.187L398.316 335.583L398.348 336.513L399.279 336.547L411.855 337.003L413.582 337.066L412.776 335.537L408.592 327.604Z" fill="#0D9488" stroke="black" stroke-width="2"/>
<path d="M344.686 331.835L344.522 331.426L344.109 331.271L339.186 329.42L338.2 331.13L344.423 336.226L345.985 335.081L344.686 331.835Z" fill="#0D9488" stroke="black" stroke-width="2"/>
<path d="M346.426 336.79L349.072 344.761L347.118 343.07L346.247 342.317L345.623 343.285L341.335 349.931L331.695 342.845L329.918 341.538L330.107 343.737L333.222 379.967L311.78 394.916L311.321 395.236L311.353 395.795L312.206 410.377L312.257 411.25L313.128 411.316L331.933 412.742L338.07 421.868L338.518 422.535L339.266 422.24L389.185 402.587L429.24 434.938L429.408 435.075L429.618 435.129L448.137 439.912L448.715 440.061L449.121 439.624L452.983 435.457L453.632 434.758L452.963 434.077L445.452 426.428L450.27 422.845L471.942 429.784L473.504 430.284L473.233 428.667L472.059 421.648L471.972 421.13L471.496 420.907L443.805 407.981L424.592 380.883L422.955 378.573L422.778 381.399L421.738 398.044L413.236 400.353L384.405 367.224L383.654 366.36L382.899 367.221L377.006 373.941L369.937 367.551L379.6 367.181L381.238 367.118L380.433 365.69L376.344 358.437L376.249 358.267L376.097 358.146L348 335.693L345.363 333.586L346.426 336.79Z" fill="#0D9488" stroke="black" stroke-width="2"/>
<path d="M342.746 336.699L342.189 335.847L341.347 336.419L335.995 340.058L335.173 340.617L335.726 341.442L338.432 345.48L338.863 346.122L339.592 345.868L345.839 343.692L347.047 343.271L346.347 342.2L342.746 336.699Z" fill="#0D9488" stroke="black" stroke-width="2"/>
<path d="M428.72 353.824L427.487 352.304L426.978 354.194L425.666 359.055L425.48 359.745L426.073 360.144L437.642 367.938L438.978 366.479L428.72 353.824Z" fill="#0D9488" stroke="black" stroke-width="2"/>
<path d="M398.029 371.433L396.261 372.321L399.986 383.625L400.13 384.06L400.553 384.235L406.495 386.703L409.676 388.024L407.697 385.205L398.029 371.433Z" fill="#0D9488" stroke="black" stroke-width="2"/>
<path d="M325.359 420.998L324.962 420.444L324.301 420.612L300.918 426.554L297.95 427.309L300.791 428.451L321.319 436.707L322.356 437.124L322.655 436.046L323.647 432.474L330.833 431.053L332.357 430.751L331.451 429.489L325.359 420.998Z" fill="#0D9488" stroke="black" stroke-width="2"/>
<path d="M259.957 436.819L260.04 434.477L258.292 436.037L254.745 439.202L253.965 439.898L254.696 440.647L258.01 444.041L259.642 445.713L259.725 443.378L259.957 436.819Z" fill="#0D9488" stroke="black" stroke-width="2"/>
<path d="M285.136 489.685L291.843 533.464L292.029 534.681L293.182 534.249L302.445 530.78L303.028 530.562L303.089 529.942L304.748 513.061L313.088 506.029L333.115 525.014L334.441 526.271L334.786 524.477L338.756 503.779L360.755 472.897L361.23 472.229L360.668 471.631L328.166 437.081L327.82 436.714L327.319 436.774L316.173 438.106L315.475 438.189L315.317 438.874L312.629 450.525L301.162 458.192L290.917 451.385L289.39 450.37L289.364 452.204L289.161 466.45L281.867 460.298L288.542 453.292L288.928 452.887L288.785 452.347L285.155 438.611L283.205 438.688L282.193 444.259L270.3 453.669L270.084 453.839L269.986 454.097L260.42 479.175L260.165 479.843L260.714 480.3L278.691 495.27L279.421 495.878L280.066 495.179L285.136 489.685Z" fill="#0D9488" stroke="black" stroke-width="2"/>
<path d="M237.886 437.479L237.227 437.067L236.665 437.605L232.958 441.154L232.227 441.854L232.936 442.577L237.025 446.743L237.627 447.357L238.324 446.853L243.879 442.842L245.085 441.971L243.823 441.183L237.886 437.479Z" fill="#0D9488" stroke="black" stroke-width="2"/>
<path d="M245.778 443.735L244.711 443.642L244.69 444.712L244.535 452.583L244.514 453.662L245.592 453.601L259.093 452.829L260.219 452.764L260.02 451.654L258.941 445.634L258.806 444.881L258.044 444.814L245.778 443.735Z" fill="#0D9488" stroke="black" stroke-width="2"/>
<path d="M248.518 452.53L247.495 452.479L247.468 453.502L247.236 462.22L247.213 463.053L248.03 463.225L255.742 464.846L256.758 465.06L256.934 464.037L258.632 454.16L258.824 453.049L257.697 452.992L248.518 452.53Z" fill="#0D9488" stroke="black" stroke-width="2"/>
<path d="M303.897 62.1354L303.459 60.4404L302.221 61.6785L294.92 68.9831L292.458 71.4458L295.851 70.6646L304.524 68.6678L305.524 68.4374L305.268 67.4432L303.897 62.1354Z" fill="#0D9488" stroke="black" stroke-width="2"/>
</svg>
