<svg width="652" height="625" viewBox="0 0 652 625" fill="none" xmlns="http://www.w3.org/2000/svg">
<mask id="path-1-outside-1_0_472" maskUnits="userSpaceOnUse" x="0.0380859" y="-0.32373" width="652" height="625" fill="black">
<rect fill="white" x="0.0380859" y="-0.32373" width="652" height="625"/>
<path d="M621.465 519.964L616.839 580.898L594.13 612.656L590.655 596.068L557.116 584.016L550.625 546.071L540.253 553.206L508.347 532.875L476.768 484.082L464.389 490.204L468.71 504.431L463.077 504.557L462.773 523.249L441.912 522.891L447.467 540.57L453.046 539.771L443.259 545.404L455.633 559.768L437.9 568.798L456.527 577.113L436.893 585.333L427.791 575.468L419.363 581.268L424.978 574.842L418.666 569.973L402.781 569.329L403.038 562.385L377.354 555.459L367.716 542.537L332.74 528.077L313.619 504.813L284.555 497.714L263.33 510.982L295.582 551.942L320.533 618.485L278.988 622.365L270.668 615.642L276.944 611.374L273.803 600.884L233.969 557.873L200.441 538.15L206.074 530.92L199.994 519.613L136.283 473.205L115.695 448.224L118.253 434.479L90.9834 423.995L99.1611 409.052L94.1961 397.036L57.116 368.294L46.7329 371.06L46.8521 357.887L36.2902 348.875L20.2327 355.903L21.3115 346.372L4.03809 334.338L39.336 303.719L64.7633 299.993L79.8075 316.188L73.7696 335.72L92.5808 348.029L98.875 327.131L106.534 334.063L133.583 327.406L148.12 336.972L159.356 335.613L171.015 320.599L209.829 323.15L219.11 302.819L197.151 270.12L212.07 248.09L206.718 207.714L219.735 178.996L289.699 140.825L295.672 149.08L336.555 153.652L398.198 128.702L427.869 93.5408L423.869 85.828L433.829 62.9398L471.887 46.4174L473.288 25.1683L487.164 4.67627L493.911 24.9538L509.015 18.892L514.248 31.8441L540.14 35.9329L539.586 50.6672L546.244 47.7645L550.631 60.7464L563.511 63.822L557.849 67.8512L569.281 81.9239L562.54 94.8223L578.394 93.7077L575.277 103.936L591.138 108.305L589.278 118.259L604.746 119.379L609.949 111.798L621.489 117.031L622.854 170.759L633.713 187.99L625.774 194.076L648.346 202.349L640.526 246.707L649.246 260.487L635.913 270.304L633.868 301.996L645.462 341.663L634.286 362.161L634.739 430.969L622.621 450.185L621.465 519.964Z"/>
</mask>
<path d="M621.465 519.964L616.839 580.898L594.13 612.656L590.655 596.068L557.116 584.016L550.625 546.071L540.253 553.206L508.347 532.875L476.768 484.082L464.389 490.204L468.71 504.431L463.077 504.557L462.773 523.249L441.912 522.891L447.467 540.57L453.046 539.771L443.259 545.404L455.633 559.768L437.9 568.798L456.527 577.113L436.893 585.333L427.791 575.468L419.363 581.268L424.978 574.842L418.666 569.973L402.781 569.329L403.038 562.385L377.354 555.459L367.716 542.537L332.74 528.077L313.619 504.813L284.555 497.714L263.33 510.982L295.582 551.942L320.533 618.485L278.988 622.365L270.668 615.642L276.944 611.374L273.803 600.884L233.969 557.873L200.441 538.15L206.074 530.92L199.994 519.613L136.283 473.205L115.695 448.224L118.253 434.479L90.9834 423.995L99.1611 409.052L94.1961 397.036L57.116 368.294L46.7329 371.06L46.8521 357.887L36.2902 348.875L20.2327 355.903L21.3115 346.372L4.03809 334.338L39.336 303.719L64.7633 299.993L79.8075 316.188L73.7696 335.72L92.5808 348.029L98.875 327.131L106.534 334.063L133.583 327.406L148.12 336.972L159.356 335.613L171.015 320.599L209.829 323.15L219.11 302.819L197.151 270.12L212.07 248.09L206.718 207.714L219.735 178.996L289.699 140.825L295.672 149.08L336.555 153.652L398.198 128.702L427.869 93.5408L423.869 85.828L433.829 62.9398L471.887 46.4174L473.288 25.1683L487.164 4.67627L493.911 24.9538L509.015 18.892L514.248 31.8441L540.14 35.9329L539.586 50.6672L546.244 47.7645L550.631 60.7464L563.511 63.822L557.849 67.8512L569.281 81.9239L562.54 94.8223L578.394 93.7077L575.277 103.936L591.138 108.305L589.278 118.259L604.746 119.379L609.949 111.798L621.489 117.031L622.854 170.759L633.713 187.99L625.774 194.076L648.346 202.349L640.526 246.707L649.246 260.487L635.913 270.304L633.868 301.996L645.462 341.663L634.286 362.161L634.739 430.969L622.621 450.185L621.465 519.964Z" fill="#0D9488"/>
<path d="M621.465 519.964L616.839 580.898L594.13 612.656L590.655 596.068L557.116 584.016L550.625 546.071L540.253 553.206L508.347 532.875L476.768 484.082L464.389 490.204L468.71 504.431L463.077 504.557L462.773 523.249L441.912 522.891L447.467 540.57L453.046 539.771L443.259 545.404L455.633 559.768L437.9 568.798L456.527 577.113L436.893 585.333L427.791 575.468L419.363 581.268L424.978 574.842L418.666 569.973L402.781 569.329L403.038 562.385L377.354 555.459L367.716 542.537L332.74 528.077L313.619 504.813L284.555 497.714L263.33 510.982L295.582 551.942L320.533 618.485L278.988 622.365L270.668 615.642L276.944 611.374L273.803 600.884L233.969 557.873L200.441 538.15L206.074 530.92L199.994 519.613L136.283 473.205L115.695 448.224L118.253 434.479L90.9834 423.995L99.1611 409.052L94.1961 397.036L57.116 368.294L46.7329 371.06L46.8521 357.887L36.2902 348.875L20.2327 355.903L21.3115 346.372L4.03809 334.338L39.336 303.719L64.7633 299.993L79.8075 316.188L73.7696 335.72L92.5808 348.029L98.875 327.131L106.534 334.063L133.583 327.406L148.12 336.972L159.356 335.613L171.015 320.599L209.829 323.15L219.11 302.819L197.151 270.12L212.07 248.09L206.718 207.714L219.735 178.996L289.699 140.825L295.672 149.08L336.555 153.652L398.198 128.702L427.869 93.5408L423.869 85.828L433.829 62.9398L471.887 46.4174L473.288 25.1683L487.164 4.67627L493.911 24.9538L509.015 18.892L514.248 31.8441L540.14 35.9329L539.586 50.6672L546.244 47.7645L550.631 60.7464L563.511 63.822L557.849 67.8512L569.281 81.9239L562.54 94.8223L578.394 93.7077L575.277 103.936L591.138 108.305L589.278 118.259L604.746 119.379L609.949 111.798L621.489 117.031L622.854 170.759L633.713 187.99L625.774 194.076L648.346 202.349L640.526 246.707L649.246 260.487L635.913 270.304L633.868 301.996L645.462 341.663L634.286 362.161L634.739 430.969L622.621 450.185L621.465 519.964Z" stroke="black" stroke-width="4" mask="url(#path-1-outside-1_0_472)"/>
</svg>
