<svg width="2538" height="1562" viewBox="0 0 2538 1562" fill="none" xmlns="http://www.w3.org/2000/svg">
<path d="M680.928 247.126L644.374 288.702L645.696 290.183L663.077 278.09L692.149 272.403L692.527 272.329L692.757 272.02L703.176 258.097L703.647 257.468L703.148 256.862L691.955 243.265L699.074 242.36L715.099 246.333L715.987 246.553L716.285 245.688L718.878 238.172L719.056 237.655L718.717 237.226L709.304 225.327L715.424 209.781L715.825 208.762L714.774 208.455L698.108 203.585L697.765 203.485L697.436 203.625L680.533 210.813L680.288 210.917L680.127 211.129L665.476 230.452L625.959 231.989L625.614 232.002L625.351 232.226L595.787 257.356L595.471 257.624L595.437 258.037L594.591 268.558L594.569 268.827L594.687 269.071L602.09 284.461L602.317 284.935L602.837 285.016L617.189 287.257L617.734 287.342L618.097 286.927L629.934 273.379L680.928 247.126Z" fill="#0D9488" stroke="black" stroke-width="2"/>
<path d="M351.056 145.626L373.358 147.493L374.65 147.601L374.426 146.323L371.726 130.939L371.656 130.539L371.326 130.301L337.78 106.119L337.573 105.97L337.318 105.938L310.578 102.63L283.188 83.7848L282.9 83.5865L282.551 83.6111L146.426 93.2134L146.068 93.2387L145.808 93.4861L119.267 118.713L88.7092 98.703L88.0811 98.2917L87.5109 98.7801L67.1559 116.214L66.8236 116.499L66.8071 116.936L64.8044 170.187L64.7937 170.473L64.936 170.722L82.6028 201.561L82.7293 201.782L82.9459 201.916L104.095 214.949L112.466 238.968L112.602 239.359L112.975 239.54L146.89 255.913L205.727 290.38L205.839 290.446L205.965 290.481L268.699 307.88L269.175 308.012L269.569 307.714L288.764 293.228L328.14 284.15L328.378 284.095L328.564 283.936L355.279 261.153L402.226 253.699L402.76 253.614L402.982 253.121L411.541 234.023L411.611 233.867L411.625 233.697L416.411 176.179L416.467 175.504L415.862 175.201L387.079 160.825L386.305 160.438L385.811 161.147L377.739 172.729L362.692 171.368L351.056 145.626Z" fill="#0D9488" stroke="black" stroke-width="2"/>
<path d="M389.678 296.283L389.241 296.164L388.864 296.414L380.221 302.136L379.625 302.531L379.806 303.222L381.963 311.496L382.084 311.959L382.521 312.155L402.507 321.132L403.619 321.631L403.891 320.443L408.058 302.264L408.272 301.327L407.345 301.075L389.678 296.283Z" fill="#0D9488" stroke="black" stroke-width="2"/>
<path d="M2446.49 715.991L2445.85 715.406L2445.18 715.954L2424.23 733.084L2422.53 734.467L2424.69 734.843L2439.78 737.478L2440.51 737.605L2440.84 736.947L2447.21 724.445L2452.89 724.164L2455.28 724.045L2453.51 722.428L2446.49 715.991Z" fill="#0D9488" stroke="black" stroke-width="2"/>
<path d="M2453.16 725.608L2454.28 723.7L2452.11 724.121L2445.71 725.36L2445.22 725.454L2445 725.893L2440.76 734.339L2439.95 735.943L2441.74 735.784L2446.98 735.319L2447.5 735.274L2447.76 734.828L2453.16 725.608Z" fill="#0D9488" stroke="black" stroke-width="2"/>
<path d="M2458.3 736.689L2458.92 736.123L2458.47 735.414L2455.76 731.152L2455.21 730.281L2454.36 730.862L2449.58 734.116L2448.58 734.794L2449.43 735.648L2453.52 739.755L2454.19 740.434L2454.9 739.788L2458.3 736.689Z" fill="#0D9488" stroke="black" stroke-width="2"/>
<path d="M2421.22 760.48L2421.1 761.437L2420.09 761.629L2417.47 762.125L2419.77 763.474L2428.33 768.497L2424.86 779.158L2424.63 779.888L2425.27 780.306L2432.39 784.926L2432.89 785.249L2433.41 784.966L2438.98 781.949L2454.26 784.246L2457.76 788.256L2458.41 788.997L2459.16 788.361L2466.01 782.568L2479.31 784.758L2481.84 785.174L2480.26 783.156L2476.01 777.709L2479.08 778.963L2480.19 779.415L2480.44 778.246L2482.32 769.431L2482.49 768.631L2481.74 768.305L2467.97 762.314L2466.4 747.859L2466.35 747.355L2465.91 747.101L2457.21 742.064L2456.04 741.389L2455.73 742.703L2454.15 749.491L2453.82 743.672L2453.78 742.903L2453.02 742.749L2444.42 740.996L2443.59 740.828L2443.29 741.614L2440.34 749.187L2424.82 741.34L2423.55 740.695L2423.38 742.116L2421.22 760.48Z" fill="#0D9488" stroke="black" stroke-width="2"/>
<path d="M2472.49 753.524L2472.61 752.99L2472.22 752.605L2467.65 748.051L2466.01 749.12L2469.58 758.323L2470.79 761.439L2471.49 758.173L2472.49 753.524Z" fill="#0D9488" stroke="black" stroke-width="2"/>
<path d="M2361.98 760.094L2361.7 759.313L2360.87 759.457L2355.13 760.464L2354.26 760.617L2354.31 761.503L2355.29 779.867L2355.42 782.247L2357.03 780.488L2365.53 771.196L2365.94 770.745L2365.73 770.173L2361.98 760.094Z" fill="#0D9488" stroke="black" stroke-width="2"/>
<path d="M2425.99 767.08L2425.51 765.845L2424.46 766.651L2421.75 768.719L2420.48 769.692L2421.91 770.408L2426.29 772.596L2428.61 773.76L2427.66 771.336L2425.99 767.08Z" fill="#0D9488" stroke="black" stroke-width="2"/>
<path d="M2403.16 848.041L2389.31 847.289L2388.32 847.235L2388.26 848.225L2387.44 861.396L2367.63 875.079L2367.2 875.371L2367.19 875.886L2367.06 883.938L2367.05 884.558L2367.6 884.843L2377.3 889.853L2368.36 909.389L2367.71 910.829L2369.29 910.805L2405.17 910.263L2405.72 910.254L2406.01 909.784L2415.95 893.505L2433.62 882.118L2447.21 886.454L2446.95 887.005L2448.29 887.208L2454.37 888.126L2455.2 888.252L2455.47 887.456L2460.57 872.296L2461.34 884.667L2461.41 885.797L2462.53 885.587L2471.02 883.983L2482.53 898.709L2482.97 899.263L2483.63 899.042L2492.59 896.086L2493.7 895.72L2493.17 894.68L2490.07 888.649L2493.66 888.927L2494.26 887.08L2482.5 879.811L2500.07 874.269L2501.27 873.892L2500.63 872.811L2497.39 867.255L2499.81 863.664L2500.55 862.558L2499.28 862.152L2481.46 856.466L2481.2 856.382L2484.33 853.885L2485.13 853.239L2484.46 852.453L2468.22 833.473L2469.85 827.864L2470.08 827.066L2469.33 826.693L2463.01 823.51L2462.57 823.29L2462.13 823.502L2456.31 826.289L2438.03 806.604L2432.91 782.561L2432.79 782.019L2432.27 781.83L2426.7 779.804L2426.24 773.576L2424.29 773.333L2420.89 783.485L2411.91 772.925L2410.78 771.591L2410.21 773.246L2399.83 803.242L2383.14 816.071L2382.65 816.447L2382.76 817.052L2384.1 823.988L2370.17 819.835L2355.59 809.184L2354.77 808.578L2354.18 809.422L2343.18 825.319L2342.66 826.074L2343.37 826.659L2356.99 837.895L2357.33 838.175L2357.77 838.113L2372.15 836.067L2377.72 840.886L2377.06 847.876L2376.82 850.356L2378.71 848.728L2387.73 840.941L2403.16 848.041Z" fill="#0D9488" stroke="black" stroke-width="2"/>
<path d="M2483.12 785.309L2483.67 785.068L2483.72 784.463L2484.18 778.085L2482.28 777.571L2478.41 785.427L2477.2 787.868L2479.7 786.787L2483.12 785.309Z" fill="#0D9488" stroke="black" stroke-width="2"/>
<path d="M2463.54 786.116L2463.52 791.058L2454.05 783.336L2453.76 783.095L2453.38 783.112L2432.66 784L2431.48 784.051L2431.73 785.209L2436.35 806.726L2436.4 806.995L2436.59 807.196L2455.43 827.492L2455.93 828.037L2456.6 827.709L2462.52 824.801L2483.63 833.306L2484.67 833.724L2484.97 832.648L2488.96 818.354L2498.82 812.515L2499.58 812.067L2499.23 811.26L2493.06 796.889L2492.85 796.39L2492.31 796.298L2477.18 793.703L2476.83 787.613L2476.79 786.791L2475.97 786.679L2464.67 785.129L2463.54 784.973L2463.54 786.116Z" fill="#0D9488" stroke="black" stroke-width="2"/>
<path d="M2352.44 799.4L2351.55 800.33L2352.67 800.962L2362.11 806.273L2362.82 806.676L2363.36 806.051L2381.75 784.534L2382.95 783.124L2381.11 782.892L2370.11 781.509L2369.61 781.446L2369.27 781.81L2352.44 799.4Z" fill="#0D9488" stroke="black" stroke-width="2"/>
<path d="M2470.53 835.55L2470.47 835.896L2470.63 836.204L2478.27 850.319L2478.59 850.893L2479.24 850.839L2490.94 849.88L2491.84 849.806L2491.85 848.901L2492.16 831.717L2492.19 830.224L2490.8 830.768L2485.54 832.823L2473.32 827.144L2472.15 826.598L2471.92 827.873L2470.53 835.55Z" fill="#0D9488" stroke="black" stroke-width="2"/>
<path d="M2511.36 830.946L2511.63 829.945L2510.62 829.712L2504.6 828.317L2503.61 828.087L2503.4 829.081L2501.79 836.603L2501.52 837.858L2502.8 837.812L2508.84 837.598L2509.58 837.572L2509.77 836.858L2511.36 830.946Z" fill="#0D9488" stroke="black" stroke-width="2"/>
<path d="M2340.64 834.258L2339.32 833.731L2339.26 835.146L2338.41 856.24L2338.37 857.25L2339.38 857.28L2352.73 857.667L2353.64 857.693L2353.75 856.794L2355.76 841.13L2355.86 840.363L2355.14 840.075L2340.64 834.258Z" fill="#0D9488" stroke="black" stroke-width="2"/>
<path d="M2496.17 847.727L2496.43 847.324L2496.27 846.874L2495.14 843.548L2493.21 843.712L2492.1 850.614L2493.93 851.304L2496.17 847.727Z" fill="#0D9488" stroke="black" stroke-width="2"/>
<path d="M2506.34 850.634L2505.92 850.448L2505.5 850.643L2497.93 854.213L2498.45 856.114L2511.44 854.951L2515.28 854.608L2511.75 853.042L2506.34 850.634Z" fill="#0D9488" stroke="black" stroke-width="2"/>
<path d="M2507.6 866.253L2506.56 864.831L2505.87 866.449L2500.15 879.83L2501.87 880.82L2509.68 870.312L2510.12 869.721L2509.69 869.126L2507.6 866.253Z" fill="#0D9488" stroke="black" stroke-width="2"/>
<path d="M2460.73 878.537L2459.98 876.267L2458.89 878.398L2455.02 885.986L2453.95 888.084L2456.21 887.396L2462.01 885.626L2462.99 885.327L2462.66 884.355L2460.73 878.537Z" fill="#0D9488" stroke="black" stroke-width="2"/>
<path d="M2456.43 887.699L2456.06 887.693L2455.78 887.925L2443.32 898.12L2440.83 896.839L2451.67 889.67L2453.22 888.65L2451.52 887.918L2434.64 880.646L2434.04 880.384L2433.56 880.843L2403.87 909.301L2381.88 915.721L2372.34 910.932L2371.82 910.67L2371.34 910.995L2362.55 916.89L2361.83 917.372L2362.2 918.152L2365 924.005L2359.74 934.819L2359.49 935.337L2359.81 935.815L2380.33 966.314L2380.88 967.128L2381.7 966.596L2385.88 963.899L2388.11 968.955L2388.66 970.202L2389.69 969.303L2391.9 967.36L2394.41 970.569L2394.96 971.267L2395.72 970.807L2403.33 966.194L2408.45 967.235L2405.76 968.533L2404.37 969.205L2405.55 970.199L2414.61 977.805L2417.07 987.659L2417.36 988.794L2418.43 988.337L2426.69 984.83L2428.87 993.484L2429.22 994.842L2430.39 994.078L2440.06 987.781L2436.44 1002.16L2436.21 1003.04L2437.08 1003.35L2459.74 1011.24L2460.17 1011.39L2460.56 1011.16L2486.5 996.627L2487.52 996.053L2486.79 995.133L2482.35 989.538L2488.04 989.423L2488.8 989.408L2488.99 988.68L2499.49 949.019L2499.97 947.184L2498.18 947.821L2483.99 952.874L2483.95 952.772L2481.62 946.237L2488.22 950.018L2488.99 950.459L2489.52 949.747L2503.49 930.965L2503.94 930.353L2503.47 929.753L2488.42 910.506L2487.8 909.715L2487.02 910.338L2486.47 910.769L2485.51 907.722L2485.39 907.35L2485.05 907.156L2465.74 896.066L2469.16 889.363L2469.89 887.936L2468.29 887.908L2456.43 887.699Z" fill="#0D9488" stroke="black" stroke-width="2"/>
<path d="M2330.97 914.01L2328.42 905.182L2327.54 902.152L2326.51 905.134L2316.56 934L2316.38 934.52L2316.72 934.95L2326.44 947.133L2326.94 947.765L2327.67 947.405L2338 942.265L2330.05 956.262L2329.38 957.443L2330.71 957.733L2348.46 961.606L2363.28 983.243L2363.56 983.647L2364.05 983.676L2377.5 984.485L2378.62 992.672L2378.92 994.861L2380.37 993.191L2383.7 989.343L2384.41 990.332L2378.45 996.256L2377.55 997.142L2378.62 997.812L2382.94 1000.53L2384.09 1001.26L2384.44 999.936L2385.89 994.408L2403.24 983.05L2404.24 982.393L2403.41 981.524L2393.54 971.123L2393 970.558L2392.32 970.94L2387.7 973.541L2386.15 966.628L2385.92 965.609L2384.91 965.881L2376.62 968.12L2370.68 951.531L2370.55 951.179L2370.23 950.996L2352.6 941.095L2363.97 921.799L2365.37 919.413L2362.77 920.35L2354.07 923.478L2350.04 916.253L2349.28 908.622L2349.15 907.336L2347.94 907.782L2330.97 914.01Z" fill="#0D9488" stroke="black" stroke-width="2"/>
<path d="M2362.59 937.368L2362.13 935.905L2360.98 936.909L2358.2 939.317L2357.38 940.036L2358.17 940.794L2363.18 945.604L2364.83 944.586L2362.59 937.368Z" fill="#0D9488" stroke="black" stroke-width="2"/>
<path d="M2348.01 965.606L2347.87 965.462L2347.69 965.382L2312.27 949.938L2309.69 948.814L2310.98 951.313L2321.56 971.807L2318.13 971.214L2316.58 970.945L2317 972.464L2322.65 993.032L2316.45 1020.66L2316.37 1021.02L2316.54 1021.34L2323.25 1034.23L2323.76 1035.21L2324.69 1034.6L2340.56 1024.11L2343.14 1024.59L2335.64 1031.64L2336.69 1033.3L2341.2 1031.52L2338.95 1033.67L2338.26 1034.33L2338.89 1035.05L2349.34 1046.96L2349.74 1069.11L2342.16 1040.12L2341.74 1038.51L2340.51 1039.63L2331.43 1047.95L2336.61 1040.39L2337.61 1038.94L2335.85 1038.83L2323.9 1038.08L2318.76 1028.86L2317.44 1026.49L2316.9 1029.14L2298.54 1120.33L2298.47 1120.7L2298.65 1121.03L2310.84 1142.48L2311.04 1142.83L2311.43 1142.94L2326.63 1147.37L2326.92 1147.45L2326.23 1147.96L2339.27 1168.17L2340.25 1169.7L2341.02 1168.05L2345.5 1158.4L2390.66 1133.84L2393.24 1132.44L2390.34 1131.98L2379.61 1130.26L2410.42 1099.09L2410.89 1098.61L2410.63 1097.99L2406.57 1088.54L2413.48 1095.23L2414.31 1096.03L2414.99 1095.1L2433.66 1069.46L2434.45 1068.38L2433.19 1067.93L2416.51 1062.04L2426.2 1050.8L2426.63 1050.3L2426.34 1049.71L2414.23 1025.09L2413.84 1024.29L2413 1024.59L2406.55 1026.9L2398.58 1014.96L2398.23 1014.44L2397.6 1014.53L2377.82 1017.49L2380.26 1012.97L2380.64 1012.27L2380.05 1011.75L2368.27 1001.16L2370.73 986.177L2371.08 983.999L2369.21 985.167L2363.27 988.872L2365.84 985.367L2366.33 984.689L2365.75 984.083L2348.01 965.606ZM2327.88 1146.84L2327.89 1146.78L2327.94 1146.9L2327.88 1146.84ZM2404.85 1087.25L2402.22 1088.6L2404.39 1086.43L2405.1 1087.12L2404.85 1087.25ZM2337.1 1137.78L2337.55 1138.06L2337.44 1138.2L2337.1 1137.78ZM2333.86 1142.86L2330.73 1141.97L2334.61 1141.89L2333.86 1142.86ZM2366.76 1081.93L2366.91 1087.03L2361.62 1083.1L2366.76 1081.93Z" fill="#0D9488" stroke="black" stroke-width="2"/>
<path d="M2346.34 958.355L2345.8 956.305L2344.56 958.025L2342.18 961.333L2341.62 962.111L2342.37 962.704L2346.47 965.928L2348.81 967.77L2348.06 964.888L2346.34 958.355Z" fill="#0D9488" stroke="black" stroke-width="2"/>
<path d="M2402.55 966.666L2401.86 965.434L2400.93 966.498L2396.14 971.97L2395.27 972.966L2396.47 973.532L2407.2 978.616L2410.04 979.964L2408.49 977.222L2402.55 966.666Z" fill="#0D9488" stroke="black" stroke-width="2"/>
<path d="M2387.75 966.627L2385.57 964.776L2386.12 967.582L2387.35 973.87L2387.66 975.452L2388.94 974.471L2392.19 971.986L2393.17 971.232L2392.22 970.43L2387.75 966.627Z" fill="#0D9488" stroke="black" stroke-width="2"/>
<path d="M2398.15 973.005L2397.18 972.347L2396.69 973.408L2395.37 976.203L2394.75 977.54L2396.22 977.626L2402.16 977.972L2405.79 978.182L2402.78 976.146L2398.15 973.005Z" fill="#0D9488" stroke="black" stroke-width="2"/>
<path d="M2403.71 977.704L2403.36 976.657L2402.35 977.111L2398.57 978.816L2396.94 979.552L2398.42 980.556L2404.05 984.364L2406.5 986.022L2405.56 983.217L2403.71 977.704Z" fill="#0D9488" stroke="black" stroke-width="2"/>
<path d="M2413.52 1027.55L2412.99 1029.72L2414.96 1028.67L2423.95 1023.9L2418.02 1040.5L2417.69 1041.42L2418.61 1041.77L2424.95 1044.16L2427.81 1053.1L2427.99 1053.65L2428.56 1053.77L2436.58 1055.48L2437.32 1055.64L2437.67 1054.97L2445.64 1039.86L2446.19 1038.81L2445.06 1038.44L2441.26 1037.19L2451.64 1034.34L2452.11 1034.21L2452.3 1033.76L2456.08 1024.6L2456.22 1024.25L2456.1 1023.89L2451.86 1011.55L2451.72 1011.13L2451.31 1010.95L2437.9 1005.12L2435.14 999.694L2434.35 998.141L2433.41 999.608L2431.53 1002.54L2426.07 988.601L2425.93 988.266L2425.62 988.091L2411.2 980.098L2410.68 979.813L2410.18 980.124L2389.27 993.166L2388.95 993.366L2388.84 993.728L2384.83 1007.16L2384.51 1008.22L2385.6 1008.43L2390.37 1009.32L2386.8 1014.74L2385.76 1016.32L2387.65 1016.29L2397.57 1016.14L2406.21 1027.24L2406.64 1027.79L2407.3 1027.58L2414.03 1025.47L2413.52 1027.55Z" fill="#0D9488" stroke="black" stroke-width="2"/>
<path d="M2506.92 1009.54L2506.53 1010.02L2506.79 1010.57L2513.03 1024.3L2509.72 1024L2508.93 1023.92L2508.68 1024.67L2506.98 1029.72L2506.73 1030.46L2507.4 1030.88L2519.44 1038.5L2520.42 1039.11L2520.89 1038.06L2536.7 1002.49L2536.83 1002.22L2536.78 1001.92L2533.84 984.224L2533.31 981.038L2531.95 983.966L2529.78 988.615L2530.11 987.46L2530.34 986.666L2529.6 986.292L2522.43 982.644L2520.93 981.881L2520.97 983.565L2521.42 998.94L2520.14 995.451L2519.52 993.788L2518.42 995.172L2506.92 1009.54Z" fill="#0D9488" stroke="black" stroke-width="2"/>
<path d="M2379.82 995.923L2380.05 995.541L2379.91 995.117L2376.71 984.859L2376.13 982.996L2374.96 984.556L2366.89 995.285L2366.5 995.815L2366.83 996.388L2372.28 1005.79L2373.13 1007.27L2374 1005.79L2379.82 995.923Z" fill="#0D9488" stroke="black" stroke-width="2"/>
<path d="M2515.87 986.629L2515.68 984.511L2514.17 986.009L2503.22 996.875L2502.86 997.224L2502.93 997.715L2503.93 1005.33L2504.2 1007.35L2505.63 1005.9L2516.28 995.184L2516.61 994.854L2516.57 994.39L2515.87 986.629Z" fill="#0D9488" stroke="black" stroke-width="2"/>
<path d="M2437.48 989.687L2437.73 987.075L2435.8 988.858L2429.94 994.288L2428.89 995.254L2430.16 995.909L2435.25 998.55L2436.56 999.232L2436.7 997.758L2437.48 989.687Z" fill="#0D9488" stroke="black" stroke-width="2"/>
<path d="M2384.66 1002.11L2383.65 1001.24L2383.1 1002.45L2381.25 1006.48L2380.05 1009.11L2382.62 1007.79L2386.71 1005.69L2388.02 1005.02L2386.9 1004.05L2384.66 1002.11Z" fill="#0D9488" stroke="black" stroke-width="2"/>
<path d="M2495.96 1004.96L2496.46 1001.8L2494.25 1004.11L2487.84 1010.79L2487.48 1011.18L2487.59 1011.7L2490.68 1025.91L2492.64 1025.85L2495.96 1004.96Z" fill="#0D9488" stroke="black" stroke-width="2"/>
<path d="M2500.64 1006.53L2498.69 1006.72L2497.51 1018.17L2497.45 1018.79L2497.97 1019.12L2503.87 1022.86L2506.17 1024.32L2505.36 1021.72L2500.64 1006.53Z" fill="#0D9488" stroke="black" stroke-width="2"/>
<path d="M2494.42 1045.44L2494.43 1045.04L2494.17 1044.75L2478.51 1027.2L2477.92 1026.54L2477.19 1027.04L2462.38 1037.37L2461.67 1037.87L2462.05 1038.64L2473.78 1062.25L2474.24 1063.17L2475.15 1062.69L2486.33 1056.76L2492.87 1059.02L2494.17 1059.47L2494.2 1058.1L2494.42 1045.44Z" fill="#0D9488" stroke="black" stroke-width="2"/>
<path d="M2462.32 1029.79L2462.63 1027.62L2460.79 1028.81L2447.9 1037.12L2447.4 1037.44L2447.44 1038.04L2448.29 1049.14L2448.4 1050.56L2449.7 1049.98L2459.58 1045.55L2460.08 1045.32L2460.16 1044.78L2462.32 1029.79Z" fill="#0D9488" stroke="black" stroke-width="2"/>
<path d="M2447.98 1040.9L2448.17 1040.6L2448.12 1040.25L2447.74 1037.14L2447.33 1033.77L2445.85 1036.83L2437.97 1053.14L2439.72 1054.1L2447.98 1040.9Z" fill="#0D9488" stroke="black" stroke-width="2"/>
<path d="M2514.67 1037.79L2514.12 1037.48L2513.6 1037.84L2499.87 1047.55L2499 1048.16L2499.66 1048.99L2510.24 1062.27L2511.16 1063.43L2511.89 1062.14L2522.53 1043.35L2523.03 1042.47L2522.15 1041.98L2514.67 1037.79Z" fill="#0D9488" stroke="black" stroke-width="2"/>
<path d="M2446.6 1045.49L2445.49 1044.11L2444.88 1045.77L2440.95 1056.49L2439.91 1059.3L2442.43 1057.67L2450.68 1052.31L2451.61 1051.71L2450.92 1050.85L2446.6 1045.49Z" fill="#0D9488" stroke="black" stroke-width="2"/>
<path d="M2487.19 1056.07L2486.57 1055.26L2485.77 1055.9L2481.24 1059.55L2480.25 1060.35L2481.27 1061.12L2486.18 1064.85L2486.94 1065.42L2487.55 1064.7L2490.33 1061.44L2490.85 1060.83L2490.36 1060.19L2487.19 1056.07Z" fill="#0D9488" stroke="black" stroke-width="2"/>
<path d="M2476.6 1068.44L2476.03 1068.58L2475.87 1069.14L2468.94 1093.77L2458.23 1102.35L2457.88 1102.64L2457.86 1103.1L2457.4 1116.22L2457.37 1116.84L2457.92 1117.14L2471.42 1124.44L2472.38 1124.97L2472.81 1123.96L2481.64 1103.38L2491.15 1101.47L2491.76 1101.35L2491.92 1100.75L2497.94 1078.92L2498.09 1078.38L2497.7 1077.97L2486.83 1066.47L2486.43 1066.05L2485.86 1066.19L2476.6 1068.44Z" fill="#0D9488" stroke="black" stroke-width="2"/>
<path d="M2453.17 1071.81L2453.98 1069.22L2451.69 1070.67L2446.75 1073.77L2446.08 1074.19L2446.34 1074.94L2448.42 1081.01L2449.42 1083.89L2450.33 1080.98L2453.17 1071.81Z" fill="#0D9488" stroke="black" stroke-width="2"/>
<path d="M2500.26 1071.55L2499 1069.78L2498.47 1071.89L2496.16 1081.05L2495.87 1082.19L2497.04 1082.3L2506.45 1083.15L2508.61 1083.34L2507.36 1081.57L2500.26 1071.55Z" fill="#0D9488" stroke="black" stroke-width="2"/>
<path d="M2428.58 1088.92L2427.45 1086.71L2426.73 1089.09L2422.49 1103.15L2421.69 1105.78L2423.99 1104.28L2432.55 1098.68L2433.31 1098.19L2432.9 1097.39L2428.58 1088.92Z" fill="#0D9488" stroke="black" stroke-width="2"/>
<path d="M2423.43 1095.38L2424.76 1092.42L2421.99 1094.12L2416.2 1097.69L2415.39 1098.19L2415.85 1099.03L2418.17 1103.22L2419.14 1104.98L2419.96 1103.15L2423.43 1095.38Z" fill="#0D9488" stroke="black" stroke-width="2"/>
<path d="M2426.59 1102.24L2425.61 1100.74L2424.85 1102.36L2417.91 1116.92L2416.95 1118.92L2419.09 1118.31L2432.9 1114.35L2434.19 1113.97L2433.46 1112.84L2426.59 1102.24Z" fill="#0D9488" stroke="black" stroke-width="2"/>
<path d="M2434.47 1112.3L2433.6 1111.77L2433.08 1112.64L2426.98 1122.9L2428.38 1124.25L2439.49 1117.1L2440.82 1116.24L2439.48 1115.41L2434.47 1112.3Z" fill="#0D9488" stroke="black" stroke-width="2"/>
<path d="M2471.19 1139.17L2470.69 1138.78L2470.13 1139.07L2447.52 1150.81L2446.23 1151.48L2447.32 1152.45L2453.25 1157.73L2453.81 1158.23L2454.45 1157.83L2475.82 1144.38L2477.05 1143.61L2475.9 1142.74L2471.19 1139.17Z" fill="#0D9488" stroke="black" stroke-width="2"/>
<path d="M2495.68 1148.4L2496.45 1148.27L2496.51 1147.49L2496.89 1141.98L2494.95 1141.59L2494.13 1144.03L2494.1 1143.85L2493.02 1144.12L2481.86 1146.95L2476.5 1143.76L2475.41 1145.44L2480.42 1149.01L2480.8 1149.28L2481.25 1149.17L2481.55 1149.09L2483.58 1150.3L2483.9 1150.49L2484.26 1150.42L2494.34 1148.64L2494.68 1148.67L2494.71 1148.58L2495.68 1148.4Z" fill="#0D9488" stroke="black" stroke-width="2"/>
<path d="M2436.61 1156.18L2436.07 1155.39L2435.26 1155.9L2429.39 1159.55L2430.06 1161.39L2437.7 1160.31L2439.31 1160.08L2438.38 1158.75L2436.61 1156.18Z" fill="#0D9488" stroke="black" stroke-width="2"/>
<path d="M2427.91 1163.48L2427.14 1162.75L2426.46 1163.57L2420.82 1170.25L2419.14 1172.25L2421.73 1171.89L2432.76 1170.33L2434.81 1170.04L2433.31 1168.62L2427.91 1163.48Z" fill="#0D9488" stroke="black" stroke-width="2"/>
<path d="M642.033 74.6905L648.488 85.1656L618.213 86.996L617.856 87.0176L617.594 87.2608L593.997 109.135L573.259 111.264L571.765 111.418L572.483 112.737L601.674 166.368L588.546 204.061L588.435 204.38L588.54 204.701L595.716 226.653L596.227 228.215L597.379 227.044L608.335 215.916L608.722 215.522L608.595 214.985L604.664 198.312L615.648 174.796L634.431 163.98L634.839 163.746L634.917 163.281L644.731 105.49L669.168 88.0086L673.506 103L661.938 112.173L661.402 112.598L661.604 113.252L667.392 131.95L668.093 134.216L669.226 132.132L673.063 125.071L692.813 125.995L730.302 188.211L730.445 188.448L730.689 188.578L746.061 196.755L746.339 196.903L746.651 196.865L806.589 189.611L806.908 189.573L807.145 189.356L813.469 183.563L814.372 182.735L813.38 182.015L806.154 176.779L808.343 168.959L865.078 126.032L886.093 132.171L886.021 148.593L870.925 158.829L869.982 159.468L870.737 160.32L877.705 168.182L878.046 168.566L878.556 168.513L919.616 164.284L1043.92 200.094L1044.65 200.305L1045.05 199.656L1054.63 184.015L1055 183.418L1054.56 182.87L1035.88 159.375L1041.99 152.334L1153.52 163.298L1178.1 203.281L1178.28 203.574L1178.61 203.694L1288.91 244.748L1307.81 265.748L1308.04 266.013L1308.39 266.068L1331.2 269.638L1345.15 289.245L1345.34 289.506L1345.64 289.611L1409.77 311.653L1412.79 312.693L1410.9 310.114L1403.3 299.784L1403.53 263.721L1420.23 233.791L1420.54 233.237L1420.17 232.722L1399.43 203.793L1407.56 195.506L1408.14 194.918L1407.67 194.239L1398.42 180.786L1398.13 180.375L1397.63 180.354L1359.4 178.758L1342 109.31L1341.92 108.995L1341.68 108.787L1328.02 97.3484L1327.77 97.1402L1327.45 97.1175L1312.11 96.0419L1281.8 64.2019L1281.59 63.9806L1281.29 63.9149L1261.31 59.5101L1261.04 59.4514L1260.78 59.5359L1228.96 69.9044L1218.47 63.7199L1218.17 63.5439L1217.83 63.5906L1184.03 68.1872L1150.24 51.8311L1147.64 44.012L1147.16 42.5625L1146.02 43.5846L1141.8 47.3894L1141.41 39.4222L1141.36 38.1773L1140.15 38.5053L1122.88 43.2167L1115.58 30.1196L1115.37 29.7518L1114.96 29.6417L1049.37 11.8589L1044.01 4.43329L1042.87 2.86426L1042.25 4.69569L1040.06 11.1032L1001.12 8.75298L1000.42 8.71072L1000.14 9.35482L992.164 27.8354L957.984 45.7789L957.526 46.0194L957.458 46.5322L956.556 53.2982L948.913 45.716L946.433 43.2557L947.236 46.6556L949.54 56.4203L933.117 58.6656L920.637 50.7724L919.42 37.9095L919.22 35.7901L917.716 37.2977L916.318 38.7001L919.081 28.2945L919.172 27.9508L919.026 27.6266L911.391 10.7048L910.984 9.80326L910.078 10.2001L873.934 26.0341L827.907 25.4945L759.926 20.8592L759.728 20.8456L759.539 20.9093L729 31.2055L663.828 29.3569L663.122 29.3369L662.867 29.9959L655.198 49.8302L637.909 59.7748L638.433 61.6413L650.55 61.336L651.453 67.9222L642.374 73.3057L641.499 73.8246L642.033 74.6905Z" fill="#0D9488" stroke="black" stroke-width="2"/>
<path d="M798.403 244.658L799.936 246.294L800.128 244.059L801.385 229.428L821.531 241.657L823.083 242.599L823.05 240.784L822.508 210.94L822.497 210.352L821.978 210.076L812.107 204.819L810.983 204.22L810.668 205.454L807.4 218.258L776.593 205.628L775.639 205.237L775.277 206.203L771.808 215.478L771.591 216.059L772.016 216.512L798.403 244.658Z" fill="#0D9488" stroke="black" stroke-width="2"/>
<path d="M744.092 209.229L743.666 209.106L743.288 209.338L733.257 215.519L732.834 215.78L732.786 216.274L730.009 244.956L729.867 246.417L731.279 246.014L778.885 232.406L780.065 232.069L779.496 230.982L772.63 217.839L772.432 217.461L772.023 217.342L744.092 209.229Z" fill="#0D9488" stroke="black" stroke-width="2"/>
<path d="M833.474 245.009L832.486 244.776L832.267 245.766L829.174 259.762L828.974 260.666L829.861 260.935L836.501 262.943L837.355 263.202L837.708 262.382L843.651 248.62L844.124 247.524L842.963 247.25L833.474 245.009Z" fill="#0D9488" stroke="black" stroke-width="2"/>
<path d="M1613.49 1090.25L1612.68 1089.72L1612.12 1090.51L1593.91 1116.54L1593.62 1116.96L1593.79 1117.44L1597.88 1129.4L1598.26 1130.52L1599.3 1129.96L1615.11 1121.49L1615.44 1121.31L1615.58 1120.97L1617.51 1115.92L1617.97 1114.72L1616.69 1114.57L1608.63 1113.61L1610.34 1106.39L1618.32 1109.28L1619.01 1109.53L1619.46 1108.94L1626.32 1099.85L1626.97 1098.99L1626.07 1098.41L1613.49 1090.25Z" fill="#0D9488" stroke="black" stroke-width="2"/>
<path d="M1602.13 1131.44L1603.52 1128.41L1600.69 1130.17L1592.59 1135.23L1590.18 1136.73L1593 1137.07L1598.48 1137.72L1599.21 1137.81L1599.51 1137.15L1602.13 1131.44Z" fill="#0D9488" stroke="black" stroke-width="2"/>
<path d="M1588.18 1145.78L1587.62 1145.36L1587.03 1145.74L1581.77 1149.15L1581.38 1149.4L1581.32 1149.87L1579.93 1161.61L1579.66 1163.91L1581.52 1162.53L1595.02 1152.5L1596.1 1151.7L1595.02 1150.9L1588.18 1145.78Z" fill="#0D9488" stroke="black" stroke-width="2"/>
<path d="M938.172 1169.58L937.572 1168.64L936.706 1169.34L929.911 1174.78L928.986 1175.52L929.872 1176.31L936.434 1182.14L937.124 1182.75L937.79 1182.11L942.421 1177.68L943.017 1177.11L942.571 1176.42L938.172 1169.58Z" fill="#0D9488" stroke="black" stroke-width="2"/>
<path d="M1731.1 1180.33L1729.63 1179.03L1706.49 1196.13L1706.21 1196.34L1706.12 1196.68L1703.64 1206.09L1703.08 1208.22L1705.06 1207.24L1719.57 1200.01L1719.84 1199.87L1719.99 1199.61L1731.1 1180.33Z" fill="#0D9488" stroke="black" stroke-width="2"/>
<path d="M794.497 1203.09L794.327 1202.98L794.128 1202.95L783.865 1201.24L783.33 1201.15L782.964 1201.55L763.449 1222.77L762.635 1223.66L763.655 1224.3L797.862 1245.71L798.619 1246.19L799.175 1245.49L811.03 1230.61L811.669 1229.8L810.851 1229.19L802.606 1222.95L813.943 1217.11L815.5 1216.31L814.017 1215.37L794.497 1203.09Z" fill="#0D9488" stroke="black" stroke-width="2"/>
<path d="M1572.99 1202.96L1571.13 1199.82V1203.47V1209.3V1210.14L1571.95 1210.28L1575.81 1210.98L1577.96 1211.37L1576.85 1209.49L1572.99 1202.96Z" fill="#0D9488" stroke="black" stroke-width="2"/>
<path d="M1576.36 1210.69L1575.11 1207.82L1574.47 1210.88L1571.85 1223.32L1571.16 1226.55L1573.52 1224.24L1579.16 1218.72L1579.65 1218.24L1579.37 1217.61L1576.36 1210.69Z" fill="#0D9488" stroke="black" stroke-width="2"/>
<path d="M1660.58 1234.73L1660.86 1234.9L1661.18 1234.87L1693.63 1231.88L1714.98 1255.85L1715.72 1256.68L1716.47 1255.86L1726.88 1244.35L1727.38 1243.79L1726.99 1243.15L1707.86 1212.12L1707.53 1211.59L1706.91 1211.65L1657.45 1216.47L1657.01 1216.51L1656.74 1216.87L1649.41 1226.75L1648.75 1227.63L1649.7 1228.2L1660.58 1234.73Z" fill="#0D9488" stroke="black" stroke-width="2"/>
<path d="M1523.88 1310.02L1523.63 1310.16L1523.49 1310.4L1502.12 1348.62L1500.91 1350.78L1503.28 1350.06L1506.04 1349.22L1499 1364.81L1498.42 1366.1L1499.83 1366.22L1503.17 1366.49L1494.78 1371.28L1493.35 1372.1L1494.74 1372.99L1517.75 1387.78L1518.29 1388.13L1518.83 1387.79L1523.75 1384.67L1520.62 1388.89L1499.81 1385.23L1486.66 1374.03L1485.46 1373.01L1485.05 1374.53L1480.43 1391.58L1482.24 1392.38L1483.57 1390.26L1483.32 1396.48L1483.23 1398.89L1485 1397.25L1489.33 1393.26L1487.45 1399.18L1487.08 1400.35L1488.31 1400.48L1490.51 1400.7L1482.76 1403.36L1483.24 1405.3L1484.43 1405.11L1483.37 1405.69L1482.1 1406.4L1483.22 1407.33L1492.33 1414.98L1489.66 1417.22L1482.22 1413.46L1481.39 1413.04L1480.91 1413.84L1472.97 1427.32L1472.52 1428.08L1473.21 1428.62L1483.97 1437.01L1481.4 1463.72L1481.3 1464.74L1482.32 1464.82L1516.12 1467.16L1516.66 1467.2L1516.99 1466.76L1532.58 1445.99L1532.24 1472.77L1532.21 1474.89L1533.87 1473.56L1547.6 1462.5L1548.12 1462.08L1547.93 1461.44L1545.17 1451.9L1551.49 1446.04L1553.55 1444.13L1550.74 1444.31L1546.15 1444.6L1558.44 1435.57L1559.24 1434.98L1558.67 1434.18L1554.35 1428.12L1580.61 1411.77L1581.24 1411.38L1581.04 1410.66L1578.93 1402.82L1585.04 1404.12L1586.11 1404.35L1586.24 1403.26L1587.92 1389.04L1605.7 1387.63L1606.1 1387.59L1606.37 1387.29L1625.2 1365.72L1625.36 1365.54L1625.41 1365.3L1638.5 1310.88L1648.96 1303.05L1648.22 1301.26L1635.43 1303.16L1633.19 1295.08L1641.78 1290.94L1642.63 1290.52L1642.27 1289.65L1628.53 1256.51L1633.92 1249.6L1658.5 1247L1660.26 1246.81L1659.19 1245.4L1652.46 1236.51L1652.68 1230.1L1652.71 1229.17L1651.79 1229.07L1646.18 1228.45L1649.97 1224.97L1648.78 1223.37L1633.74 1232.21L1634.7 1216.98L1634.79 1215.65L1633.49 1215.94L1599.69 1223.41L1598.88 1223.59L1598.91 1224.42L1599.65 1246.39L1585.87 1248.44L1585.35 1248.52L1585.12 1249L1578.61 1262.78L1576.2 1261.6L1574.58 1260.8L1574.76 1262.6L1576.54 1279.7L1558.55 1279.69L1557.87 1279.69L1557.62 1280.33L1547.06 1307.02L1542.8 1300.54L1542.29 1299.76L1541.47 1300.21L1523.88 1310.02Z" fill="#0D9488" stroke="black" stroke-width="2"/>
<path d="M1588.25 1229.46L1588.09 1226.97L1586.48 1228.87L1577.23 1239.84L1576.1 1241.18L1577.82 1241.47L1587.86 1243.18L1589.1 1243.39L1589.02 1242.14L1588.25 1229.46Z" fill="#0D9488" stroke="black" stroke-width="2"/>
<path d="M1560.92 1239.51L1560.21 1238.02L1559.22 1239.33L1552.5 1248.2L1551.92 1248.97L1552.67 1249.58L1555.53 1251.91L1555.87 1252.19L1556.3 1252.13L1564.87 1250.88L1566.21 1250.69L1565.63 1249.46L1560.92 1239.51Z" fill="#0D9488" stroke="black" stroke-width="2"/>
<path d="M1583.54 1248.81L1583.42 1247.25L1582.06 1248.01L1577.58 1250.5L1575.54 1251.64L1577.77 1252.33L1582.56 1253.81L1583.97 1254.24L1583.85 1252.78L1583.54 1248.81Z" fill="#0D9488" stroke="black" stroke-width="2"/>
<path d="M1524.06 1268.01L1523.32 1267.44L1522.7 1268.13L1508.89 1283.45L1507.89 1284.56L1509.29 1285.06L1526.66 1291.29L1528.78 1292.05L1527.92 1289.96L1525.73 1284.7L1536.52 1279.58L1537.99 1278.88L1536.71 1277.89L1524.06 1268.01Z" fill="#0D9488" stroke="black" stroke-width="2"/>
<path d="M773.6 1282.12L771.765 1280.92L772.064 1283.09L773.208 1291.38L773.695 1294.9L775.116 1291.64L777.679 1285.77L778.017 1284.99L777.308 1284.53L773.6 1282.12Z" fill="#0D9488" stroke="black" stroke-width="2"/>
<path d="M1543.5 1292.68L1543.24 1289.21L1541.62 1292.29L1538.83 1297.59L1538.43 1298.36L1539.14 1298.86L1542.49 1301.27L1544.23 1302.52L1544.07 1300.39L1543.5 1292.68Z" fill="#0D9488" stroke="black" stroke-width="2"/>
<path d="M1490.05 1297.29L1489.79 1297.18L1489.5 1297.22L1448.69 1303.13L1448.07 1303.22L1447.88 1303.81L1442.36 1320.82L1441.9 1322.22L1443.37 1322.12L1465.86 1320.69L1460.14 1326.7L1459.16 1327.73L1460.47 1328.31L1468.1 1331.65L1468.7 1331.91L1469.18 1331.47L1499.97 1303.22L1501.09 1302.19L1499.7 1301.57L1490.05 1297.29Z" fill="#0D9488" stroke="black" stroke-width="2"/>
<path d="M1403.97 1315.59L1403.42 1314.44L1402.43 1315.25L1398.27 1318.68L1397.09 1319.65L1398.45 1320.34L1406.09 1324.23L1408.71 1325.57L1407.45 1322.91L1403.97 1315.59Z" fill="#0D9488" stroke="black" stroke-width="2"/>
<path d="M442.616 1368.18L443.383 1368.63L443.918 1367.92L455.255 1352.89L472.007 1349.7L472.653 1349.57L472.796 1348.93L477.04 1329.86L477.271 1328.82L476.217 1328.65L442.505 1323.4L441.272 1323.21L441.353 1324.46L442.859 1347.51L429.8 1359.18L428.774 1360.1L429.961 1360.79L442.616 1368.18Z" fill="#0D9488" stroke="black" stroke-width="2"/>
<path d="M1442.33 1342.56L1443.85 1341.32L1441 1336L1451.56 1333.1L1453.06 1332.69L1452.06 1331.49L1447.05 1325.5L1446.53 1324.88L1445.81 1325.26L1434.37 1331.45L1407.46 1322.85L1406.05 1322.4L1406.16 1323.89L1407.55 1341.47L1407.61 1342.22L1408.34 1342.37L1426.78 1346.27L1427.28 1346.37L1427.65 1346.04L1436.74 1337.97L1442.33 1342.56Z" fill="#0D9488" stroke="black" stroke-width="2"/>
<path d="M1453.28 1325.83L1453.04 1324.34L1451.77 1325.14L1448.91 1326.93L1447.51 1327.81L1448.94 1328.64L1452.41 1330.66L1454.24 1331.73L1453.9 1329.64L1453.28 1325.83Z" fill="#0D9488" stroke="black" stroke-width="2"/>
<path d="M423.746 1326.93L423.768 1325.39L422.351 1326L416.564 1328.49L414.65 1329.32L416.49 1330.29L422.2 1333.33L423.646 1334.1L423.669 1332.46L423.746 1326.93Z" fill="#0D9488" stroke="black" stroke-width="2"/>
<path d="M1491.03 1327.79L1490.13 1326.32L1489.3 1327.84L1486.53 1332.98L1485.99 1333.99L1487.06 1334.39L1494.77 1337.27L1497.5 1338.29L1495.98 1335.81L1491.03 1327.79Z" fill="#0D9488" stroke="black" stroke-width="2"/>
<path d="M1084.37 1330.61L1083.48 1330.19L1083.04 1331.06L1079.11 1338.85L1078.58 1339.9L1079.7 1340.25L1095.19 1345.13L1096.06 1345.41L1096.42 1344.56L1098.9 1338.59L1099.27 1337.71L1098.41 1337.3L1084.37 1330.61Z" fill="#0D9488" stroke="black" stroke-width="2"/>
<path d="M505.703 1337.3L503.859 1337.98L507.173 1358.14L507.603 1360.76L509.008 1358.51L513.484 1351.34L513.808 1350.82L513.494 1350.3L505.703 1337.3Z" fill="#0D9488" stroke="black" stroke-width="2"/>
<path d="M293.039 1377.18L293.035 1376.99L292.961 1376.82L288.717 1366.77L288.417 1366.06L287.655 1366.17L263.992 1369.54L241.213 1352.33L237.679 1339.42L237.43 1338.51L236.507 1338.71L193.526 1347.82L193.317 1347.86L193.145 1347.99L152.701 1377.44L129.022 1375.44L128.637 1375.4L128.33 1375.64L114.091 1386.54L48.9498 1367.84L48.0713 1367.58L47.7413 1368.44L38.7801 1391.58L24.2591 1398.26L23.5437 1398.59L23.6958 1399.36L26.118 1411.66L8.68449 1424.42L8.07241 1424.87L8.33887 1425.58L13.8814 1440.35L3.5278 1465.62L2.41511 1468.34L4.95438 1466.87L49.1803 1441.25L82.7822 1433.64L111.054 1444.12L111.212 1444.17L111.38 1444.18L179.521 1445.65L192.355 1457.59L193.304 1458.47L193.917 1457.33L216.53 1415.18L256.54 1395.19L292.427 1395.82L293.469 1395.84L293.445 1394.8L293.039 1377.18Z" fill="#0D9488" stroke="black" stroke-width="2"/>
<path d="M1479.57 1360.73L1479.15 1360.65L1478.8 1360.9L1464.36 1371.26L1443.55 1373.49L1442.7 1373.58L1442.66 1374.43L1441.73 1391.25L1441.66 1392.57L1442.95 1392.28L1463.48 1387.68L1464.35 1387.49L1464.25 1386.59L1463.23 1377.65L1480.34 1379.68L1481.12 1379.78L1481.39 1379.05L1487.41 1363.4L1487.85 1362.28L1486.66 1362.06L1479.57 1360.73Z" fill="#0D9488" stroke="black" stroke-width="2"/>
<path d="M43.43 1368.04L42.8199 1366.49L41.7375 1367.76L37.1837 1373.11L35.1026 1375.56L38.2045 1374.73L44.2245 1373.11L45.3048 1372.82L44.8963 1371.78L43.43 1368.04Z" fill="#0D9488" stroke="black" stroke-width="2"/>
<path d="M1175.73 1378.33L1174.69 1376.16L1173.89 1378.43L1170.8 1387.16L1170.51 1387.97L1171.28 1388.37L1181 1393.51L1183.67 1394.92L1182.37 1392.19L1175.73 1378.33Z" fill="#0D9488" stroke="black" stroke-width="2"/>
<path d="M1478.45 1386.43L1478.35 1383.97L1476.71 1385.81L1468.99 1394.45L1468.53 1394.97L1468.85 1395.58L1470.63 1399.01L1471.16 1400.04L1472.1 1399.36L1478.35 1394.84L1478.78 1394.52L1478.76 1393.99L1478.45 1386.43Z" fill="#0D9488" stroke="black" stroke-width="2"/>
<path d="M1195.48 1394.8L1195.3 1394.07L1194.54 1394.04L1185.05 1393.73L1184.53 1393.71L1184.22 1394.13L1181.43 1397.87L1180.69 1398.87L1181.83 1399.38L1196.57 1406L1198.44 1406.84L1197.95 1404.85L1195.48 1394.8Z" fill="#0D9488" stroke="black" stroke-width="2"/>
<path d="M1105.88 1480.46L1106.24 1480.63L1106.62 1480.51L1117.12 1477.08L1117.48 1476.96L1117.67 1476.64L1136.65 1443.99L1136.8 1443.74L1136.78 1443.44L1135.7 1420.15L1135.67 1419.46L1135.02 1419.25L1087.26 1403.21L1086.99 1403.11L1086.7 1403.18L1067.03 1408.09L1066.5 1408.22L1066.32 1408.74L1057.14 1435.76L1056.96 1436.29L1057.32 1436.73L1085.79 1470.77L1085.93 1470.94L1086.13 1471.03L1105.88 1480.46Z" fill="#0D9488" stroke="black" stroke-width="2"/>
<path d="M1041.2 1419.21L1039.54 1417.09L1039.41 1419.78L1038.35 1443.11L1038.32 1443.6L1038.69 1443.91L1046.94 1451.1L1047.82 1451.87L1048.44 1450.87L1055.85 1438.95L1056.22 1438.35L1055.78 1437.8L1041.2 1419.21Z" fill="#0D9488" stroke="black" stroke-width="2"/>
<path d="M1476.7 1466.41L1475.37 1464.66L1474.93 1466.81L1473.46 1473.9L1473.34 1474.48L1473.79 1474.86L1479.12 1479.46L1480.19 1480.38L1480.7 1479.06L1482.4 1474.7L1482.6 1474.18L1482.26 1473.73L1476.7 1466.41Z" fill="#0D9488" stroke="black" stroke-width="2"/>
<path d="M1533.33 1475.8L1533.58 1475.16L1533.07 1474.7L1530.75 1472.59L1529.77 1471.7L1529.18 1472.88L1525.4 1480.44L1524.81 1481.63L1526.11 1481.87L1529.81 1482.57L1530.63 1482.72L1530.93 1481.95L1533.33 1475.8Z" fill="#0D9488" stroke="black" stroke-width="2"/>
<path d="M1510.78 1477.58L1510.44 1474.3L1508.9 1477.22L1504.19 1486.19L1502.87 1488.7L1505.47 1487.57L1510.87 1485.23L1511.55 1484.94L1511.47 1484.21L1510.78 1477.58Z" fill="#0D9488" stroke="black" stroke-width="2"/>
<path d="M1417.69 1524.49L1417.39 1524.55L1417.17 1524.78L1383.83 1559.24L1382.19 1560.94H1384.55H1401.3H1401.61L1401.86 1560.76L1424.39 1545.48L1424.96 1545.09L1424.8 1544.42L1422.19 1533.72L1467.49 1523.17L1467.71 1523.12L1467.88 1522.98L1499.06 1498.43L1501.05 1496.87L1498.53 1496.65L1486.8 1495.63L1486.4 1495.6L1486.08 1495.86L1472.64 1506.79L1475.8 1495.66L1476.02 1494.88L1475.3 1494.5L1457.55 1485.14L1456.85 1484.78L1456.33 1485.37L1447.07 1495.89L1446.64 1496.39L1446.92 1496.98L1449.67 1502.83L1434.61 1498.32L1433.95 1498.12L1433.53 1498.67L1427.05 1507.09L1426.77 1507.45L1426.86 1507.9L1429.82 1522.11L1417.69 1524.49Z" fill="#0D9488" stroke="black" stroke-width="2"/>
<path d="M1128.67 1523.65L1129.28 1523.76L1129.65 1523.26L1154.11 1490.21L1152.74 1488.79L1130.98 1503.52L1130.78 1503.65L1130.66 1503.86L1121.25 1521.02L1120.58 1522.24L1121.96 1522.48L1128.67 1523.65Z" fill="#0D9488" stroke="black" stroke-width="2"/>
<path d="M654.193 1511.29L655.468 1510.55L654.308 1509.64L643.966 1501.53L643.66 1501.29L643.272 1501.32L605.051 1504.27L552.708 1494.76L550.681 1494.4L551.646 1496.22L563.68 1518.93L563.869 1519.28L564.254 1519.41L620.122 1537.57L620.259 1537.61L620.402 1537.62L631.286 1537.93L631.954 1537.95L632.227 1537.34L640.268 1519.39L654.193 1511.29Z" fill="#0D9488" stroke="black" stroke-width="2"/>
<path d="M523.49 1531.92L523.827 1532.07L524.181 1531.96L547.177 1525.27L547.698 1525.11L547.855 1524.59L550.555 1515.62L550.809 1514.78L550.002 1514.42L532.246 1506.56L531.742 1506.33L531.284 1506.64L507.144 1522.85L505.652 1523.85L507.289 1524.59L523.49 1531.92Z" fill="#0D9488" stroke="black" stroke-width="2"/>
<path d="M830.002 1508.26L828.058 1508.11L829.069 1509.77L835.78 1520.85L836.094 1521.37L836.698 1521.33L840.483 1521.09L841.673 1521.01L841.392 1519.86L838.918 1509.65L838.748 1508.94L838.024 1508.88L830.002 1508.26Z" fill="#0D9488" stroke="black" stroke-width="2"/>
<path d="M809.915 1508.92L807.499 1507.13L808.36 1510.01L810.291 1516.48L810.497 1517.17L811.216 1517.19L818.315 1517.43L821.517 1517.54L818.945 1515.63L809.915 1508.92Z" fill="#0D9488" stroke="black" stroke-width="2"/>
<path d="M870.489 1533.13L870.785 1533.29L871.118 1533.25L886.763 1530.95L900.436 1538.36L901.38 1538.87L901.823 1537.89L906.526 1527.52L906.899 1526.7L906.119 1526.24L886.997 1515.11L886.72 1514.95L886.4 1514.98L848.038 1518.63L844.82 1518.94L847.649 1520.5L870.489 1533.13Z" fill="#0D9488" stroke="black" stroke-width="2"/>
<path d="M646.267 1521.36L645.507 1521.37L645.314 1522.1L641.303 1537.46L640.995 1538.64L642.212 1538.71L683.799 1541.13L685.22 1541.21L684.816 1539.85L679.415 1521.6L679.2 1520.87L678.442 1520.89L646.267 1521.36Z" fill="#0D9488" stroke="black" stroke-width="2"/>
<path d="M1737.33 673.042L1737.67 672.633L1737.52 672.116L1736.3 667.884L1735.25 664.227L1734.37 667.931L1732.51 675.781L1734.24 676.66L1737.33 673.042Z" fill="#0D9488" stroke="black" stroke-width="2"/>
<path d="M2045.04 767.956L2045.06 767.922L2045.07 767.888L2061.81 716.729L2061.97 716.259L2061.69 715.851L2051.19 700.587L2050.8 700.015L2050.13 700.183L2040.54 702.567L2040.06 702.687L2039.87 703.146L2027.15 733.08L2027.12 733.146L2027.1 733.215L2008.11 805.101L2000.36 803.504L1999.72 803.373L1999.35 803.902L1990.3 816.538L1990.13 816.778L1990.11 817.073L1988.95 841.934L1974.06 859.514L1973.8 859.831L1973.83 860.245L1975.2 876.345L1970.76 876.494L1969.98 876.52L1969.82 877.282L1963.51 906.339L1965.27 907.176L1995.2 869.876L1995.39 869.633L1995.42 869.322L1998.03 833.272L2031.47 800.857L2031.62 800.711L2031.7 800.518L2045.04 767.956Z" fill="#0D9488" stroke="black" stroke-width="2"/>
<path d="M1736.11 712.507L1736.4 710.748L1734.75 711.421L1721.91 716.654L1721.31 716.897L1721.28 717.54L1720.67 732.811L1720.6 734.506L1722.12 733.744L1733.14 728.207L1733.6 727.978L1733.68 727.474L1736.11 712.507Z" fill="#0D9488" stroke="black" stroke-width="2"/>
<path d="M1819.01 769.848L1817.08 768.152L1817.35 770.703L1819.12 787.446L1819.27 788.914L1820.58 788.226L1835.38 780.43L1835.97 780.117L1835.91 779.448L1835.42 774.441L1835.23 772.544L1833.78 773.774L1828.51 778.224L1819.01 769.848Z" fill="#0D9488" stroke="black" stroke-width="2"/>
<path d="M1956.05 806.771L1956.09 806.614L1956.07 806.455L1952.6 770.812L1952.38 768.561L1950.86 770.237L1937.88 784.572L1937.68 784.791L1937.64 785.082L1934.69 803.137L1934.63 803.501L1934.82 803.816L1943.81 818.646L1944.64 820.014L1945.51 818.668L1950.71 810.585L1951.01 820.262L1952.99 820.45L1956.05 806.771Z" fill="#0D9488" stroke="black" stroke-width="2"/>
<path d="M1935.97 772.895L1936.32 771.387L1934.8 771.692L1920.24 774.625L1920.15 776.561L1933.13 780.543L1934.16 780.858L1934.4 779.809L1935.97 772.895Z" fill="#0D9488" stroke="black" stroke-width="2"/>
<path d="M1932.88 790.343L1934.4 790.592L1934.01 789.104L1932.93 784.932L1932.53 783.411L1931.32 784.413L1927.3 787.745L1925.61 789.146L1927.77 789.502L1932.88 790.343Z" fill="#0D9488" stroke="black" stroke-width="2"/>
<path d="M1804.48 786.234L1802.68 785.789L1803.3 787.537L1810.69 808.453L1811.23 809.979L1812.35 808.814L1819.22 801.685L1819.97 800.91L1819.14 800.222L1814.68 796.509L1816.06 790.091L1816.26 789.142L1815.32 788.91L1804.48 786.234Z" fill="#0D9488" stroke="black" stroke-width="2"/>
<path d="M1945.93 845.65L1947.05 828.193L1947.09 827.55L1946.52 827.247L1941.6 824.624L1939.95 823.739L1940.14 825.609L1940.35 827.613L1935.96 817.93L1936.78 805.084L1936.92 802.917L1935.19 804.22L1929.34 808.611L1922.97 807.627L1924.55 803.235L1926.53 807.547L1928.44 807.119L1928.26 790.102L1928.23 787.742L1926.55 789.402L1916.04 799.808L1899.89 789.98L1897.59 788.581L1898.42 791.142L1909.13 824.312L1909.22 824.577L1909.43 824.76L1922.93 836.46L1927.22 857.106L1925.83 858.989L1918.2 833.64L1916.25 834.096L1920.32 858.1L1912.95 876.465L1912.54 877.484L1913.59 877.796L1921.69 880.201L1921.44 890.851L1923.36 891.265L1928.78 878.491L1929.78 891.026L1929.87 892.133L1930.96 891.929L1946.72 888.985L1947.31 888.876L1947.49 888.31L1956.82 859.539L1956.9 859.297L1956.85 859.046L1954.29 845.409L1954.12 844.466L1953.17 844.603L1945.93 845.65Z" fill="#0D9488" stroke="black" stroke-width="2"/>
<path d="M1820.47 792.376L1819.87 790.929L1818.81 792.083L1816.08 795.058L1815.17 796.053L1816.39 796.636L1821.34 799.002L1823.69 800.13L1822.69 797.717L1820.47 792.376Z" fill="#0D9488" stroke="black" stroke-width="2"/>
<path d="M1782.79 838.881L1784.43 840.458L1784.48 838.184L1784.8 825.137L1784.86 822.659L1783.1 824.402L1776.25 831.167L1775.53 831.888L1776.26 832.598L1782.79 838.881Z" fill="#0D9488" stroke="black" stroke-width="2"/>
<path d="M1952.76 827.708L1952.7 826.627L1951.62 826.774L1947.11 827.394L1945.78 827.577L1946.34 828.799L1951.54 840.237L1953.44 839.766L1952.76 827.708Z" fill="#0D9488" stroke="black" stroke-width="2"/>
<path d="M1949.46 831.25L1949.56 830.351L1948.67 830.166L1945.71 829.546L1944.29 829.249L1944.51 830.683L1946.34 842.103L1948.32 842.051L1949.46 831.25Z" fill="#0D9488" stroke="black" stroke-width="2"/>
<path d="M1888.18 852.219L1886.89 853.673L1891.03 859.639L1891.51 860.327L1892.27 859.979L1896.1 858.227L1897.95 857.382L1896.15 856.433L1888.18 852.219Z" fill="#0D9488" stroke="black" stroke-width="2"/>
<path d="M1899.09 859.885L1898.86 859.012L1897.97 859.141L1893.6 859.773L1892.5 859.932L1892.77 861.011L1893.87 865.279L1894.09 866.151L1894.98 866.019L1899.34 865.376L1900.44 865.214L1900.16 864.141L1899.09 859.885Z" fill="#0D9488" stroke="black" stroke-width="2"/>
<path d="M1877.7 858.555L1876.17 856.498L1875.91 859.052L1875.39 864.154L1875.32 864.824L1875.92 865.139L1883.08 868.924L1884.34 867.442L1877.7 858.555Z" fill="#0D9488" stroke="black" stroke-width="2"/>
<path d="M1876.68 882.477L1878.55 884.364L1878.38 881.712L1877.62 869.29L1875.7 868.97L1872.3 877.195L1872.05 877.809L1872.52 878.281L1876.68 882.477Z" fill="#0D9488" stroke="black" stroke-width="2"/>
<path d="M1861.16 904.461L1861.39 903.041L1859.98 903.316L1848.41 905.569L1847.41 905.762L1847.62 906.752L1849.01 913.5L1849.22 914.543L1850.25 914.263L1859.36 911.777L1859.97 911.608L1860.08 910.976L1861.16 904.461Z" fill="#0D9488" stroke="black" stroke-width="2"/>
<path d="M600.405 51.0757L584.395 56.2933L583.975 56.4302L583.793 56.833L576.727 72.5031L570.388 77.0613L567.856 78.8823L570.975 78.8732L597.594 78.7957L598.077 78.7943L598.376 78.4151L620.138 50.8301L621.112 49.5948L619.58 49.2369L595.107 43.5208L591.492 42.6765L594.193 45.2224L600.405 51.0757Z" fill="#0D9488" stroke="black" stroke-width="2"/>
<path d="M521.772 125.846L521.646 125.92L521.547 126.027L517.309 130.593L516.514 131.449L517.483 132.102L528.128 139.284L528.363 139.443L528.646 139.455L560.284 140.772L561.204 140.81L561.318 139.897L563.94 118.874L564.019 118.248L563.487 117.908L550.446 109.563L549.928 109.232L549.398 109.544L521.772 125.846Z" fill="#0D9488" stroke="black" stroke-width="2"/>
<path d="M567.798 109.218L567.574 109.148L567.342 109.186L555.922 111.04L552.812 111.545L555.644 112.926L564.358 117.175L564.83 117.406L565.287 117.148L573.239 112.665L575.262 111.525L573.043 110.839L567.798 109.218Z" fill="#0D9488" stroke="black" stroke-width="2"/>
<path d="M494.179 136.044L493.488 135.015L492.628 135.908L490.619 137.994L489.658 138.993L490.909 139.59L495.928 141.987L499.227 143.562L497.189 140.527L494.179 136.044Z" fill="#0D9488" stroke="black" stroke-width="2"/>
<path d="M518.591 172.568L519.174 172.749L519.602 172.314L524.31 167.522L524.957 166.864L524.353 166.167L500.666 138.808L500.339 138.43L499.84 138.465L486.644 139.395L486.26 139.422L485.994 139.699L475.575 150.517L475.017 151.096L475.463 151.765L481.483 160.796L481.68 161.09L482.018 161.196L518.591 172.568Z" fill="#0D9488" stroke="black" stroke-width="2"/>
<path d="M1145.35 485.449L1143.56 484.89L1144.09 486.687L1146.56 495.049L1148.51 494.902L1149.51 487.625L1149.62 486.786L1148.82 486.534L1145.35 485.449Z" fill="#0D9488" stroke="black" stroke-width="2"/>
<path d="M1141.08 486.506L1140.28 486.133L1139.81 486.868L1136.1 492.596L1135.43 493.626L1136.58 494.071L1143.45 496.741L1144.64 497.206L1144.8 495.934L1145.62 489.414L1145.71 488.694L1145.06 488.384L1141.08 486.506Z" fill="#0D9488" stroke="black" stroke-width="2"/>
<path d="M1148.23 504.651L1148.43 504.715L1148.64 504.697L1160.54 503.606L1161.52 503.516L1161.45 502.538L1160.4 487.935L1160.19 485.106L1158.58 487.437L1151.75 497.283L1135.46 498.436L1135.22 500.383L1148.23 504.651Z" fill="#0D9488" stroke="black" stroke-width="2"/>
<path d="M1109.28 489.416L1106.95 488.564L1108.03 490.793L1111.04 496.98L1111.86 498.651L1112.8 497.052L1115.28 492.873L1115.89 491.839L1114.76 491.425L1109.28 489.416Z" fill="#0D9488" stroke="black" stroke-width="2"/>
<path d="M1089.85 497.668L1091.08 494.067L1088.24 496.601L1081.34 502.764L1079.35 504.55L1082.02 504.51L1086.85 504.438L1087.56 504.428L1087.78 503.76L1089.85 497.668Z" fill="#0D9488" stroke="black" stroke-width="2"/>
</svg>
