<svg width="719" height="1261" viewBox="0 0 719 1261" fill="none" xmlns="http://www.w3.org/2000/svg">
<path d="M648.781 1059.35L648.285 1059.15L647.845 1059.45L638.35 1066.02L639.217 1067.79L653.802 1063.24L656.507 1062.4L653.871 1061.36L648.781 1059.35Z" fill="#0D9488" stroke="black" stroke-width="2"/>
<path d="M535.601 1122.71L536.561 1120.39L534.266 1121.42L530.487 1123.12L529.658 1123.49L529.951 1124.35L531.339 1128.44L532.195 1130.96L533.211 1128.5L535.601 1122.71Z" fill="#0D9488" stroke="black" stroke-width="2"/>
<mask id="path-3-outside-1_0_1" maskUnits="userSpaceOnUse" x="107.143" y="117.39" width="423" height="879" fill="black">
<rect fill="white" x="107.143" y="117.39" width="423" height="879"/>
<path d="M158.947 499.35L152.14 495.217L146.138 501.12L151.514 494.933L136.47 491.497L141.924 469.199L130.974 459.934L137.686 446.812L116.544 452.912L110.143 444.189L119.709 422.812L112.92 396.958L145.56 339.073L148.725 321.165L141.471 307.042L153.505 295.693L150.113 281.024L161.993 277.242L152.736 264.198L179.123 232.777L192.397 203.133L232.582 158.456L257.98 138.831L264.846 122.39L273.346 133.854L295.716 128.395L265.001 172.869L264.387 186.301L236.457 204.677L233.602 226.68L239.228 237.874L257.599 236.097L266.772 248.304L280.916 256.762L283.825 269.851L274.282 290.826L287.997 300.083L284.45 349.421L274.186 360.221L280.838 374.627L255.125 398.732L250.804 420.264L229.507 420.729L210.529 442.878L181.823 454.53L173.931 469.476L181.537 496.334L195.437 495.81L221.335 520.575L244.849 509.471L258.993 494.463L259.071 460.434L272.488 437.475L323.223 427.127L331.747 415.787L327.58 394.464L304.472 395.015L303.828 382.558L330.28 354.141L373.112 334.192L393.187 315.315L408.661 308.535L420.349 313.658L452.887 299.397L477.677 302.279L480.83 313.276L471.329 313.074L467.526 333.062L488.364 352.183L469.457 407.157L472.002 443.781L449.496 448.808L400.477 481.338L370.603 486.309L355.457 498.897L364.47 512.874L346.904 506.088L332.909 520.316L367.807 558.517L398.492 563.86L436.389 583.297L466.197 586.725L463.604 643.462L510.072 658.486L528.46 681.699L511.818 666.914L433.087 651.306L404.971 627.789L355.863 629.446L327.378 620.631L325.387 612.995L299.524 607.035L268.828 605.798L254.618 613.159L251.155 639.96L244.152 641.331L239.741 656.73L255.81 663.671L258.147 709.179L246.5 716.466L247.102 741.08L291.239 855.396L337.302 933.719L403.505 993.598L365.084 979.09L351.267 980.866L340.234 971.991L356.208 971.836L341.081 955.707L342.476 947.994L338.148 954.324L283.366 930.477L239.848 841.222L190.722 814.504L183.456 798.002L200.42 719.467L197.881 710.947L190.168 712.067L203.805 653.246L196.945 641.588L172.543 639.537L172.745 629.676L160.658 624.35L155.901 596.345L146.275 585.884L151.997 536.734L166.368 531.14L177.102 512.648L174.426 500.483L158.947 499.35Z"/>
</mask>
<path d="M158.947 499.35L152.14 495.217L146.138 501.12L151.514 494.933L136.47 491.497L141.924 469.199L130.974 459.934L137.686 446.812L116.544 452.912L110.143 444.189L119.709 422.812L112.92 396.958L145.56 339.073L148.725 321.165L141.471 307.042L153.505 295.693L150.113 281.024L161.993 277.242L152.736 264.198L179.123 232.777L192.397 203.133L232.582 158.456L257.98 138.831L264.846 122.39L273.346 133.854L295.716 128.395L265.001 172.869L264.387 186.301L236.457 204.677L233.602 226.68L239.228 237.874L257.599 236.097L266.772 248.304L280.916 256.762L283.825 269.851L274.282 290.826L287.997 300.083L284.45 349.421L274.186 360.221L280.838 374.627L255.125 398.732L250.804 420.264L229.507 420.729L210.529 442.878L181.823 454.53L173.931 469.476L181.537 496.334L195.437 495.81L221.335 520.575L244.849 509.471L258.993 494.463L259.071 460.434L272.488 437.475L323.223 427.127L331.747 415.787L327.58 394.464L304.472 395.015L303.828 382.558L330.28 354.141L373.112 334.192L393.187 315.315L408.661 308.535L420.349 313.658L452.887 299.397L477.677 302.279L480.83 313.276L471.329 313.074L467.526 333.062L488.364 352.183L469.457 407.157L472.002 443.781L449.496 448.808L400.477 481.338L370.603 486.309L355.457 498.897L364.47 512.874L346.904 506.088L332.909 520.316L367.807 558.517L398.492 563.86L436.389 583.297L466.197 586.725L463.604 643.462L510.072 658.486L528.46 681.699L511.818 666.914L433.087 651.306L404.971 627.789L355.863 629.446L327.378 620.631L325.387 612.995L299.524 607.035L268.828 605.798L254.618 613.159L251.155 639.96L244.152 641.331L239.741 656.73L255.81 663.671L258.147 709.179L246.5 716.466L247.102 741.08L291.239 855.396L337.302 933.719L403.505 993.598L365.084 979.09L351.267 980.866L340.234 971.991L356.208 971.836L341.081 955.707L342.476 947.994L338.148 954.324L283.366 930.477L239.848 841.222L190.722 814.504L183.456 798.002L200.42 719.467L197.881 710.947L190.168 712.067L203.805 653.246L196.945 641.588L172.543 639.537L172.745 629.676L160.658 624.35L155.901 596.345L146.275 585.884L151.997 536.734L166.368 531.14L177.102 512.648L174.426 500.483L158.947 499.35Z" fill="#0D9488"/>
<path d="M158.947 499.35L152.14 495.217L146.138 501.12L151.514 494.933L136.47 491.497L141.924 469.199L130.974 459.934L137.686 446.812L116.544 452.912L110.143 444.189L119.709 422.812L112.92 396.958L145.56 339.073L148.725 321.165L141.471 307.042L153.505 295.693L150.113 281.024L161.993 277.242L152.736 264.198L179.123 232.777L192.397 203.133L232.582 158.456L257.98 138.831L264.846 122.39L273.346 133.854L295.716 128.395L265.001 172.869L264.387 186.301L236.457 204.677L233.602 226.68L239.228 237.874L257.599 236.097L266.772 248.304L280.916 256.762L283.825 269.851L274.282 290.826L287.997 300.083L284.45 349.421L274.186 360.221L280.838 374.627L255.125 398.732L250.804 420.264L229.507 420.729L210.529 442.878L181.823 454.53L173.931 469.476L181.537 496.334L195.437 495.81L221.335 520.575L244.849 509.471L258.993 494.463L259.071 460.434L272.488 437.475L323.223 427.127L331.747 415.787L327.58 394.464L304.472 395.015L303.828 382.558L330.28 354.141L373.112 334.192L393.187 315.315L408.661 308.535L420.349 313.658L452.887 299.397L477.677 302.279L480.83 313.276L471.329 313.074L467.526 333.062L488.364 352.183L469.457 407.157L472.002 443.781L449.496 448.808L400.477 481.338L370.603 486.309L355.457 498.897L364.47 512.874L346.904 506.088L332.909 520.316L367.807 558.517L398.492 563.86L436.389 583.297L466.197 586.725L463.604 643.462L510.072 658.486L528.46 681.699L511.818 666.914L433.087 651.306L404.971 627.789L355.863 629.446L327.378 620.631L325.387 612.995L299.524 607.035L268.828 605.798L254.618 613.159L251.155 639.96L244.152 641.331L239.741 656.73L255.81 663.671L258.147 709.179L246.5 716.466L247.102 741.08L291.239 855.396L337.302 933.719L403.505 993.598L365.084 979.09L351.267 980.866L340.234 971.991L356.208 971.836L341.081 955.707L342.476 947.994L338.148 954.324L283.366 930.477L239.848 841.222L190.722 814.504L183.456 798.002L200.42 719.467L197.881 710.947L190.168 712.067L203.805 653.246L196.945 641.588L172.543 639.537L172.745 629.676L160.658 624.35L155.901 596.345L146.275 585.884L151.997 536.734L166.368 531.14L177.102 512.648L174.426 500.483L158.947 499.35Z" stroke="black" stroke-width="4" mask="url(#path-3-outside-1_0_1)"/>
<path d="M117.792 636.686L117.445 635.744L116.505 636.094L95.7924 643.789L94.6612 644.209L95.2842 645.242L106.043 663.088L106.592 663.999L107.467 663.395L122.899 652.743L123.537 652.303L123.269 651.575L117.792 636.686Z" fill="#0D9488" stroke="black" stroke-width="2"/>
<path d="M35.3857 699.145L34.7222 698.141L33.8567 698.977L30.7096 702.017L29.3224 703.357L31.2168 703.718L37.1176 704.845L39.447 705.29L38.1394 703.311L35.3857 699.145Z" fill="#0D9488" stroke="black" stroke-width="2"/>
<path d="M129.208 755.926L131.131 759.16L131.068 755.398L130.466 719.322L130.46 718.961L130.224 718.687L123.501 710.867L128.265 703.547L129.043 702.353L127.656 702.028L118.512 699.885L117.49 699.646L117.301 700.678L111.09 734.459L110.844 735.794L112.193 735.632L119.329 734.775L121.47 737.664L114.602 742.665L112.843 743.945L114.96 744.446L123.602 746.491L129.208 755.926Z" fill="#0D9488" stroke="black" stroke-width="2"/>
<path d="M48.8447 742.053L48.5129 741.911L48.1669 742.014L45.0436 742.94L45.1135 744.876L55.9914 747.266L56.5993 745.37L48.8447 742.053Z" fill="#0D9488" stroke="black" stroke-width="2"/>
<path d="M118.047 744.084L116.095 744.228L112.853 768.38L114.828 768.692L116.433 759.893L121.585 762.391L123.603 763.37L122.982 761.215L118.047 744.084Z" fill="#0D9488" stroke="black" stroke-width="2"/>
<path d="M66.4272 760.302L66.0225 760.368L65.781 760.7L60.742 767.619L54.442 771.148L53.2703 771.804L54.2349 772.739L60.0582 778.38L60.4626 778.772L61.0072 778.63L72.5109 775.62L73.1129 775.462L73.2375 774.852L76.2594 760.061L76.55 758.639L75.1176 758.874L66.4272 760.302Z" fill="#0D9488" stroke="black" stroke-width="2"/>
<path d="M36.9207 787.933L36.3651 787.75L35.9332 788.144L24.2805 798.793L23.9329 799.111L23.9563 799.581L24.4987 810.462L24.5938 812.37L26.1076 811.204L37.4504 802.469L37.6351 802.327L37.7378 802.118L43.1142 791.171L43.6206 790.14L42.5295 789.781L36.9207 787.933Z" fill="#0D9488" stroke="black" stroke-width="2"/>
<path d="M87.5192 803.278L88.2067 801.833L86.6064 801.848L82.6367 801.887L81.0039 801.903L81.7602 803.35L83.8285 807.308L84.7567 809.084L85.6178 807.274L87.5192 803.278Z" fill="#0D9488" stroke="black" stroke-width="2"/>
<path d="M16.9807 802.027L15.8697 801.029L15.3701 802.436L11.2099 814.153L6.18939 811.49L3.27935 809.946L4.84005 812.847L9.31636 821.168L9.82743 822.118L10.7361 821.536L25.9591 811.794L27.0657 811.085L26.0883 810.207L16.9807 802.027Z" fill="#0D9488" stroke="black" stroke-width="2"/>
<path d="M30.4443 847.736L30.4403 847.748L30.4367 847.76L27.4803 857.422L27.2926 858.035L27.7717 858.461L41.2102 870.422L30.3711 873.327L29.1774 873.647L29.7393 874.748L34.5196 884.112L34.7178 884.5L35.1372 884.619L46.9687 887.978L47.4028 888.101L47.7825 887.857L63.5877 877.698L73.1451 877.307L74.465 877.253L74.0548 875.997L72.498 871.231L77.9811 865.696L78.4219 865.251L78.2138 864.66L74.0855 852.937L80.737 844.362L81.25 843.7L80.6893 843.079L71.2862 832.657L71.9902 821.742L85.0213 815.513L84.3782 813.634L73.113 816.076L67.3842 807.119L66.9877 806.5L66.278 806.694L30.247 816.546L29.3364 816.795L29.5326 817.719L30.8439 823.891L30.9589 824.432L31.4786 824.622L37.4265 826.798L30.4443 847.736Z" fill="#0D9488" stroke="black" stroke-width="2"/>
<path d="M151.936 820.97L150.925 820.368L150.494 821.463L148.968 825.337L148.429 826.706L149.9 826.704L157.905 826.689L161.525 826.682L158.415 824.829L151.936 820.97Z" fill="#0D9488" stroke="black" stroke-width="2"/>
<path d="M182.303 921.632L182.233 921.43L182.086 921.274L166.967 905.203L184.894 883.929L184.975 883.833L185.03 883.72L193.166 866.915L193.57 866.08L192.768 865.614L171.657 853.369L158.714 826.753L158.521 826.357L158.098 826.232L144.789 822.289L144.037 822.066L143.641 822.743L125.349 854.015L103.84 826.847L103.433 826.333L102.799 826.501L88.6906 830.244L87.673 830.514L87.995 831.517L92.6165 845.903L79.8978 869.885L79.6889 870.279L79.8423 870.698L84.1696 882.502L84.2817 882.808L84.5522 882.989L95.1211 890.066L98.9794 900.786L99.1456 901.248L99.6124 901.399L107.488 903.948L112.476 912.651L112.725 913.086L113.222 913.147L131.862 915.433L121.699 944.054L121.578 944.396L121.704 944.737L130.669 968.817L131.063 969.876L132.066 969.357L175.48 946.882L188.438 972.878L188.616 973.235L188.991 973.372L213.196 982.193L213.568 982.329L213.932 982.173L242.06 970.133L242.249 970.052L242.391 969.903L250.443 961.433L251.092 960.75L250.45 960.062L247.855 957.279L251.218 958.506L252.27 956.862L243.132 947.66L240.513 936.185L240.404 935.709L239.962 935.501L222.015 927.103L221.695 926.954L221.353 927.038L187.084 935.463L182.303 921.632Z" fill="#0D9488" stroke="black" stroke-width="2"/>
<path d="M207.535 829.839L206.425 826.586L205.617 829.927L200.837 849.683L200.171 852.435L202.417 850.711L211.549 843.705L212.118 843.268L211.886 842.588L207.535 829.839Z" fill="#0D9488" stroke="black" stroke-width="2"/>
<path d="M83.8698 836.232L86.2212 836.089L84.4845 834.497L81.093 831.389L80.2801 830.644L79.6178 831.525L77.0071 835L75.7068 836.731L77.8676 836.599L83.8698 836.232Z" fill="#0D9488" stroke="black" stroke-width="2"/>
<path d="M204.302 854.317L202.639 852.933L202.662 855.096L202.704 859.057L202.717 860.314L203.939 860.018L207.593 859.133L209.526 858.665L207.997 857.393L204.302 854.317Z" fill="#0D9488" stroke="black" stroke-width="2"/>
<path d="M77.7608 873.576L76.5912 872.929L76.3003 874.234L74.7505 881.183L74.6286 881.73L75.031 882.12L79.9723 886.903L81.1647 888.057L81.628 886.464L84.0957 877.976L84.3186 877.209L83.62 876.822L77.7608 873.576Z" fill="#0D9488" stroke="black" stroke-width="2"/>
<path d="M74.8132 878.838L74.806 876.785L73.1941 878.056L69.3496 881.087L68.6015 881.677L69.1544 882.452L73.0287 887.888L74.8541 890.449L74.843 887.304L74.8132 878.838Z" fill="#0D9488" stroke="black" stroke-width="2"/>
<path d="M385.11 892.871L393.095 896.951L394.157 895.266L380.811 885.079L380.265 884.663L379.681 885.023L370.386 890.738L365.112 892.247L365.332 894.207L385.085 895.283L387.779 895.43L385.832 893.563L385.11 892.871Z" fill="#0D9488" stroke="black" stroke-width="2"/>
<path d="M65.6142 886.852L64.7251 885.795L63.9984 886.97L61.3937 891.181L60.5936 892.474L62.0983 892.696L69.1138 893.73L71.7213 894.114L70.025 892.097L65.6142 886.852Z" fill="#0D9488" stroke="black" stroke-width="2"/>
<path d="M375.19 896.381L374.748 895.286L373.741 895.902L368.567 899.067L366.472 900.349L368.866 900.895L375.971 902.516L377.837 902.942L377.121 901.167L375.19 896.381Z" fill="#0D9488" stroke="black" stroke-width="2"/>
<path d="M394.716 896.54L392.983 896.262L393.627 897.894L396.095 904.147L396.825 905.995L397.874 904.308L401.188 898.982L401.983 897.705L400.498 897.467L394.716 896.54Z" fill="#0D9488" stroke="black" stroke-width="2"/>
<path d="M115.047 922.827L116.81 922.766L115.852 921.285L107.883 908.964L107.621 908.56L107.142 908.512L90.035 906.82L88.3092 906.649L89.0259 908.228L95.6778 922.885L95.9544 923.494L96.6233 923.471L115.047 922.827Z" fill="#0D9488" stroke="black" stroke-width="2"/>
<path d="M82.0272 930.688L81.9636 930.541L81.857 930.421L70.4817 917.609L72.4335 907.929L72.7106 906.555L71.3212 906.74L53.7319 909.083L52.5706 909.237L52.9057 910.36L57.4859 925.704L45.7355 935.545L45.3991 935.827L45.3787 936.265L44.8243 948.127L44.8001 948.644L45.2095 948.963L55.384 956.872L55.6308 957.064L55.9429 957.081L92.7249 959.102L94.3387 959.19L93.6978 957.707L82.0272 930.688Z" fill="#0D9488" stroke="black" stroke-width="2"/>
<path d="M90.5003 911.45L90.212 910.309L89.1322 910.778L85.3055 912.441L84.1645 912.937L84.8941 913.945L91.4149 922.951L93.1944 922.12L90.5003 911.45Z" fill="#0D9488" stroke="black" stroke-width="2"/>
<path d="M442.984 912.986L442.436 912.379L441.732 912.796L437.566 915.263L436.449 915.925L437.373 916.836L442.696 922.081L443.394 922.769L444.096 922.085L447.183 919.075L447.872 918.403L447.228 917.689L442.984 912.986Z" fill="#0D9488" stroke="black" stroke-width="2"/>
<path d="M304.551 971.494L303.871 970.9L303.211 971.516L299.188 975.271L298.077 976.308L299.469 976.918L306.037 979.797L306.676 980.077L307.159 979.575L309.466 977.179L310.194 976.423L309.403 975.732L304.551 971.494Z" fill="#0D9488" stroke="black" stroke-width="2"/>
<path d="M391.028 1014.27L390.856 1013.76L390.342 1013.63L377.06 1010.04L363.611 1001.47L362.415 1003.07L370.74 1010.37L369.339 1023.78L369.227 1024.85L370.305 1024.88L393.444 1025.54L394.884 1025.59L394.419 1024.22L391.028 1014.27Z" fill="#0D9488" stroke="black" stroke-width="2"/>
<path d="M384.215 1012.3L383.949 1012.18L383.659 1012.22L380.839 1012.62L380.818 1014.59L386.564 1015.54L387.142 1013.64L384.215 1012.3Z" fill="#0D9488" stroke="black" stroke-width="2"/>
<path d="M372.845 1025.96L371.681 1025.4L371.428 1026.67L370.427 1031.68L370.192 1032.86L371.39 1032.88L376.022 1032.95L376.581 1032.96L376.882 1032.49L378.503 1029.95L379.107 1029L378.096 1028.51L372.845 1025.96Z" fill="#0D9488" stroke="black" stroke-width="2"/>
<path d="M341.622 1026.86L339.701 1026.06L340.274 1028.06L342.748 1036.7L343.364 1038.86L344.556 1036.96L348.335 1030.94L348.961 1029.94L347.875 1029.49L341.622 1026.86Z" fill="#0D9488" stroke="black" stroke-width="2"/>
<path d="M378.454 1051.82L378.969 1052.56L379.756 1052.12L387.06 1048.11L403.285 1054.64L404.321 1052.97L389.3 1039.7L388.965 1039.41L388.52 1039.46L372.927 1041.33L371.272 1041.52L372.226 1042.89L378.454 1051.82Z" fill="#0D9488" stroke="black" stroke-width="2"/>
<path d="M372.204 1046.67L371.54 1045.48L370.602 1046.47L368.325 1048.89L367.3 1049.97L368.696 1050.51L373.286 1052.26L375.848 1053.24L374.517 1050.84L372.204 1046.67Z" fill="#0D9488" stroke="black" stroke-width="2"/>
<path d="M390.019 1051.67L391.202 1049.61L388.902 1050.2L384.431 1051.36L383.045 1051.72L383.859 1052.89L385.939 1055.9L386.84 1057.21L387.629 1055.83L390.019 1051.67Z" fill="#0D9488" stroke="black" stroke-width="2"/>
<path d="M115.075 1054.64L114.529 1053.79L113.68 1054.35L109.126 1057.36L108.406 1057.83L108.772 1058.62L118.416 1079.22L119.373 1081.26L120.244 1079.18L124.184 1069.77L124.386 1069.29L124.106 1068.85L115.075 1054.64Z" fill="#0D9488" stroke="black" stroke-width="2"/>
<path d="M396.798 1057.18L396.197 1056.44L395.433 1057L390.956 1060.29L388.32 1062.22L391.587 1062.09L398.531 1061.82L400.539 1061.74L399.265 1060.19L396.798 1057.18Z" fill="#0D9488" stroke="black" stroke-width="2"/>
<path d="M152.963 1063.97L152.608 1063.69L152.165 1063.77L141.365 1065.78L140.891 1065.87L140.665 1066.29L129.09 1088.05L128.229 1089.67L130.056 1089.52L155.876 1087.37L192.049 1097.52L193.265 1097.86L193.318 1096.6L194.01 1080.31L194.047 1079.43L193.181 1079.28L166.731 1074.7L152.963 1063.97Z" fill="#0D9488" stroke="black" stroke-width="2"/>
<path d="M113.542 1102.99L113.314 1102.93L113.084 1102.99L103.977 1105.07L104.218 1107.04L120.657 1106.74L120.874 1104.77L113.542 1102.99Z" fill="#0D9488" stroke="black" stroke-width="2"/>
<path d="M266.363 1148.29L266.332 1148.26L266.299 1148.24L248.316 1134.73L247.628 1134.21L247.015 1134.81L243.481 1138.28L232.525 1137.49L211.341 1114.47L211.115 1114.23L210.786 1114.17L178.379 1108.22L177.98 1108.15L177.642 1108.38L141.993 1132.23L141.686 1132.44L141.586 1132.79L139.113 1141.62L122.829 1130.16L122.381 1129.84L121.873 1130.05L114.548 1133.06L112.566 1133.87L114.463 1134.87L121.662 1138.65L110.755 1166.35L110.685 1166.53L110.686 1166.72L110.841 1198.75L110.843 1199.25L111.239 1199.54L137.858 1219.61L138.067 1219.77L138.326 1219.8L165.1 1223.43L165.37 1223.47L165.62 1223.37L199.926 1209.01L251.479 1208.62L283.714 1220.6L284.041 1220.73L284.373 1220.62L321.023 1208.65L321.583 1208.47L321.695 1207.89L325.164 1189.98L325.253 1189.52L324.958 1189.16L313.466 1175.04L313.362 1174.91L313.223 1174.82L309.069 1172.2L308.554 1171.88L308.03 1172.19L299.073 1177.45L266.363 1148.29Z" fill="#0D9488" stroke="black" stroke-width="2"/>
<path d="M109.865 1126.26L110.944 1125.13L109.463 1124.62L89.7097 1117.91L89.0567 1117.69L88.6172 1118.22L77.197 1132.04L76.5436 1132.83L77.3504 1133.46L91.3157 1144.42L92.0305 1144.98L92.6572 1144.32L109.865 1126.26Z" fill="#0D9488" stroke="black" stroke-width="2"/>
<path d="M110.43 1150.92L109.398 1149.74L108.763 1151.18L103.976 1161.98L102.599 1165.09L105.44 1163.22L114.47 1157.28L115.427 1156.65L114.674 1155.79L110.43 1150.92Z" fill="#0D9488" stroke="black" stroke-width="2"/>
<path d="M455.543 1160.16L456.829 1160.92L457.042 1159.44L457.518 1156.12L457.75 1154.51L456.206 1155.03L452.338 1156.35L450.278 1157.05L452.152 1158.16L455.543 1160.16Z" fill="#0D9488" stroke="black" stroke-width="2"/>
<path d="M375.869 1184.25L375.678 1183.09L374.564 1183.47L363.835 1187.07L363.424 1187.21L363.244 1187.6L359.024 1196.84L358.414 1198.18L359.88 1198.25L377.094 1199.17L378.336 1199.24L378.134 1198.01L375.869 1184.25Z" fill="#0D9488" stroke="black" stroke-width="2"/>
<path d="M176.02 1245.13L175.857 1244.15L174.875 1244.31L161.446 1246.47L160.821 1246.57L160.644 1247.18L157.64 1257.52L157.134 1259.27L158.878 1258.76L176.545 1253.67L177.4 1253.42L177.254 1252.54L176.02 1245.13Z" fill="#0D9488" stroke="black" stroke-width="2"/>
<path d="M503.871 581.909L502.077 582.749L506.797 598.049L506.906 598.401L507.217 598.599L516.086 604.231L517.461 602.843L503.871 581.909Z" fill="#0D9488" stroke="black" stroke-width="2"/>
<path d="M544.351 687.717L544.243 687.626L544.115 687.569L538.911 685.241L537.954 686.99L549.005 694.25L550.198 692.65L544.351 687.717Z" fill="#0D9488" stroke="black" stroke-width="2"/>
<path d="M635.111 724.511L634.044 726.198L655.799 741.803L660.872 760.213L661.028 760.778L661.596 760.918L682.729 766.149L700.945 797.106L701.276 797.667L701.922 797.592L715.274 796.048L716.587 795.896L716.083 794.674L707.983 774.999L707.885 774.759L707.682 774.597L666.936 742.11L666.87 742.057L666.796 742.016L635.111 724.511Z" fill="#0D9488" stroke="black" stroke-width="2"/>
<path d="M375.415 516.744L375.327 515.5L374.132 515.856L367.838 517.727L367.242 517.905L367.137 518.518L366.106 524.571L365.835 526.164L367.381 525.696L375.1 523.362L375.864 523.131L375.808 522.335L375.415 516.744Z" fill="#0D9488" stroke="black" stroke-width="2"/>
<path d="M457.324 577.863L456.55 577.505L456.074 578.212L453.374 582.227L452.205 583.965L454.292 583.781L463.841 582.937L467.572 582.608L464.173 581.034L457.324 577.863Z" fill="#0D9488" stroke="black" stroke-width="2"/>
<path d="M458.756 102.974L458.789 102.892L458.807 102.805L470.382 47.355L470.513 46.7268L469.997 46.3458L454.033 34.5737L436.077 3.93239L435.229 2.48515L434.359 3.91949L423.19 22.3392L405.72 17.1527L405.178 16.9918L404.761 17.373L366.799 52.051L366.63 52.2056L366.545 52.4186L355.353 80.4639L331.648 104.915L330.822 105.767L331.802 106.437L345.543 115.823L345.713 153.183L345.715 153.535L345.936 153.808L357.876 168.536L348.792 188.888L350.509 189.891L361.61 174.893L418.511 168.495L418.764 168.467L418.973 168.321L437.564 155.312L437.807 155.141L437.918 154.865L458.756 102.974Z" fill="#0D9488" stroke="black" stroke-width="2"/>
<path d="M321.418 104.431L321.975 105.124L322.728 104.653L330.578 99.7442L331.156 99.3831L331.031 98.7135L325.327 68.0469L324.795 65.1846L323.456 67.7699L311.416 91.0217L311.116 91.5999L311.524 92.1076L321.418 104.431Z" fill="#0D9488" stroke="black" stroke-width="2"/>
<path d="M216.299 101.74L215.815 99.016L214.446 101.42L209.302 110.45L208.961 111.049L209.399 111.581L219.747 124.137L220.66 125.245L221.382 124.004L230.001 109.198L230.788 107.847L229.231 107.7L217.156 106.561L216.299 101.74Z" fill="#0D9488" stroke="black" stroke-width="2"/>
<path d="M213.515 124.96L213.105 124.078L212.211 124.464L208.82 125.93L206.546 126.913L208.865 127.784L213.8 129.638L216.09 130.498L215.059 128.28L213.515 124.96Z" fill="#0D9488" stroke="black" stroke-width="2"/>
<path d="M200.566 129.135L197.522 128.888L199.831 130.888L213.069 142.356L213.773 142.966L214.432 142.306L216.655 140.077L217.22 139.51L216.791 138.834L211.438 130.418L211.171 129.998L210.675 129.958L200.566 129.135Z" fill="#0D9488" stroke="black" stroke-width="2"/>
<path d="M217.05 148.517L216.595 146.821L215.368 148.078L212.203 151.324L211.343 152.206L212.383 152.866L217.247 155.954L219.413 157.329L218.749 154.85L217.05 148.517Z" fill="#0D9488" stroke="black" stroke-width="2"/>
<path d="M279.425 240.973L279.37 240.887L279.299 240.813L276.599 238.008L275.069 239.289L282.174 249.085L283.83 247.965L279.425 240.973Z" fill="#0D9488" stroke="black" stroke-width="2"/>
<path d="M290.049 251.252L289.045 250.36L288.479 251.578L286.935 254.898L286.312 256.237L287.787 256.318L293.419 256.628L296.283 256.786L294.138 254.882L290.049 251.252Z" fill="#0D9488" stroke="black" stroke-width="2"/>
<path d="M146.563 261.409L145.846 259.228L144.737 261.239L136.47 276.232L134.775 279.306L137.835 277.587L148.976 271.328L149.693 270.925L149.436 270.144L146.563 261.409Z" fill="#0D9488" stroke="black" stroke-width="2"/>
<path d="M151.431 271.18L150.897 269.763L149.803 270.81L146.257 274.204L144.609 275.782L146.886 275.925L151.827 276.235L153.37 276.332L152.825 274.884L151.431 271.18Z" fill="#0D9488" stroke="black" stroke-width="2"/>
<path d="M292.31 299.29L289.802 296.903L290.651 300.259L292.582 307.901L293.02 309.634L294.268 308.354L297.2 305.344L297.906 304.619L297.173 303.921L292.31 299.29Z" fill="#0D9488" stroke="black" stroke-width="2"/>
<path d="M89.211 486.604L88.6451 485.876L87.874 486.381L83.4454 489.281L82.4172 489.954L83.2854 490.824L87.9643 495.512L88.6408 496.19L89.3472 495.543L92.6493 492.521L93.3303 491.898L92.7635 491.169L89.211 486.604Z" fill="#0D9488" stroke="black" stroke-width="2"/>
<path d="M91.6885 497.82L90.7193 497.214L90.2476 498.255L80.6155 519.516L80.3958 520.001L80.6753 520.454L86.5047 529.901L86.815 530.404L87.4053 530.375L102.3 529.636L103.017 529.6L103.213 528.91L108.762 509.342L108.967 508.619L108.33 508.221L91.6885 497.82Z" fill="#0D9488" stroke="black" stroke-width="2"/>
<path d="M113.897 605.359L113.105 604.614L112.429 605.465L105.431 614.265L104.622 615.283L105.813 615.804L116.214 620.349L116.821 620.614L117.302 620.159L122.678 615.075L123.449 614.347L122.676 613.62L113.897 605.359Z" fill="#0D9488" stroke="black" stroke-width="2"/>
<path d="M112.666 529.701L112 529.603L111.658 530.183L99.6302 550.637L99.3018 551.195L99.6772 551.723L110.913 567.524L111.499 568.349L112.316 567.753L125.114 558.431L125.429 558.201L125.505 557.818L128.79 541.337L128.848 541.044L128.736 540.767L125.214 532.047L124.999 531.516L124.432 531.432L112.666 529.701Z" fill="#0D9488" stroke="black" stroke-width="2"/>
<path d="M110.337 576.071L109.38 575.363L108.848 576.428L105.027 584.069L103.61 586.905L106.398 585.396L114.57 580.973L115.952 580.225L114.688 579.29L110.337 576.071Z" fill="#0D9488" stroke="black" stroke-width="2"/>
</svg>
