<svg width="254" height="213" viewBox="0 0 254 213" fill="none" xmlns="http://www.w3.org/2000/svg">
<path d="M19.97 155.5L16.068 145.087L15.617 143.884L14.5613 144.617L1.79399 153.48L1.27309 153.842L1.37805 154.467L4.34636 172.152L4.46286 172.846L5.15552 172.97L33.4719 178.064L52.8473 197.675L53.1468 197.978L53.5728 197.972L59.0505 197.895L60.1733 197.879L60.0279 196.766L58.5435 185.398L67.6161 184.72L64.1374 186.644L62.8048 187.381L64.0106 188.311L72.9751 195.225L73.4492 195.591L73.9955 195.346L93.5493 186.565L99.5603 200.038L99.8247 200.631L100.474 200.631L129.173 200.625L130.055 200.625L130.165 199.75L130.716 195.385L148.03 205.303L149.936 206.395L149.508 204.24L148.055 196.934L155.98 197.587L156.743 211.701L158.655 212.055L165.736 196.212L165.917 195.806L165.737 195.399L161.337 185.48L179.614 175.937L172.449 201.266L172.028 202.757L173.56 202.527L190.434 199.994L191.031 199.904L191.23 199.335L193.106 193.97L192.993 200.155L192.966 201.629L194.346 201.109L211.316 194.707L211.642 194.584L211.821 194.285L217.609 184.599L218.76 182.672L216.557 183.105L203.476 185.676L198.924 174.569L198.186 172.769L197.152 174.417L192.354 182.063L187.031 170.451L204.655 155.195L204.771 155.095L204.852 154.964L238.284 100.855L238.449 100.587L238.431 100.273L237.302 80.4539L250.611 68.1379L250.905 67.8664L250.93 67.4673L252.629 40.7168L252.659 40.2368L252.303 39.9133L233.939 23.224L233.78 23.0795L233.576 23.0131L180.563 5.78138L180.483 5.75507L180.398 5.74282L149.845 1.29631L149.57 1.25627L149.314 1.36398L126.86 10.7994L126.725 10.8562L126.612 10.9494L61.5656 64.5281L61.0609 64.9437L61.2393 65.5727L71.3051 101.07L69.188 157.433L64.3908 156.872L62.6484 144.983L62.2909 142.544L60.8481 144.543L54.8652 152.832L43.197 147.04L42.5693 146.728L42.0622 147.212L29.5213 159.174L24.9288 151.93L24.227 150.823L23.3447 151.793L19.97 155.5Z" fill="#0D9488" stroke="black" stroke-width="2"/>
</svg>
