<svg width="903" height="254" viewBox="0 0 903 254" fill="none" xmlns="http://www.w3.org/2000/svg">
<mask id="path-1-outside-1_0_745" maskUnits="userSpaceOnUse" x="0.260254" y="-0.231934" width="903" height="255" fill="black">
<rect fill="white" x="0.260254" y="-0.231934" width="903" height="255"/>
<path d="M34.9699 116.375L51.8738 103.112L60.3675 112.262L66.6021 90.1783L81.3602 88.867L74.3984 96.7169L84.4656 91.5909L83.9649 105.377L90.9148 106.778L93.9189 83.2224L105.804 88.6822L116.068 68.7981L133.037 62.325L162.363 65.6033L179.249 50.6306L190.037 65.9132L207.889 59.5176L224.513 66.4199L227.368 54.6301L264.722 81.029L284.922 78.0309L306.189 86.5066L321.555 80.8263L325.251 87.359L322.735 79.7415L332.141 80.4806L328.106 86.8881L337.75 93.987L335.544 88.0921L342.607 86.6556L344.771 99.0594L412.673 113.174L439.834 140.64L454.634 149.246L470.62 141.265L480.884 155.779L499.576 143.101L496.775 131.902L507.963 139.912L509.816 115.284L527.489 126.752L560.665 126.287L572.163 117.704L591.785 122.174L604.337 107.094L603.723 115.749L622.553 106.546L620.556 131.604L644.284 131.043L697.398 163.325L717.187 154.468L747.788 153.842L759.661 136.67L749.016 121.757L752.485 115.832L767.922 113.335L781.816 93.3075L828.284 84.9271L840.938 66.8311L864.094 60.9243L876.79 39.1805L866.139 32.624L843.918 37.0467L834.727 49.1226L818.783 45.6953L833.97 25.1377L833.207 13.5029L850.439 2.76807L885.266 19.3799L881.886 38.0779L899.786 69.0306L883.919 82.0065L869.894 75.3665L860.089 90.9472L862.223 109.246L833.768 101.813L835.144 117.441L850.296 135.978L847.155 148.585L770.897 170.102L746.691 188.8L693.381 195.118L647.938 188.049L624.758 206.187L553.775 230.857L525.325 221.04L517.243 237.521L511.676 233.581L516.212 218.829L501.889 208.648L446.176 204.566L433.278 237.289L386.262 232.008L346.631 251.737L319.266 245.353L293.29 216.069L279.766 219.061L269.997 234.034L239.754 226.822L225.657 211.903L162.828 212.803L137.275 223.031L96.2733 199.177L98.3237 204.542L44.7034 213.542L35.6673 218.775L38.0455 226.154L29.2121 224.688L29.7247 211.438L14.1381 209.638L4.57156 197.949L7.81405 152.656L3.26025 146.648L26.1008 125.893L27.2571 117.155L20.3131 103.971L27.1796 102.958L26.4107 112.005L34.9699 116.375Z"/>
</mask>
<path d="M34.9699 116.375L51.8738 103.112L60.3675 112.262L66.6021 90.1783L81.3602 88.867L74.3984 96.7169L84.4656 91.5909L83.9649 105.377L90.9148 106.778L93.9189 83.2224L105.804 88.6822L116.068 68.7981L133.037 62.325L162.363 65.6033L179.249 50.6306L190.037 65.9132L207.889 59.5176L224.513 66.4199L227.368 54.6301L264.722 81.029L284.922 78.0309L306.189 86.5066L321.555 80.8263L325.251 87.359L322.735 79.7415L332.141 80.4806L328.106 86.8881L337.75 93.987L335.544 88.0921L342.607 86.6556L344.771 99.0594L412.673 113.174L439.834 140.64L454.634 149.246L470.62 141.265L480.884 155.779L499.576 143.101L496.775 131.902L507.963 139.912L509.816 115.284L527.489 126.752L560.665 126.287L572.163 117.704L591.785 122.174L604.337 107.094L603.723 115.749L622.553 106.546L620.556 131.604L644.284 131.043L697.398 163.325L717.187 154.468L747.788 153.842L759.661 136.67L749.016 121.757L752.485 115.832L767.922 113.335L781.816 93.3075L828.284 84.9271L840.938 66.8311L864.094 60.9243L876.79 39.1805L866.139 32.624L843.918 37.0467L834.727 49.1226L818.783 45.6953L833.97 25.1377L833.207 13.5029L850.439 2.76807L885.266 19.3799L881.886 38.0779L899.786 69.0306L883.919 82.0065L869.894 75.3665L860.089 90.9472L862.223 109.246L833.768 101.813L835.144 117.441L850.296 135.978L847.155 148.585L770.897 170.102L746.691 188.8L693.381 195.118L647.938 188.049L624.758 206.187L553.775 230.857L525.325 221.04L517.243 237.521L511.676 233.581L516.212 218.829L501.889 208.648L446.176 204.566L433.278 237.289L386.262 232.008L346.631 251.737L319.266 245.353L293.29 216.069L279.766 219.061L269.997 234.034L239.754 226.822L225.657 211.903L162.828 212.803L137.275 223.031L96.2733 199.177L98.3237 204.542L44.7034 213.542L35.6673 218.775L38.0455 226.154L29.2121 224.688L29.7247 211.438L14.1381 209.638L4.57156 197.949L7.81405 152.656L3.26025 146.648L26.1008 125.893L27.2571 117.155L20.3131 103.971L27.1796 102.958L26.4107 112.005L34.9699 116.375Z" fill="#0D9488"/>
<path d="M34.9699 116.375L51.8738 103.112L60.3675 112.262L66.6021 90.1783L81.3602 88.867L74.3984 96.7169L84.4656 91.5909L83.9649 105.377L90.9148 106.778L93.9189 83.2224L105.804 88.6822L116.068 68.7981L133.037 62.325L162.363 65.6033L179.249 50.6306L190.037 65.9132L207.889 59.5176L224.513 66.4199L227.368 54.6301L264.722 81.029L284.922 78.0309L306.189 86.5066L321.555 80.8263L325.251 87.359L322.735 79.7415L332.141 80.4806L328.106 86.8881L337.75 93.987L335.544 88.0921L342.607 86.6556L344.771 99.0594L412.673 113.174L439.834 140.64L454.634 149.246L470.62 141.265L480.884 155.779L499.576 143.101L496.775 131.902L507.963 139.912L509.816 115.284L527.489 126.752L560.665 126.287L572.163 117.704L591.785 122.174L604.337 107.094L603.723 115.749L622.553 106.546L620.556 131.604L644.284 131.043L697.398 163.325L717.187 154.468L747.788 153.842L759.661 136.67L749.016 121.757L752.485 115.832L767.922 113.335L781.816 93.3075L828.284 84.9271L840.938 66.8311L864.094 60.9243L876.79 39.1805L866.139 32.624L843.918 37.0467L834.727 49.1226L818.783 45.6953L833.97 25.1377L833.207 13.5029L850.439 2.76807L885.266 19.3799L881.886 38.0779L899.786 69.0306L883.919 82.0065L869.894 75.3665L860.089 90.9472L862.223 109.246L833.768 101.813L835.144 117.441L850.296 135.978L847.155 148.585L770.897 170.102L746.691 188.8L693.381 195.118L647.938 188.049L624.758 206.187L553.775 230.857L525.325 221.04L517.243 237.521L511.676 233.581L516.212 218.829L501.889 208.648L446.176 204.566L433.278 237.289L386.262 232.008L346.631 251.737L319.266 245.353L293.29 216.069L279.766 219.061L269.997 234.034L239.754 226.822L225.657 211.903L162.828 212.803L137.275 223.031L96.2733 199.177L98.3237 204.542L44.7034 213.542L35.6673 218.775L38.0455 226.154L29.2121 224.688L29.7247 211.438L14.1381 209.638L4.57156 197.949L7.81405 152.656L3.26025 146.648L26.1008 125.893L27.2571 117.155L20.3131 103.971L27.1796 102.958L26.4107 112.005L34.9699 116.375Z" stroke="black" stroke-width="4" mask="url(#path-1-outside-1_0_745)"/>
</svg>
