<svg width="1404" height="1298" viewBox="0 0 1404 1298" fill="none" xmlns="http://www.w3.org/2000/svg">
<mask id="path-1-outside-1_0_1" maskUnits="userSpaceOnUse" x="194.932" y="204.948" width="1210" height="1093" fill="black">
<rect fill="white" x="194.932" y="204.948" width="1210" height="1093"/>
<path d="M1235.05 897.121L1169.87 948.119L1169.39 976.991L1127.97 1012.6L1108.34 1055.14L1400.67 1156.63L1294.7 1294.76L1277.79 1294.99L1278 1288.47L1252.25 1279.75L1250.94 1269.15L1255.57 1272.42L1249.47 1260.87L1256.94 1258.8L1233.65 1260.48L1242.6 1261.96L1244.92 1257.87L1249.24 1261.8L1242.37 1263.89L1226.09 1257.62L1233.04 1239.29L1231.55 1252.18L1233.65 1245.09L1238.88 1249.19L1251.71 1240.68L1238.82 1236.81L1235.05 1219.72L1241.49 1220.58L1242.14 1216.01L1255.39 1214.66L1256.8 1210.83L1258.73 1217.17L1264.05 1208.5L1262.84 1216.46L1277.77 1220.84L1264.78 1214.1L1264.9 1206.21L1282.81 1210.96L1281.99 1214.76L1287.54 1222.25L1291.85 1219.48L1292.53 1224.42L1293.02 1218.05L1314.26 1219.77L1318.89 1210.28L1306.34 1214.84L1310.69 1206.84L1238.67 1202.39L1219.15 1224.51L1191.99 1236.97L1175.34 1219.41L1183.22 1216.98L1173.09 1202.08L1143.68 1191.1L1151.52 1201.12L1148.45 1215.21L1126.18 1207.17L1144.2 1230.32L1132.19 1237.98L1120.52 1218.03L1096.71 1204.26L1097.92 1195.11L1080.6 1196.23L1104.33 1178.05L1099.13 1162.28L1089.21 1152.75L1078.64 1159.63L1083.84 1166.72L1066.68 1175.02L1062.86 1163.88L1050.55 1173.43L1061.04 1172.96L1062.66 1180.43L1050.94 1183.6L1047.32 1175.18L1040.13 1186.3L1027.35 1164.57L1028.46 1155.17L1035.2 1161.49L1032.76 1154.85L1006.74 1121.97L1004.88 1100.99L992.383 1112.53L988.598 1106.05L1000.26 1148.64L982.405 1125.93L965.406 1133.01L969.995 1114.21L946.07 1078.65L950.254 1070.68L965.412 1060.55L968.296 1068.32L958.068 1035.23L961.43 1034.47L959.129 1009.58L968.296 1004.4L968.499 993.627L985.79 995.636L989.808 1005.61L987.835 978.124L995.429 979.429L1003.33 970.864L1005.5 951.54L1022.63 967.472L1019.46 978.201L1021.3 974.214L1024.34 979.775L1029.84 980.126L1023.8 972.205L1029.49 965.839L1022.85 965.297L1027.71 961.899L1019.63 966.185L1009.7 937.801L1025.61 927.549L1011.12 933.224L1010.89 925.201L995.226 919.228L1002.94 930.422L993.915 954.252L976.468 954.723L953.574 980.508L960.256 1004.56L953.598 1011.56L958.158 1040.96L949.706 1061.83L923.11 1065.4L916.601 1038.72L909.27 1031.92L916.101 1039.12L911.148 1050.76L917.448 1067.08L907.822 1068.99L896.157 1059.74L889.517 1061.52L896.383 1045.98L890.059 1053.02L893.218 1046.22L885.428 1037.25L889.44 1043.05L881.882 1040.03L892.682 1047.22L886.28 1055.96L892.295 1065.46L895.537 1061.98L909.014 1072.79L926.466 1072.8L939.352 1092.67L935.276 1105.44L887.407 1138.69L895.525 1111.44L892.515 1105.36L904.561 1096.08L901.247 1093.45L903.405 1089.66L890.518 1088.65L901.629 1097.31L898.017 1102.55L891.752 1097.77L896.616 1100.02L891.15 1105.43L893.743 1112.38L878.437 1111.25L865.365 1097.77L848.312 1114.79L842.143 1108.6L837.977 1111.69L848.312 1115.17L864.751 1100.48L875.874 1111.75L885.345 1111.92L883.205 1154.08L900.836 1185.12L884.921 1193.14L875.57 1189.34L871.475 1197.12L860.341 1180.44L849.26 1178.63L852.33 1164.19L839.211 1152.44L833.656 1156.14L839.288 1152.82L841.136 1157.46L845.922 1156.76L852.64 1170.99L848.235 1176.95L851.865 1182.29L838.513 1179.5L840.987 1183.06L856.132 1180.23L869.859 1198.29L885.434 1197.75L863.744 1219.95L854.1 1210.36L865.169 1221.61L842.99 1245.09L794.537 1239.67L781.341 1245.94L778.795 1257.78L761.582 1253.83L749.22 1248.3L750.626 1237.82L729.52 1221.91L728.781 1212.73L720.311 1209.31L721.277 1202.51L730.54 1212.2L697.268 1123.36L743.086 1125.52L746.651 1105.88L756.682 1099.88L747.718 1098.36L744.535 1074.92L732.727 1079.05L722.487 1069.72L717.373 1045.13L729.938 1029.5L710.572 1017.65L698.055 1024.25L698.013 1040.15L679.965 1034.13L661.368 1010.16L674.934 999.689L650.347 988.543L651.694 976.842L612.433 943.738L593.067 936.555L593.145 928.831L553.251 920.254L538.207 929.987L523.854 926.512L529.487 930.064L520.07 935.167L511.82 915.08L508.655 924.968L498.081 915.229L490.285 919.02L490.69 925.171L489.111 912.672L503.792 911.754L506.188 901.252L489.701 898.909L513.745 887.113L507.189 882.321L482.036 881.469L509.579 871.121L514.437 876.218L516.374 869.727L522.621 875.52L522.233 865.173L551.481 864.011L526.632 860.303L550.396 849.413L617.607 856.673L611.992 861.477L623.078 866.252L615.652 872.6L633.116 865.942L624.932 860.691L630.135 856.667L656.803 859.844L694.687 890.123L715.752 887.805L785.316 805.86L833.286 782.567L857.825 791.651L859.619 809.866L851.477 806.856L853.254 814.193L845.535 811.719L845.493 815.486L838.901 813.728L831.647 820.374L839.747 813.961L850.244 819.057L855.03 810.408L860.352 813.883L858.654 819.677L863.935 811.469L863.494 798.285L874.163 808.554L863.821 815.892L869.454 818.055L865.288 812.572L874.705 807.511L879.384 815.188L877.924 829.887L868.763 837.135L877.167 831.431L877.328 840.145L873.239 838.291L871.522 842.171L877.405 840.92L871.695 849.878L878.174 844.627L876.863 854.975L854.505 854.879L856.419 847.327L847.079 857.526L851.525 860.184L837.357 869.035L852.479 865.25L860.263 853.759L859.345 863.164L862.188 854.963L872.005 859.844L881.643 854.283L879.182 869.19L882.031 874.286L885.351 871.312L887.705 880.73L891.424 879.734L879.486 863.164L886.739 861.078L887.049 869.959L884.594 853.705L894.613 835.74L890.137 818.902L885.047 817.614L891.389 808.191L898.392 811.797L900.782 839.603L892.217 856.369L900.937 866.097L905.491 863.397L909.115 870.424L906.105 863.009L895.46 859.069L895.382 847.172L904.8 845.629L900.627 851.035L906.88 857.293L902.588 849.157L909.812 847.095L913.132 857.991L913.591 845.938L918.837 859.534L916.065 847.947L928.874 853.818L920.148 846.558L922.139 837.934L928.332 836.515L933.344 844.085L941.832 841.844L940.217 847.715L947.542 847.023L941.212 838.679L933.344 843.232L931.556 832.98L938.822 838.834L942.607 836.592L931.538 826.197L937.427 823.104L941.6 830.799L937.97 822.532L944.174 817.906L941.302 824.695L945.462 826.782L947.31 823.307L950.242 828.945L947.697 823.074L941.23 823.217L951.744 816.088L956.489 830.733L954.254 839.912L958.73 822.407L958.265 858.682L951.089 855.982L961.275 864.166L955.952 873.673L950.475 867.646L941.445 870.269L951.089 868.26L953.64 874.346L952.018 887.65L949.241 890.046L945.212 880.026L941.909 884.64L948.853 890.743L941.141 892.829L947.155 893.366L947.93 904.262L953.562 909.59L947.387 894.296L955.338 891.59L954.021 875.908L971.229 885.796L958.652 872.051L963.296 866.514L966.449 873.512L963.898 863.939L970.597 864.207L959.505 856.292L965.257 839.567L982.572 841.844L976.79 863.474L979.49 852.888L984.271 855.904L984.038 868.648L989.206 877.839L984.658 869.345L984.813 855.13L995.381 848.567L1004.18 854.587L998.778 872.588L1005.94 853.598L1010.35 856.214L1010.04 865.483L1031.26 866.562L1009.42 863.862L1011.35 855.672L1022.39 856.673L1008.34 852.733L1013.67 844.317L1020.53 849.181L1013.47 836.67L1007.96 852.274L995.536 845.861L997.92 819.271L991.292 803.691L1001.71 809.019L1012.26 805.33L1015.5 809.21L1012.05 805.002L993.545 802.385L1001.51 797.957L1001.71 792.026L1010.58 799.751L1015.75 794.959L1024.4 802.296L1041.45 798.666L1043.61 802.606L1036.83 807.398L1044.31 820.732L1055.26 829.41L1037.38 807.261L1044.3 803.226L1047.54 792.491L1036.9 785.082L1048.08 776.505L1050.86 763.762L1060.04 762.218L1056.93 756.114L1059.27 763.762L1050.4 763.297L1047.62 769.245L1039.67 765.15L1037.21 758.665L1048.94 751.56L1051.46 735.497L1047.31 730.788L1035.43 732.719L1041.06 718.82L1033.89 722.616L1040.13 709.247L1052.25 714.188L1054.47 711.56L1047.47 707.62L1033.89 712.794L1042.75 698.357L1034.5 703.764L1042.68 694.114L1041.91 689.399L1033.44 703.471L1024 705.981L1031.03 699.436L1030.72 693.494L1036.82 690.865L1037.2 680.869L1030.18 692.951L1033.19 682.604L1028.72 683.456L1024.93 697.201L1020.38 690.639L1025.55 684.225L1019.92 690.561L1021.69 695.27L1017.61 690.406L1016.68 698.435L1005.95 694.495L1007.42 686.776L1002.55 704.592L990.601 710.249L999.857 695.58L990.577 699.394L985.022 692.743L989.367 703.007L977.482 695.812V699.669L989.087 703.465L987.328 713.086L983.037 713.646L986.047 707.548L982.631 715.261L972.791 711.774L978.095 708.627L977.017 702.375L967.122 722.64L957.043 724.577L952.328 722.062L962.282 715.81L953.64 717.043L962.282 711.023L958.497 711.792L960.417 707.167L951.25 721.907L956.143 726.366L945.849 722.062L946.66 732.922L943.143 727.623L934.733 730.401L933.422 721.216L956.262 711.715L959.344 704.687L951.399 712.18L947.697 709.706L953.097 707.006L952.018 703.686L944.383 717.967L935.121 710.403L946.618 706.076L934.465 708.043L932.254 716.716L919.26 699.275L912.417 702.893L899.703 694.418L912.453 703.263L919.427 699.847L931.336 716.966L934.703 712.758L927.73 730.466L914.825 732.225L911.738 722.062L920.494 725.179L924.404 716.209L918.992 713.956L923.7 717.902L920.094 724.887L906.647 720.286L906.528 716.292L912.566 719.964L915.517 714.081L909.282 712.311L909.33 704.753L905.491 702.679L901.325 707.161L905.878 703.066L908.936 712.519L914.909 713.956L912.554 719.499L905.259 716.811L908.906 732.612L899.006 723.606L899.858 731.563L889.052 730.711L893.058 728.011L887.216 724.059L890.286 723.838L891.913 712.025L890 723.767L886.817 723.904L892.533 728.422L879.903 726.968L876.94 724.536L880.624 721.657L864.006 728.923L850.565 724.351L861.753 715.142L856.585 721.949L846.536 717.663L849.779 712.102L846.077 717.431L852.05 721.114L846.631 724.375L817.497 723.093L762.434 749.707L758.113 741.213L744.994 746.387L725.05 735.652L694.3 751.018L676.091 748.854L655.36 720.864L583.423 747.084L550.551 710.481L535.042 709.551L533.04 691.407L525.631 693.106L533.04 707.238L506.492 687.7L527.77 666.225L533.653 674.808L560.195 657.767L562.103 650.155L564.07 653.195L571.52 650.084L561.954 649.952L546.111 665.605L527.246 664.192L519.378 674.265L524.236 660.061L516.523 654.274L522.233 640.916L518.532 638.52L519.813 632.22L532.879 639.677L541.313 635.367L543.065 640.255L552.113 631.982L557.722 636.053L567.98 627.321L567.36 623.41L576.807 624.042L575.889 617.468L582.011 620.085L585.754 616.353L585.885 620.186L590.212 616.598L586.32 619.769L585.968 615.978L575.8 617.235L577.129 623.506L567.336 623.083L557.531 635.445L552.554 631.552L542.988 639.951L541.11 634.89L533.04 639.295L519.843 631.648L510.819 658.869L512.744 673.109L507.731 675.731L501.479 669.479L505.031 661.063L498.546 669.968L486.661 658.518L495.071 643.462L505.133 648.808L496.52 642.83L492.371 648.713L488.36 644.314L491.525 633.657L487.668 625.86L491.99 629.8L492.604 625.473L498.23 629.353L504.31 622.725L505.627 627.547L507.32 624.305L516.136 625.246L504.668 622.266L498.356 628.936L493.069 625.008L491.37 629.335L488.437 624.781L482.113 630.104L484.348 620.073L500.698 616.651L499.911 613.862L484.116 619.453L481.303 624.96L473.81 616.324L494.422 595.337L498.01 604.754L506.486 610.196L498.403 603.693L503.255 589.042L514.61 602.99L519.843 599.92L516.38 604.134L520.523 604.194L521.226 609.815L520.248 599.479L506.867 593.012L520.689 585.639L513.287 583.964L510.968 591.123L497.05 580.68L517.518 576.615L516.589 571.227L522.484 570.786L516.988 570.368L515.724 575.625L514.842 565.958L529.547 561.457L534.029 556.939L530.411 552.296L537.128 549.978L529.72 552.219L532.777 558.185L523.956 558.412L509.639 569.379L516.225 561.66L515.158 556.492L525.315 548.35L516.893 534.737L515.581 543.564L522.579 541.198L524.486 548.267L509.007 564.855L510.521 574.588L500.203 573.247L499.804 568.741L506.456 569.599L506.378 565.946L499.858 568.366L503.243 575.739L471.2 590.306L468.154 577.551L479.64 578.385L479.717 573.676L485.022 572.586L479.717 573.134V577.998L466.926 577.133L462.623 567.644L473.047 551.605L481.338 555.306L478.227 549.596L496.246 544.536L485.314 523.519L498.719 514.978L490.756 519.955L491.912 506.21L484.194 508.683L488.729 514.733L483.961 524.431L487.281 542.956L477.25 541.102L482.96 544.726L459.654 552.523L464.423 543.189L460.149 536.918L473.781 536.161L461.43 531.53L458.039 536.853L463.07 544.13L442.989 561.094L434.501 556.153L442.375 542.026L438.745 526.821L446.929 531.297L449.7 528.985L445.462 515.472L439.359 514.566L446.625 513.017L446.184 509.595L439.168 512.868L445.152 515.627L446.154 522.112L437.589 526.976L439.752 542.801L419.904 552.588L410.981 544.738L423.987 530.964L424.845 516.462L416.012 505.632L408.728 512.069L399.483 503.349L406.725 504.517L421.847 492.322L418.378 488.305L422.08 476.884L417.371 470.942L421.925 477.886L417.991 488.227L421.692 491.625L398.971 502.222L403.87 519.567L387.819 504.744L395.538 493.788L393.916 490.468L387.36 504.44L396.128 514.847L378.383 516.7L373.931 510.692L377.96 521.212L363.667 523.656L367.833 508.606L364.209 500.5L372.62 496.411L367.297 488.46L381.495 485.527L381.566 466.775L376.166 457.358L380.493 486.379L366.927 487.291L370.843 497.412L360.836 494.98L361.158 522.345L349.934 517.249L357.075 520.432L347.156 526.046L342.215 512.927L343.145 521.725L345.923 519.645L346 525.587L351.031 525.689L342.746 533.294L323.422 515.943L336.451 508.66L337.59 502.353L343.61 501.507L338.126 495.255L335.218 508.6L326.211 504.452L332.44 489.974L338.901 486.993L334.735 485.372L323.702 502.044L318.409 491.964L311.435 492.167L316.526 479.662L311.507 480.508L314.904 469.857L308.193 487.917L300.474 489.08L301.785 481.361L295.616 477.808L301.636 481.748L299.55 488.692L305.105 494.092L289.841 493.538L293.608 492.703L299.318 504.976L311.662 512.081L296.773 530.451L275.953 535.714L264.288 518.947L216.891 518.167L198.932 508.809L217.773 496.399L232.191 460.982L267.03 451.558L287.123 413.364L284.685 398.159L296.82 387.793L291.748 388.175L295.432 383.424L292.427 368.446L301.446 367.534L285.156 356.119L280.739 340.658L359.292 315.225L369.079 318.396L359.036 327.783L453.432 308.656L489.48 273.105L515.432 262.579L521.935 245.863L543.148 230.789L612.206 207.948L695.546 213.369L717.659 228.196L708.682 249.573L717.671 228.211L747.139 241.428L760.658 238.364L765.885 249.755L815.494 264.06L883.682 318.408L925.536 320.071L932.677 312.763L974.06 321.286L983.734 312.364L1000.38 320.72L1015.85 310.921L1043.77 312.441L1055.27 329.703L1089.34 352.388L1065.92 353.968L1064.12 370.061L1054.22 379.18L1071 398.862L1079.83 425.958L1104.1 446.242L1128.82 485.754L1110.67 503.665L1107.11 543.183L1070.02 577.521L1077.8 580.65L1079.88 629.52L1085.2 630.104L1089.07 657.135L1094.8 658.857L1079.88 682.449L1099.32 764.763L1110.73 784.611L1123.32 787.621L1128.85 802.046L1140.21 809.276L1131.03 812.339L1145.69 821.608L1139.9 830.876L1155.64 847.405L1153.33 854.206L1179.49 908.201L1194.31 899.314L1196.95 888.502L1179.18 821.143L1194.07 802.683L1209.43 802.916L1193.77 799.894L1204.41 799.441L1199.09 793.26L1218.45 804.001L1226.55 800.061L1235.09 838.136L1235.05 897.121Z"/>
</mask>
<path d="M1235.05 897.121L1169.87 948.119L1169.39 976.991L1127.97 1012.6L1108.34 1055.14L1400.67 1156.63L1294.7 1294.76L1277.79 1294.99L1278 1288.47L1252.25 1279.75L1250.94 1269.15L1255.57 1272.42L1249.47 1260.87L1256.94 1258.8L1233.65 1260.48L1242.6 1261.96L1244.92 1257.87L1249.24 1261.8L1242.37 1263.89L1226.09 1257.62L1233.04 1239.29L1231.55 1252.18L1233.65 1245.09L1238.88 1249.19L1251.71 1240.68L1238.82 1236.81L1235.05 1219.72L1241.49 1220.58L1242.14 1216.01L1255.39 1214.66L1256.8 1210.83L1258.73 1217.17L1264.05 1208.5L1262.84 1216.46L1277.77 1220.84L1264.78 1214.1L1264.9 1206.21L1282.81 1210.96L1281.99 1214.76L1287.54 1222.25L1291.85 1219.48L1292.53 1224.42L1293.02 1218.05L1314.26 1219.77L1318.89 1210.28L1306.34 1214.84L1310.69 1206.84L1238.67 1202.39L1219.15 1224.51L1191.99 1236.97L1175.34 1219.41L1183.22 1216.98L1173.09 1202.08L1143.68 1191.1L1151.52 1201.12L1148.45 1215.21L1126.18 1207.17L1144.2 1230.32L1132.19 1237.98L1120.52 1218.03L1096.71 1204.26L1097.92 1195.11L1080.6 1196.23L1104.33 1178.05L1099.13 1162.28L1089.21 1152.75L1078.64 1159.63L1083.84 1166.72L1066.68 1175.02L1062.86 1163.88L1050.55 1173.43L1061.04 1172.96L1062.66 1180.43L1050.94 1183.6L1047.32 1175.18L1040.13 1186.3L1027.35 1164.57L1028.46 1155.17L1035.2 1161.49L1032.76 1154.85L1006.74 1121.97L1004.88 1100.99L992.383 1112.53L988.598 1106.05L1000.26 1148.64L982.405 1125.93L965.406 1133.01L969.995 1114.21L946.07 1078.65L950.254 1070.68L965.412 1060.55L968.296 1068.32L958.068 1035.23L961.43 1034.47L959.129 1009.58L968.296 1004.4L968.499 993.627L985.79 995.636L989.808 1005.61L987.835 978.124L995.429 979.429L1003.33 970.864L1005.5 951.54L1022.63 967.472L1019.46 978.201L1021.3 974.214L1024.34 979.775L1029.84 980.126L1023.8 972.205L1029.49 965.839L1022.85 965.297L1027.71 961.899L1019.63 966.185L1009.7 937.801L1025.61 927.549L1011.12 933.224L1010.89 925.201L995.226 919.228L1002.94 930.422L993.915 954.252L976.468 954.723L953.574 980.508L960.256 1004.56L953.598 1011.56L958.158 1040.96L949.706 1061.83L923.11 1065.4L916.601 1038.72L909.27 1031.92L916.101 1039.12L911.148 1050.76L917.448 1067.08L907.822 1068.99L896.157 1059.74L889.517 1061.52L896.383 1045.98L890.059 1053.02L893.218 1046.22L885.428 1037.25L889.44 1043.05L881.882 1040.03L892.682 1047.22L886.28 1055.96L892.295 1065.46L895.537 1061.98L909.014 1072.79L926.466 1072.8L939.352 1092.67L935.276 1105.44L887.407 1138.69L895.525 1111.44L892.515 1105.36L904.561 1096.08L901.247 1093.45L903.405 1089.66L890.518 1088.65L901.629 1097.31L898.017 1102.55L891.752 1097.77L896.616 1100.02L891.15 1105.43L893.743 1112.38L878.437 1111.25L865.365 1097.77L848.312 1114.79L842.143 1108.6L837.977 1111.69L848.312 1115.17L864.751 1100.48L875.874 1111.75L885.345 1111.92L883.205 1154.08L900.836 1185.12L884.921 1193.14L875.57 1189.34L871.475 1197.12L860.341 1180.44L849.26 1178.63L852.33 1164.19L839.211 1152.44L833.656 1156.14L839.288 1152.82L841.136 1157.46L845.922 1156.76L852.64 1170.99L848.235 1176.95L851.865 1182.29L838.513 1179.5L840.987 1183.06L856.132 1180.23L869.859 1198.29L885.434 1197.75L863.744 1219.95L854.1 1210.36L865.169 1221.61L842.99 1245.09L794.537 1239.67L781.341 1245.94L778.795 1257.78L761.582 1253.83L749.22 1248.3L750.626 1237.82L729.52 1221.91L728.781 1212.73L720.311 1209.31L721.277 1202.51L730.54 1212.2L697.268 1123.36L743.086 1125.52L746.651 1105.88L756.682 1099.88L747.718 1098.36L744.535 1074.92L732.727 1079.05L722.487 1069.72L717.373 1045.13L729.938 1029.5L710.572 1017.65L698.055 1024.25L698.013 1040.15L679.965 1034.13L661.368 1010.16L674.934 999.689L650.347 988.543L651.694 976.842L612.433 943.738L593.067 936.555L593.145 928.831L553.251 920.254L538.207 929.987L523.854 926.512L529.487 930.064L520.07 935.167L511.82 915.08L508.655 924.968L498.081 915.229L490.285 919.02L490.69 925.171L489.111 912.672L503.792 911.754L506.188 901.252L489.701 898.909L513.745 887.113L507.189 882.321L482.036 881.469L509.579 871.121L514.437 876.218L516.374 869.727L522.621 875.52L522.233 865.173L551.481 864.011L526.632 860.303L550.396 849.413L617.607 856.673L611.992 861.477L623.078 866.252L615.652 872.6L633.116 865.942L624.932 860.691L630.135 856.667L656.803 859.844L694.687 890.123L715.752 887.805L785.316 805.86L833.286 782.567L857.825 791.651L859.619 809.866L851.477 806.856L853.254 814.193L845.535 811.719L845.493 815.486L838.901 813.728L831.647 820.374L839.747 813.961L850.244 819.057L855.03 810.408L860.352 813.883L858.654 819.677L863.935 811.469L863.494 798.285L874.163 808.554L863.821 815.892L869.454 818.055L865.288 812.572L874.705 807.511L879.384 815.188L877.924 829.887L868.763 837.135L877.167 831.431L877.328 840.145L873.239 838.291L871.522 842.171L877.405 840.92L871.695 849.878L878.174 844.627L876.863 854.975L854.505 854.879L856.419 847.327L847.079 857.526L851.525 860.184L837.357 869.035L852.479 865.25L860.263 853.759L859.345 863.164L862.188 854.963L872.005 859.844L881.643 854.283L879.182 869.19L882.031 874.286L885.351 871.312L887.705 880.73L891.424 879.734L879.486 863.164L886.739 861.078L887.049 869.959L884.594 853.705L894.613 835.74L890.137 818.902L885.047 817.614L891.389 808.191L898.392 811.797L900.782 839.603L892.217 856.369L900.937 866.097L905.491 863.397L909.115 870.424L906.105 863.009L895.46 859.069L895.382 847.172L904.8 845.629L900.627 851.035L906.88 857.293L902.588 849.157L909.812 847.095L913.132 857.991L913.591 845.938L918.837 859.534L916.065 847.947L928.874 853.818L920.148 846.558L922.139 837.934L928.332 836.515L933.344 844.085L941.832 841.844L940.217 847.715L947.542 847.023L941.212 838.679L933.344 843.232L931.556 832.98L938.822 838.834L942.607 836.592L931.538 826.197L937.427 823.104L941.6 830.799L937.97 822.532L944.174 817.906L941.302 824.695L945.462 826.782L947.31 823.307L950.242 828.945L947.697 823.074L941.23 823.217L951.744 816.088L956.489 830.733L954.254 839.912L958.73 822.407L958.265 858.682L951.089 855.982L961.275 864.166L955.952 873.673L950.475 867.646L941.445 870.269L951.089 868.26L953.64 874.346L952.018 887.65L949.241 890.046L945.212 880.026L941.909 884.64L948.853 890.743L941.141 892.829L947.155 893.366L947.93 904.262L953.562 909.59L947.387 894.296L955.338 891.59L954.021 875.908L971.229 885.796L958.652 872.051L963.296 866.514L966.449 873.512L963.898 863.939L970.597 864.207L959.505 856.292L965.257 839.567L982.572 841.844L976.79 863.474L979.49 852.888L984.271 855.904L984.038 868.648L989.206 877.839L984.658 869.345L984.813 855.13L995.381 848.567L1004.18 854.587L998.778 872.588L1005.94 853.598L1010.35 856.214L1010.04 865.483L1031.26 866.562L1009.42 863.862L1011.35 855.672L1022.39 856.673L1008.34 852.733L1013.67 844.317L1020.53 849.181L1013.47 836.67L1007.96 852.274L995.536 845.861L997.92 819.271L991.292 803.691L1001.71 809.019L1012.26 805.33L1015.5 809.21L1012.05 805.002L993.545 802.385L1001.51 797.957L1001.71 792.026L1010.58 799.751L1015.75 794.959L1024.4 802.296L1041.45 798.666L1043.61 802.606L1036.83 807.398L1044.31 820.732L1055.26 829.41L1037.38 807.261L1044.3 803.226L1047.54 792.491L1036.9 785.082L1048.08 776.505L1050.86 763.762L1060.04 762.218L1056.93 756.114L1059.27 763.762L1050.4 763.297L1047.62 769.245L1039.67 765.15L1037.21 758.665L1048.94 751.56L1051.46 735.497L1047.31 730.788L1035.43 732.719L1041.06 718.82L1033.89 722.616L1040.13 709.247L1052.25 714.188L1054.47 711.56L1047.47 707.62L1033.89 712.794L1042.75 698.357L1034.5 703.764L1042.68 694.114L1041.91 689.399L1033.44 703.471L1024 705.981L1031.03 699.436L1030.72 693.494L1036.82 690.865L1037.2 680.869L1030.18 692.951L1033.19 682.604L1028.72 683.456L1024.93 697.201L1020.38 690.639L1025.55 684.225L1019.92 690.561L1021.69 695.27L1017.61 690.406L1016.68 698.435L1005.95 694.495L1007.42 686.776L1002.55 704.592L990.601 710.249L999.857 695.58L990.577 699.394L985.022 692.743L989.367 703.007L977.482 695.812V699.669L989.087 703.465L987.328 713.086L983.037 713.646L986.047 707.548L982.631 715.261L972.791 711.774L978.095 708.627L977.017 702.375L967.122 722.64L957.043 724.577L952.328 722.062L962.282 715.81L953.64 717.043L962.282 711.023L958.497 711.792L960.417 707.167L951.25 721.907L956.143 726.366L945.849 722.062L946.66 732.922L943.143 727.623L934.733 730.401L933.422 721.216L956.262 711.715L959.344 704.687L951.399 712.18L947.697 709.706L953.097 707.006L952.018 703.686L944.383 717.967L935.121 710.403L946.618 706.076L934.465 708.043L932.254 716.716L919.26 699.275L912.417 702.893L899.703 694.418L912.453 703.263L919.427 699.847L931.336 716.966L934.703 712.758L927.73 730.466L914.825 732.225L911.738 722.062L920.494 725.179L924.404 716.209L918.992 713.956L923.7 717.902L920.094 724.887L906.647 720.286L906.528 716.292L912.566 719.964L915.517 714.081L909.282 712.311L909.33 704.753L905.491 702.679L901.325 707.161L905.878 703.066L908.936 712.519L914.909 713.956L912.554 719.499L905.259 716.811L908.906 732.612L899.006 723.606L899.858 731.563L889.052 730.711L893.058 728.011L887.216 724.059L890.286 723.838L891.913 712.025L890 723.767L886.817 723.904L892.533 728.422L879.903 726.968L876.94 724.536L880.624 721.657L864.006 728.923L850.565 724.351L861.753 715.142L856.585 721.949L846.536 717.663L849.779 712.102L846.077 717.431L852.05 721.114L846.631 724.375L817.497 723.093L762.434 749.707L758.113 741.213L744.994 746.387L725.05 735.652L694.3 751.018L676.091 748.854L655.36 720.864L583.423 747.084L550.551 710.481L535.042 709.551L533.04 691.407L525.631 693.106L533.04 707.238L506.492 687.7L527.77 666.225L533.653 674.808L560.195 657.767L562.103 650.155L564.07 653.195L571.52 650.084L561.954 649.952L546.111 665.605L527.246 664.192L519.378 674.265L524.236 660.061L516.523 654.274L522.233 640.916L518.532 638.52L519.813 632.22L532.879 639.677L541.313 635.367L543.065 640.255L552.113 631.982L557.722 636.053L567.98 627.321L567.36 623.41L576.807 624.042L575.889 617.468L582.011 620.085L585.754 616.353L585.885 620.186L590.212 616.598L586.32 619.769L585.968 615.978L575.8 617.235L577.129 623.506L567.336 623.083L557.531 635.445L552.554 631.552L542.988 639.951L541.11 634.89L533.04 639.295L519.843 631.648L510.819 658.869L512.744 673.109L507.731 675.731L501.479 669.479L505.031 661.063L498.546 669.968L486.661 658.518L495.071 643.462L505.133 648.808L496.52 642.83L492.371 648.713L488.36 644.314L491.525 633.657L487.668 625.86L491.99 629.8L492.604 625.473L498.23 629.353L504.31 622.725L505.627 627.547L507.32 624.305L516.136 625.246L504.668 622.266L498.356 628.936L493.069 625.008L491.37 629.335L488.437 624.781L482.113 630.104L484.348 620.073L500.698 616.651L499.911 613.862L484.116 619.453L481.303 624.96L473.81 616.324L494.422 595.337L498.01 604.754L506.486 610.196L498.403 603.693L503.255 589.042L514.61 602.99L519.843 599.92L516.38 604.134L520.523 604.194L521.226 609.815L520.248 599.479L506.867 593.012L520.689 585.639L513.287 583.964L510.968 591.123L497.05 580.68L517.518 576.615L516.589 571.227L522.484 570.786L516.988 570.368L515.724 575.625L514.842 565.958L529.547 561.457L534.029 556.939L530.411 552.296L537.128 549.978L529.72 552.219L532.777 558.185L523.956 558.412L509.639 569.379L516.225 561.66L515.158 556.492L525.315 548.35L516.893 534.737L515.581 543.564L522.579 541.198L524.486 548.267L509.007 564.855L510.521 574.588L500.203 573.247L499.804 568.741L506.456 569.599L506.378 565.946L499.858 568.366L503.243 575.739L471.2 590.306L468.154 577.551L479.64 578.385L479.717 573.676L485.022 572.586L479.717 573.134V577.998L466.926 577.133L462.623 567.644L473.047 551.605L481.338 555.306L478.227 549.596L496.246 544.536L485.314 523.519L498.719 514.978L490.756 519.955L491.912 506.21L484.194 508.683L488.729 514.733L483.961 524.431L487.281 542.956L477.25 541.102L482.96 544.726L459.654 552.523L464.423 543.189L460.149 536.918L473.781 536.161L461.43 531.53L458.039 536.853L463.07 544.13L442.989 561.094L434.501 556.153L442.375 542.026L438.745 526.821L446.929 531.297L449.7 528.985L445.462 515.472L439.359 514.566L446.625 513.017L446.184 509.595L439.168 512.868L445.152 515.627L446.154 522.112L437.589 526.976L439.752 542.801L419.904 552.588L410.981 544.738L423.987 530.964L424.845 516.462L416.012 505.632L408.728 512.069L399.483 503.349L406.725 504.517L421.847 492.322L418.378 488.305L422.08 476.884L417.371 470.942L421.925 477.886L417.991 488.227L421.692 491.625L398.971 502.222L403.87 519.567L387.819 504.744L395.538 493.788L393.916 490.468L387.36 504.44L396.128 514.847L378.383 516.7L373.931 510.692L377.96 521.212L363.667 523.656L367.833 508.606L364.209 500.5L372.62 496.411L367.297 488.46L381.495 485.527L381.566 466.775L376.166 457.358L380.493 486.379L366.927 487.291L370.843 497.412L360.836 494.98L361.158 522.345L349.934 517.249L357.075 520.432L347.156 526.046L342.215 512.927L343.145 521.725L345.923 519.645L346 525.587L351.031 525.689L342.746 533.294L323.422 515.943L336.451 508.66L337.59 502.353L343.61 501.507L338.126 495.255L335.218 508.6L326.211 504.452L332.44 489.974L338.901 486.993L334.735 485.372L323.702 502.044L318.409 491.964L311.435 492.167L316.526 479.662L311.507 480.508L314.904 469.857L308.193 487.917L300.474 489.08L301.785 481.361L295.616 477.808L301.636 481.748L299.55 488.692L305.105 494.092L289.841 493.538L293.608 492.703L299.318 504.976L311.662 512.081L296.773 530.451L275.953 535.714L264.288 518.947L216.891 518.167L198.932 508.809L217.773 496.399L232.191 460.982L267.03 451.558L287.123 413.364L284.685 398.159L296.82 387.793L291.748 388.175L295.432 383.424L292.427 368.446L301.446 367.534L285.156 356.119L280.739 340.658L359.292 315.225L369.079 318.396L359.036 327.783L453.432 308.656L489.48 273.105L515.432 262.579L521.935 245.863L543.148 230.789L612.206 207.948L695.546 213.369L717.659 228.196L708.682 249.573L717.671 228.211L747.139 241.428L760.658 238.364L765.885 249.755L815.494 264.06L883.682 318.408L925.536 320.071L932.677 312.763L974.06 321.286L983.734 312.364L1000.38 320.72L1015.85 310.921L1043.77 312.441L1055.27 329.703L1089.34 352.388L1065.92 353.968L1064.12 370.061L1054.22 379.18L1071 398.862L1079.83 425.958L1104.1 446.242L1128.82 485.754L1110.67 503.665L1107.11 543.183L1070.02 577.521L1077.8 580.65L1079.88 629.52L1085.2 630.104L1089.07 657.135L1094.8 658.857L1079.88 682.449L1099.32 764.763L1110.73 784.611L1123.32 787.621L1128.85 802.046L1140.21 809.276L1131.03 812.339L1145.69 821.608L1139.9 830.876L1155.64 847.405L1153.33 854.206L1179.49 908.201L1194.31 899.314L1196.95 888.502L1179.18 821.143L1194.07 802.683L1209.43 802.916L1193.77 799.894L1204.41 799.441L1199.09 793.26L1218.45 804.001L1226.55 800.061L1235.09 838.136L1235.05 897.121Z" fill="#0D9488"/>
<path d="M1235.05 897.121L1169.87 948.119L1169.39 976.991L1127.97 1012.6L1108.34 1055.14L1400.67 1156.63L1294.7 1294.76L1277.79 1294.99L1278 1288.47L1252.25 1279.75L1250.94 1269.15L1255.57 1272.42L1249.47 1260.87L1256.94 1258.8L1233.65 1260.48L1242.6 1261.96L1244.92 1257.87L1249.24 1261.8L1242.37 1263.89L1226.09 1257.62L1233.04 1239.29L1231.55 1252.18L1233.65 1245.09L1238.88 1249.19L1251.71 1240.68L1238.82 1236.81L1235.05 1219.72L1241.49 1220.58L1242.14 1216.01L1255.39 1214.66L1256.8 1210.83L1258.73 1217.17L1264.05 1208.5L1262.84 1216.46L1277.77 1220.84L1264.78 1214.1L1264.9 1206.21L1282.81 1210.96L1281.99 1214.76L1287.54 1222.25L1291.85 1219.48L1292.53 1224.42L1293.02 1218.05L1314.26 1219.77L1318.89 1210.28L1306.34 1214.84L1310.69 1206.84L1238.67 1202.39L1219.15 1224.51L1191.99 1236.97L1175.34 1219.41L1183.22 1216.98L1173.09 1202.08L1143.68 1191.1L1151.52 1201.12L1148.45 1215.21L1126.18 1207.17L1144.2 1230.32L1132.19 1237.98L1120.52 1218.03L1096.71 1204.26L1097.92 1195.11L1080.6 1196.23L1104.33 1178.05L1099.13 1162.28L1089.21 1152.75L1078.64 1159.63L1083.84 1166.72L1066.68 1175.02L1062.86 1163.88L1050.55 1173.43L1061.04 1172.96L1062.66 1180.43L1050.94 1183.6L1047.32 1175.18L1040.13 1186.3L1027.35 1164.57L1028.46 1155.17L1035.2 1161.49L1032.76 1154.85L1006.74 1121.97L1004.88 1100.99L992.383 1112.53L988.598 1106.05L1000.26 1148.64L982.405 1125.93L965.406 1133.01L969.995 1114.21L946.07 1078.65L950.254 1070.68L965.412 1060.55L968.296 1068.32L958.068 1035.23L961.43 1034.47L959.129 1009.58L968.296 1004.4L968.499 993.627L985.79 995.636L989.808 1005.61L987.835 978.124L995.429 979.429L1003.33 970.864L1005.5 951.54L1022.63 967.472L1019.46 978.201L1021.3 974.214L1024.34 979.775L1029.84 980.126L1023.8 972.205L1029.49 965.839L1022.85 965.297L1027.71 961.899L1019.63 966.185L1009.7 937.801L1025.61 927.549L1011.12 933.224L1010.89 925.201L995.226 919.228L1002.94 930.422L993.915 954.252L976.468 954.723L953.574 980.508L960.256 1004.56L953.598 1011.56L958.158 1040.96L949.706 1061.83L923.11 1065.4L916.601 1038.72L909.27 1031.92L916.101 1039.12L911.148 1050.76L917.448 1067.08L907.822 1068.99L896.157 1059.74L889.517 1061.52L896.383 1045.98L890.059 1053.02L893.218 1046.22L885.428 1037.25L889.44 1043.05L881.882 1040.03L892.682 1047.22L886.28 1055.96L892.295 1065.46L895.537 1061.98L909.014 1072.79L926.466 1072.8L939.352 1092.67L935.276 1105.44L887.407 1138.69L895.525 1111.44L892.515 1105.36L904.561 1096.08L901.247 1093.45L903.405 1089.66L890.518 1088.65L901.629 1097.31L898.017 1102.55L891.752 1097.77L896.616 1100.02L891.15 1105.43L893.743 1112.38L878.437 1111.25L865.365 1097.77L848.312 1114.79L842.143 1108.6L837.977 1111.69L848.312 1115.17L864.751 1100.48L875.874 1111.75L885.345 1111.92L883.205 1154.08L900.836 1185.12L884.921 1193.14L875.57 1189.34L871.475 1197.12L860.341 1180.44L849.26 1178.63L852.33 1164.19L839.211 1152.44L833.656 1156.14L839.288 1152.82L841.136 1157.46L845.922 1156.76L852.64 1170.99L848.235 1176.95L851.865 1182.29L838.513 1179.5L840.987 1183.06L856.132 1180.23L869.859 1198.29L885.434 1197.75L863.744 1219.95L854.1 1210.36L865.169 1221.61L842.99 1245.09L794.537 1239.67L781.341 1245.94L778.795 1257.78L761.582 1253.83L749.22 1248.3L750.626 1237.82L729.52 1221.91L728.781 1212.73L720.311 1209.31L721.277 1202.51L730.54 1212.2L697.268 1123.36L743.086 1125.52L746.651 1105.88L756.682 1099.88L747.718 1098.36L744.535 1074.92L732.727 1079.05L722.487 1069.72L717.373 1045.13L729.938 1029.5L710.572 1017.65L698.055 1024.25L698.013 1040.15L679.965 1034.13L661.368 1010.16L674.934 999.689L650.347 988.543L651.694 976.842L612.433 943.738L593.067 936.555L593.145 928.831L553.251 920.254L538.207 929.987L523.854 926.512L529.487 930.064L520.07 935.167L511.82 915.08L508.655 924.968L498.081 915.229L490.285 919.02L490.69 925.171L489.111 912.672L503.792 911.754L506.188 901.252L489.701 898.909L513.745 887.113L507.189 882.321L482.036 881.469L509.579 871.121L514.437 876.218L516.374 869.727L522.621 875.52L522.233 865.173L551.481 864.011L526.632 860.303L550.396 849.413L617.607 856.673L611.992 861.477L623.078 866.252L615.652 872.6L633.116 865.942L624.932 860.691L630.135 856.667L656.803 859.844L694.687 890.123L715.752 887.805L785.316 805.86L833.286 782.567L857.825 791.651L859.619 809.866L851.477 806.856L853.254 814.193L845.535 811.719L845.493 815.486L838.901 813.728L831.647 820.374L839.747 813.961L850.244 819.057L855.03 810.408L860.352 813.883L858.654 819.677L863.935 811.469L863.494 798.285L874.163 808.554L863.821 815.892L869.454 818.055L865.288 812.572L874.705 807.511L879.384 815.188L877.924 829.887L868.763 837.135L877.167 831.431L877.328 840.145L873.239 838.291L871.522 842.171L877.405 840.92L871.695 849.878L878.174 844.627L876.863 854.975L854.505 854.879L856.419 847.327L847.079 857.526L851.525 860.184L837.357 869.035L852.479 865.25L860.263 853.759L859.345 863.164L862.188 854.963L872.005 859.844L881.643 854.283L879.182 869.19L882.031 874.286L885.351 871.312L887.705 880.73L891.424 879.734L879.486 863.164L886.739 861.078L887.049 869.959L884.594 853.705L894.613 835.74L890.137 818.902L885.047 817.614L891.389 808.191L898.392 811.797L900.782 839.603L892.217 856.369L900.937 866.097L905.491 863.397L909.115 870.424L906.105 863.009L895.46 859.069L895.382 847.172L904.8 845.629L900.627 851.035L906.88 857.293L902.588 849.157L909.812 847.095L913.132 857.991L913.591 845.938L918.837 859.534L916.065 847.947L928.874 853.818L920.148 846.558L922.139 837.934L928.332 836.515L933.344 844.085L941.832 841.844L940.217 847.715L947.542 847.023L941.212 838.679L933.344 843.232L931.556 832.98L938.822 838.834L942.607 836.592L931.538 826.197L937.427 823.104L941.6 830.799L937.97 822.532L944.174 817.906L941.302 824.695L945.462 826.782L947.31 823.307L950.242 828.945L947.697 823.074L941.23 823.217L951.744 816.088L956.489 830.733L954.254 839.912L958.73 822.407L958.265 858.682L951.089 855.982L961.275 864.166L955.952 873.673L950.475 867.646L941.445 870.269L951.089 868.26L953.64 874.346L952.018 887.65L949.241 890.046L945.212 880.026L941.909 884.64L948.853 890.743L941.141 892.829L947.155 893.366L947.93 904.262L953.562 909.59L947.387 894.296L955.338 891.59L954.021 875.908L971.229 885.796L958.652 872.051L963.296 866.514L966.449 873.512L963.898 863.939L970.597 864.207L959.505 856.292L965.257 839.567L982.572 841.844L976.79 863.474L979.49 852.888L984.271 855.904L984.038 868.648L989.206 877.839L984.658 869.345L984.813 855.13L995.381 848.567L1004.18 854.587L998.778 872.588L1005.94 853.598L1010.35 856.214L1010.04 865.483L1031.26 866.562L1009.42 863.862L1011.35 855.672L1022.39 856.673L1008.34 852.733L1013.67 844.317L1020.53 849.181L1013.47 836.67L1007.96 852.274L995.536 845.861L997.92 819.271L991.292 803.691L1001.71 809.019L1012.26 805.33L1015.5 809.21L1012.05 805.002L993.545 802.385L1001.51 797.957L1001.71 792.026L1010.58 799.751L1015.75 794.959L1024.4 802.296L1041.45 798.666L1043.61 802.606L1036.83 807.398L1044.31 820.732L1055.26 829.41L1037.38 807.261L1044.3 803.226L1047.54 792.491L1036.9 785.082L1048.08 776.505L1050.86 763.762L1060.04 762.218L1056.93 756.114L1059.27 763.762L1050.4 763.297L1047.62 769.245L1039.67 765.15L1037.21 758.665L1048.94 751.56L1051.46 735.497L1047.31 730.788L1035.43 732.719L1041.06 718.82L1033.89 722.616L1040.13 709.247L1052.25 714.188L1054.47 711.56L1047.47 707.62L1033.89 712.794L1042.75 698.357L1034.5 703.764L1042.68 694.114L1041.91 689.399L1033.44 703.471L1024 705.981L1031.03 699.436L1030.72 693.494L1036.82 690.865L1037.2 680.869L1030.18 692.951L1033.19 682.604L1028.72 683.456L1024.93 697.201L1020.38 690.639L1025.55 684.225L1019.92 690.561L1021.69 695.27L1017.61 690.406L1016.68 698.435L1005.95 694.495L1007.42 686.776L1002.55 704.592L990.601 710.249L999.857 695.58L990.577 699.394L985.022 692.743L989.367 703.007L977.482 695.812V699.669L989.087 703.465L987.328 713.086L983.037 713.646L986.047 707.548L982.631 715.261L972.791 711.774L978.095 708.627L977.017 702.375L967.122 722.64L957.043 724.577L952.328 722.062L962.282 715.81L953.64 717.043L962.282 711.023L958.497 711.792L960.417 707.167L951.25 721.907L956.143 726.366L945.849 722.062L946.66 732.922L943.143 727.623L934.733 730.401L933.422 721.216L956.262 711.715L959.344 704.687L951.399 712.18L947.697 709.706L953.097 707.006L952.018 703.686L944.383 717.967L935.121 710.403L946.618 706.076L934.465 708.043L932.254 716.716L919.26 699.275L912.417 702.893L899.703 694.418L912.453 703.263L919.427 699.847L931.336 716.966L934.703 712.758L927.73 730.466L914.825 732.225L911.738 722.062L920.494 725.179L924.404 716.209L918.992 713.956L923.7 717.902L920.094 724.887L906.647 720.286L906.528 716.292L912.566 719.964L915.517 714.081L909.282 712.311L909.33 704.753L905.491 702.679L901.325 707.161L905.878 703.066L908.936 712.519L914.909 713.956L912.554 719.499L905.259 716.811L908.906 732.612L899.006 723.606L899.858 731.563L889.052 730.711L893.058 728.011L887.216 724.059L890.286 723.838L891.913 712.025L890 723.767L886.817 723.904L892.533 728.422L879.903 726.968L876.94 724.536L880.624 721.657L864.006 728.923L850.565 724.351L861.753 715.142L856.585 721.949L846.536 717.663L849.779 712.102L846.077 717.431L852.05 721.114L846.631 724.375L817.497 723.093L762.434 749.707L758.113 741.213L744.994 746.387L725.05 735.652L694.3 751.018L676.091 748.854L655.36 720.864L583.423 747.084L550.551 710.481L535.042 709.551L533.04 691.407L525.631 693.106L533.04 707.238L506.492 687.7L527.77 666.225L533.653 674.808L560.195 657.767L562.103 650.155L564.07 653.195L571.52 650.084L561.954 649.952L546.111 665.605L527.246 664.192L519.378 674.265L524.236 660.061L516.523 654.274L522.233 640.916L518.532 638.52L519.813 632.22L532.879 639.677L541.313 635.367L543.065 640.255L552.113 631.982L557.722 636.053L567.98 627.321L567.36 623.41L576.807 624.042L575.889 617.468L582.011 620.085L585.754 616.353L585.885 620.186L590.212 616.598L586.32 619.769L585.968 615.978L575.8 617.235L577.129 623.506L567.336 623.083L557.531 635.445L552.554 631.552L542.988 639.951L541.11 634.89L533.04 639.295L519.843 631.648L510.819 658.869L512.744 673.109L507.731 675.731L501.479 669.479L505.031 661.063L498.546 669.968L486.661 658.518L495.071 643.462L505.133 648.808L496.52 642.83L492.371 648.713L488.36 644.314L491.525 633.657L487.668 625.86L491.99 629.8L492.604 625.473L498.23 629.353L504.31 622.725L505.627 627.547L507.32 624.305L516.136 625.246L504.668 622.266L498.356 628.936L493.069 625.008L491.37 629.335L488.437 624.781L482.113 630.104L484.348 620.073L500.698 616.651L499.911 613.862L484.116 619.453L481.303 624.96L473.81 616.324L494.422 595.337L498.01 604.754L506.486 610.196L498.403 603.693L503.255 589.042L514.61 602.99L519.843 599.92L516.38 604.134L520.523 604.194L521.226 609.815L520.248 599.479L506.867 593.012L520.689 585.639L513.287 583.964L510.968 591.123L497.05 580.68L517.518 576.615L516.589 571.227L522.484 570.786L516.988 570.368L515.724 575.625L514.842 565.958L529.547 561.457L534.029 556.939L530.411 552.296L537.128 549.978L529.72 552.219L532.777 558.185L523.956 558.412L509.639 569.379L516.225 561.66L515.158 556.492L525.315 548.35L516.893 534.737L515.581 543.564L522.579 541.198L524.486 548.267L509.007 564.855L510.521 574.588L500.203 573.247L499.804 568.741L506.456 569.599L506.378 565.946L499.858 568.366L503.243 575.739L471.2 590.306L468.154 577.551L479.64 578.385L479.717 573.676L485.022 572.586L479.717 573.134V577.998L466.926 577.133L462.623 567.644L473.047 551.605L481.338 555.306L478.227 549.596L496.246 544.536L485.314 523.519L498.719 514.978L490.756 519.955L491.912 506.21L484.194 508.683L488.729 514.733L483.961 524.431L487.281 542.956L477.25 541.102L482.96 544.726L459.654 552.523L464.423 543.189L460.149 536.918L473.781 536.161L461.43 531.53L458.039 536.853L463.07 544.13L442.989 561.094L434.501 556.153L442.375 542.026L438.745 526.821L446.929 531.297L449.7 528.985L445.462 515.472L439.359 514.566L446.625 513.017L446.184 509.595L439.168 512.868L445.152 515.627L446.154 522.112L437.589 526.976L439.752 542.801L419.904 552.588L410.981 544.738L423.987 530.964L424.845 516.462L416.012 505.632L408.728 512.069L399.483 503.349L406.725 504.517L421.847 492.322L418.378 488.305L422.08 476.884L417.371 470.942L421.925 477.886L417.991 488.227L421.692 491.625L398.971 502.222L403.87 519.567L387.819 504.744L395.538 493.788L393.916 490.468L387.36 504.44L396.128 514.847L378.383 516.7L373.931 510.692L377.96 521.212L363.667 523.656L367.833 508.606L364.209 500.5L372.62 496.411L367.297 488.46L381.495 485.527L381.566 466.775L376.166 457.358L380.493 486.379L366.927 487.291L370.843 497.412L360.836 494.98L361.158 522.345L349.934 517.249L357.075 520.432L347.156 526.046L342.215 512.927L343.145 521.725L345.923 519.645L346 525.587L351.031 525.689L342.746 533.294L323.422 515.943L336.451 508.66L337.59 502.353L343.61 501.507L338.126 495.255L335.218 508.6L326.211 504.452L332.44 489.974L338.901 486.993L334.735 485.372L323.702 502.044L318.409 491.964L311.435 492.167L316.526 479.662L311.507 480.508L314.904 469.857L308.193 487.917L300.474 489.08L301.785 481.361L295.616 477.808L301.636 481.748L299.55 488.692L305.105 494.092L289.841 493.538L293.608 492.703L299.318 504.976L311.662 512.081L296.773 530.451L275.953 535.714L264.288 518.947L216.891 518.167L198.932 508.809L217.773 496.399L232.191 460.982L267.03 451.558L287.123 413.364L284.685 398.159L296.82 387.793L291.748 388.175L295.432 383.424L292.427 368.446L301.446 367.534L285.156 356.119L280.739 340.658L359.292 315.225L369.079 318.396L359.036 327.783L453.432 308.656L489.48 273.105L515.432 262.579L521.935 245.863L543.148 230.789L612.206 207.948L695.546 213.369L717.659 228.196L708.682 249.573L717.671 228.211L747.139 241.428L760.658 238.364L765.885 249.755L815.494 264.06L883.682 318.408L925.536 320.071L932.677 312.763L974.06 321.286L983.734 312.364L1000.38 320.72L1015.85 310.921L1043.77 312.441L1055.27 329.703L1089.34 352.388L1065.92 353.968L1064.12 370.061L1054.22 379.18L1071 398.862L1079.83 425.958L1104.1 446.242L1128.82 485.754L1110.67 503.665L1107.11 543.183L1070.02 577.521L1077.8 580.65L1079.88 629.52L1085.2 630.104L1089.07 657.135L1094.8 658.857L1079.88 682.449L1099.32 764.763L1110.73 784.611L1123.32 787.621L1128.85 802.046L1140.21 809.276L1131.03 812.339L1145.69 821.608L1139.9 830.876L1155.64 847.405L1153.33 854.206L1179.49 908.201L1194.31 899.314L1196.95 888.502L1179.18 821.143L1194.07 802.683L1209.43 802.916L1193.77 799.894L1204.41 799.441L1199.09 793.26L1218.45 804.001L1226.55 800.061L1235.09 838.136L1235.05 897.121Z" stroke="black" stroke-width="4" mask="url(#path-1-outside-1_0_1)"/>
<path d="M626.998 840.908L626.611 840.804L626.26 840.996L617.82 845.603L616.832 846.142L617.483 847.059L622.824 854.587L623.24 855.174L623.928 854.966L637.381 850.907L638.229 850.651L638.077 849.778L637.112 844.223L637.002 843.594L636.386 843.429L626.998 840.908Z" fill="#0D9488" stroke="black" stroke-width="2"/>
<path d="M650.977 845.617L650.609 845.402L650.199 845.519L644.495 847.14L644.647 849.095L655.37 850.406L655.996 848.55L650.977 845.617Z" fill="#0D9488" stroke="black" stroke-width="2"/>
<path d="M542.865 936.557L542.732 938.547L575.308 943.258L584.794 945.054L585.3 943.124L565.38 936.383L565.22 936.329L565.05 936.33L542.865 936.557Z" fill="#0D9488" stroke="black" stroke-width="2"/>
<path d="M532.985 935.798L532.676 935.66L532.346 935.737L526.094 937.203L526.331 939.177L535.671 939.099L536.073 937.187L532.985 935.798Z" fill="#0D9488" stroke="black" stroke-width="2"/>
<path d="M618.938 972.704L617.882 974.335L626.292 983.222L626.484 983.425L626.753 983.499L646.965 989.06L648.077 989.366L648.223 988.222L648.765 983.972L648.867 983.169L648.103 982.902L618.938 972.704Z" fill="#0D9488" stroke="black" stroke-width="2"/>
<path d="M701.724 1064.72L701.849 1067.07L703.454 1065.35L706.297 1062.29L706.789 1061.77L706.443 1061.13L703.111 1055.03L701.235 1055.57L701.724 1064.72Z" fill="#0D9488" stroke="black" stroke-width="2"/>
<path d="M693.553 1073.9L693.501 1073.78L693.421 1073.68L680.994 1058L680.668 1057.59L680.145 1057.62L670.656 1058.24L668.238 1058.39L670.063 1059.99L684.109 1072.26L689.087 1088.85L689.462 1090.1L690.573 1089.41L697.522 1085.09L698.258 1084.64L697.91 1083.84L693.553 1073.9Z" fill="#0D9488" stroke="black" stroke-width="2"/>
<path d="M705.71 1069.93L705.84 1068.99L704.907 1068.81L701.664 1068.19L700.187 1067.91L700.498 1069.38L702.507 1078.88L704.476 1078.81L705.71 1069.93Z" fill="#0D9488" stroke="black" stroke-width="2"/>
<path d="M944.556 1062.51L944.057 1062.25L943.571 1062.54L938.862 1065.36L937.804 1066L938.645 1066.9L944.17 1072.84L945.17 1073.91L945.804 1072.59L948.981 1065.95L949.395 1065.09L948.549 1064.64L944.556 1062.51Z" fill="#0D9488" stroke="black" stroke-width="2"/>
<path d="M291.042 374.29L291.762 373.89L291.507 373.107L290.184 369.048L289.378 366.576L288.319 368.95L285.476 375.328L284.255 378.068L286.876 376.609L291.042 374.29Z" fill="#0D9488" stroke="black" stroke-width="2"/>
<path d="M234.001 6.85902L233.855 6.71037L233.662 6.63257L227.356 4.09639L224.317 2.87441L226.155 5.58526L230.971 12.6901L231.388 13.3051L232.097 13.0835L236.674 11.653L238.237 11.1646L237.089 9.9972L234.001 6.85902Z" fill="#0D9488" stroke="black" stroke-width="2"/>
<path d="M182.759 99.7763L181.278 99.6113L181.687 101.044L183.803 108.468L184.039 109.298L184.895 109.185L191.696 108.291L193.101 108.106L192.456 106.844L189.451 100.973L189.206 100.494L188.672 100.435L182.759 99.7763Z" fill="#0D9488" stroke="black" stroke-width="2"/>
<path d="M59.4482 167.616L59.2121 167.665L59.0246 167.817L49.9333 175.182L40.2978 167.505L39.7257 167.049L39.118 167.456L31.9269 172.274L0.910874 169.393L0.545352 171.35L20.4941 177.012L27.604 188.94L27.9313 189.489L28.5669 189.422L58.7162 186.272L60.6247 193.467L60.9352 194.638L62.026 194.112L85.9304 182.573L92.8289 232.371L93.165 234.797L94.623 232.829L105.286 218.438L106.078 217.369L104.831 216.905L97.0809 214.022L101.613 202.603L128.647 194.897L134.475 202.383L126.613 205.875L125.624 206.314L126.14 207.266L141.286 235.179L141.611 235.778L142.288 235.694L184.727 230.416L185.075 230.373L185.32 230.121L203.344 211.611L203.848 211.094L203.516 210.454L199.503 202.706L205.848 210.758L206.28 211.306L206.944 211.089L219.626 206.947L223.779 212.39L224.328 213.11L225.098 212.635L246.819 199.262L284.591 219.366L285.892 220.059L286.055 218.593L287.19 208.356L294.641 209.608L295.102 209.685L295.457 209.381L313.303 194.096L314.067 193.441L313.407 192.681L301.349 178.776L307.28 168.078L307.535 167.617L307.3 167.146L301.989 156.501L301.791 156.103L301.362 155.984L272.401 147.944L255.778 131.483L255.527 131.235L255.177 131.199L228.719 128.459L232.431 118.562L233.068 116.862L231.291 117.231L211.443 121.353L210.898 121.466L210.707 121.989L208.892 126.956L206.72 121.585L206.348 120.666L205.427 121.029L200.803 122.848L162.063 112.997L161.771 112.923L161.487 113.022L145.358 118.655L143.804 119.198L145.002 120.327L151.827 126.76L138.765 128.531L142.948 120.605L144.185 118.262L141.708 119.204L116.289 128.871L98.7394 122.477L96.9931 121.841L97.4244 123.649L99.3689 131.799L82.828 125.472L79.5805 124.23L81.6719 127.008L84.7063 131.038L64.9614 139.109L62.7624 132.775L62.0542 130.734L60.9565 132.594L55.6437 141.597L53.6808 133.67L53.4981 132.932L52.7382 132.911L42.6531 132.628L41.7267 132.602L41.6305 133.523L40.6625 142.8L39.1937 134.321L37.2368 134.255L35.4132 141.739L23.1723 137.373L22.5271 137.143L22.0795 137.661L17.5912 142.859L17.2237 143.285L17.3965 143.82L22.9039 160.879L23.0533 161.341L23.5093 161.51L38.0767 166.886L38.4802 167.035L38.8658 166.844L44.2839 164.168L44.8893 163.869L44.9612 164.187L58.7067 162.542L63.3941 166.786L59.4482 167.616ZM44.5775 162.595L38.8786 156.391L41.4705 157.956L42.6327 158.657L42.9581 157.339L43.8539 153.711L47.4182 160.789L47.6252 161.2L44.5227 162.247L44.6093 162.63L44.5775 162.595ZM57.283 151.329L57.127 157.994L49.4015 160.6L57.283 151.329ZM131.928 135.397L128.366 139.245L127.554 140.122L128.56 140.767L158.723 160.082L161.35 179.668L161.476 180.61L162.424 180.531L180.87 178.995L187.911 196.095L188.148 196.672L188.771 196.712L190.607 196.831L178.096 197.816L170.319 191.814L169.325 191.047L168.8 192.188L166.092 198.074L144.097 193.549L128.846 160.265L128.7 159.946L128.387 159.789L113.645 152.366L114.124 146.99L125.321 146.05L125.506 144.09L113.615 140.77L113.703 135.866L131.928 135.397Z" fill="#0D9488" stroke="black" stroke-width="2"/>
<path d="M202.534 116.074L200.56 115.115L201.131 117.234L202.442 122.098L202.953 123.99L204.185 122.467L206.641 119.433L207.433 118.454L206.301 117.904L202.534 116.074Z" fill="#0D9488" stroke="black" stroke-width="2"/>
<path d="M241.601 123.264L241.747 121.979L240.466 122.162L235.68 122.844L232.651 123.276L235.351 124.716L239.791 127.086L241.09 127.779L241.255 126.316L241.601 123.264Z" fill="#0D9488" stroke="black" stroke-width="2"/>
<path d="M182.525 193.319L181.968 193.038L181.471 193.416L176.494 197.198L174.238 198.912L177.07 198.994L190.32 199.378L190.799 197.486L182.525 193.319Z" fill="#0D9488" stroke="black" stroke-width="2"/>
<path d="M79.0651 195.598L78.0375 195.533L78.0025 196.562L77.7164 204.982L77.6637 206.531L79.0971 205.94L86.5834 202.853L87.4217 202.507L87.1594 201.639L85.6574 196.668L85.4565 196.003L84.7633 195.959L79.0651 195.598Z" fill="#0D9488" stroke="black" stroke-width="2"/>
<path d="M126.705 197.217L125.871 196.3L125.151 197.309L122.177 201.472L121.655 202.202L122.324 202.799L125.489 205.627L126.23 206.289L126.897 205.553L129.972 202.155L130.581 201.483L129.971 200.812L126.705 197.217Z" fill="#0D9488" stroke="black" stroke-width="2"/>
<path d="M70.2953 247.911L78.4295 248.621L66.7061 253.263L67.05 255.192L91.5774 255.785L92.1314 255.799L92.4364 255.336L100.85 242.573L109.16 247.808L98.306 255.403L97.2139 256.167L98.2529 257.001L104.243 261.815L104.681 262.166L105.209 261.976L124.038 255.187L124.377 255.064L124.56 254.754L134.747 237.468L135.237 236.636L134.422 236.117L111.504 221.535L110.899 221.15L110.341 221.599L85.8134 241.296L73.2941 233.64L72.0631 232.887L71.7904 234.304L69.4003 246.726L69.1908 247.814L70.2953 247.911Z" fill="#0D9488" stroke="black" stroke-width="2"/>
<path d="M67.4429 232.082L67.4042 229.939L65.7869 231.345L61.0841 235.434L59.3664 236.928L61.6282 237.183L66.4145 237.722L67.5469 237.85L67.5263 236.71L67.4429 232.082Z" fill="#0D9488" stroke="black" stroke-width="2"/>
<path d="M121.269 269.464L120.868 269.279L120.461 269.451L94.3009 280.484L95.0071 282.353L124.017 272.635L126.406 271.834L124.118 270.778L121.269 269.464Z" fill="#0D9488" stroke="black" stroke-width="2"/>
<path d="M187.627 326.182L187.557 326.159L187.484 326.147L176.755 324.377L175.186 324.118L175.633 325.644L177.527 332.115L164.22 320.683L162.176 318.927L162.58 321.591L163.976 330.809L161.355 331.999L139.532 341.909L127.213 333.381L125.852 334.814L129.739 339.843L124.913 340.932L117.65 331.644L117.015 330.831L116.222 331.492L103.15 342.392L98.4947 332.639L97.5987 330.762L96.6922 332.634L90.8003 344.802L76.9664 342.306L81.6715 334.649L82.3041 333.619L81.1746 333.19L75.1009 330.884L74.3744 330.608L73.9276 331.244L59.7656 351.396L59.4117 351.899L59.7018 352.442L63.9701 360.429L47.5114 368.008L48.2766 369.854L66.1782 363.233L70.4871 368.179L72.2861 370.243L72.2409 367.505L72.157 362.421L83.7695 362.854L80.699 367.76L79.6332 369.463L81.6345 369.287L114.977 366.348L115.043 366.342L115.108 366.328L176.554 352.577L176.695 352.546L176.82 352.476L190.762 344.757L192.101 344.016L190.884 343.088L182.329 336.558L198.027 331.422L200.959 330.463L198.022 329.519L187.627 326.182ZM164.008 331.022L164.552 334.61L161.011 336.231L162.635 333.408L164.008 331.022Z" fill="#0D9488" stroke="black" stroke-width="2"/>
<path d="M158.69 322.503L158.243 321.287L157.18 322.027L150.838 326.444L150.159 326.917L150.496 327.673L154.037 335.6L154.638 336.947L155.667 335.889L160.99 330.411L161.428 329.96L161.211 329.37L158.69 322.503Z" fill="#0D9488" stroke="black" stroke-width="2"/>
<path d="M148.853 329.972L149.048 329.736L149.079 329.432L149.454 325.641L149.593 324.234L148.221 324.571L139.185 326.788L137.835 327.12L138.578 328.294L142.887 335.107L143.623 336.27L144.502 335.211L148.853 329.972Z" fill="#0D9488" stroke="black" stroke-width="2"/>
<path d="M86.2954 333.344L85.8507 333.385L85.5842 333.743L81.6205 339.072L80.832 340.132L82.0663 340.603L89.5467 343.458L90.4458 343.801L90.8231 342.916L94.5961 334.064L95.2529 332.524L93.585 332.676L86.2954 333.344Z" fill="#0D9488" stroke="black" stroke-width="2"/>
<path d="M117.875 381.111L116.566 381.521L117.357 382.642L138.072 411.995L128.536 419.715L127.672 420.415L128.458 421.2L144.035 436.747L149.122 459.673L149.245 460.226L149.783 460.405L164.562 465.308L177.699 486.917L178.169 487.69L178.985 487.299L192.285 480.938L210.307 489.599L211.293 490.073L211.676 489.049L219.079 469.274L231.016 458.247L231.448 457.849L231.31 457.278L228.472 445.509L231.966 442.7L232.236 442.482L232.314 442.143L243.341 393.983L243.416 393.655L243.277 393.348L233.127 370.889L233.046 370.709L232.902 370.574L227.109 365.096L226.688 364.698L226.133 364.866L201.121 372.419L198.799 360.459L198.669 359.785L197.993 359.665L190.817 358.383L190.576 358.34L190.342 358.414L117.875 381.111Z" fill="#0D9488" stroke="black" stroke-width="2"/>
<path d="M246.29 373.912L246.266 373.931L246.244 373.951L244.051 375.9L245.353 377.417L250.539 373.113L249.282 371.558L246.29 373.912Z" fill="#0D9488" stroke="black" stroke-width="2"/>
<path d="M120.702 372.179L120.122 371.666L119.48 372.099L116.506 374.108L114.563 375.42L116.855 375.914L123.793 377.41L127.53 378.216L124.666 375.683L120.702 372.179Z" fill="#0D9488" stroke="black" stroke-width="2"/>
<path d="M239.093 411.102L238.819 412.238L239.983 412.334L249.622 413.126L252.287 413.346L250.419 411.432L247.875 408.823L259.265 390.205L260.331 388.461L258.3 388.689L244.818 390.203L244.122 390.281L243.957 390.962L239.093 411.102Z" fill="#0D9488" stroke="black" stroke-width="2"/>
<path d="M264.044 400.41L262.104 400.604L260.691 411.971L260.25 415.52L262.468 412.714L266.134 408.077L266.469 407.653L266.298 407.139L264.044 400.41Z" fill="#0D9488" stroke="black" stroke-width="2"/>
<path d="M253.817 403.642L253.377 403.19L252.78 403.392L248.226 404.936L247.075 405.326L247.679 406.381L250.999 412.168L251.65 413.303L252.574 412.377L256.812 408.134L257.509 407.436L256.821 406.73L253.817 403.642Z" fill="#0D9488" stroke="black" stroke-width="2"/>
<path d="M266.6 411.012L266.809 410.796L266.863 410.501L267.442 407.389L265.591 406.71L262.05 412.891L263.638 414.082L266.6 411.012Z" fill="#0D9488" stroke="black" stroke-width="2"/>
<path d="M66.4456 654.979L64.6105 655.673L66.1543 664.858L66.4369 666.54L67.7666 665.472L70.5501 663.237L71.2417 662.682L70.7729 661.929L66.4456 654.979Z" fill="#0D9488" stroke="black" stroke-width="2"/>
<path d="M75.3378 659.369L74.5268 658.329L73.7442 659.391L70.5017 663.789L68.932 665.919L71.5178 665.36L77.228 664.126L78.7846 663.79L77.8054 662.534L75.3378 659.369Z" fill="#0D9488" stroke="black" stroke-width="2"/>
<path d="M93.1852 663.297L92.3147 662.972L91.927 663.816L90.6157 666.671L90.0627 667.875L91.3721 668.077L106.649 670.431L107.151 668.506L93.1852 663.297Z" fill="#0D9488" stroke="black" stroke-width="2"/>
<path d="M111.237 667.204L110.934 667.12L110.637 667.224L106.721 668.595L107.006 670.537L117.562 671.02L117.877 669.058L111.237 667.204Z" fill="#0D9488" stroke="black" stroke-width="2"/>
<path d="M124.278 669.905L122.854 669.506L123.015 670.976L123.402 674.529L123.613 676.462L125.063 675.166L127.995 672.543L129.355 671.327L127.598 670.835L124.278 669.905Z" fill="#0D9488" stroke="black" stroke-width="2"/>
<path d="M65.1161 685.699L64.983 685.702L64.8553 685.739L51.1224 689.774L49.4094 690.278L50.7335 691.476L53.3561 693.848L53.7993 694.249L54.3623 694.048L72.798 687.486L72.4415 685.544L65.1161 685.699Z" fill="#0D9488" stroke="black" stroke-width="2"/>
<path d="M55.2502 724.33L54.3652 724.128L54.0793 724.99L53.1554 727.773L52.7592 728.967L54.0116 729.084L76.3097 731.164L76.6245 729.193L55.2502 724.33Z" fill="#0D9488" stroke="black" stroke-width="2"/>
<path d="M91.6701 727.903L91.4362 727.829L91.1947 727.872L79.0473 730.024L79.3089 732.005L94.1564 730.705L94.3702 728.756L91.6701 727.903Z" fill="#0D9488" stroke="black" stroke-width="2"/>
<path d="M107.901 735.279L107.583 735.139L107.247 735.226L98.6045 737.467L98.8297 739.435L113.421 739.811L113.849 737.896L107.901 735.279Z" fill="#0D9488" stroke="black" stroke-width="2"/>
<path d="M485.036 623.508L483.402 622.442L473.931 631.627L473.239 632.299L473.884 633.015L487.164 647.749L488.443 649.168L488.88 647.308L492.111 633.576L492.321 632.682L491.449 632.396L482.792 629.561L485.036 623.508Z" fill="#0D9488" stroke="black" stroke-width="2"/>
<path d="M520.516 654.924L520.041 654.384L519.378 654.663L511.528 657.965L510.859 658.247L510.92 658.97L512.284 675.278L512.516 678.041L514.101 675.767L524.598 660.711L525.047 660.067L524.528 659.478L520.516 654.924Z" fill="#0D9488" stroke="black" stroke-width="2"/>
<path d="M234.905 444.662L235.984 442.795L233.862 443.177L228.307 444.179L226.955 444.422L227.602 445.634L229.992 450.11L230.84 451.698L231.74 450.139L234.905 444.662Z" fill="#0D9488" stroke="black" stroke-width="2"/>
<path d="M269.165 446.516L269.191 446.471L269.213 446.423L270.524 443.484L269.003 442.283L257.505 451.086L255.162 452.88H258.113H264.902H265.479L265.768 452.381L269.165 446.516Z" fill="#0D9488" stroke="black" stroke-width="2"/>
<path d="M224.931 473.818L225.606 473.008L224.762 472.377L221.675 470.064L219.773 468.639L220.084 470.995L220.769 476.187L221.068 478.447L222.528 476.696L224.931 473.818Z" fill="#0D9488" stroke="black" stroke-width="2"/>
<path d="M312.334 487.751L312.011 487.2L311.374 487.262L301.182 488.251L298.743 488.488L300.651 490.025L304.764 493.338L302.416 495.079L293.631 495.292L291.186 495.351L292.972 497.022L305.674 508.901L306.222 509.414L306.868 509.031L319.319 501.634L320.174 501.126L319.671 500.268L312.334 487.751Z" fill="#0D9488" stroke="black" stroke-width="2"/>
<path d="M416.935 508.759L416.274 508.06L415.55 508.694L404.194 518.637L400.868 513.037L400.427 512.294L399.628 512.622L385.913 518.255L384.63 518.782L385.394 519.669L383.6 518.434L382.44 517.635L382.068 518.994L380.072 526.295L379.923 526.839L380.311 527.248L394.706 542.399L395.129 542.844L395.717 542.669L417.89 536.04L418.382 535.893L418.549 535.408L424.647 517.687L424.844 517.114L424.427 516.674L416.935 508.759Z" fill="#0D9488" stroke="black" stroke-width="2"/>
<path d="M974.673 716.045L973.337 715.983L973.655 717.281L975.322 724.088L960.426 731.832L957.384 733.414L960.8 733.716L967.75 734.33L968.167 734.366L968.485 734.095L987.005 718.348L988.937 716.704L986.403 716.587L974.673 716.045Z" fill="#0D9488" stroke="black" stroke-width="2"/>
<path d="M983.41 727.972L983.673 725.85L981.876 727.009L960.43 740.837L961.159 742.66L981.371 738.798L982.087 738.661L982.176 737.938L983.41 727.972Z" fill="#0D9488" stroke="black" stroke-width="2"/>
<path d="M945.707 734.117L946.73 732.466L942.218 727.87L941.51 727.149L940.797 727.865L938.442 730.225L937.292 731.378L938.841 731.882L945.707 734.117Z" fill="#0D9488" stroke="black" stroke-width="2"/>
<path d="M976.174 736.467L975.67 736.2L975.183 736.498L971.017 739.049L970.145 739.583L970.698 740.443L972.784 743.685L973.235 744.385L974.005 744.069L981.336 741.059L983.309 740.249L981.425 739.251L976.174 736.467Z" fill="#0D9488" stroke="black" stroke-width="2"/>
<path d="M975.163 788.043L973.545 788.429L974.646 789.678L986.298 802.886L986.895 803.562L987.628 803.039L1001.94 792.842L1010.06 800.183L1010.78 800.832L1011.46 800.135L1015.78 795.653L1016.37 795.037L1015.85 794.355L1005.98 781.308L1005.58 780.787L1004.95 780.938L975.163 788.043Z" fill="#0D9488" stroke="black" stroke-width="2"/>
<path d="M856.093 781.787L854.873 783.325L875.103 806.887L877.529 809.713L876.845 806.052L874.145 791.61L874.055 791.131L873.623 790.906L856.093 781.787Z" fill="#0D9488" stroke="black" stroke-width="2"/>
<path d="M945.366 807.58L946.483 807.24L945.975 806.188L940.42 794.685L940.234 794.3L939.827 794.168L929.23 790.741L928.402 790.473L928.022 791.256L925.803 795.83L925.486 789.916L925.45 789.252L924.824 789.028L908.761 783.282L905.406 782.082L907.646 784.853L929.42 811.776L929.844 812.3L930.488 812.104L945.366 807.58Z" fill="#0D9488" stroke="black" stroke-width="2"/>
<path d="M893.98 802.968L893.764 802.806L893.495 802.775L890.175 802.387L888.533 802.196L889.126 803.739L890.67 807.757L890.994 808.599L891.865 808.363L896.723 807.046L898.699 806.51L897.061 805.281L893.98 802.968Z" fill="#0D9488" stroke="black" stroke-width="2"/>
<path d="M958.162 804.333L957.693 803.915L957.112 804.156L941.68 810.575L942.079 812.499L952.617 812.347L956.881 821.557L957.698 823.323L958.658 821.63L964.607 811.14L965.005 810.438L964.402 809.9L958.162 804.333Z" fill="#0D9488" stroke="black" stroke-width="2"/>
<path d="M967.296 805.79L965.897 805.571L966.158 806.962L968.78 820.94L968.907 821.616L969.584 821.739L981.85 823.98L983.476 824.277L982.985 822.699L978.437 808.102L978.252 807.508L977.637 807.411L967.296 805.79Z" fill="#0D9488" stroke="black" stroke-width="2"/>
<path d="M916.701 840.234L909.478 836.995L917.072 832.318L917.842 831.844L917.448 831.031L906.063 807.511L904.449 804.175L904.166 807.87L902.874 824.765L901.331 840.902L901.273 841.51L901.787 841.839L911.199 847.866L911.968 848.358L912.528 847.636L917.082 841.759L917.861 840.754L916.701 840.234Z" fill="#0D9488" stroke="black" stroke-width="2"/>
<path d="M929.066 812.688L928.842 811.432L927.676 811.95L911.988 818.912L911.035 819.335L911.497 820.269L920.188 837.829L920.624 838.71L921.513 838.289L931.997 833.312L932.687 832.984L932.553 832.232L929.066 812.688Z" fill="#0D9488" stroke="black" stroke-width="2"/>
<path d="M993.623 842.438L993.601 842.376L993.571 842.317L983.462 822.618L982.864 821.453L981.898 822.336L976.45 827.31L966.945 817.215L965.276 818.241L970.094 831.532L965.291 837.344L964.205 838.658L965.881 838.965L981.892 841.896L980.884 854.741L980.745 856.506L982.328 855.714L995.137 849.306L995.929 848.91L995.632 848.076L993.623 842.438Z" fill="#0D9488" stroke="black" stroke-width="2"/>
<path d="M885.416 820.358L883.6 821.1L886.872 838.019L884.366 839.885L883.529 840.508L884.187 841.318L888.896 847.112L890.014 848.486L890.613 846.819L894.78 835.232L894.949 834.76L894.672 834.342L885.416 820.358Z" fill="#0D9488" stroke="black" stroke-width="2"/>
<path d="M887.169 839.59L887.239 839.268L887.105 838.967L882.759 829.264L880.848 829.732L882.231 852.936L884.206 853.091L887.169 839.59Z" fill="#0D9488" stroke="black" stroke-width="2"/>
<path d="M917.951 832.961L917.398 832.172L916.589 832.695L911.505 835.985L910.418 836.689L911.373 837.563L915.483 841.322L914.909 847.545L916.813 848.054L921.212 838.476L921.451 837.955L921.122 837.485L917.951 832.961Z" fill="#0D9488" stroke="black" stroke-width="2"/>
<path d="M157.483 1028.24L156.686 1027.84L156.194 1028.58L152.028 1034.92L151.34 1035.97L152.511 1036.41L161.774 1039.89L163.204 1040.42L163.124 1038.9L162.737 1031.48L162.707 1030.9L162.192 1030.64L157.483 1028.24Z" fill="#0D9488" stroke="black" stroke-width="2"/>
</svg>
