<svg width="1895" height="2375" viewBox="0 0 1895 2375" fill="none" xmlns="http://www.w3.org/2000/svg">
<mask id="path-1-outside-1_0_1" maskUnits="userSpaceOnUse" x="0.337891" y="230.056" width="1896" height="2145" fill="black">
<rect fill="white" x="0.337891" y="230.056" width="1896" height="2145"/>
<path d="M1803.73 516.327L1820.55 532.158L1809.64 533.338L1812.22 548.305L1806.9 546.988L1803.81 554.176L1809.05 558.194L1817.62 557.884L1810.68 549.384L1824.41 558.265L1832.31 549.062L1867.23 557.884L1891.59 551.697L1890.83 1585.08L1878.83 1592.88L1871.85 1652.17L1861.3 1671.72L1850.88 1673.66L1853.06 1685.19L1844.75 1686.66L1845.32 1696.86L1858.94 1704.57L1851.35 1715.76L1863.71 1722.62L1862.38 1736.97L1873.06 1734.29L1873.09 1747.96L1877.22 1742.59L1885.88 1746.91L1894.04 2057.29L1891.08 2371.47L1860.98 2362.09L1783.33 2284.76L1752.01 2229.45L1711.64 2187.31L1700.38 2185.14L1676.49 2157.02L1660.09 2151.81L1608.36 2109.85L1600.95 2092.23L1633.82 2075.72L1634.66 2066.38L1628.73 2055.53L1631.35 2035.78L1625.88 2062.08L1629.88 2074.96L1592 2087.61L1533.15 2084.67L1475.88 2108.06L1430.58 2115.15L1412.21 2106.77L1397.22 2084.04L1357.97 2095.9L1354.32 2089.02L1354.67 2099.76L1331.9 2114.29L1322.33 2111.56L1323.02 2101.98L1320.79 2109.62L1333.9 2121.93L1336.13 2140.43L1328.81 2149.92L1317.23 2145.41L1322.17 2140.33L1313.92 2135.81L1321.17 2130.98L1310.21 2132.3L1289.46 2089.59L1314.15 2078.67L1308.2 2066.13L1311.07 2034.79L1340.23 2016.34L1340.23 1987.57L1354.2 1953.9L1364.74 1945.38L1367.01 1955.46L1367.22 1935.84L1350.22 1921.94L1325.3 1922.53L1298.71 1867.14L1244.47 1839.58L1244.09 1832.66L1311.64 1832.58L1341.67 1844.38L1382.6 1843.47L1402.91 1819.29L1408.97 1840.36L1452.73 1842.6L1456.65 1838.97L1455.1 1833.14L1441.74 1833.2L1433.47 1823.28L1447.55 1813.94L1466.49 1825.08L1462.84 1839.13L1466.82 1850.12L1485.6 1856.84L1495.68 1851.96L1501.23 1828.86L1515.32 1826.91L1511.62 1842.63L1520.26 1859.93L1527.06 1857.93L1542.91 1838.66L1549.06 1827.59L1547.35 1813.52L1553.22 1805.4L1565.88 1801.18L1558.06 1799L1548.16 1808.53L1542.22 1837.23L1529.28 1846.35L1526.53 1856.99L1519.83 1850.51L1517.45 1827.53L1510.75 1820.54L1494.58 1829.52L1491.3 1851.71L1476.07 1851.05L1465.78 1843.84L1467.15 1818.58L1443.45 1809.7L1430.85 1789.43L1406.96 1781.89L1396.18 1783.09L1395.61 1769.01L1372.61 1764.94L1322.41 1729.26L1318.24 1717.76L1310.31 1715.83L1299.92 1720.7L1289.32 1716.87L1286.6 1690.72L1246.63 1667.34L1176.56 1598.41L1180.04 1588.98L1165.77 1562.36L1163.84 1548.78L1169.4 1548.16L1154.37 1522.83L1158.44 1516.89L1137.69 1480.58L1128.04 1476.15L1127.19 1463.43L1168.94 1451.02L1175.82 1458.06L1180.82 1454.99L1187.04 1465.43L1192.88 1459.5L1201.07 1466.78L1207.22 1466.22L1192.78 1459.1L1186.98 1465.06L1180.91 1454.64L1175.32 1457.31L1169.47 1423.64L1170.15 1446.83L1154.48 1452.23L1102.81 1443.26L1101.57 1428.84L1122.02 1415.96L1175 1402.54L1151.73 1400.69L1161.53 1398.35L1159.78 1390.8L1142.81 1382.88L1155.51 1372.45L1143.79 1379.82L1136.93 1390.76L1133.59 1384.41L1125.1 1384.64L1130.28 1376.11L1122.71 1368.2L1137.52 1369.91L1128.04 1369.26L1128.45 1365.48L1139.98 1364.93L1129.52 1367.11L1128.5 1359.76L1140.08 1360.14L1128.52 1359.54L1124.71 1348.65L1135.68 1332.47L1112.63 1352.91L1109.12 1341.42L1103.43 1340.38L1094.49 1352.81L1092.38 1367.09L1079.96 1366.58L1083.65 1358.37L1079.11 1347.66L1082.93 1342.89L1078.78 1347.91L1082.07 1363.85L1072.1 1359.29L1073.74 1326.41L1102.39 1325.56L1108.34 1313.16L1123.83 1309.53L1136.79 1292.93L1123.12 1308.42L1106.88 1311.48L1096.39 1321.68L1089.18 1308.11L1093.98 1305.74L1093.42 1301.16L1106.8 1295.48L1107.73 1284.01L1106.55 1295.22L1093.27 1300.8L1088.79 1307.76L1092.71 1322.78L1072.56 1322.94L1071.71 1339.29L1064.84 1340.6L1054.96 1321.29L1071.26 1322.01L1081.97 1296.31L1099.21 1293.38L1096.8 1273.52L1106.56 1270.48L1096.84 1271.93L1098.36 1293.14L1080.53 1296.15L1070.87 1320.94L1057.88 1318.46L1053 1322.07L1068.85 1352.31L1065.46 1359.45L1022.79 1319.45L1042.83 1300.24L1055.89 1300.07L1081.82 1282.64L1070.67 1271.21L1084.18 1268.75L1084.36 1260.95L1076.19 1257.41L1085.81 1255.41L1084.08 1246.51L1088.48 1249.78L1090.85 1246.54L1084.35 1245.86L1085.87 1254.89L1075.91 1256.71L1084.13 1266.05L1069.92 1270.21L1074.33 1283.42L1055.99 1297.43L1046.38 1294.3L1047.25 1283.18L1041.08 1277.37L1044.08 1273.55L1040.54 1277.14L1046 1296.3L1032.35 1308.11L1023.33 1304.41L1032.54 1293.83L1023.02 1303.1L1012.61 1296.59L1020.55 1280.39L1033.2 1277.29L1034.67 1265.44L1046.4 1257.93L1063.38 1257.46L1044.32 1257.15L1034.13 1265.13L1030.27 1278.22L1018.93 1280.86L1010.91 1301.62L986.987 1317.72L985.444 1322.94L981.897 1309.31L1008.98 1282.8L1003.58 1268.27L1014.07 1264.9L1026.11 1246.46L1032.13 1251.65L1029.43 1248.94L1033.67 1245.22L1043.01 1247.93L1048.79 1241.66L1038.22 1229.88L1048.33 1240.88L1046.63 1244.52L1033.9 1244.68L1029.04 1248.86L1032.51 1251.19L1026.73 1245.69L1011.83 1254.52L1017.54 1259.17L1002.44 1268.46L1007.52 1282.25L994.241 1293.72L995.63 1274.89L992.93 1295.58L984.907 1298.68L983.822 1289.77L979.525 1295.64L968.778 1284.73L970.161 1274.93L978.041 1270.63L978.923 1262.55L986.755 1269.86L993.854 1252.58L1000.98 1254.76L995.952 1244.1L1012.36 1239.93L1017.52 1233.45L1012.47 1239.53L1004.73 1238.13L990.379 1247.24L987.53 1257L979.507 1252.04L984.669 1248.78L983.977 1243.67L990.653 1243.21L998.712 1233.53L1003.19 1237.47L1002.88 1231.59L1009.6 1231.43L1003.04 1230.97L1003.5 1237.01L998.795 1233.06L983.804 1242.74L981.987 1239.47L986.832 1240.18L989.92 1231.98L986.296 1240.03L974.178 1234.38L987.84 1221.36L981.045 1223.53L976.878 1233.76L969.07 1233.11L965.905 1237.45L960.833 1231.36L965.303 1226.52L977.033 1225.84L977.677 1221.64L964.636 1226.09L973.845 1217.78L937.867 1248.46L945.014 1235.23L933.129 1238.75L941.378 1226.03L944.954 1224.64L943.303 1229.55L950.402 1233.01L957.59 1225.78L950.092 1232.63L945.783 1224.15L953.347 1225.62L954.485 1221.2L962.222 1221.36L968.397 1216.07L955.665 1220.55L961.804 1215.56L954.372 1219.95L950.104 1213.63L956.816 1204.87L951.856 1205.74L956.416 1196.49L951.964 1193.1L967.89 1180.12L953.054 1190.2L945.252 1184.74L950.331 1186.64L950.694 1195.95L955.462 1196.79L950.664 1198.74L948.572 1191.78L941.807 1190.85L951.368 1200.06L940.734 1203.78L947.064 1205.79L938.159 1215.05L945.085 1220.74L930.738 1235.54L932.813 1250.85L922.424 1248.42L924.498 1239.34L917.459 1240.6L924.343 1239.68L919.932 1247.99L926.954 1252.87L917.763 1259.3L904.489 1246.35L905.591 1237.81L932.747 1220.67L927.669 1212.68L937.426 1205.29L923.985 1219.24L920.457 1208.37L928.164 1191.8L923.83 1195.12L922.114 1206.88L918.001 1180.31L915.873 1200.36L922.644 1219.95L906.289 1231.05L899.565 1251.57L894.779 1250.8L900.263 1232.99L895.554 1220.51L908.732 1217.26L905.681 1201.94L914.776 1200.09L907.528 1186.62L909.96 1197.32L901.133 1195.93L889.367 1205.17L873.226 1230.44L860.399 1220.64L864.458 1210.67L873.059 1220.12L865.382 1210.13H880.814L885.057 1191.7L897.64 1193.87L886.989 1190.69L901.186 1173.42L882.59 1193.41L871.676 1175.63L882.059 1188.11L882.202 1197.66L876.802 1210.13L861.502 1205.15L858.903 1225.75L845.099 1215.64L856.048 1193.51L864.917 1195.34L868.833 1187.39L862.062 1194.18L852.537 1180.19L858.39 1189.31L843.12 1206.39L836.778 1200.33L839.824 1190.16L835.55 1187L841.79 1181.09L839.388 1177.09L847.369 1172.6L844.83 1167.03L846.612 1173.08L839.955 1174.43L834.918 1186.72L834.328 1199.35L841.785 1207.34L829.655 1220.9L814.378 1208.5L816.429 1192.04L825.512 1192.6L819.29 1186.7L829.208 1187.2L838.512 1174.85L829.041 1186.43L823.724 1183.74L829.119 1174.04L827.354 1181.15L822.443 1179.54L825.942 1165.97L821.841 1155.84L825.328 1166.41L820.923 1171.85L823.158 1182.56L813.538 1190.16L809.592 1211.45L795.71 1201.38L809.222 1184.87L804.228 1179.39L814.903 1173.84L815.958 1168.73L812.191 1174.7L803.274 1170.9L805.414 1158.97L798.434 1163.56L805.157 1164.52L802.559 1170.21L807.619 1174.86L797.486 1179.07L794.023 1166.86L795.621 1181.44L788.45 1185.89L796.849 1195.83L784.266 1196.18L781.19 1188.76L786.907 1197.04L773.06 1201.65L758.708 1187.95L769.782 1186.35L768.53 1182.47L778.693 1179.36L782.263 1171.47L778.037 1178.92L775.445 1172.22L776.577 1179.6L758.827 1182.49L758.01 1171.38L755.394 1183.29L747.073 1179.51L744.319 1172.96L747.561 1168.39L739.622 1168.31L748.02 1158.25L733.68 1168.08L741.69 1148.57L738.99 1141.52L732.589 1167.07L736.755 1170.43L728.017 1165.92L720.584 1171.61L719.416 1166.69L730.759 1158.52L721.329 1163.12L717.789 1154.54L722.349 1151.39L717.223 1154.47L715.691 1150.35L710.41 1151.27L708.324 1144.64L719.547 1160.49L712.377 1158.79L714.916 1165.29L702.506 1163.58L715.303 1166.45L708.36 1183.03L693.393 1175.13L693.858 1161.5L690.752 1167.67L689.262 1160.92L681.275 1171.51L683.695 1165.13L677.443 1170.29L659.907 1161.92L671.589 1156.21L661.182 1156.85L662.971 1144.83L663.835 1152.21L653.118 1160.11L657.034 1153.08L652.784 1148.51L653.97 1155.52L640.881 1149.71L645.977 1141.06L643.849 1147.4L631.07 1145.57L629.348 1129.91L622.481 1142.81L618.893 1133.1L591.683 1125.27L599.2 1116.36L583.833 1127.71L581.08 1119.94L580.156 1126.33L566.155 1124.43L561.065 1111.1L566.387 1102.35L557.524 1116.46L560.021 1123.52L540.918 1115.9L553.966 1111.72L538.921 1114.14L546.885 1103.26L547.326 1093.68L533.515 1113.35L522.846 1104.79L526.726 1095.77L516.617 1103.51L514.668 1097.59L520.706 1095.23L517.499 1092.22L521.421 1087.45L515.151 1078.28L522.018 1074.25L522.172 1065.7L514.764 1078.12L518.471 1084.4L514.382 1084.93L516.152 1089.43L507.76 1089.77L507.2 1093.29L476.378 1074.49L423.795 1078.36L339.931 1059.49L321.245 1062.1L337.684 1059.31L323.021 1055.37L318.176 1063.75L279.593 1069.02L257.182 1050.49L250.876 1053.51L240.922 1047.09L246.012 1043.82L235.158 1044.46L228.345 1033.95L227.422 1037.41L204.265 1023.4L224.334 1033.37L221.169 1031.61L223.666 1024.95L223.792 1029.64L218.469 1030.14L189.704 1010.02L295.675 871.893L3.33789 770.404L22.9717 727.864L64.3909 692.256L64.8737 663.384L130.045 612.386L137.532 652.053L151.879 658.931L162.065 657.459L162.369 645.097L173.873 644.483L169.706 636.985L177.205 637.486L176.573 627.484L183.284 630.035L177.419 651.278L183.201 661.995L171.614 672.086L179.04 688.215L172.311 684.341L168.723 698.109L177.336 696.286L185.847 705.727L185.645 731.148L206.31 737.037L201.041 729.664L212.991 724.228L209.057 740.614L216.305 749.113L243.717 754.454L255.746 767.638L317.931 772.609L363.535 761.028L393.903 711.747L435.478 689.115L442.398 692.077L427.973 679.346L477.034 655.76L483.96 638.225L492.173 641.241L475.49 625.01L488.144 611.492L487.292 600.137L499.123 597.61L506.806 575.831L553.274 561.186L575.793 539.794L584.072 497.796L598.174 486.441L594.163 461.264L610.948 444.372L645.81 436.54L650.531 445.356L663.471 439.658L668.186 458.725L679.886 451.936L683.993 460.722L698.108 446.614L709.975 457.998L722.307 442.137L727.081 448.759L725.538 432.63L755.739 434.317L763.607 416.942L787.205 424.524L789.47 440.373L790.399 434.419L797.039 430.181L788.331 430.449L788.23 424.363L780.964 419.184L787.228 415.464L788.331 423.57L795.656 410.791L821.06 422.426L813.532 411.942L831.401 417.997L823.814 410.064L828.439 405.325L833.976 410.648L834.012 402.107L838.453 407.68L842.732 402.929L851.291 415.619L842.172 402.023L849.247 397.702L849.795 407.525L856.268 412.609L849.491 404.026L853.378 394.847L838.459 391.843L841.618 387.194L850.689 386.717L836.927 389.495L832.2 380.81L839.996 378.879L841.212 386.151L853.807 380.113L843.668 383.766L834.364 373.24L840.92 372.471L830.352 366.219L840.616 366.445L851.339 356.569L845.462 347.926L839.841 352.009L833.362 344.368L836.831 340.046L822.192 320.109L842.696 313.564L862.837 335.487L881.279 339.272L898.486 330.546L911.88 338.425L898.635 330.087L891.387 330.551L889.307 317.814L879.735 316.807L878.114 302.525L871.635 297.298L889.319 288.572L898.886 292.166L891.31 287.088L902.343 280.37L906.432 289.633L902.42 283.303L911.099 274.1L913.298 281.992L919.467 284.388L916.135 291.987L923.872 292.416L916.481 291.952L919.706 284.078L911.754 277.515L925.487 279.679L912.428 271.751L927.186 266.244L925.511 273.581L940.996 260.069L942.314 268.408L947.189 266.649L948.483 274.583L958.055 279.369L947.171 266.322L942.385 266.941L956.297 261.637L955.659 270.649L956.738 261.69L944.221 259.24L956.589 252.583L956.047 257.834L962.532 258.549L956.357 257.524L959.671 250.038L981.665 242.629L989.956 257.464L1000.09 257.816L1001.03 252.04L988.841 255.205L985.599 239.309L1004.58 243.475L995.863 238.999L1012.06 233.903L1039.38 233.056L1049.1 253.357L1043.72 250.246L1033.53 260.206L1044.55 255.11L1039.34 268.813L1047.71 256.445L1047.1 268.098L1057.56 281.849L1047.16 277.909L1035.7 281.974L1044.76 287.594L1044.59 279.458L1058.26 283.619L1057.43 273.814L1062.68 279.834L1093.08 285.157L1067.01 274.958L1051.88 264.086L1052.17 252.487L1077.38 273.271L1152.24 304.582L1238.82 324.4L1266.08 340.738L1265.23 346.454L1276.8 361.385L1297.25 374.009L1335.22 376.56L1543.89 483.485L1560.21 488.528L1628.33 483.64L1643.9 472.309L1652.76 480.398L1652.83 473.114L1655.73 486.674L1671.63 497.331L1683.43 494.971L1706.61 512.739L1716.15 510.611L1709.88 493.391L1751.31 506.939L1783.19 505.437L1803.73 516.327Z"/>
</mask>
<path d="M1803.73 516.327L1820.55 532.158L1809.64 533.338L1812.22 548.305L1806.9 546.988L1803.81 554.176L1809.05 558.194L1817.62 557.884L1810.68 549.384L1824.41 558.265L1832.31 549.062L1867.23 557.884L1891.59 551.697L1890.83 1585.08L1878.83 1592.88L1871.85 1652.17L1861.3 1671.72L1850.88 1673.66L1853.06 1685.19L1844.75 1686.66L1845.32 1696.86L1858.94 1704.57L1851.35 1715.76L1863.71 1722.62L1862.38 1736.97L1873.06 1734.29L1873.09 1747.96L1877.22 1742.59L1885.88 1746.91L1894.04 2057.29L1891.08 2371.47L1860.98 2362.09L1783.33 2284.76L1752.01 2229.45L1711.64 2187.31L1700.38 2185.14L1676.49 2157.02L1660.09 2151.81L1608.36 2109.85L1600.95 2092.23L1633.82 2075.72L1634.66 2066.38L1628.73 2055.53L1631.35 2035.78L1625.88 2062.08L1629.88 2074.96L1592 2087.61L1533.15 2084.67L1475.88 2108.06L1430.58 2115.15L1412.21 2106.77L1397.22 2084.04L1357.97 2095.9L1354.32 2089.02L1354.67 2099.76L1331.9 2114.29L1322.33 2111.56L1323.02 2101.98L1320.79 2109.62L1333.9 2121.93L1336.13 2140.43L1328.81 2149.92L1317.23 2145.41L1322.17 2140.33L1313.92 2135.81L1321.17 2130.98L1310.21 2132.3L1289.46 2089.59L1314.15 2078.67L1308.2 2066.13L1311.07 2034.79L1340.23 2016.34L1340.23 1987.57L1354.2 1953.9L1364.74 1945.38L1367.01 1955.46L1367.22 1935.84L1350.22 1921.94L1325.3 1922.53L1298.71 1867.14L1244.47 1839.58L1244.09 1832.66L1311.64 1832.58L1341.67 1844.38L1382.6 1843.47L1402.91 1819.29L1408.97 1840.36L1452.73 1842.6L1456.65 1838.97L1455.1 1833.14L1441.74 1833.2L1433.47 1823.28L1447.55 1813.94L1466.49 1825.08L1462.84 1839.13L1466.82 1850.12L1485.6 1856.84L1495.68 1851.96L1501.23 1828.86L1515.32 1826.91L1511.62 1842.63L1520.26 1859.93L1527.06 1857.93L1542.91 1838.66L1549.06 1827.59L1547.35 1813.52L1553.22 1805.4L1565.88 1801.18L1558.06 1799L1548.16 1808.53L1542.22 1837.23L1529.28 1846.35L1526.53 1856.99L1519.83 1850.51L1517.45 1827.53L1510.75 1820.54L1494.58 1829.52L1491.3 1851.71L1476.07 1851.05L1465.78 1843.84L1467.15 1818.58L1443.45 1809.7L1430.85 1789.43L1406.96 1781.89L1396.18 1783.09L1395.61 1769.01L1372.61 1764.94L1322.41 1729.26L1318.24 1717.76L1310.31 1715.83L1299.92 1720.7L1289.32 1716.87L1286.6 1690.72L1246.63 1667.34L1176.56 1598.41L1180.04 1588.98L1165.77 1562.36L1163.84 1548.78L1169.4 1548.16L1154.37 1522.83L1158.44 1516.89L1137.69 1480.58L1128.04 1476.15L1127.19 1463.43L1168.94 1451.02L1175.82 1458.06L1180.82 1454.99L1187.04 1465.43L1192.88 1459.5L1201.07 1466.78L1207.22 1466.22L1192.78 1459.1L1186.98 1465.06L1180.91 1454.64L1175.32 1457.31L1169.47 1423.64L1170.15 1446.83L1154.48 1452.23L1102.81 1443.26L1101.57 1428.84L1122.02 1415.96L1175 1402.54L1151.73 1400.69L1161.53 1398.35L1159.78 1390.8L1142.81 1382.88L1155.51 1372.45L1143.79 1379.82L1136.93 1390.76L1133.59 1384.41L1125.1 1384.64L1130.28 1376.11L1122.71 1368.2L1137.52 1369.91L1128.04 1369.26L1128.45 1365.48L1139.98 1364.93L1129.52 1367.11L1128.5 1359.76L1140.08 1360.14L1128.52 1359.54L1124.71 1348.65L1135.68 1332.47L1112.63 1352.91L1109.12 1341.42L1103.43 1340.38L1094.49 1352.81L1092.38 1367.09L1079.96 1366.58L1083.65 1358.37L1079.11 1347.66L1082.93 1342.89L1078.78 1347.91L1082.07 1363.85L1072.1 1359.29L1073.74 1326.41L1102.39 1325.56L1108.34 1313.16L1123.83 1309.53L1136.79 1292.93L1123.12 1308.42L1106.88 1311.48L1096.39 1321.68L1089.18 1308.11L1093.98 1305.74L1093.42 1301.16L1106.8 1295.48L1107.73 1284.01L1106.55 1295.22L1093.27 1300.8L1088.79 1307.76L1092.71 1322.78L1072.56 1322.94L1071.71 1339.29L1064.84 1340.6L1054.96 1321.29L1071.26 1322.01L1081.97 1296.31L1099.21 1293.38L1096.8 1273.52L1106.56 1270.48L1096.84 1271.93L1098.36 1293.14L1080.53 1296.15L1070.87 1320.94L1057.88 1318.46L1053 1322.07L1068.85 1352.31L1065.46 1359.45L1022.79 1319.45L1042.83 1300.24L1055.89 1300.07L1081.82 1282.64L1070.67 1271.21L1084.18 1268.75L1084.36 1260.95L1076.19 1257.41L1085.81 1255.41L1084.08 1246.51L1088.48 1249.78L1090.85 1246.54L1084.35 1245.86L1085.87 1254.89L1075.91 1256.71L1084.13 1266.05L1069.92 1270.21L1074.33 1283.42L1055.99 1297.43L1046.38 1294.3L1047.25 1283.18L1041.08 1277.37L1044.08 1273.55L1040.54 1277.14L1046 1296.3L1032.35 1308.11L1023.33 1304.41L1032.54 1293.83L1023.02 1303.1L1012.61 1296.59L1020.55 1280.39L1033.2 1277.29L1034.67 1265.44L1046.4 1257.93L1063.38 1257.46L1044.32 1257.15L1034.13 1265.13L1030.27 1278.22L1018.93 1280.86L1010.91 1301.62L986.987 1317.72L985.444 1322.94L981.897 1309.31L1008.98 1282.8L1003.58 1268.27L1014.07 1264.9L1026.11 1246.46L1032.13 1251.65L1029.43 1248.94L1033.67 1245.22L1043.01 1247.93L1048.79 1241.66L1038.22 1229.88L1048.33 1240.88L1046.63 1244.52L1033.9 1244.68L1029.04 1248.86L1032.51 1251.19L1026.73 1245.69L1011.83 1254.52L1017.54 1259.17L1002.44 1268.46L1007.52 1282.25L994.241 1293.72L995.63 1274.89L992.93 1295.58L984.907 1298.68L983.822 1289.77L979.525 1295.64L968.778 1284.73L970.161 1274.93L978.041 1270.63L978.923 1262.55L986.755 1269.86L993.854 1252.58L1000.98 1254.76L995.952 1244.1L1012.36 1239.93L1017.52 1233.45L1012.47 1239.53L1004.73 1238.13L990.379 1247.24L987.53 1257L979.507 1252.04L984.669 1248.78L983.977 1243.67L990.653 1243.21L998.712 1233.53L1003.19 1237.47L1002.88 1231.59L1009.6 1231.43L1003.04 1230.97L1003.5 1237.01L998.795 1233.06L983.804 1242.74L981.987 1239.47L986.832 1240.18L989.92 1231.98L986.296 1240.03L974.178 1234.38L987.84 1221.36L981.045 1223.53L976.878 1233.76L969.07 1233.11L965.905 1237.45L960.833 1231.36L965.303 1226.52L977.033 1225.84L977.677 1221.64L964.636 1226.09L973.845 1217.78L937.867 1248.46L945.014 1235.23L933.129 1238.75L941.378 1226.03L944.954 1224.64L943.303 1229.55L950.402 1233.01L957.59 1225.78L950.092 1232.63L945.783 1224.15L953.347 1225.62L954.485 1221.2L962.222 1221.36L968.397 1216.07L955.665 1220.55L961.804 1215.56L954.372 1219.95L950.104 1213.63L956.816 1204.87L951.856 1205.74L956.416 1196.49L951.964 1193.1L967.89 1180.12L953.054 1190.2L945.252 1184.74L950.331 1186.64L950.694 1195.95L955.462 1196.79L950.664 1198.74L948.572 1191.78L941.807 1190.85L951.368 1200.06L940.734 1203.78L947.064 1205.79L938.159 1215.05L945.085 1220.74L930.738 1235.54L932.813 1250.85L922.424 1248.42L924.498 1239.34L917.459 1240.6L924.343 1239.68L919.932 1247.99L926.954 1252.87L917.763 1259.3L904.489 1246.35L905.591 1237.81L932.747 1220.67L927.669 1212.68L937.426 1205.29L923.985 1219.24L920.457 1208.37L928.164 1191.8L923.83 1195.12L922.114 1206.88L918.001 1180.31L915.873 1200.36L922.644 1219.95L906.289 1231.05L899.565 1251.57L894.779 1250.8L900.263 1232.99L895.554 1220.51L908.732 1217.26L905.681 1201.94L914.776 1200.09L907.528 1186.62L909.96 1197.32L901.133 1195.93L889.367 1205.17L873.226 1230.44L860.399 1220.64L864.458 1210.67L873.059 1220.12L865.382 1210.13H880.814L885.057 1191.7L897.64 1193.87L886.989 1190.69L901.186 1173.42L882.59 1193.41L871.676 1175.63L882.059 1188.11L882.202 1197.66L876.802 1210.13L861.502 1205.15L858.903 1225.75L845.099 1215.64L856.048 1193.51L864.917 1195.34L868.833 1187.39L862.062 1194.18L852.537 1180.19L858.39 1189.31L843.12 1206.39L836.778 1200.33L839.824 1190.16L835.55 1187L841.79 1181.09L839.388 1177.09L847.369 1172.6L844.83 1167.03L846.612 1173.08L839.955 1174.43L834.918 1186.72L834.328 1199.35L841.785 1207.34L829.655 1220.9L814.378 1208.5L816.429 1192.04L825.512 1192.6L819.29 1186.7L829.208 1187.2L838.512 1174.85L829.041 1186.43L823.724 1183.74L829.119 1174.04L827.354 1181.15L822.443 1179.54L825.942 1165.97L821.841 1155.84L825.328 1166.41L820.923 1171.85L823.158 1182.56L813.538 1190.16L809.592 1211.45L795.71 1201.38L809.222 1184.87L804.228 1179.39L814.903 1173.84L815.958 1168.73L812.191 1174.7L803.274 1170.9L805.414 1158.97L798.434 1163.56L805.157 1164.52L802.559 1170.21L807.619 1174.86L797.486 1179.07L794.023 1166.86L795.621 1181.44L788.45 1185.89L796.849 1195.83L784.266 1196.18L781.19 1188.76L786.907 1197.04L773.06 1201.65L758.708 1187.95L769.782 1186.35L768.53 1182.47L778.693 1179.36L782.263 1171.47L778.037 1178.92L775.445 1172.22L776.577 1179.6L758.827 1182.49L758.01 1171.38L755.394 1183.29L747.073 1179.51L744.319 1172.96L747.561 1168.39L739.622 1168.31L748.02 1158.25L733.68 1168.08L741.69 1148.57L738.99 1141.52L732.589 1167.07L736.755 1170.43L728.017 1165.92L720.584 1171.61L719.416 1166.69L730.759 1158.52L721.329 1163.12L717.789 1154.54L722.349 1151.39L717.223 1154.47L715.691 1150.35L710.41 1151.27L708.324 1144.64L719.547 1160.49L712.377 1158.79L714.916 1165.29L702.506 1163.58L715.303 1166.45L708.36 1183.03L693.393 1175.13L693.858 1161.5L690.752 1167.67L689.262 1160.92L681.275 1171.51L683.695 1165.13L677.443 1170.29L659.907 1161.92L671.589 1156.21L661.182 1156.85L662.971 1144.83L663.835 1152.21L653.118 1160.11L657.034 1153.08L652.784 1148.51L653.97 1155.52L640.881 1149.71L645.977 1141.06L643.849 1147.4L631.07 1145.57L629.348 1129.91L622.481 1142.81L618.893 1133.1L591.683 1125.27L599.2 1116.36L583.833 1127.71L581.08 1119.94L580.156 1126.33L566.155 1124.43L561.065 1111.1L566.387 1102.35L557.524 1116.46L560.021 1123.52L540.918 1115.9L553.966 1111.72L538.921 1114.14L546.885 1103.26L547.326 1093.68L533.515 1113.35L522.846 1104.79L526.726 1095.77L516.617 1103.51L514.668 1097.59L520.706 1095.23L517.499 1092.22L521.421 1087.45L515.151 1078.28L522.018 1074.25L522.172 1065.7L514.764 1078.12L518.471 1084.4L514.382 1084.93L516.152 1089.43L507.76 1089.77L507.2 1093.29L476.378 1074.49L423.795 1078.36L339.931 1059.49L321.245 1062.1L337.684 1059.31L323.021 1055.37L318.176 1063.75L279.593 1069.02L257.182 1050.49L250.876 1053.51L240.922 1047.09L246.012 1043.82L235.158 1044.46L228.345 1033.95L227.422 1037.41L204.265 1023.4L224.334 1033.37L221.169 1031.61L223.666 1024.95L223.792 1029.64L218.469 1030.14L189.704 1010.02L295.675 871.893L3.33789 770.404L22.9717 727.864L64.3909 692.256L64.8737 663.384L130.045 612.386L137.532 652.053L151.879 658.931L162.065 657.459L162.369 645.097L173.873 644.483L169.706 636.985L177.205 637.486L176.573 627.484L183.284 630.035L177.419 651.278L183.201 661.995L171.614 672.086L179.04 688.215L172.311 684.341L168.723 698.109L177.336 696.286L185.847 705.727L185.645 731.148L206.31 737.037L201.041 729.664L212.991 724.228L209.057 740.614L216.305 749.113L243.717 754.454L255.746 767.638L317.931 772.609L363.535 761.028L393.903 711.747L435.478 689.115L442.398 692.077L427.973 679.346L477.034 655.76L483.96 638.225L492.173 641.241L475.49 625.01L488.144 611.492L487.292 600.137L499.123 597.61L506.806 575.831L553.274 561.186L575.793 539.794L584.072 497.796L598.174 486.441L594.163 461.264L610.948 444.372L645.81 436.54L650.531 445.356L663.471 439.658L668.186 458.725L679.886 451.936L683.993 460.722L698.108 446.614L709.975 457.998L722.307 442.137L727.081 448.759L725.538 432.63L755.739 434.317L763.607 416.942L787.205 424.524L789.47 440.373L790.399 434.419L797.039 430.181L788.331 430.449L788.23 424.363L780.964 419.184L787.228 415.464L788.331 423.57L795.656 410.791L821.06 422.426L813.532 411.942L831.401 417.997L823.814 410.064L828.439 405.325L833.976 410.648L834.012 402.107L838.453 407.68L842.732 402.929L851.291 415.619L842.172 402.023L849.247 397.702L849.795 407.525L856.268 412.609L849.491 404.026L853.378 394.847L838.459 391.843L841.618 387.194L850.689 386.717L836.927 389.495L832.2 380.81L839.996 378.879L841.212 386.151L853.807 380.113L843.668 383.766L834.364 373.24L840.92 372.471L830.352 366.219L840.616 366.445L851.339 356.569L845.462 347.926L839.841 352.009L833.362 344.368L836.831 340.046L822.192 320.109L842.696 313.564L862.837 335.487L881.279 339.272L898.486 330.546L911.88 338.425L898.635 330.087L891.387 330.551L889.307 317.814L879.735 316.807L878.114 302.525L871.635 297.298L889.319 288.572L898.886 292.166L891.31 287.088L902.343 280.37L906.432 289.633L902.42 283.303L911.099 274.1L913.298 281.992L919.467 284.388L916.135 291.987L923.872 292.416L916.481 291.952L919.706 284.078L911.754 277.515L925.487 279.679L912.428 271.751L927.186 266.244L925.511 273.581L940.996 260.069L942.314 268.408L947.189 266.649L948.483 274.583L958.055 279.369L947.171 266.322L942.385 266.941L956.297 261.637L955.659 270.649L956.738 261.69L944.221 259.24L956.589 252.583L956.047 257.834L962.532 258.549L956.357 257.524L959.671 250.038L981.665 242.629L989.956 257.464L1000.09 257.816L1001.03 252.04L988.841 255.205L985.599 239.309L1004.58 243.475L995.863 238.999L1012.06 233.903L1039.38 233.056L1049.1 253.357L1043.72 250.246L1033.53 260.206L1044.55 255.11L1039.34 268.813L1047.71 256.445L1047.1 268.098L1057.56 281.849L1047.16 277.909L1035.7 281.974L1044.76 287.594L1044.59 279.458L1058.26 283.619L1057.43 273.814L1062.68 279.834L1093.08 285.157L1067.01 274.958L1051.88 264.086L1052.17 252.487L1077.38 273.271L1152.24 304.582L1238.82 324.4L1266.08 340.738L1265.23 346.454L1276.8 361.385L1297.25 374.009L1335.22 376.56L1543.89 483.485L1560.21 488.528L1628.33 483.64L1643.9 472.309L1652.76 480.398L1652.83 473.114L1655.73 486.674L1671.63 497.331L1683.43 494.971L1706.61 512.739L1716.15 510.611L1709.88 493.391L1751.31 506.939L1783.19 505.437L1803.73 516.327Z" fill="#0D9488"/>
<path d="M1803.73 516.327L1820.55 532.158L1809.64 533.338L1812.22 548.305L1806.9 546.988L1803.81 554.176L1809.05 558.194L1817.62 557.884L1810.68 549.384L1824.41 558.265L1832.31 549.062L1867.23 557.884L1891.59 551.697L1890.83 1585.08L1878.83 1592.88L1871.85 1652.17L1861.3 1671.72L1850.88 1673.66L1853.06 1685.19L1844.75 1686.66L1845.32 1696.86L1858.94 1704.57L1851.35 1715.76L1863.71 1722.62L1862.38 1736.97L1873.06 1734.29L1873.09 1747.96L1877.22 1742.59L1885.88 1746.91L1894.04 2057.29L1891.08 2371.47L1860.98 2362.09L1783.33 2284.76L1752.01 2229.45L1711.64 2187.31L1700.38 2185.14L1676.49 2157.02L1660.09 2151.81L1608.36 2109.85L1600.95 2092.23L1633.82 2075.72L1634.66 2066.38L1628.73 2055.53L1631.35 2035.78L1625.88 2062.08L1629.88 2074.96L1592 2087.61L1533.15 2084.67L1475.88 2108.06L1430.58 2115.15L1412.21 2106.77L1397.22 2084.04L1357.97 2095.9L1354.32 2089.02L1354.67 2099.76L1331.9 2114.29L1322.33 2111.56L1323.02 2101.98L1320.79 2109.62L1333.9 2121.93L1336.13 2140.43L1328.81 2149.92L1317.23 2145.41L1322.17 2140.33L1313.92 2135.81L1321.17 2130.98L1310.21 2132.3L1289.46 2089.59L1314.15 2078.67L1308.2 2066.13L1311.07 2034.79L1340.23 2016.34L1340.23 1987.57L1354.2 1953.9L1364.74 1945.38L1367.01 1955.46L1367.22 1935.84L1350.22 1921.94L1325.3 1922.53L1298.71 1867.14L1244.47 1839.58L1244.09 1832.66L1311.64 1832.58L1341.67 1844.38L1382.6 1843.47L1402.91 1819.29L1408.97 1840.36L1452.73 1842.6L1456.65 1838.97L1455.1 1833.14L1441.74 1833.2L1433.47 1823.28L1447.55 1813.94L1466.49 1825.08L1462.84 1839.13L1466.82 1850.12L1485.6 1856.84L1495.68 1851.96L1501.23 1828.86L1515.32 1826.91L1511.62 1842.63L1520.26 1859.93L1527.06 1857.93L1542.91 1838.66L1549.06 1827.59L1547.35 1813.52L1553.22 1805.4L1565.88 1801.18L1558.06 1799L1548.16 1808.53L1542.22 1837.23L1529.28 1846.35L1526.53 1856.99L1519.83 1850.51L1517.45 1827.53L1510.75 1820.54L1494.58 1829.52L1491.3 1851.71L1476.07 1851.05L1465.78 1843.84L1467.15 1818.58L1443.45 1809.7L1430.85 1789.43L1406.96 1781.89L1396.18 1783.09L1395.61 1769.01L1372.61 1764.94L1322.41 1729.26L1318.24 1717.76L1310.31 1715.83L1299.92 1720.7L1289.32 1716.87L1286.6 1690.72L1246.63 1667.34L1176.56 1598.41L1180.04 1588.98L1165.77 1562.36L1163.84 1548.78L1169.4 1548.16L1154.37 1522.83L1158.44 1516.89L1137.69 1480.58L1128.04 1476.15L1127.19 1463.43L1168.94 1451.02L1175.82 1458.06L1180.82 1454.99L1187.04 1465.43L1192.88 1459.5L1201.07 1466.78L1207.22 1466.22L1192.78 1459.1L1186.98 1465.06L1180.91 1454.64L1175.32 1457.31L1169.47 1423.64L1170.15 1446.83L1154.48 1452.23L1102.81 1443.26L1101.57 1428.84L1122.02 1415.96L1175 1402.54L1151.73 1400.69L1161.53 1398.35L1159.78 1390.8L1142.81 1382.88L1155.51 1372.45L1143.79 1379.82L1136.93 1390.76L1133.59 1384.41L1125.1 1384.64L1130.28 1376.11L1122.71 1368.2L1137.52 1369.91L1128.04 1369.26L1128.45 1365.48L1139.98 1364.93L1129.52 1367.11L1128.5 1359.76L1140.08 1360.14L1128.52 1359.54L1124.71 1348.65L1135.68 1332.47L1112.63 1352.91L1109.12 1341.42L1103.43 1340.38L1094.49 1352.81L1092.38 1367.09L1079.96 1366.58L1083.65 1358.37L1079.11 1347.66L1082.93 1342.89L1078.78 1347.91L1082.07 1363.85L1072.1 1359.29L1073.74 1326.41L1102.39 1325.56L1108.34 1313.16L1123.83 1309.53L1136.79 1292.93L1123.12 1308.42L1106.88 1311.48L1096.39 1321.68L1089.18 1308.11L1093.98 1305.74L1093.42 1301.16L1106.8 1295.48L1107.73 1284.01L1106.55 1295.22L1093.27 1300.8L1088.79 1307.76L1092.71 1322.78L1072.56 1322.94L1071.71 1339.29L1064.84 1340.6L1054.96 1321.29L1071.26 1322.01L1081.97 1296.31L1099.21 1293.38L1096.8 1273.52L1106.56 1270.48L1096.84 1271.93L1098.36 1293.14L1080.53 1296.15L1070.87 1320.94L1057.88 1318.46L1053 1322.07L1068.85 1352.31L1065.46 1359.45L1022.79 1319.45L1042.83 1300.24L1055.89 1300.07L1081.82 1282.64L1070.67 1271.21L1084.18 1268.75L1084.36 1260.95L1076.19 1257.41L1085.81 1255.41L1084.08 1246.51L1088.48 1249.78L1090.85 1246.54L1084.35 1245.86L1085.87 1254.89L1075.91 1256.71L1084.13 1266.05L1069.92 1270.21L1074.33 1283.42L1055.99 1297.43L1046.38 1294.3L1047.25 1283.18L1041.08 1277.37L1044.08 1273.55L1040.54 1277.14L1046 1296.3L1032.35 1308.11L1023.33 1304.41L1032.54 1293.83L1023.02 1303.1L1012.61 1296.59L1020.55 1280.39L1033.2 1277.29L1034.67 1265.44L1046.4 1257.93L1063.38 1257.46L1044.32 1257.15L1034.13 1265.13L1030.27 1278.22L1018.93 1280.86L1010.91 1301.62L986.987 1317.72L985.444 1322.94L981.897 1309.31L1008.98 1282.8L1003.58 1268.27L1014.07 1264.9L1026.11 1246.46L1032.13 1251.65L1029.43 1248.94L1033.67 1245.22L1043.01 1247.93L1048.79 1241.66L1038.22 1229.88L1048.33 1240.88L1046.63 1244.52L1033.9 1244.68L1029.04 1248.86L1032.51 1251.19L1026.73 1245.69L1011.83 1254.52L1017.54 1259.17L1002.44 1268.46L1007.52 1282.25L994.241 1293.72L995.63 1274.89L992.93 1295.58L984.907 1298.68L983.822 1289.77L979.525 1295.64L968.778 1284.73L970.161 1274.93L978.041 1270.63L978.923 1262.55L986.755 1269.86L993.854 1252.58L1000.98 1254.76L995.952 1244.1L1012.36 1239.93L1017.52 1233.45L1012.47 1239.53L1004.73 1238.13L990.379 1247.24L987.53 1257L979.507 1252.04L984.669 1248.78L983.977 1243.67L990.653 1243.21L998.712 1233.53L1003.19 1237.47L1002.88 1231.59L1009.6 1231.43L1003.04 1230.97L1003.5 1237.01L998.795 1233.06L983.804 1242.74L981.987 1239.47L986.832 1240.18L989.92 1231.98L986.296 1240.03L974.178 1234.38L987.84 1221.36L981.045 1223.53L976.878 1233.76L969.07 1233.11L965.905 1237.45L960.833 1231.36L965.303 1226.52L977.033 1225.84L977.677 1221.64L964.636 1226.09L973.845 1217.78L937.867 1248.46L945.014 1235.23L933.129 1238.75L941.378 1226.03L944.954 1224.64L943.303 1229.55L950.402 1233.01L957.59 1225.78L950.092 1232.63L945.783 1224.15L953.347 1225.62L954.485 1221.2L962.222 1221.36L968.397 1216.07L955.665 1220.55L961.804 1215.56L954.372 1219.95L950.104 1213.63L956.816 1204.87L951.856 1205.74L956.416 1196.49L951.964 1193.1L967.89 1180.12L953.054 1190.2L945.252 1184.74L950.331 1186.64L950.694 1195.95L955.462 1196.79L950.664 1198.74L948.572 1191.78L941.807 1190.85L951.368 1200.06L940.734 1203.78L947.064 1205.79L938.159 1215.05L945.085 1220.74L930.738 1235.54L932.813 1250.85L922.424 1248.42L924.498 1239.34L917.459 1240.6L924.343 1239.68L919.932 1247.99L926.954 1252.87L917.763 1259.3L904.489 1246.35L905.591 1237.81L932.747 1220.67L927.669 1212.68L937.426 1205.29L923.985 1219.24L920.457 1208.37L928.164 1191.8L923.83 1195.12L922.114 1206.88L918.001 1180.31L915.873 1200.36L922.644 1219.95L906.289 1231.05L899.565 1251.57L894.779 1250.8L900.263 1232.99L895.554 1220.51L908.732 1217.26L905.681 1201.94L914.776 1200.09L907.528 1186.62L909.96 1197.32L901.133 1195.93L889.367 1205.17L873.226 1230.44L860.399 1220.64L864.458 1210.67L873.059 1220.12L865.382 1210.13H880.814L885.057 1191.7L897.64 1193.87L886.989 1190.69L901.186 1173.42L882.59 1193.41L871.676 1175.63L882.059 1188.11L882.202 1197.66L876.802 1210.13L861.502 1205.15L858.903 1225.75L845.099 1215.64L856.048 1193.51L864.917 1195.34L868.833 1187.39L862.062 1194.18L852.537 1180.19L858.39 1189.31L843.12 1206.39L836.778 1200.33L839.824 1190.16L835.55 1187L841.79 1181.09L839.388 1177.09L847.369 1172.6L844.83 1167.03L846.612 1173.08L839.955 1174.43L834.918 1186.72L834.328 1199.35L841.785 1207.34L829.655 1220.9L814.378 1208.5L816.429 1192.04L825.512 1192.6L819.29 1186.7L829.208 1187.2L838.512 1174.85L829.041 1186.43L823.724 1183.74L829.119 1174.04L827.354 1181.15L822.443 1179.54L825.942 1165.97L821.841 1155.84L825.328 1166.41L820.923 1171.85L823.158 1182.56L813.538 1190.16L809.592 1211.45L795.71 1201.38L809.222 1184.87L804.228 1179.39L814.903 1173.84L815.958 1168.73L812.191 1174.7L803.274 1170.9L805.414 1158.97L798.434 1163.56L805.157 1164.52L802.559 1170.21L807.619 1174.86L797.486 1179.07L794.023 1166.86L795.621 1181.44L788.45 1185.89L796.849 1195.83L784.266 1196.18L781.19 1188.76L786.907 1197.04L773.06 1201.65L758.708 1187.95L769.782 1186.35L768.53 1182.47L778.693 1179.36L782.263 1171.47L778.037 1178.92L775.445 1172.22L776.577 1179.6L758.827 1182.49L758.01 1171.38L755.394 1183.29L747.073 1179.51L744.319 1172.96L747.561 1168.39L739.622 1168.31L748.02 1158.25L733.68 1168.08L741.69 1148.57L738.99 1141.52L732.589 1167.07L736.755 1170.43L728.017 1165.92L720.584 1171.61L719.416 1166.69L730.759 1158.52L721.329 1163.12L717.789 1154.54L722.349 1151.39L717.223 1154.47L715.691 1150.35L710.41 1151.27L708.324 1144.64L719.547 1160.49L712.377 1158.79L714.916 1165.29L702.506 1163.58L715.303 1166.45L708.36 1183.03L693.393 1175.13L693.858 1161.5L690.752 1167.67L689.262 1160.92L681.275 1171.51L683.695 1165.13L677.443 1170.29L659.907 1161.92L671.589 1156.21L661.182 1156.85L662.971 1144.83L663.835 1152.21L653.118 1160.11L657.034 1153.08L652.784 1148.51L653.97 1155.52L640.881 1149.71L645.977 1141.06L643.849 1147.4L631.07 1145.57L629.348 1129.91L622.481 1142.81L618.893 1133.1L591.683 1125.27L599.2 1116.36L583.833 1127.71L581.08 1119.94L580.156 1126.33L566.155 1124.43L561.065 1111.1L566.387 1102.35L557.524 1116.46L560.021 1123.52L540.918 1115.9L553.966 1111.72L538.921 1114.14L546.885 1103.26L547.326 1093.68L533.515 1113.35L522.846 1104.79L526.726 1095.77L516.617 1103.51L514.668 1097.59L520.706 1095.23L517.499 1092.22L521.421 1087.45L515.151 1078.28L522.018 1074.25L522.172 1065.7L514.764 1078.12L518.471 1084.4L514.382 1084.93L516.152 1089.43L507.76 1089.77L507.2 1093.29L476.378 1074.49L423.795 1078.36L339.931 1059.49L321.245 1062.1L337.684 1059.31L323.021 1055.37L318.176 1063.75L279.593 1069.02L257.182 1050.49L250.876 1053.51L240.922 1047.09L246.012 1043.82L235.158 1044.46L228.345 1033.95L227.422 1037.41L204.265 1023.4L224.334 1033.37L221.169 1031.61L223.666 1024.95L223.792 1029.64L218.469 1030.14L189.704 1010.02L295.675 871.893L3.33789 770.404L22.9717 727.864L64.3909 692.256L64.8737 663.384L130.045 612.386L137.532 652.053L151.879 658.931L162.065 657.459L162.369 645.097L173.873 644.483L169.706 636.985L177.205 637.486L176.573 627.484L183.284 630.035L177.419 651.278L183.201 661.995L171.614 672.086L179.04 688.215L172.311 684.341L168.723 698.109L177.336 696.286L185.847 705.727L185.645 731.148L206.31 737.037L201.041 729.664L212.991 724.228L209.057 740.614L216.305 749.113L243.717 754.454L255.746 767.638L317.931 772.609L363.535 761.028L393.903 711.747L435.478 689.115L442.398 692.077L427.973 679.346L477.034 655.76L483.96 638.225L492.173 641.241L475.49 625.01L488.144 611.492L487.292 600.137L499.123 597.61L506.806 575.831L553.274 561.186L575.793 539.794L584.072 497.796L598.174 486.441L594.163 461.264L610.948 444.372L645.81 436.54L650.531 445.356L663.471 439.658L668.186 458.725L679.886 451.936L683.993 460.722L698.108 446.614L709.975 457.998L722.307 442.137L727.081 448.759L725.538 432.63L755.739 434.317L763.607 416.942L787.205 424.524L789.47 440.373L790.399 434.419L797.039 430.181L788.331 430.449L788.23 424.363L780.964 419.184L787.228 415.464L788.331 423.57L795.656 410.791L821.06 422.426L813.532 411.942L831.401 417.997L823.814 410.064L828.439 405.325L833.976 410.648L834.012 402.107L838.453 407.68L842.732 402.929L851.291 415.619L842.172 402.023L849.247 397.702L849.795 407.525L856.268 412.609L849.491 404.026L853.378 394.847L838.459 391.843L841.618 387.194L850.689 386.717L836.927 389.495L832.2 380.81L839.996 378.879L841.212 386.151L853.807 380.113L843.668 383.766L834.364 373.24L840.92 372.471L830.352 366.219L840.616 366.445L851.339 356.569L845.462 347.926L839.841 352.009L833.362 344.368L836.831 340.046L822.192 320.109L842.696 313.564L862.837 335.487L881.279 339.272L898.486 330.546L911.88 338.425L898.635 330.087L891.387 330.551L889.307 317.814L879.735 316.807L878.114 302.525L871.635 297.298L889.319 288.572L898.886 292.166L891.31 287.088L902.343 280.37L906.432 289.633L902.42 283.303L911.099 274.1L913.298 281.992L919.467 284.388L916.135 291.987L923.872 292.416L916.481 291.952L919.706 284.078L911.754 277.515L925.487 279.679L912.428 271.751L927.186 266.244L925.511 273.581L940.996 260.069L942.314 268.408L947.189 266.649L948.483 274.583L958.055 279.369L947.171 266.322L942.385 266.941L956.297 261.637L955.659 270.649L956.738 261.69L944.221 259.24L956.589 252.583L956.047 257.834L962.532 258.549L956.357 257.524L959.671 250.038L981.665 242.629L989.956 257.464L1000.09 257.816L1001.03 252.04L988.841 255.205L985.599 239.309L1004.58 243.475L995.863 238.999L1012.06 233.903L1039.38 233.056L1049.1 253.357L1043.72 250.246L1033.53 260.206L1044.55 255.11L1039.34 268.813L1047.71 256.445L1047.1 268.098L1057.56 281.849L1047.16 277.909L1035.7 281.974L1044.76 287.594L1044.59 279.458L1058.26 283.619L1057.43 273.814L1062.68 279.834L1093.08 285.157L1067.01 274.958L1051.88 264.086L1052.17 252.487L1077.38 273.271L1152.24 304.582L1238.82 324.4L1266.08 340.738L1265.23 346.454L1276.8 361.385L1297.25 374.009L1335.22 376.56L1543.89 483.485L1560.21 488.528L1628.33 483.64L1643.9 472.309L1652.76 480.398L1652.83 473.114L1655.73 486.674L1671.63 497.331L1683.43 494.971L1706.61 512.739L1716.15 510.611L1709.88 493.391L1751.31 506.939L1783.19 505.437L1803.73 516.327Z" stroke="black" stroke-width="4" mask="url(#path-1-outside-1_0_1)"/>
<path d="M402.159 11.1112L390.201 20.8342L388.914 11.9054L388.766 10.8785L387.746 11.0641L372.36 13.8626L325.19 2.03005L323.423 1.58698L323.997 3.31517L332.539 29.0346L332.625 29.2959L332.834 29.476L358.695 51.8291L357.492 53.5958L356.834 54.5626L357.891 55.0627L365.01 58.4292L373.647 71.6106L375.386 74.2646L375.483 71.0931L375.793 60.9484L375.804 60.5836L375.578 60.2974L360.402 41.1136L401.86 74.9073L402.65 75.5508L403.278 74.7497L421.232 51.885L429.201 53.7892L438.059 71.4765L451.652 123.381L446.085 132.507L445.686 133.161L446.215 133.717L465.968 154.477L466.366 154.896L466.929 154.759L501.796 146.272L540.308 162.251L540.658 162.397L541.016 162.274L589.898 145.471L590.084 145.407L590.232 145.277L610.2 127.771L612.06 126.14L609.589 126.021L592.231 125.179L573.666 109.501L573.249 109.149L572.728 109.308L549.79 116.333L528.031 81.8478L527.86 81.578L527.565 81.4567L514.201 75.9585L517.111 66.1004L517.343 65.3137L516.617 64.9321L481.6 46.5314L462.391 21.8292L462.196 21.5777L461.891 21.4857L448.128 17.3313L447.573 17.1637L447.152 17.5622L432.013 31.8874L424.118 23.6409L423.662 23.1656L423.046 23.3955L414.771 26.4815L403.595 11.2944L402.973 10.4491L402.159 11.1112Z" fill="#0D9488" stroke="black" stroke-width="2"/>
<path d="M1454.87 1834.73L1432.88 1827.78L1430.26 1821.31L1441.7 1807.08L1442.12 1806.56L1441.8 1805.97L1431.73 1787.62L1431.5 1787.2L1431.03 1787.12L1397.25 1781.14L1398.44 1774.56L1398.56 1773.93L1398.03 1773.56L1387.94 1766.52L1387.73 1766.37L1387.48 1766.35L1371.33 1764.49L1317.55 1729.88L1317.27 1729.71L1316.95 1729.73L1279.27 1732.01L1279.01 1732.02L1278.79 1732.16L1256.51 1746.43L1231.79 1739.25L1231.33 1739.11L1230.93 1739.39L1213.96 1751.36L1213.24 1751.86L1213.65 1752.64L1227.01 1778.42L1227.14 1778.66L1227.38 1778.81L1294.55 1819.88L1294.78 1820.02L1295.05 1820.02L1317.14 1820.52L1352.77 1834.89L1352.99 1834.98L1353.23 1834.96L1379.33 1832.66L1384.66 1835.52L1385.67 1836.06L1386.07 1834.99L1391.9 1819.38L1401.37 1815.14L1406.91 1818.99L1410.18 1836.01L1410.33 1836.83L1411.16 1836.82L1454.57 1836.68L1454.87 1834.73Z" fill="#0D9488" stroke="black" stroke-width="2"/>
<path d="M1333.61 1830.23L1333.43 1830.12L1333.22 1830.09L1324.4 1828.89L1323.9 1830.81L1343.14 1838.43L1344.03 1836.65L1333.61 1830.23Z" fill="#0D9488" stroke="black" stroke-width="2"/>
<path d="M571.396 351.898L573.089 357.485L573.799 359.825L574.932 357.658L579.122 349.65L596.902 343.6L650.594 354.182L652.916 354.64L651.625 352.656L643.874 340.742L676.961 346.906L677.352 346.979L677.685 346.764L701.795 331.249L737.366 334.313L737.696 334.342L737.977 334.168L753.439 324.631L755.008 323.663L753.341 322.876L721.667 307.921L721.521 307.852L721.36 307.833L625.784 296.252L625.596 296.229L625.413 296.276L604.916 301.593L558.68 282.539L558.518 282.472L558.343 282.465L473.913 278.727L473.627 278.715L473.378 278.855L461.167 285.736L460.117 280.236L459.988 279.564L459.315 279.44L442.488 276.353L442.431 276.342L442.372 276.338L338.13 269.621L337.54 271.469L352.526 280.734L354.834 292.73L355.028 293.742L356.034 293.517L377.9 288.635L410.561 300.733L410.878 300.851L411.202 300.751L427.035 295.893L431.957 304.243L432.263 304.761L432.864 304.734L440.905 304.375L435.162 310.787L433.062 313.131L436.13 312.429L451.676 308.87L453.453 316.242L453.914 318.152L455.187 316.656L458.859 312.342L463.571 317.388L465.097 319.021L465.298 316.795L465.736 311.953L473.117 322.897L474.201 324.505L474.882 322.689L477.83 314.833L495.1 331.095L495.288 331.272L495.538 331.335L553.3 346.09L564.939 356.856L565.635 357.5L566.315 356.839L571.396 351.898Z" fill="#0D9488" stroke="black" stroke-width="2"/>
<path d="M1123.32 1905.49L1123.16 1905.54L1123.03 1905.64L1070.53 1944.21L1070.37 1944.33L1070.26 1944.51L1047.98 1982.35L1030.7 1996.98L1030.55 1997.12L1030.46 1997.3L1000.52 2056.87L1000.35 2057.22L1000.45 2057.59L1003.52 2068.67L974.935 2105.1L974.809 2105.26L974.756 2105.46L956.315 2173.84L956.211 2174.23L956.402 2174.58L961.111 2183.24L961.515 2183.98L962.316 2183.7L1021.7 2163.17L1140.96 2168.32L1141.71 2168.35L1141.95 2167.64L1147.57 2150.93L1146.41 2161.12L1146.33 2161.78L1146.91 2162.11L1151.46 2164.68L1151.8 2164.87L1152.17 2164.78L1187.9 2156.75L1188.3 2156.66L1188.52 2156.32L1193.71 2148.26L1228.76 2128.26L1228.98 2128.14L1229.11 2127.93L1246.52 2100.51L1278.21 2097.51L1278.74 2097.46L1278.99 2096.99L1287.9 2080.5L1311.34 2079.44L1313.04 2079.36L1312.15 2077.91L1305.36 2066.92L1307.33 2029.77L1333.99 2016.1L1334.53 2015.82L1334.53 2015.21L1334.63 1986.86L1360.39 1937.97L1361.01 1936.81L1359.72 1936.53L1311.72 1926.09L1298.61 1898.97L1298.48 1898.69L1298.21 1898.54L1266.21 1880.03L1265.93 1879.87L1265.61 1879.9L1173.54 1889.24L1173.44 1889.25L1173.34 1889.29L1123.32 1905.49Z" fill="#0D9488" stroke="black" stroke-width="2"/>
</svg>
