<svg width="1051" height="1018" viewBox="0 0 1051 1018" fill="none" xmlns="http://www.w3.org/2000/svg">
<mask id="path-1-outside-1_0_859" maskUnits="userSpaceOnUse" x="0.782227" y="-0.277222" width="1050" height="1018" fill="black">
<rect fill="white" x="0.782227" y="-0.277222" width="1050" height="1018"/>
<path d="M520.56 959.41L501.457 976.528L447.306 963.058L432.191 940.032L376.609 908.764L379.893 903.781L365.368 894.506L366.614 886.704L337.151 877.31L311.724 852.542L285.808 842.644L273.553 814.255L276.777 800.644L265.649 790.899L243.059 794.043L240.967 806.819L223.562 797.372L221.876 784.3L205.824 767.581L192.723 715.567L204.644 707.02L213.65 715.007L223.717 699.289L217.828 670.783L222.817 650.84L214.58 628.997L195.864 634.07L174.699 653.346L157.139 652.613L114.367 639.935L93.3322 606.157L67.1241 611.086L66.8082 587.897L46.2267 541.319L59.9179 506.516L25.1326 478.844L25.3651 452.773L11.6202 442.989L27.9459 439.365L33.7038 426.017L17.2648 400.277L39.7238 391.059L25.1207 377.275L15.1667 334.86L3.78223 325.464L10.5116 318.204L76.6191 310.077L82.6451 305.982L67.732 296.889L69.9553 293.098L81.0239 292.562L78.7351 302.567L94.8104 300.615L109.443 283.726L104.407 276.522L115.356 250.991L103.149 231.911L105.867 212.471L68.191 199.799L89.2493 91.7868L74.1932 48.5346L80.3503 0.722778L89.2672 38.6462L108.323 72.0844L168.196 117.178L175.104 113.337L203.762 125.299L209.716 116.639L200.239 77.7946L208.172 68.1446L281.564 68.9612L288.341 88.2999L351.379 136.326L365.809 209.208L380.472 231.825L422.6 248.732L475.529 241.087L546.31 298.496L585.827 320.692L590.566 375.073L586.269 379.436L586.924 388.955L578.526 391.193L590.775 388.719L594.452 361.805L602.612 373.761L597.611 399.698L608.096 427.054L657.639 478.138L702.831 498.377L731.847 493.65L792.811 501.214L851.223 570.627L852.028 577.186L794.205 610.356L714.562 639.55L703.827 656.535L689.373 647.165L681.91 634.141L663.957 631.045L657.162 645.627L664.345 635.906L679.145 636.996L687.209 649.937L696.692 655.802L690.881 656.791L706.551 660.752L710.765 647.49L736.425 634.553L783.095 634.117L861.678 594.275L876.633 571.574L912.825 552.057L937.423 558.768L984.916 594.358L989.077 621.851L992.88 607.626L1003.23 609.903L1020.21 620.397L1031.4 639.92L1047.67 706.588L992.844 705.443L979.796 710.79L987.718 714.128L984.35 720.428L970.516 725.778L962.416 725.751L949.16 715.952L957.784 728.341L948.355 734.653L961.533 744.565L940.028 761.09L967.047 762.22L945.059 801.592L974.217 763.531L1019.28 774.641L1040.65 798.176L990.191 813.53L975.761 810.598L990.036 822.018L975.839 841.387L933.454 847.341L943.431 854.118L934.634 871.404L941.81 874.646L925.92 884.445L939.188 889.464L922.939 897.177L943.086 900.962L936.75 906.743L949.988 907.828L956.938 917.782L922.236 926.687L857.225 910.921L824.419 913.586L798.157 949.813L763.747 974.949L760.946 988.765L721.941 1015.02L715.772 1007.66L678.829 1003.87L667.355 988.437L650.671 988.783L651.72 979.532L635.085 971.182L629.661 958.408L600.991 967.069L590.268 953.235L576.833 959.469L546.596 947.644L520.56 959.41Z"/>
</mask>
<path d="M520.56 959.41L501.457 976.528L447.306 963.058L432.191 940.032L376.609 908.764L379.893 903.781L365.368 894.506L366.614 886.704L337.151 877.31L311.724 852.542L285.808 842.644L273.553 814.255L276.777 800.644L265.649 790.899L243.059 794.043L240.967 806.819L223.562 797.372L221.876 784.3L205.824 767.581L192.723 715.567L204.644 707.02L213.65 715.007L223.717 699.289L217.828 670.783L222.817 650.84L214.58 628.997L195.864 634.07L174.699 653.346L157.139 652.613L114.367 639.935L93.3322 606.157L67.1241 611.086L66.8082 587.897L46.2267 541.319L59.9179 506.516L25.1326 478.844L25.3651 452.773L11.6202 442.989L27.9459 439.365L33.7038 426.017L17.2648 400.277L39.7238 391.059L25.1207 377.275L15.1667 334.86L3.78223 325.464L10.5116 318.204L76.6191 310.077L82.6451 305.982L67.732 296.889L69.9553 293.098L81.0239 292.562L78.7351 302.567L94.8104 300.615L109.443 283.726L104.407 276.522L115.356 250.991L103.149 231.911L105.867 212.471L68.191 199.799L89.2493 91.7868L74.1932 48.5346L80.3503 0.722778L89.2672 38.6462L108.323 72.0844L168.196 117.178L175.104 113.337L203.762 125.299L209.716 116.639L200.239 77.7946L208.172 68.1446L281.564 68.9612L288.341 88.2999L351.379 136.326L365.809 209.208L380.472 231.825L422.6 248.732L475.529 241.087L546.31 298.496L585.827 320.692L590.566 375.073L586.269 379.436L586.924 388.955L578.526 391.193L590.775 388.719L594.452 361.805L602.612 373.761L597.611 399.698L608.096 427.054L657.639 478.138L702.831 498.377L731.847 493.65L792.811 501.214L851.223 570.627L852.028 577.186L794.205 610.356L714.562 639.55L703.827 656.535L689.373 647.165L681.91 634.141L663.957 631.045L657.162 645.627L664.345 635.906L679.145 636.996L687.209 649.937L696.692 655.802L690.881 656.791L706.551 660.752L710.765 647.49L736.425 634.553L783.095 634.117L861.678 594.275L876.633 571.574L912.825 552.057L937.423 558.768L984.916 594.358L989.077 621.851L992.88 607.626L1003.23 609.903L1020.21 620.397L1031.4 639.92L1047.67 706.588L992.844 705.443L979.796 710.79L987.718 714.128L984.35 720.428L970.516 725.778L962.416 725.751L949.16 715.952L957.784 728.341L948.355 734.653L961.533 744.565L940.028 761.09L967.047 762.22L945.059 801.592L974.217 763.531L1019.28 774.641L1040.65 798.176L990.191 813.53L975.761 810.598L990.036 822.018L975.839 841.387L933.454 847.341L943.431 854.118L934.634 871.404L941.81 874.646L925.92 884.445L939.188 889.464L922.939 897.177L943.086 900.962L936.75 906.743L949.988 907.828L956.938 917.782L922.236 926.687L857.225 910.921L824.419 913.586L798.157 949.813L763.747 974.949L760.946 988.765L721.941 1015.02L715.772 1007.66L678.829 1003.87L667.355 988.437L650.671 988.783L651.72 979.532L635.085 971.182L629.661 958.408L600.991 967.069L590.268 953.235L576.833 959.469L546.596 947.644L520.56 959.41Z" fill="#0D9488"/>
<path d="M520.56 959.41L501.457 976.528L447.306 963.058L432.191 940.032L376.609 908.764L379.893 903.781L365.368 894.506L366.614 886.704L337.151 877.31L311.724 852.542L285.808 842.644L273.553 814.255L276.777 800.644L265.649 790.899L243.059 794.043L240.967 806.819L223.562 797.372L221.876 784.3L205.824 767.581L192.723 715.567L204.644 707.02L213.65 715.007L223.717 699.289L217.828 670.783L222.817 650.84L214.58 628.997L195.864 634.07L174.699 653.346L157.139 652.613L114.367 639.935L93.3322 606.157L67.1241 611.086L66.8082 587.897L46.2267 541.319L59.9179 506.516L25.1326 478.844L25.3651 452.773L11.6202 442.989L27.9459 439.365L33.7038 426.017L17.2648 400.277L39.7238 391.059L25.1207 377.275L15.1667 334.86L3.78223 325.464L10.5116 318.204L76.6191 310.077L82.6451 305.982L67.732 296.889L69.9553 293.098L81.0239 292.562L78.7351 302.567L94.8104 300.615L109.443 283.726L104.407 276.522L115.356 250.991L103.149 231.911L105.867 212.471L68.191 199.799L89.2493 91.7868L74.1932 48.5346L80.3503 0.722778L89.2672 38.6462L108.323 72.0844L168.196 117.178L175.104 113.337L203.762 125.299L209.716 116.639L200.239 77.7946L208.172 68.1446L281.564 68.9612L288.341 88.2999L351.379 136.326L365.809 209.208L380.472 231.825L422.6 248.732L475.529 241.087L546.31 298.496L585.827 320.692L590.566 375.073L586.269 379.436L586.924 388.955L578.526 391.193L590.775 388.719L594.452 361.805L602.612 373.761L597.611 399.698L608.096 427.054L657.639 478.138L702.831 498.377L731.847 493.65L792.811 501.214L851.223 570.627L852.028 577.186L794.205 610.356L714.562 639.55L703.827 656.535L689.373 647.165L681.91 634.141L663.957 631.045L657.162 645.627L664.345 635.906L679.145 636.996L687.209 649.937L696.692 655.802L690.881 656.791L706.551 660.752L710.765 647.49L736.425 634.553L783.095 634.117L861.678 594.275L876.633 571.574L912.825 552.057L937.423 558.768L984.916 594.358L989.077 621.851L992.88 607.626L1003.23 609.903L1020.21 620.397L1031.4 639.92L1047.67 706.588L992.844 705.443L979.796 710.79L987.718 714.128L984.35 720.428L970.516 725.778L962.416 725.751L949.16 715.952L957.784 728.341L948.355 734.653L961.533 744.565L940.028 761.09L967.047 762.22L945.059 801.592L974.217 763.531L1019.28 774.641L1040.65 798.176L990.191 813.53L975.761 810.598L990.036 822.018L975.839 841.387L933.454 847.341L943.431 854.118L934.634 871.404L941.81 874.646L925.92 884.445L939.188 889.464L922.939 897.177L943.086 900.962L936.75 906.743L949.988 907.828L956.938 917.782L922.236 926.687L857.225 910.921L824.419 913.586L798.157 949.813L763.747 974.949L760.946 988.765L721.941 1015.02L715.772 1007.66L678.829 1003.87L667.355 988.437L650.671 988.783L651.72 979.532L635.085 971.182L629.661 958.408L600.991 967.069L590.268 953.235L576.833 959.469L546.596 947.644L520.56 959.41Z" stroke="black" stroke-width="4" mask="url(#path-1-outside-1_0_859)"/>
</svg>
