<svg width="833" height="1332" viewBox="0 0 833 1332" fill="none" xmlns="http://www.w3.org/2000/svg">
<path d="M5.65142 1308.72L4.75657 1307.39L3.95369 1308.78L2.25496 1311.73L1.59187 1312.88L2.88214 1313.2L7.28097 1314.29L9.78679 1314.91L8.35151 1312.76L5.65142 1308.72Z" fill="#0D9488" stroke="black" stroke-width="2"/>
<mask id="path-2-outside-1_0_1" maskUnits="userSpaceOnUse" x="146.958" y="-0.864014" width="686" height="1071" fill="black">
<rect fill="white" x="146.958" y="-0.864014" width="686" height="1071"/>
<path d="M216.005 746.977L217.412 708.526L229.434 676.762L216.78 659.662L225.173 658.44L221.763 649.142L228.886 640.821L219.79 615.954L229.822 581.92L213.77 586.014L213.848 598.782L222.151 593.823L214.593 603.568L210.146 578.206L177.197 512.856L180.517 492.37L195.156 473.391L172.554 410.467L173.507 388.497L159.894 373.399L168.453 363.475L186.269 365.722L203.179 350.707L226.395 348.097L200.043 298.023L197.546 256.818L188.689 242.155L230.43 246.542L253.848 238.537L263.057 226.312L260.298 204.414L246.124 190.108L251.911 175.261L243.054 157.934L250.511 145.441L243.412 129.681L217.37 118.064L226.597 81.6578L255.511 56.8742L296.376 49.4534L328.336 26.0645L355.492 25.7546L363.33 38.3371L423.018 51.0985L440.429 4.13599L491.063 70.0885L525.801 95.2774L600.348 103.264L652.967 128.537L698.475 139.713L747.411 172.501L805.972 191.402L829.611 233.566L813.447 240.665L789.694 280.392L765.912 290.059L745.533 310.528L709.353 317.68L692.139 333.66L682.048 332.194L667.207 307.232L655.196 305.145L635.366 251.388L603.06 267.326L599.615 264.191L634.478 235.396L620.25 231.319L623.552 223.326L617.473 229.233L627.677 214.952L622.432 213.915L627.599 207.668L622.801 197.642L627.272 207.388L622.372 217.503L615.929 219.654L618.712 209.766L614.701 218.033L610.111 207.215L608.985 225.061L600.73 221.663L603.781 214.135L599.126 222.724L592.135 215.822L567.554 219.19L549.958 209.689L551.425 205.361L514.464 214.016L505.207 226.145L487.385 228.613L491.242 222.432L486.146 222.664L487.689 234.097L455.36 265.538L427.662 275.427L400.577 299.227L384.108 300.83L382.058 305.39L400.19 328.665L400.422 358.879L435.607 370.544L437.538 384.068L446.449 387.781L434.915 454.407L445.793 473.737L444.327 499.945L452.35 519.972L429.134 550.818L422.953 575.19L429.748 599.247L421.296 621.598L435.231 638.127L430.844 675.856L438.742 685.071L426.142 711.041L441.239 726.526L434.29 735.354L439.767 759.768L456.814 775.974L440.578 790.399L435.994 826.156L413.708 836.485L412.921 886.726L404.899 911.372L428.973 963.58L441.895 966.536L460.688 1045.05L416.897 1012.81L365.625 1035.74L311.504 1023.11L285.016 1048.54L287.757 1056.49L269.882 1067.08L231.288 1061.56L233.911 1049.86L221.489 1042.1L206.934 1052.72L205.241 1037.31L207.595 1043.73L212.614 1039.62L194.119 1030.22L194.56 1020.32L179.527 1032.17L187.21 1039.93L173.573 1037.69L171.177 1007.22L161.688 991.868L152.485 987.94L149.958 962.108L165.395 902.503L190.161 903.844L176.732 901.52L182.752 892.96L176.732 898.42L176.023 895.363L197.647 849.932L194.405 839.555L207.619 841.081L192.241 834.602L185.375 801.765L216.005 746.977Z"/>
</mask>
<path d="M216.005 746.977L217.412 708.526L229.434 676.762L216.78 659.662L225.173 658.44L221.763 649.142L228.886 640.821L219.79 615.954L229.822 581.92L213.77 586.014L213.848 598.782L222.151 593.823L214.593 603.568L210.146 578.206L177.197 512.856L180.517 492.37L195.156 473.391L172.554 410.467L173.507 388.497L159.894 373.399L168.453 363.475L186.269 365.722L203.179 350.707L226.395 348.097L200.043 298.023L197.546 256.818L188.689 242.155L230.43 246.542L253.848 238.537L263.057 226.312L260.298 204.414L246.124 190.108L251.911 175.261L243.054 157.934L250.511 145.441L243.412 129.681L217.37 118.064L226.597 81.6578L255.511 56.8742L296.376 49.4534L328.336 26.0645L355.492 25.7546L363.33 38.3371L423.018 51.0985L440.429 4.13599L491.063 70.0885L525.801 95.2774L600.348 103.264L652.967 128.537L698.475 139.713L747.411 172.501L805.972 191.402L829.611 233.566L813.447 240.665L789.694 280.392L765.912 290.059L745.533 310.528L709.353 317.68L692.139 333.66L682.048 332.194L667.207 307.232L655.196 305.145L635.366 251.388L603.06 267.326L599.615 264.191L634.478 235.396L620.25 231.319L623.552 223.326L617.473 229.233L627.677 214.952L622.432 213.915L627.599 207.668L622.801 197.642L627.272 207.388L622.372 217.503L615.929 219.654L618.712 209.766L614.701 218.033L610.111 207.215L608.985 225.061L600.73 221.663L603.781 214.135L599.126 222.724L592.135 215.822L567.554 219.19L549.958 209.689L551.425 205.361L514.464 214.016L505.207 226.145L487.385 228.613L491.242 222.432L486.146 222.664L487.689 234.097L455.36 265.538L427.662 275.427L400.577 299.227L384.108 300.83L382.058 305.39L400.19 328.665L400.422 358.879L435.607 370.544L437.538 384.068L446.449 387.781L434.915 454.407L445.793 473.737L444.327 499.945L452.35 519.972L429.134 550.818L422.953 575.19L429.748 599.247L421.296 621.598L435.231 638.127L430.844 675.856L438.742 685.071L426.142 711.041L441.239 726.526L434.29 735.354L439.767 759.768L456.814 775.974L440.578 790.399L435.994 826.156L413.708 836.485L412.921 886.726L404.899 911.372L428.973 963.58L441.895 966.536L460.688 1045.05L416.897 1012.81L365.625 1035.74L311.504 1023.11L285.016 1048.54L287.757 1056.49L269.882 1067.08L231.288 1061.56L233.911 1049.86L221.489 1042.1L206.934 1052.72L205.241 1037.31L207.595 1043.73L212.614 1039.62L194.119 1030.22L194.56 1020.32L179.527 1032.17L187.21 1039.93L173.573 1037.69L171.177 1007.22L161.688 991.868L152.485 987.94L149.958 962.108L165.395 902.503L190.161 903.844L176.732 901.52L182.752 892.96L176.732 898.42L176.023 895.363L197.647 849.932L194.405 839.555L207.619 841.081L192.241 834.602L185.375 801.765L216.005 746.977Z" fill="#0D9488"/>
<path d="M216.005 746.977L217.412 708.526L229.434 676.762L216.78 659.662L225.173 658.44L221.763 649.142L228.886 640.821L219.79 615.954L229.822 581.92L213.77 586.014L213.848 598.782L222.151 593.823L214.593 603.568L210.146 578.206L177.197 512.856L180.517 492.37L195.156 473.391L172.554 410.467L173.507 388.497L159.894 373.399L168.453 363.475L186.269 365.722L203.179 350.707L226.395 348.097L200.043 298.023L197.546 256.818L188.689 242.155L230.43 246.542L253.848 238.537L263.057 226.312L260.298 204.414L246.124 190.108L251.911 175.261L243.054 157.934L250.511 145.441L243.412 129.681L217.37 118.064L226.597 81.6578L255.511 56.8742L296.376 49.4534L328.336 26.0645L355.492 25.7546L363.33 38.3371L423.018 51.0985L440.429 4.13599L491.063 70.0885L525.801 95.2774L600.348 103.264L652.967 128.537L698.475 139.713L747.411 172.501L805.972 191.402L829.611 233.566L813.447 240.665L789.694 280.392L765.912 290.059L745.533 310.528L709.353 317.68L692.139 333.66L682.048 332.194L667.207 307.232L655.196 305.145L635.366 251.388L603.06 267.326L599.615 264.191L634.478 235.396L620.25 231.319L623.552 223.326L617.473 229.233L627.677 214.952L622.432 213.915L627.599 207.668L622.801 197.642L627.272 207.388L622.372 217.503L615.929 219.654L618.712 209.766L614.701 218.033L610.111 207.215L608.985 225.061L600.73 221.663L603.781 214.135L599.126 222.724L592.135 215.822L567.554 219.19L549.958 209.689L551.425 205.361L514.464 214.016L505.207 226.145L487.385 228.613L491.242 222.432L486.146 222.664L487.689 234.097L455.36 265.538L427.662 275.427L400.577 299.227L384.108 300.83L382.058 305.39L400.19 328.665L400.422 358.879L435.607 370.544L437.538 384.068L446.449 387.781L434.915 454.407L445.793 473.737L444.327 499.945L452.35 519.972L429.134 550.818L422.953 575.19L429.748 599.247L421.296 621.598L435.231 638.127L430.844 675.856L438.742 685.071L426.142 711.041L441.239 726.526L434.29 735.354L439.767 759.768L456.814 775.974L440.578 790.399L435.994 826.156L413.708 836.485L412.921 886.726L404.899 911.372L428.973 963.58L441.895 966.536L460.688 1045.05L416.897 1012.81L365.625 1035.74L311.504 1023.11L285.016 1048.54L287.757 1056.49L269.882 1067.08L231.288 1061.56L233.911 1049.86L221.489 1042.1L206.934 1052.72L205.241 1037.31L207.595 1043.73L212.614 1039.62L194.119 1030.22L194.56 1020.32L179.527 1032.17L187.21 1039.93L173.573 1037.69L171.177 1007.22L161.688 991.868L152.485 987.94L149.958 962.108L165.395 902.503L190.161 903.844L176.732 901.52L182.752 892.96L176.732 898.42L176.023 895.363L197.647 849.932L194.405 839.555L207.619 841.081L192.241 834.602L185.375 801.765L216.005 746.977Z" stroke="black" stroke-width="4" mask="url(#path-2-outside-1_0_1)"/>
<path d="M449.689 1048.72L449.088 1048.44L448.597 1048.88L445.432 1051.75L444.724 1052.39L445.331 1053.13L447.954 1056.31L448.626 1057.13L449.403 1056.41L453.957 1052.22L455.058 1051.21L453.7 1050.58L449.689 1048.72Z" fill="#0D9488" stroke="black" stroke-width="2"/>
<path d="M137.994 1010.35L137.73 1012.4L135.181 1011.04L136.584 1010.16L137.994 1010.35ZM133.311 1002.38L133.445 1010.12L130.177 1008.38L130.203 1002.88L128.209 1002.77L127.478 1009.8L120.855 1008.33L119.178 1007.96L119.682 1009.6L122.305 1018.13L122.489 1018.73L123.109 1018.83L133.683 1020.45L135.113 1020.67L134.813 1019.26L134.074 1015.77L137.642 1017.14L138.543 1017.49L138.921 1016.6L141.681 1010.12L142.193 1008.91L140.897 1008.74L140.231 1008.64L140.399 1007.33L140.67 1005.23L138.875 1006.36L136.136 1008.08L135.967 1008.06L136.532 998.712L136.592 997.712L135.592 997.653L125.793 997.075L125.343 998.994L133.311 1002.38Z" fill="#0D9488" stroke="black" stroke-width="2"/>
<path d="M466.281 1076.97L465.875 1075.43L464.664 1076.47L460.575 1079.96L458.693 1081.57L461.164 1081.72L466.254 1082.03L467.634 1082.11L467.282 1080.78L466.281 1076.97Z" fill="#0D9488" stroke="black" stroke-width="2"/>
<path d="M455.709 1258.95L455.665 1259.16L455.716 1259.38L462.898 1289.69L463.553 1292.45L464.774 1289.89L471.998 1274.72L472.158 1274.38L472.06 1274.02L468.203 1259.91L479.805 1242.27L480.009 1241.96L479.961 1241.6L476.136 1212.48L488.311 1166.1L488.377 1165.84L488.311 1165.59L467.378 1085.12L466.99 1083.63L465.785 1084.59L456.976 1091.65L456.647 1091.91L456.606 1092.33L452.088 1137.93L452.075 1138.06L452.094 1138.18L457.897 1176.31L447 1200.1L448.52 1201.31L452.146 1198.51L451.499 1222.6L451.483 1223.19L451.985 1223.49L461.731 1229.33L455.709 1258.95Z" fill="#0D9488" stroke="black" stroke-width="2"/>
<path d="M449.793 1180L447.914 1179.4L437.537 1199.57L437.256 1200.11L437.616 1200.61L443.845 1209.21L445.292 1211.21L445.645 1208.77L449.793 1180Z" fill="#0D9488" stroke="black" stroke-width="2"/>
<path d="M452.365 1317.35L452.324 1316.45L451.425 1316.4L446.18 1316.09L444.97 1316.02L445.13 1317.22L446.799 1329.76L446.916 1330.64L447.802 1330.63L451.938 1330.58L452.973 1330.57L452.926 1329.54L452.365 1317.35Z" fill="#0D9488" stroke="black" stroke-width="2"/>
<path d="M447.851 884.356L447.494 883.611L446.694 883.822L443.762 884.597L441.025 885.32L443.609 886.476L447.817 888.36L450.307 889.475L449.127 887.015L447.851 884.356Z" fill="#0D9488" stroke="black" stroke-width="2"/>
</svg>
