<svg width="849" height="978" viewBox="0 0 849 978" fill="none" xmlns="http://www.w3.org/2000/svg">
<path d="M841.319 783.844L840.825 783.302L840.16 783.609L836.87 785.129L835.114 785.94L836.791 786.904L846.59 792.536L847.828 790.996L841.319 783.844Z" fill="#0D9488" stroke="black" stroke-width="2"/>
<path d="M592.292 641.264L592.683 640.621L592.172 640.067L565.325 610.949L573.864 589.669L574.659 587.688L572.628 588.346L554.983 594.057L533.589 589.517L529.225 586.651L532.416 577.25L532.705 576.4L531.89 576.022L519.659 570.35L518.52 569.822L518.26 571.05L514.244 590.015L508.459 586.007L507.683 585.47L507.101 586.214L486.826 612.158L470.106 618.689L468.949 619.141L469.637 620.175L480.107 635.898L475.765 649.746L455.215 652.752L454.959 652.789L454.753 652.947L433.649 669.065L416.715 663.013L416.188 662.825L415.752 663.175L393.686 680.908L393.45 681.098L393.359 681.387L388.728 696.094L388.469 696.917L389.244 697.294L415.146 709.888L406.849 725.742L393.688 719.038L392.719 718.545L392.308 719.551L389.566 726.258L362.314 724.38L362.048 724.361L361.808 724.478L344.314 732.99L343.947 733.168L343.809 733.553L328.643 776.127L302.259 781.754L301.968 781.816L301.758 782.027L286.295 797.605L271.437 800.414L270.439 800.603L270.643 801.598L271.012 803.393L268.986 800.483L268.516 799.807L267.762 800.139L226.6 818.262L225.031 818.953L226.404 819.978L231.051 823.449L188.892 818.86L187.973 818.759L187.801 819.668L186.702 825.475L134.769 805.299L134.461 805.179L134.142 805.267L115.651 810.334L41.7817 802.429L38.4388 790.783L38.2103 789.987L37.3858 790.063L15.1771 792.11L13.1174 792.3L14.5455 793.796L22.2658 801.886L17.8798 805.936L1.31356 803.061L0.584596 804.876L33.4432 826.97L40.5256 854.894L40.6125 855.236L40.8956 855.448L65.9057 874.173L66.0802 874.304L66.2932 874.35L104.366 882.603L113.347 902.44L110.981 936.637L97.0416 966.267L96.7116 966.968L97.3087 967.463L103.621 972.69L103.989 972.995L104.458 972.9L123.536 969.021L156.706 976.466L156.939 976.518L157.17 976.46L244.632 954.414L307.38 952.144L307.527 952.139L307.667 952.091L326.788 945.552L328.037 945.126L327.288 944.039L325.115 940.882L333.326 944.513L334.052 944.835L334.53 944.2L342.499 933.61L372.392 935.338L373.72 935.414L373.425 934.118L372.252 928.956L382.253 923.539L388.443 927.167L390.515 928.382L389.917 926.056L384.715 905.829L396.29 895.425L404.202 897.624L405.732 898.049L405.454 896.485L401.974 876.91L422.352 860.229L422.77 859.887L422.713 859.35L421.199 844.999L433.263 828.828L451.58 820.432L450.901 818.558L444.737 820.237L446.565 810.009L457.773 812.058L458.512 812.193L458.847 811.521L466.678 795.842L493.252 788.407L493.56 788.32L493.761 788.07L531.64 740.98L531.794 740.788L531.842 740.547L543.74 680.461L560.571 661.311L582.11 657.366L582.552 657.285L582.785 656.901L592.292 641.264Z" fill="#0D9488" stroke="black" stroke-width="2"/>
<path d="M572.661 668.86L572.263 670.377L573.806 670.097L596.802 665.928L597.445 665.811L597.596 665.175L606.698 626.891L604.837 626.2L590.4 654.036L575.789 658.744L575.267 658.912L575.128 659.442L572.661 668.86Z" fill="#0D9488" stroke="black" stroke-width="2"/>
<path d="M692.514 2.30622L691.796 2.10768L691.4 2.73839L687.305 9.26212L685.839 11.5987L688.462 10.7446L701.176 6.60507L704.335 5.57632L701.133 4.6904L692.514 2.30622Z" fill="#0D9488" stroke="black" stroke-width="2"/>
<path d="M684.135 8.90307L683.229 7.56132L682.435 8.97272L678.417 16.1163L677.343 18.0269L679.49 17.5861L687.257 15.9917L688.721 15.691L687.884 14.4523L684.135 8.90307Z" fill="#0D9488" stroke="black" stroke-width="2"/>
<path d="M638.831 45.5851L662.053 55.289L657.69 57.8325L656.51 58.5207L657.523 59.4376L665.329 66.5057L657.969 93.4295L657.844 93.8856L658.117 94.2713L670.026 111.08L670.597 111.886L671.41 111.325L682.067 103.967L693.391 130.133L694.738 133.247L695.295 129.9L697.304 117.828L701.75 121.663L702.634 122.426L703.252 121.434L712.961 105.842L713.131 105.569L713.11 105.248L711.895 86.5414L711.886 86.4128L711.845 86.2906L708.758 77.0101L708.343 75.7614L707.251 76.4962L701.618 80.287L700.707 80.9002L701.403 81.7501L705.356 86.5804L703.14 86.2152L687.674 61.1103L687.322 60.5389L686.659 60.6482L684.1 61.0708L684.109 61.0647L684.183 60.6512L684.998 56.0829L689.724 54.7095L691.135 54.2994L690.236 53.1372L666.215 22.0922L665.901 21.6859L665.387 21.7048L636.342 22.7747L635.24 22.8153L635.388 23.9086L638.225 44.797L638.302 45.3644L638.831 45.5851Z" fill="#0D9488" stroke="black" stroke-width="2"/>
<path d="M722.287 91.6356L722.884 89.1916L720.772 90.5591L715.521 93.9595L714.465 94.6431L715.369 95.5176L718.945 98.9776L720.199 100.19L720.612 98.4961L722.287 91.6356Z" fill="#0D9488" stroke="black" stroke-width="2"/>
<path d="M684.975 112.836L686.962 111.65L684.737 111.015L677.053 108.825L674.52 108.102L675.936 110.324L679.065 115.232L679.587 116.051L680.421 115.554L684.975 112.836Z" fill="#0D9488" stroke="black" stroke-width="2"/>
<path d="M652.719 151.906L652.283 151.564L651.761 151.753L648.364 152.987L647.403 153.336L647.773 154.289L649.937 159.856L650.429 161.124L651.492 160.275L656.404 156.356L657.392 155.568L656.397 154.788L652.719 151.906Z" fill="#0D9488" stroke="black" stroke-width="2"/>
<path d="M667.409 169.48L666.482 169.056L666.075 169.991L662.672 177.817L662.149 179.018L663.446 179.205L672.321 180.487L673.168 180.609L673.42 179.791L675.202 174.007L675.46 173.169L674.663 172.803L667.409 169.48Z" fill="#0D9488" stroke="black" stroke-width="2"/>
<path d="M630.527 322.834L630.733 323.661L631.582 323.589L644.206 322.519L646.295 322.342L644.843 320.83L634.829 310.403L651.996 288.529L652.591 287.771L651.854 287.148L637.931 275.382L637.143 274.716L636.502 275.525L623.311 292.157L623.006 292.543L623.124 293.02L630.527 322.834Z" fill="#0D9488" stroke="black" stroke-width="2"/>
<path d="M574.646 298.271L576.189 296.725L574.01 296.567L568.687 296.183L566.479 296.024L567.819 297.786L570.287 301.031L570.981 301.944L571.791 301.132L574.646 298.271Z" fill="#0D9488" stroke="black" stroke-width="2"/>
<path d="M653.788 314.372L653.445 311.238L651.919 313.997L646.364 324.04L645.408 325.769L647.368 325.516L653.93 324.666L654.903 324.541L654.796 323.566L653.788 314.372Z" fill="#0D9488" stroke="black" stroke-width="2"/>
<path d="M633.756 394.311L632.832 394.091L632.565 395.002L629.018 407.069L628.756 407.961L629.627 408.287L646.936 414.772L647.969 415.159L648.253 414.093L652.08 399.737L652.344 398.745L651.345 398.507L633.756 394.311Z" fill="#0D9488" stroke="black" stroke-width="2"/>
<path d="M630.436 410.691L630.041 409.441L628.94 410.153L619.35 416.349L618.219 417.079L619.245 417.951L624.991 422.829L625.619 423.362L626.263 422.848L632.128 418.164L632.664 417.735L632.457 417.081L630.436 410.691Z" fill="#0D9488" stroke="black" stroke-width="2"/>
<path d="M639.138 464.388L639.15 461.834L637.407 463.701L632.439 469.022L622.867 465.828L620.594 465.069L621.654 467.219L623.829 471.63L619.221 471.815L618.226 471.855L618.261 472.85L618.583 481.984L618.637 483.501L620.009 482.853L638.523 474.115L639.093 473.846L639.096 473.216L639.138 464.388Z" fill="#0D9488" stroke="black" stroke-width="2"/>
<path d="M442.598 598.851L442.152 598.144L441.377 598.458L436.227 600.544L435.492 600.842L435.614 601.625L436.604 607.979L436.782 609.121L437.886 608.781L445.832 606.334L447.081 605.949L446.383 604.844L442.598 598.851Z" fill="#0D9488" stroke="black" stroke-width="2"/>
<path d="M456.381 604.168L456.084 604.152L455.826 604.3L450.521 607.355L448.866 608.308L450.593 609.125L463.324 615.154L465.096 615.993L464.735 614.066L463.096 605.308L462.952 604.537L462.169 604.493L456.381 604.168Z" fill="#0D9488" stroke="black" stroke-width="2"/>
<path d="M552.693 533.24L553.381 530.178L551.048 532.278L541.785 540.617L541.564 540.816L541.488 541.105L537.554 556.003L536.663 559.374L539.205 556.987L549.314 547.492L549.538 547.282L549.605 546.982L552.693 533.24Z" fill="#0D9488" stroke="black" stroke-width="2"/>
<path d="M562.882 543.472L562.018 542.694L561.378 543.665L554.815 553.625L554.5 554.103L554.753 554.617L565.327 576.077L567.218 575.523L566.572 569.805L577.525 558.021L578.216 557.276L577.461 556.597L562.882 543.472Z" fill="#0D9488" stroke="black" stroke-width="2"/>
<path d="M459.05 571.177L458.494 569.765L457.416 570.833L449.012 579.163L448.164 580.003L449.14 580.691L459.928 588.29L460.523 588.709L461.105 588.273L464.109 586.017L464.718 585.559L464.439 584.85L459.05 571.177Z" fill="#0D9488" stroke="black" stroke-width="2"/>
<path d="M454.331 573.672L454.314 573.434L454.192 573.23L452.386 570.211L450.572 571.02L452.64 577.699L454.593 577.331L454.331 573.672Z" fill="#0D9488" stroke="black" stroke-width="2"/>
<path d="M532.96 583.737L532.663 581.614L531.227 583.206L528.45 586.288L527.593 587.238L528.722 587.84L532.191 589.69L533.924 590.615L533.652 588.669L532.96 583.737Z" fill="#0D9488" stroke="black" stroke-width="2"/>
</svg>
