<svg width="978" height="962" viewBox="0 0 978 962" fill="none" xmlns="http://www.w3.org/2000/svg">
<path d="M759.001 690.049L758.658 689.767L758.218 689.833L740.915 692.438L739.986 692.577L740.068 693.513L741.445 709.285L741.469 709.569L741.641 709.798L756.542 729.676L756.824 730.053L757.295 730.075L767.171 730.54L767.949 730.576L768.175 729.831L775.817 704.642L776.011 704.003L775.494 703.579L759.001 690.049Z" fill="#0D9488" stroke="black" stroke-width="2"/>
<path d="M965.937 711.037L963.81 708.19L964.14 711.728L964.682 717.54L964.739 718.142L965.299 718.372L970.776 720.619L974.12 721.991L971.957 719.096L965.937 711.037Z" fill="#0D9488" stroke="black" stroke-width="2"/>
<path d="M727.075 712.305L724.842 710.645L725.508 713.347L727.814 722.717L727.951 723.271L728.497 723.435L745.788 728.639L746.673 726.879L727.075 712.305Z" fill="#0D9488" stroke="black" stroke-width="2"/>
<path d="M766.388 733.496L765.938 733.125L765.394 733.334L757.908 736.201L755.028 737.304L758.007 738.101L774.249 742.446L775.144 740.708L766.388 733.496Z" fill="#0D9488" stroke="black" stroke-width="2"/>
<path d="M811.447 749.051L810.594 747.683L809.748 749.055L806.356 754.55L805.464 755.995L807.16 756.074L814.182 756.402L816.085 756.491L815.077 754.874L811.447 749.051Z" fill="#0D9488" stroke="black" stroke-width="2"/>
<path d="M809.418 782.176L809.514 782.297L809.643 782.383L822.428 790.948L825.303 792.874L823.898 789.711L821.344 783.959L826.269 780.925L827.561 780.129L826.319 779.256L788.089 752.362L786.733 753.804L809.418 782.176Z" fill="#0D9488" stroke="black" stroke-width="2"/>
<path d="M837.351 770.477L837.184 767.926L835.576 769.914L830.217 776.542L828.653 778.478L831.122 778.163L836.868 777.43L837.801 777.311L837.739 776.372L837.351 770.477Z" fill="#0D9488" stroke="black" stroke-width="2"/>
<path d="M830.27 775.111L829.094 774.162L828.68 775.616L825.903 785.385L825.52 786.733L826.919 786.657L840.86 785.9L843.46 785.759L841.434 784.124L830.27 775.111Z" fill="#0D9488" stroke="black" stroke-width="2"/>
<path d="M874.476 837L876.03 836.814L875.209 835.482L869.898 826.869L869.628 826.431L869.115 826.396L843.986 824.673L841.978 824.536L843.081 826.219L851.569 839.171L851.908 839.69L852.524 839.616L874.476 837Z" fill="#0D9488" stroke="black" stroke-width="2"/>
<path d="M850.898 839.932L854.494 839.802L851.346 838.058L844.48 834.256L842.782 833.316L843.002 835.243L843.46 839.279L843.565 840.199L844.49 840.165L850.898 839.932Z" fill="#0D9488" stroke="black" stroke-width="2"/>
<path d="M846.63 844.762L844.125 844.537L845.791 846.42L851.346 852.703L851.736 853.144L852.31 853.017L858.64 851.622L859.781 851.371L859.357 850.282L857.813 846.324L857.588 845.747L856.971 845.692L846.63 844.762Z" fill="#0D9488" stroke="black" stroke-width="2"/>
<path d="M871.599 866.23L870.267 865.42L870.086 866.969L867.327 890.638L867.233 891.439L867.997 891.7L885.561 897.7L885.047 911.034L884.989 912.537L886.398 912.009L894.039 909.142L894.884 908.825L894.655 907.952L886.09 875.366L885.987 874.975L885.642 874.765L871.599 866.23Z" fill="#0D9488" stroke="black" stroke-width="2"/>
<path d="M476.02 771.225L476.037 771.339L476.079 771.445L493.835 816.578L494.387 817.982L495.465 816.926L515.583 797.215L518.16 815.345L518.6 818.445L520.038 815.664L525.858 804.405L526.364 816.136L526.403 817.035L527.301 817.091L540.456 817.907L541.015 817.942L541.337 817.483L567.188 780.576L567.354 780.338L567.367 780.047L567.987 766.326L568.041 765.138L566.861 765.289L554.072 766.929L561.227 749.841L588.59 733.554L599.31 746.759L599.77 747.325L600.449 747.061L632.32 734.657L632.551 734.567L632.714 734.379L657.712 705.471L658.243 704.857L657.752 704.211L647.261 690.419L647.078 690.178L646.792 690.079L622.342 681.636L621.125 670.955L620.948 669.4L619.611 670.215L614.066 673.595L615.696 667.637L615.877 666.978L615.328 666.57L605.648 659.382L604.944 658.859L604.334 659.489L583.138 681.347L574.871 672.173L589.204 655.179L589.397 654.951L589.433 654.655L591.358 638.776L591.405 638.386L591.174 638.067L583.59 627.639L599.284 597.055L599.44 596.751L599.377 596.414L595.271 574.506L607.37 567.734L608.195 567.272L607.78 566.423L602.905 556.447L604.772 547.346L610.306 558.555L610.867 559.689L611.841 558.882L616.807 554.77L616.296 563.939L616.245 564.855L617.153 564.985L626.839 566.368L627.491 566.461L627.834 565.899L631.821 559.372L630.392 558.033L626.24 560.956L627.865 538.474L636.73 548.544L631.917 553.711L630.867 554.838L632.324 555.338L643.609 559.212L643.54 577.7L643.538 578.33L644.105 578.604L654.666 583.712L656.124 584.417L656.102 582.799L655.488 537.344L655.486 537.21L655.449 537.081L652.284 526.09L650.323 526.364L650.309 532.457L646.46 529.712L654.672 514.852L654.935 514.376L654.678 513.896L635.307 477.675L635.182 477.442L634.959 477.301L609.785 461.392L618.711 446.235L620.313 443.513L617.436 444.816L581.233 461.214L581.018 461.311L580.87 461.493L558.19 489.352L558.051 489.523L557.997 489.736L547.19 531.924L547.127 532.171L547.19 532.419L554.751 562.04L540.915 584.784L540.634 585.246L540.867 585.734L547.932 600.539L542.751 616.626L522.014 635.988L523.062 637.649L538.655 631.519L527.448 652.356L528.942 653.619L535.806 648.286L536.376 651.56L521.827 670.422L521.496 670.851L521.674 671.362L526.92 686.395L527.599 688.34L528.707 686.603L535.862 675.387L542.128 683.276L531.147 692.141L521.722 688.766L520.938 688.485L520.52 689.205L508.099 710.578L499.065 712.201L498.534 712.296L498.322 712.792L488.911 734.804L488.454 735.873L489.579 736.165L494.75 737.508L497.136 743.713L474.393 755.626L473.764 755.956L473.868 756.658L476.02 771.225Z" fill="#0D9488" stroke="black" stroke-width="2"/>
<mask id="path-14-outside-1_0_1" maskUnits="userSpaceOnUse" x="0.0986328" y="-0.671631" width="572" height="596" fill="black">
<rect fill="white" x="0.0986328" y="-0.671631" width="572" height="596"/>
<path d="M207.495 563.297L180.953 548.742L169.765 534.109L169.688 514.446L186.049 455.777L186.633 411.419L196.003 411.592L190.311 414.441L193.071 417.934L201.552 411.282L211.59 385.664L209.289 361.768L137.436 341.115L121.009 309.763L110.351 321.547L108.855 296.442L87.1293 295.023L6.95505 212.602L3.09863 184.456L28.2518 156.865L32.7281 138.37L59.5144 122.086L52.2486 75.4156L65.3795 69.1273L57.2912 52.4022L64.0563 56.5984L62.3039 27.8272L54.4838 28.8644L50.234 15.1255L47.7127 23.0052L38.8316 19.5541L39.4098 29.6333L36.5905 18.9044L63.645 2.32837L70.4817 4.08075L88.1962 56.1454L100.207 58.2316L119.214 84.9464L144.123 67.8756L178.533 61.5277L198.912 41.0595L223.171 30.7181L244.456 46.2451L293.659 60.9734L310.933 53.0519L348.817 56.0262L352.006 68.573L371.837 74.2891L371.348 91.7532L394.04 103.12L399.994 120.018L412.147 118.963L412.296 130.49L394.844 152.461L399.547 165.448L421.249 170.95L426.399 178.818L417.917 194.589L417.22 181.369L405.49 183.377L409.191 169.233L394.785 166.778L392.299 176.344L384.348 174.18L401.901 195.513L397.848 202.242L386.064 194.983L392.299 201.003L386.666 204.329L396.924 201.7L396.382 217.853L394.069 209.043L384.545 216.309L392.836 214.92L392.144 220.791L373.696 222.419L372.618 234.786L412.976 272.439L427.019 267.301L441.062 273.833L449.472 292.472L443.225 298.659L451.486 293.873L463.938 314.18L503.176 315.05L484.269 337.789L465.368 335.471L500.935 345.913L498.795 366.888L506.108 387.452L515.752 389.389L511.276 381.807L516.527 380.138L530.445 387.869L544.732 381.515L550.013 386.29L531.297 359.527L551.736 360.32L564.753 378.863L569.766 408.421L562.321 425.849L569.843 433.8L563.287 458.87L553.559 460.748L549.149 468.681L510.584 435.153L501.364 437.883L513.207 456.397L528.329 462.584L524.55 485.651L510.352 474.272L511.276 483.403L504.409 485.108L502.097 470.326L481.724 453.994L464.129 465.296L460.952 458.733L458.27 470.559L434.428 463.978L391.137 480.93L376.051 475.083L358.116 492.463L347.619 491.688L347.357 484.75L330.257 522.802L323.283 524.107L330.334 557.027L351.327 571.583L325.244 586.144L324.415 592.408L290.673 589.47L266.295 576.071L234.269 582.037L214.367 560.121L207.495 563.297Z"/>
</mask>
<path d="M207.495 563.297L180.953 548.742L169.765 534.109L169.688 514.446L186.049 455.777L186.633 411.419L196.003 411.592L190.311 414.441L193.071 417.934L201.552 411.282L211.59 385.664L209.289 361.768L137.436 341.115L121.009 309.763L110.351 321.547L108.855 296.442L87.1293 295.023L6.95505 212.602L3.09863 184.456L28.2518 156.865L32.7281 138.37L59.5144 122.086L52.2486 75.4156L65.3795 69.1273L57.2912 52.4022L64.0563 56.5984L62.3039 27.8272L54.4838 28.8644L50.234 15.1255L47.7127 23.0052L38.8316 19.5541L39.4098 29.6333L36.5905 18.9044L63.645 2.32837L70.4817 4.08075L88.1962 56.1454L100.207 58.2316L119.214 84.9464L144.123 67.8756L178.533 61.5277L198.912 41.0595L223.171 30.7181L244.456 46.2451L293.659 60.9734L310.933 53.0519L348.817 56.0262L352.006 68.573L371.837 74.2891L371.348 91.7532L394.04 103.12L399.994 120.018L412.147 118.963L412.296 130.49L394.844 152.461L399.547 165.448L421.249 170.95L426.399 178.818L417.917 194.589L417.22 181.369L405.49 183.377L409.191 169.233L394.785 166.778L392.299 176.344L384.348 174.18L401.901 195.513L397.848 202.242L386.064 194.983L392.299 201.003L386.666 204.329L396.924 201.7L396.382 217.853L394.069 209.043L384.545 216.309L392.836 214.92L392.144 220.791L373.696 222.419L372.618 234.786L412.976 272.439L427.019 267.301L441.062 273.833L449.472 292.472L443.225 298.659L451.486 293.873L463.938 314.18L503.176 315.05L484.269 337.789L465.368 335.471L500.935 345.913L498.795 366.888L506.108 387.452L515.752 389.389L511.276 381.807L516.527 380.138L530.445 387.869L544.732 381.515L550.013 386.29L531.297 359.527L551.736 360.32L564.753 378.863L569.766 408.421L562.321 425.849L569.843 433.8L563.287 458.87L553.559 460.748L549.149 468.681L510.584 435.153L501.364 437.883L513.207 456.397L528.329 462.584L524.55 485.651L510.352 474.272L511.276 483.403L504.409 485.108L502.097 470.326L481.724 453.994L464.129 465.296L460.952 458.733L458.27 470.559L434.428 463.978L391.137 480.93L376.051 475.083L358.116 492.463L347.619 491.688L347.357 484.75L330.257 522.802L323.283 524.107L330.334 557.027L351.327 571.583L325.244 586.144L324.415 592.408L290.673 589.47L266.295 576.071L234.269 582.037L214.367 560.121L207.495 563.297Z" fill="#0D9488"/>
<path d="M207.495 563.297L180.953 548.742L169.765 534.109L169.688 514.446L186.049 455.777L186.633 411.419L196.003 411.592L190.311 414.441L193.071 417.934L201.552 411.282L211.59 385.664L209.289 361.768L137.436 341.115L121.009 309.763L110.351 321.547L108.855 296.442L87.1293 295.023L6.95505 212.602L3.09863 184.456L28.2518 156.865L32.7281 138.37L59.5144 122.086L52.2486 75.4156L65.3795 69.1273L57.2912 52.4022L64.0563 56.5984L62.3039 27.8272L54.4838 28.8644L50.234 15.1255L47.7127 23.0052L38.8316 19.5541L39.4098 29.6333L36.5905 18.9044L63.645 2.32837L70.4817 4.08075L88.1962 56.1454L100.207 58.2316L119.214 84.9464L144.123 67.8756L178.533 61.5277L198.912 41.0595L223.171 30.7181L244.456 46.2451L293.659 60.9734L310.933 53.0519L348.817 56.0262L352.006 68.573L371.837 74.2891L371.348 91.7532L394.04 103.12L399.994 120.018L412.147 118.963L412.296 130.49L394.844 152.461L399.547 165.448L421.249 170.95L426.399 178.818L417.917 194.589L417.22 181.369L405.49 183.377L409.191 169.233L394.785 166.778L392.299 176.344L384.348 174.18L401.901 195.513L397.848 202.242L386.064 194.983L392.299 201.003L386.666 204.329L396.924 201.7L396.382 217.853L394.069 209.043L384.545 216.309L392.836 214.92L392.144 220.791L373.696 222.419L372.618 234.786L412.976 272.439L427.019 267.301L441.062 273.833L449.472 292.472L443.225 298.659L451.486 293.873L463.938 314.18L503.176 315.05L484.269 337.789L465.368 335.471L500.935 345.913L498.795 366.888L506.108 387.452L515.752 389.389L511.276 381.807L516.527 380.138L530.445 387.869L544.732 381.515L550.013 386.29L531.297 359.527L551.736 360.32L564.753 378.863L569.766 408.421L562.321 425.849L569.843 433.8L563.287 458.87L553.559 460.748L549.149 468.681L510.584 435.153L501.364 437.883L513.207 456.397L528.329 462.584L524.55 485.651L510.352 474.272L511.276 483.403L504.409 485.108L502.097 470.326L481.724 453.994L464.129 465.296L460.952 458.733L458.27 470.559L434.428 463.978L391.137 480.93L376.051 475.083L358.116 492.463L347.619 491.688L347.357 484.75L330.257 522.802L323.283 524.107L330.334 557.027L351.327 571.583L325.244 586.144L324.415 592.408L290.673 589.47L266.295 576.071L234.269 582.037L214.367 560.121L207.495 563.297Z" stroke="black" stroke-width="4" mask="url(#path-14-outside-1_0_1)"/>
<path d="M316.282 664.896L310.711 640.058L310.486 639.057L309.491 639.307L301.063 641.429L300.403 641.595L300.315 642.27L299.238 650.579L288.603 637.106L287.928 636.251L287.134 636.997L275.69 647.744L275.051 648.344L275.562 649.056L278.912 653.721L273.724 652.369L270.181 651.445L272.762 654.041L283.171 664.508L270.245 666.402L269.076 666.573L269.438 667.698L271.968 675.552L259.673 695.634L259.31 696.227L259.739 696.774L290.575 736.076L303.515 760.755L303.914 761.517L304.727 761.236L332.05 751.801L332.771 751.552L332.721 750.79L328.764 690.406L338.998 687.73L340.172 687.423L339.646 686.329L328.458 663.089L328.117 662.381L327.349 662.545L316.282 664.896Z" fill="#0D9488" stroke="black" stroke-width="2"/>
<path d="M334.671 708.693L335.54 710.452L336.453 708.715L339.874 702.206L341.592 698.938L338.459 700.893L333.387 704.058L332.619 704.537L333.02 705.349L334.671 708.693Z" fill="#0D9488" stroke="black" stroke-width="2"/>
<path d="M496.264 721.922L497.082 721.766L497.077 720.934L496.922 696.132L496.917 695.35L496.156 695.166L480.535 691.402L493.002 679.026L494.494 677.546L492.405 677.322L482.826 676.296L482.65 666.974L493.076 642.761L518.796 613.477L529.162 615.316L530.192 615.498L530.328 614.461L532.873 595.024L532.929 594.598L532.658 594.265L520.488 579.239L524.85 524.354L524.901 523.709L524.334 523.398L504.831 512.693L504.449 512.483L504.035 512.62L483.185 519.546L482.655 519.722L482.527 520.266L480.608 528.39L450.033 548.957L422.005 548.827L421.448 548.824L421.152 549.297L406.341 572.99L406.064 573.432L406.268 573.912L421.973 610.773L423.009 641.009L423.025 641.469L423.386 641.757L424.567 642.697L406.048 653.99L405.584 654.273L405.569 654.816L404.61 688.381L390.887 712.579L390.744 712.83L390.758 713.119L391.527 729.356L391.563 730.115L392.304 730.283L408.666 734.003L408.949 734.067L409.222 733.97L422.955 729.088L423.577 728.867L423.618 728.209L424.225 718.583L430.647 734.335L430.887 734.925L431.523 734.956L447.104 735.731L448.072 735.779L448.15 734.813L449.036 723.812L456.878 719.729L457.702 719.299L457.334 718.446L452.19 706.511L466.314 697.284L459.366 735.25L459.311 735.553L459.436 735.836L463.912 745.915L464.439 747.1L465.451 746.289L475.259 738.433L482.306 744.485L483.902 745.855L483.958 743.753L484.479 724.173L496.264 721.922ZM432.266 712.16L424.46 714.842L424.568 713.143L432.266 712.16Z" fill="#0D9488" stroke="black" stroke-width="2"/>
<path d="M513.947 696.869L514.019 696.767L514.064 696.651L516.997 688.979L515.186 688.141L506.466 704.026L508.16 705.083L513.947 696.869Z" fill="#0D9488" stroke="black" stroke-width="2"/>
<path d="M338.838 753.046L337.939 752.896L337.706 753.777L336.621 757.884L336.4 758.723L337.198 759.06L341.597 760.92L342.883 761.464L342.984 760.071L343.372 754.725L343.437 753.816L342.539 753.666L338.838 753.046Z" fill="#0D9488" stroke="black" stroke-width="2"/>
<path d="M332.555 759.314L331.201 757.906L315.614 767.443L316.265 769.287L326.374 767.97L326.825 767.911L327.077 767.533L332.555 759.314Z" fill="#0D9488" stroke="black" stroke-width="2"/>
<path d="M463.494 761.743L463.95 759.446L461.975 760.706L448.284 769.444L447.528 769.926L447.926 770.73L452.355 779.671L452.681 780.329L453.405 780.215L459.348 779.285L460.039 779.177L460.174 778.492L463.494 761.743Z" fill="#0D9488" stroke="black" stroke-width="2"/>
<path d="M460.948 795.545L460.212 795.156L459.696 795.81L444.354 815.241L442.922 817.055L445.224 816.857L469.156 814.8L469.854 814.74L470.036 814.063L473.046 802.821L473.252 802.051L472.547 801.678L460.948 795.545Z" fill="#0D9488" stroke="black" stroke-width="2"/>
<path d="M510.103 950.54L509.728 949.73L508.881 950.011L502.784 952.032L501.292 952.526L502.371 953.668L508.308 959.95L508.622 960.282L509.078 960.262L519.884 959.797L520.102 957.833L512.53 955.785L510.103 950.54Z" fill="#0D9488" stroke="black" stroke-width="2"/>
<path d="M664.451 380.244L664.692 380.008L664.74 379.675L667.327 361.93L667.407 361.381L666.983 361.022L648.511 345.412L648.176 345.129L647.741 345.184L620.382 348.639L599.828 336.464L598.918 335.925L598.43 336.864L587.106 358.692L577.855 361.829L576.855 362.168L577.248 363.148L591.833 399.507L591.975 399.86L592.316 400.03L626.183 416.892L626.821 417.209L627.33 416.71L664.451 380.244Z" fill="#0D9488" stroke="black" stroke-width="2"/>
<path d="M416.597 528.839L417.257 528.841L417.518 528.235L419.992 522.507L420.416 521.525L419.407 521.168L415.468 519.773L414.53 519.442L414.193 520.377L411.63 527.488L411.149 528.823L412.568 528.827L416.597 528.839Z" fill="#0D9488" stroke="black" stroke-width="2"/>
<path d="M423.26 528.772L421.539 527.821L407.264 545.083L408.63 546.524L419.991 538.101L420.246 537.913L420.345 537.611L423.26 528.772Z" fill="#0D9488" stroke="black" stroke-width="2"/>
<path d="M404.325 533.628L403.578 533.051L402.959 533.763L398.179 539.258L397.611 539.911L398.175 540.567L401.108 543.976L401.966 544.974L402.697 543.88L407.251 537.067L407.769 536.291L407.031 535.72L404.325 533.628Z" fill="#0D9488" stroke="black" stroke-width="2"/>
<path d="M632.286 545.869L631.463 543.401L630.421 545.785L628.729 549.659L628.348 550.53L629.198 550.954L632.781 552.742L634.94 553.82L634.176 551.531L632.286 545.869Z" fill="#0D9488" stroke="black" stroke-width="2"/>
<path d="M635.44 555.494L634.443 554.839L633.972 555.935L632.738 558.802L632.146 560.176L633.643 560.197L639.353 560.274L642.777 560.321L639.916 558.439L635.44 555.494Z" fill="#0D9488" stroke="black" stroke-width="2"/>
<path d="M612.617 579.251L612.719 579.284L612.825 579.295L627.291 580.761L628.313 580.865L628.389 579.84L629.444 565.619L629.518 564.622L628.522 564.547L618.222 563.773L617.928 563.75L617.669 563.891L608.138 569.077L607.899 569.207L607.759 569.441L604.272 575.259L603.626 576.337L604.821 576.724L612.617 579.251Z" fill="#0D9488" stroke="black" stroke-width="2"/>
</svg>
