<svg width="1172" height="1303" viewBox="0 0 1172 1303" fill="none" xmlns="http://www.w3.org/2000/svg">
<path d="M822.37 475.075L825.429 459.712L825.59 458.907L824.831 458.593L783.293 441.382L781.034 440.446L781.99 442.697L787.7 456.144L787.957 456.749L788.615 456.753L796.71 456.8L813.409 464.137L828.326 492.494L830.117 491.604L822.37 475.075Z" fill="#0D9488" stroke="black" stroke-width="2"/>
<path d="M762.297 492.675L762.69 492.167L762.391 491.599L745.028 458.575L743.624 455.903L743.155 458.885L736.366 502.095L736.266 502.735L736.808 503.088L745.451 508.721L747.139 509.821L746.994 507.811L746.23 497.219L753.334 502.657L754.125 503.263L754.734 502.474L762.297 492.675Z" fill="#0D9488" stroke="black" stroke-width="2"/>
<path d="M683.593 498.713L683.698 498.926L683.887 499.069L697.161 509.13L697.677 509.522L698.245 509.21L721.489 496.472L730.929 502.652L732.16 503.458L732.456 502.017L736.79 481.001L736.937 480.285L736.3 479.927L730.667 476.765L729.949 476.362L729.416 476.989L722.068 485.636L715.337 482.065L720.111 478.682L721.861 477.442L719.785 476.899L702.965 472.5L702.522 472.384L702.145 472.644L697.567 475.794L696.254 476.697L697.639 477.487L707.305 482.994L699.447 485.443L691.927 475.751L691.206 474.822L690.405 475.683L679.008 487.92L678.539 488.424L678.843 489.042L683.593 498.713Z" fill="#0D9488" stroke="black" stroke-width="2"/>
<path d="M697.415 518.613L697.58 518.341L697.558 518.024L696.718 505.91L696.683 505.407L696.259 505.136L682.544 496.371L682.083 496.077L681.586 496.306L661.659 505.514L654.708 497.981L652.793 495.906L652.975 498.724L653.683 509.654L646.556 507.252L646.16 507.118L645.788 507.306L633.33 513.564L632.991 513.735L632.85 514.087L622.151 540.939L621.542 542.469L623.18 542.304L635.602 541.056L636.119 541.004L636.373 540.551L646.483 522.568L671.246 532.425L671.629 532.577L672.007 532.416L681.168 528.524L682.682 527.881L681.415 526.833L676.17 522.495L680.219 522.551L686.289 534.008L687.113 535.563L688.028 534.059L697.415 518.613Z" fill="#0D9488" stroke="black" stroke-width="2"/>
<mask id="path-5-outside-1_0_1" maskUnits="userSpaceOnUse" x="0.019043" y="-0.174194" width="1127" height="1303" fill="black">
<rect fill="white" x="0.019043" y="-0.174194" width="1127" height="1303"/>
<path d="M457.779 783.772L472.358 780.703L486.431 763.483L502.858 717.724L565.741 654.257L573.674 634.522L604.126 624.521L606.683 612.635L616.756 607.575L626.09 611.437L623.629 636.74L638.804 647.319L704.244 660.361L720.671 644.017L749.561 649L760.558 635.607L763.843 610.412L775.334 602.729L834.581 601.4L846.884 594.367L880.173 601.394L890.091 595.153L920.782 609.351L938.734 598.95L985.745 593.222L920.084 567.688L935.122 569.988L943.443 559.754L964.871 560.72L968.078 554.521L983.867 555.266L984.141 562.466L1012.66 540.216L1068.84 544.227L1106.49 561.823L1111.12 565.679L1102.78 570.078L1113.9 583.274L1120.07 581.033L1115.21 590.296L1124.16 597.085L1120.07 616.611L1105.64 631.119L1100.86 663.764L1085.88 675.405L1070.45 673.408L1066.91 663.836L1035.97 647.939L1038.59 629.343L1024.55 615.759L1013.91 625.009L1017.84 633.122L1008.81 633.896L1008.39 625.874L1008.19 636.364L998.464 632.138L942.06 645.162L940.433 663.085L917.438 699.08L904.289 700.081L894.514 726.802L874.481 735.671L874.82 747.604L827.566 798.739L779.751 828.738L727.496 831.331L692.257 856.222L680.825 847.859L681.076 857.468L687.292 857.634L679.49 858.308L677.064 854.261L665.233 864.531L647.542 908.161L629.023 924.421L595.382 927.199L586.394 910.933L565.884 902.243L571.224 893.308L564.817 885.005L544.813 886.018L530.61 872.828L524.321 883.062L523.159 899.101L536.981 895.62L541.893 904.406L533.852 904.931L538.406 910.706L528.565 918.622L538.65 925.327L536.469 940.437L546.965 932.552L546.375 916.22L554.738 912.995L558.308 927.503L576.553 943.888L571.379 948.108L577.882 944.925L588.45 957.675L589.731 952.233L594.643 986.184L629.386 987.203L670.394 1021.03L728.849 1122.25L721.851 1138.99L742.88 1158.49L757.393 1158.23L770.328 1168.01L776.938 1189.4L789.079 1183.39L806.382 1192.43L788.668 1223.86L822.774 1256.62L836.888 1252.57L842.986 1262.57L850.007 1259.04L854.561 1267.67L836.811 1274.01L837.353 1295.25L830.254 1283.98L818.679 1288.31L821.23 1280.11L811.353 1282.42L813.147 1270.96L800.994 1272.02L795.04 1255.12L772.348 1243.75L772.837 1226.29L753.006 1220.57L748.941 1207.44L711.933 1205.05L694.659 1212.97L628.212 1187.08L627.938 1172.79L645.223 1146.75L663.707 1136.28L637.123 1091.41L581.411 1075.5L532.475 1042.71L486.967 1031.54L425.688 1003.33L359.801 998.278L325.063 973.089L274.429 907.136L257.018 954.099L197.33 941.337L189.492 928.755L162.336 929.065L130.376 952.453L111.851 951.047L128.308 925L124.666 904.704L136.337 897.689L137.493 883.467L95.8414 871.296L101.706 853.784L72.1604 812.877L68.8464 800.08L79.1044 788.123L71.6776 779.862L49.9577 770.433L32.7081 780.226L24.9118 769.867L11.167 771.589L3.01904 759.549L26.9443 747.545L15.6314 746.436L17.3957 741.173L46.8642 733.949L55.3758 696.303L47.9907 694.21L38.6924 663.711L38.9547 622.947L74.8665 596.93L69.1921 582.803L87.8186 562.83L118.288 627.775L129.87 622.709L124.899 582.428L114.289 574.858L96.3063 519.765L94.1724 485.424L112.882 437.58L110.558 421.266L81.1369 422.181L53.6591 385.896L70.2114 388.889L70.4557 378.407L89.0524 389.637L101.182 415.171L118.736 411.875L130.913 389.094L129.411 360.737L99.6263 324.393L109.962 317.989L136.504 322.081L121.304 286.276L132.492 274.317L129.017 261.43L135.86 250.564L163.433 249.315L176.397 240.828L167.677 200.162L173.965 184.153L229.487 161.425L232.109 117.67L241.831 109.566L261.81 110.261L254.098 145.913L264.439 153.322L266.984 142.596L273.851 163.586L312.17 163.97L315.675 173.695L328.484 175.161L322.852 169.526L332.722 158.955L331.029 141.437L339.994 122.825L354.174 118.903L356.951 109.411L365.749 115.893L388.339 96.5427L379.297 75.1476L382.593 60.1422L393.143 55.3142L387.743 15.4893L404.719 17.4176L414.071 6.82581L412.068 21.277L425.997 8.54242L458.226 21.7121L469.527 18.0374L511.971 41.7959L551.936 33.4721L568.542 19.766L571.784 32.1399L556.18 39.7246L561.878 43.6555L557.968 54.0446L595.823 88.4871L622.138 94.546L631.395 85.9629L638.053 94.9036L638.673 83.3552L647 88.2666L698.79 77.2398L714.502 99.6004L736.991 85.3043L764.516 96.8348L771.001 90.1173L778.577 100.286L722.495 123.341L672.129 112.213L586.948 147.236L550.255 142.459L527.111 152.193L503.317 186.701L486.222 192.423L509.986 220.154L537.255 225.527L535.724 251.995L517.055 246.097L506.184 256.107L490.156 256.086L481.853 269.664L463.048 273.083L448.772 261.43L412.819 273.697L388.512 251.631L376.782 256.772L354.472 241.227L304.255 240.995L248.399 266.961L201.05 330.184L191.286 388.051L173.161 401.787L174.853 421.54L164.822 447.543L183.651 506.417L177.094 520.615L179.794 558.735L193.915 588.138L249.776 651.879L276.402 639.917L291.476 659.485L305.066 660.808L326.321 692.702L322.273 732.739L340.596 747.342L351.551 776.906L387.278 759.072L397.93 761.158L402.865 776.054L435.963 772.346L457.779 783.772Z"/>
</mask>
<path d="M457.779 783.772L472.358 780.703L486.431 763.483L502.858 717.724L565.741 654.257L573.674 634.522L604.126 624.521L606.683 612.635L616.756 607.575L626.09 611.437L623.629 636.74L638.804 647.319L704.244 660.361L720.671 644.017L749.561 649L760.558 635.607L763.843 610.412L775.334 602.729L834.581 601.4L846.884 594.367L880.173 601.394L890.091 595.153L920.782 609.351L938.734 598.95L985.745 593.222L920.084 567.688L935.122 569.988L943.443 559.754L964.871 560.72L968.078 554.521L983.867 555.266L984.141 562.466L1012.66 540.216L1068.84 544.227L1106.49 561.823L1111.12 565.679L1102.78 570.078L1113.9 583.274L1120.07 581.033L1115.21 590.296L1124.16 597.085L1120.07 616.611L1105.64 631.119L1100.86 663.764L1085.88 675.405L1070.45 673.408L1066.91 663.836L1035.97 647.939L1038.59 629.343L1024.55 615.759L1013.91 625.009L1017.84 633.122L1008.81 633.896L1008.39 625.874L1008.19 636.364L998.464 632.138L942.06 645.162L940.433 663.085L917.438 699.08L904.289 700.081L894.514 726.802L874.481 735.671L874.82 747.604L827.566 798.739L779.751 828.738L727.496 831.331L692.257 856.222L680.825 847.859L681.076 857.468L687.292 857.634L679.49 858.308L677.064 854.261L665.233 864.531L647.542 908.161L629.023 924.421L595.382 927.199L586.394 910.933L565.884 902.243L571.224 893.308L564.817 885.005L544.813 886.018L530.61 872.828L524.321 883.062L523.159 899.101L536.981 895.62L541.893 904.406L533.852 904.931L538.406 910.706L528.565 918.622L538.65 925.327L536.469 940.437L546.965 932.552L546.375 916.22L554.738 912.995L558.308 927.503L576.553 943.888L571.379 948.108L577.882 944.925L588.45 957.675L589.731 952.233L594.643 986.184L629.386 987.203L670.394 1021.03L728.849 1122.25L721.851 1138.99L742.88 1158.49L757.393 1158.23L770.328 1168.01L776.938 1189.4L789.079 1183.39L806.382 1192.43L788.668 1223.86L822.774 1256.62L836.888 1252.57L842.986 1262.57L850.007 1259.04L854.561 1267.67L836.811 1274.01L837.353 1295.25L830.254 1283.98L818.679 1288.31L821.23 1280.11L811.353 1282.42L813.147 1270.96L800.994 1272.02L795.04 1255.12L772.348 1243.75L772.837 1226.29L753.006 1220.57L748.941 1207.44L711.933 1205.05L694.659 1212.97L628.212 1187.08L627.938 1172.79L645.223 1146.75L663.707 1136.28L637.123 1091.41L581.411 1075.5L532.475 1042.71L486.967 1031.54L425.688 1003.33L359.801 998.278L325.063 973.089L274.429 907.136L257.018 954.099L197.33 941.337L189.492 928.755L162.336 929.065L130.376 952.453L111.851 951.047L128.308 925L124.666 904.704L136.337 897.689L137.493 883.467L95.8414 871.296L101.706 853.784L72.1604 812.877L68.8464 800.08L79.1044 788.123L71.6776 779.862L49.9577 770.433L32.7081 780.226L24.9118 769.867L11.167 771.589L3.01904 759.549L26.9443 747.545L15.6314 746.436L17.3957 741.173L46.8642 733.949L55.3758 696.303L47.9907 694.21L38.6924 663.711L38.9547 622.947L74.8665 596.93L69.1921 582.803L87.8186 562.83L118.288 627.775L129.87 622.709L124.899 582.428L114.289 574.858L96.3063 519.765L94.1724 485.424L112.882 437.58L110.558 421.266L81.1369 422.181L53.6591 385.896L70.2114 388.889L70.4557 378.407L89.0524 389.637L101.182 415.171L118.736 411.875L130.913 389.094L129.411 360.737L99.6263 324.393L109.962 317.989L136.504 322.081L121.304 286.276L132.492 274.317L129.017 261.43L135.86 250.564L163.433 249.315L176.397 240.828L167.677 200.162L173.965 184.153L229.487 161.425L232.109 117.67L241.831 109.566L261.81 110.261L254.098 145.913L264.439 153.322L266.984 142.596L273.851 163.586L312.17 163.97L315.675 173.695L328.484 175.161L322.852 169.526L332.722 158.955L331.029 141.437L339.994 122.825L354.174 118.903L356.951 109.411L365.749 115.893L388.339 96.5427L379.297 75.1476L382.593 60.1422L393.143 55.3142L387.743 15.4893L404.719 17.4176L414.071 6.82581L412.068 21.277L425.997 8.54242L458.226 21.7121L469.527 18.0374L511.971 41.7959L551.936 33.4721L568.542 19.766L571.784 32.1399L556.18 39.7246L561.878 43.6555L557.968 54.0446L595.823 88.4871L622.138 94.546L631.395 85.9629L638.053 94.9036L638.673 83.3552L647 88.2666L698.79 77.2398L714.502 99.6004L736.991 85.3043L764.516 96.8348L771.001 90.1173L778.577 100.286L722.495 123.341L672.129 112.213L586.948 147.236L550.255 142.459L527.111 152.193L503.317 186.701L486.222 192.423L509.986 220.154L537.255 225.527L535.724 251.995L517.055 246.097L506.184 256.107L490.156 256.086L481.853 269.664L463.048 273.083L448.772 261.43L412.819 273.697L388.512 251.631L376.782 256.772L354.472 241.227L304.255 240.995L248.399 266.961L201.05 330.184L191.286 388.051L173.161 401.787L174.853 421.54L164.822 447.543L183.651 506.417L177.094 520.615L179.794 558.735L193.915 588.138L249.776 651.879L276.402 639.917L291.476 659.485L305.066 660.808L326.321 692.702L322.273 732.739L340.596 747.342L351.551 776.906L387.278 759.072L397.93 761.158L402.865 776.054L435.963 772.346L457.779 783.772Z" fill="#0D9488"/>
<path d="M457.779 783.772L472.358 780.703L486.431 763.483L502.858 717.724L565.741 654.257L573.674 634.522L604.126 624.521L606.683 612.635L616.756 607.575L626.09 611.437L623.629 636.74L638.804 647.319L704.244 660.361L720.671 644.017L749.561 649L760.558 635.607L763.843 610.412L775.334 602.729L834.581 601.4L846.884 594.367L880.173 601.394L890.091 595.153L920.782 609.351L938.734 598.95L985.745 593.222L920.084 567.688L935.122 569.988L943.443 559.754L964.871 560.72L968.078 554.521L983.867 555.266L984.141 562.466L1012.66 540.216L1068.84 544.227L1106.49 561.823L1111.12 565.679L1102.78 570.078L1113.9 583.274L1120.07 581.033L1115.21 590.296L1124.16 597.085L1120.07 616.611L1105.64 631.119L1100.86 663.764L1085.88 675.405L1070.45 673.408L1066.91 663.836L1035.97 647.939L1038.59 629.343L1024.55 615.759L1013.91 625.009L1017.84 633.122L1008.81 633.896L1008.39 625.874L1008.19 636.364L998.464 632.138L942.06 645.162L940.433 663.085L917.438 699.08L904.289 700.081L894.514 726.802L874.481 735.671L874.82 747.604L827.566 798.739L779.751 828.738L727.496 831.331L692.257 856.222L680.825 847.859L681.076 857.468L687.292 857.634L679.49 858.308L677.064 854.261L665.233 864.531L647.542 908.161L629.023 924.421L595.382 927.199L586.394 910.933L565.884 902.243L571.224 893.308L564.817 885.005L544.813 886.018L530.61 872.828L524.321 883.062L523.159 899.101L536.981 895.62L541.893 904.406L533.852 904.931L538.406 910.706L528.565 918.622L538.65 925.327L536.469 940.437L546.965 932.552L546.375 916.22L554.738 912.995L558.308 927.503L576.553 943.888L571.379 948.108L577.882 944.925L588.45 957.675L589.731 952.233L594.643 986.184L629.386 987.203L670.394 1021.03L728.849 1122.25L721.851 1138.99L742.88 1158.49L757.393 1158.23L770.328 1168.01L776.938 1189.4L789.079 1183.39L806.382 1192.43L788.668 1223.86L822.774 1256.62L836.888 1252.57L842.986 1262.57L850.007 1259.04L854.561 1267.67L836.811 1274.01L837.353 1295.25L830.254 1283.98L818.679 1288.31L821.23 1280.11L811.353 1282.42L813.147 1270.96L800.994 1272.02L795.04 1255.12L772.348 1243.75L772.837 1226.29L753.006 1220.57L748.941 1207.44L711.933 1205.05L694.659 1212.97L628.212 1187.08L627.938 1172.79L645.223 1146.75L663.707 1136.28L637.123 1091.41L581.411 1075.5L532.475 1042.71L486.967 1031.54L425.688 1003.33L359.801 998.278L325.063 973.089L274.429 907.136L257.018 954.099L197.33 941.337L189.492 928.755L162.336 929.065L130.376 952.453L111.851 951.047L128.308 925L124.666 904.704L136.337 897.689L137.493 883.467L95.8414 871.296L101.706 853.784L72.1604 812.877L68.8464 800.08L79.1044 788.123L71.6776 779.862L49.9577 770.433L32.7081 780.226L24.9118 769.867L11.167 771.589L3.01904 759.549L26.9443 747.545L15.6314 746.436L17.3957 741.173L46.8642 733.949L55.3758 696.303L47.9907 694.21L38.6924 663.711L38.9547 622.947L74.8665 596.93L69.1921 582.803L87.8186 562.83L118.288 627.775L129.87 622.709L124.899 582.428L114.289 574.858L96.3063 519.765L94.1724 485.424L112.882 437.58L110.558 421.266L81.1369 422.181L53.6591 385.896L70.2114 388.889L70.4557 378.407L89.0524 389.637L101.182 415.171L118.736 411.875L130.913 389.094L129.411 360.737L99.6263 324.393L109.962 317.989L136.504 322.081L121.304 286.276L132.492 274.317L129.017 261.43L135.86 250.564L163.433 249.315L176.397 240.828L167.677 200.162L173.965 184.153L229.487 161.425L232.109 117.67L241.831 109.566L261.81 110.261L254.098 145.913L264.439 153.322L266.984 142.596L273.851 163.586L312.17 163.97L315.675 173.695L328.484 175.161L322.852 169.526L332.722 158.955L331.029 141.437L339.994 122.825L354.174 118.903L356.951 109.411L365.749 115.893L388.339 96.5427L379.297 75.1476L382.593 60.1422L393.143 55.3142L387.743 15.4893L404.719 17.4176L414.071 6.82581L412.068 21.277L425.997 8.54242L458.226 21.7121L469.527 18.0374L511.971 41.7959L551.936 33.4721L568.542 19.766L571.784 32.1399L556.18 39.7246L561.878 43.6555L557.968 54.0446L595.823 88.4871L622.138 94.546L631.395 85.9629L638.053 94.9036L638.673 83.3552L647 88.2666L698.79 77.2398L714.502 99.6004L736.991 85.3043L764.516 96.8348L771.001 90.1173L778.577 100.286L722.495 123.341L672.129 112.213L586.948 147.236L550.255 142.459L527.111 152.193L503.317 186.701L486.222 192.423L509.986 220.154L537.255 225.527L535.724 251.995L517.055 246.097L506.184 256.107L490.156 256.086L481.853 269.664L463.048 273.083L448.772 261.43L412.819 273.697L388.512 251.631L376.782 256.772L354.472 241.227L304.255 240.995L248.399 266.961L201.05 330.184L191.286 388.051L173.161 401.787L174.853 421.54L164.822 447.543L183.651 506.417L177.094 520.615L179.794 558.735L193.915 588.138L249.776 651.879L276.402 639.917L291.476 659.485L305.066 660.808L326.321 692.702L322.273 732.739L340.596 747.342L351.551 776.906L387.278 759.072L397.93 761.158L402.865 776.054L435.963 772.346L457.779 783.772Z" stroke="black" stroke-width="4" mask="url(#path-5-outside-1_0_1)"/>
<path d="M1080.67 702.367L1082.46 699.143L1079.29 701.021L1073.81 704.263L1073.28 704.576L1073.32 705.188L1073.7 711.131L1073.92 714.533L1075.57 711.552L1080.67 702.367Z" fill="#0D9488" stroke="black" stroke-width="2"/>
<path d="M1030.95 749.329L1031.29 750.198L1032.18 749.917L1041.71 746.91L1046.95 803.581L1026.06 817.912L1025.75 818.126L1025.66 818.494L1023.27 828.067L1023.09 828.769L1023.7 829.155L1041.22 840.194L1041.76 840.53L1042.29 840.193L1059.6 829.255L1063.21 841.952L1065.17 841.747L1069.06 785.525L1086.31 778.703L1094.34 807.43L1094.96 809.658L1096.16 807.678L1100.05 801.238L1110.73 809.646L1111.4 810.175L1112.03 809.592L1119.13 802.983L1123.55 806.337L1124.75 807.246L1125.13 805.789L1128.97 790.869L1138.54 789.863L1139.1 789.804L1139.34 789.29L1147.45 771.844L1147.5 771.726L1147.52 771.599L1153.23 739.8L1153.37 739.004L1152.62 738.698L1120.06 725.346L1119.13 724.966L1118.76 725.896L1115.73 733.351L1112.14 723.312L1111.92 722.705L1111.28 722.652L1100.86 721.8L1100.31 721.755L1099.98 722.196L1064.06 769.985L1048.96 749.675L1050.21 736.041L1057.22 737.439L1057.84 737.563L1058.22 737.051L1066.63 725.631L1067.07 725.039L1066.64 724.446L1050.58 702.606L1050.28 702.188L1049.76 702.199L1042.19 702.354L1041.46 702.369L1041.25 703.076L1037.08 717.517L1027.18 705.27L1026.71 704.693L1026.03 704.972L989.013 719.987L971.146 710.797L970.405 710.416L969.896 711.076L947.521 740.109L947.418 740.243L947.365 740.402L938.18 767.784L938.133 767.923L938.128 768.07L937.27 794.66L937.247 795.387L937.931 795.633L947.557 799.095L954.224 822.521L954.365 823.017L954.851 823.19L970.765 828.834L971.333 829.035L971.776 828.628L997.03 805.448L997.149 805.339L997.228 805.198L1029.87 746.589L1030.95 749.329Z" fill="#0D9488" stroke="black" stroke-width="2"/>
<path d="M1084.86 709.23L1084.24 707.907L1083.23 708.963L1072.43 720.258L1072.01 720.702L1072.21 721.281L1079.01 740.575L1079.98 743.347L1080.9 740.555L1088.46 717.554L1088.58 717.177L1088.41 716.818L1084.86 709.23Z" fill="#0D9488" stroke="black" stroke-width="2"/>
<path d="M1150.83 800.266L1150.88 800.377L1150.95 800.473L1152.73 802.791L1154.4 804.99L1154.52 802.226L1154.89 793.202L1154.97 791.32L1153.37 792.309L1149.37 794.777L1148.63 795.233L1148.98 796.029L1150.83 800.266Z" fill="#0D9488" stroke="black" stroke-width="2"/>
<path d="M1143.7 794.304L1142.91 792.964L1142.01 794.236L1128.9 812.916L1128.55 813.403L1128.82 813.936L1134.36 825.094L1127.59 850.204L1127.5 850.547L1127.64 850.871L1131.89 860.384L1132.11 860.874L1132.64 860.963L1154.55 864.652L1154.96 864.72L1155.29 864.486L1167.79 855.76L1168.15 855.507L1168.21 855.069L1170.83 834.923L1170.89 834.507L1170.63 834.177L1163.61 825.224L1163.23 824.749L1162.64 824.857L1153.32 826.559L1154.17 812.473L1154.19 812.168L1154.04 811.906L1143.7 794.304Z" fill="#0D9488" stroke="black" stroke-width="2"/>
<path d="M1070.91 879.207L1070.03 880.662L1071.73 880.723L1082.38 881.105L1082.98 881.126L1083.28 880.609L1091.42 866.667L1104 862.847L1104.79 862.609L1104.71 861.792L1103.4 848.435L1103.23 846.765L1101.84 847.704L1081.94 861.139L1081.75 861.262L1081.64 861.45L1070.91 879.207Z" fill="#0D9488" stroke="black" stroke-width="2"/>
<path d="M1037.77 892.826L1037.81 892.694L1037.81 892.556L1037.97 883.365L1037.98 882.868L1037.59 882.561L1024.01 871.91L1022.83 870.985L1022.43 872.429L1010.08 916.822L1009.4 919.285L1011.57 917.941L1034.17 903.963L1034.5 903.763L1034.61 903.4L1037.77 892.826Z" fill="#0D9488" stroke="black" stroke-width="2"/>
</svg>
