<svg width="325" height="758" viewBox="0 0 325 758" fill="none" xmlns="http://www.w3.org/2000/svg">
<path d="M181.014 650.907L204.362 648.717L204.7 648.686L204.949 648.454L220.13 634.35L244.806 628.771L246.108 628.477L245.459 627.31L219.028 579.735L216.544 538.757L216.529 538.512L216.402 538.301L208.585 525.36L248.325 529.537L248.563 529.562L248.786 529.477L275.56 519.284L275.917 519.148L276.093 518.809L282.142 507.103L282.29 506.817L282.244 506.499L279.287 486.269L279.24 485.943L279.008 485.71L265.291 471.866L270.843 457.624L271.006 457.206L270.802 456.806L262.196 439.971L269.369 427.953L269.637 427.505L269.422 427.03L262.323 411.271L262.167 410.923L261.819 410.768L236.499 399.473L240.962 375.671L272.299 341.122L296.993 331.557L297.317 331.432L297.494 331.132L313.17 304.507L313.358 304.188L313.292 303.823L309.753 284.097L322.847 273.073L323.519 272.506L323.044 271.767L311.444 253.73L311.193 253.339L310.732 253.28L281.176 249.46L286.655 233.101L286.805 232.654L286.554 232.253L253.92 180.124L263.644 166.218L264.19 165.437L263.436 164.854L243.403 149.369L242.974 149.038L242.463 149.215L216.85 158.118L189.122 139.555L211.422 127.423L214.283 125.867L211.042 125.549L200.979 124.563L202.174 120.998L231.49 113.05L232.073 112.891L232.204 112.301L240.352 75.5187L240.556 74.5975L239.648 74.3403L232.788 72.3969L223.695 42.5705L224.443 1.75673L222.524 1.3449L197.896 58.8818L173.798 85.4167L163.904 86.606L163.29 86.6799L163.082 87.2633L152.824 116.052L152.698 116.406L152.836 116.756L160.926 137.213L149.968 148.091L149.695 148.362L149.674 148.746L148.75 165.495L148.741 165.656L148.783 165.811L159.11 203.987L146.985 231.607L146.843 231.93L146.935 232.27L155.113 262.531L155.179 262.775L155.353 262.959L169.531 277.902L160.794 306.56L149.9 304.068L149.509 303.978L149.165 304.183L128.018 316.772L127.614 317.012L127.541 317.476L120.875 359.807L109.102 373.257L108.925 373.46L108.873 373.724L102.394 406.93L102.361 407.101L102.387 407.273L108.671 448.242L81.7337 458.158L81.2018 458.354L81.0966 458.911L77.214 479.47L44.5118 502.526L33.5727 506.046L19.9502 489.824L18.8458 488.508L18.2471 490.118L1.12864 536.145L1.03778 536.389L1.07773 536.647L4.62421 559.511L4.78859 560.571L5.83427 560.333L26.6586 555.594L36.9151 566.222L24.1008 617.635L13.4553 614.965L12.7594 614.79L12.3711 615.393L6.35694 624.739L5.96233 625.353L6.42559 625.916L21.0864 643.739L29.2887 680.089L25.8144 701.786L25.7697 702.065L25.878 702.327L42.6567 742.822L42.6964 742.918L42.755 743.004L51.3142 755.527L51.933 756.432L52.7777 755.732L60.669 749.196L68.0943 754.24L69.0571 754.894L69.5586 753.843L76.2288 739.875L99.7957 740.953L100.054 740.965L100.286 740.85L116.22 732.951L135.38 730.599L135.658 730.565L135.877 730.392L154.397 715.808L172.799 726.075L173.058 726.219L173.353 726.199L187.972 725.221L201.306 737.367L202.14 738.127L202.795 737.208L206.842 731.521L207.134 731.111L206.978 730.632L181.014 650.907Z" fill="#0D9488" stroke="black" stroke-width="2"/>
</svg>
