<svg width="1126" height="933" viewBox="0 0 1126 933" fill="none" xmlns="http://www.w3.org/2000/svg">
<mask id="path-1-outside-1_0_1048" maskUnits="userSpaceOnUse" x="0.0507812" y="-0.614746" width="1126" height="933" fill="black">
<rect fill="white" x="0.0507812" y="-0.614746" width="1126" height="933"/>
<path d="M799.25 203.694L820.749 197.829L830.31 204.88L828.456 215.138L837.009 205.834L848.942 212.903L877.266 195.874L901.335 208.903L976.794 218.994L955.521 230.772L964.635 223.131L991.683 214.119L988.286 270.839L1007.31 293.757L1035.36 295.074L1036.17 341.804L1043.87 359.161L1062.83 373.305L1084.97 367.374L1109.35 380.434L1110.2 417.293L1123.24 449.903L1079.88 482.441L1074.36 479.967L1047.43 548.501L1049.91 581.426L1085.82 613.148L1059.57 667.692L1053.87 705.076L1034.68 692.881L1025.67 701.339L1013.28 699.259L1015.14 689.305L999.277 684.936L1002.39 674.708L986.539 675.822L993.281 662.924L981.848 648.851L987.511 644.822L974.63 641.746L970.243 628.765L963.586 631.667L964.14 616.933L938.248 612.844L933.014 599.892L917.911 605.954L908.392 586.254L895.887 627.417L857.829 643.94L847.869 666.828L851.869 674.541L822.197 709.702L760.554 734.652L719.671 730.08L713.699 721.825L643.735 759.996L630.717 788.714L636.07 829.09L621.151 851.12L643.109 883.819L633.829 904.15L595.014 901.599L583.356 916.613L572.12 917.972L557.583 908.406L530.534 915.063L522.875 908.131L516.581 929.029L497.769 916.721L503.807 897.188L492.172 883.467L479.566 883.092L475.161 867.928L452.672 864.4L459.384 856.174L453.757 838.156L429.409 826.402L439.923 816.054L435.053 809.981L400.858 822.348L376.373 805.081L395.529 760.252L392.025 751.55L364.708 749.386L347.864 733.836L322.776 728.62L283.419 732.185L284.182 717.23L244.02 687.696L242.87 676.573L258.552 674.654L263.529 665.66L251.018 665.195L237.386 652.124L213.706 653.208L157.582 606.109L189.268 589.7L192.635 569.613L209.462 554.938L211.572 529.612L235.932 554.402L251.084 541.217L261.55 527.669L262.331 485.833L235.813 489.111L234.829 475.879L211.178 476.892L204.872 462.712L161.295 480.707L148.212 474.722L122.04 451.399L122.141 420.112L113.856 403.501L93.7452 395.621L75.0234 402.219L55.6996 392.545L45.978 363.655L22.2792 348.778L3.05078 319.44L48.6781 297.714L56.4983 278.355L113.653 300.76L149.75 295.133L158.488 278.784L205.713 255.055L229.173 221.367L218.837 208.486L228.142 191.606L269.245 202.401L278.418 193.734L297.17 204.594L320.279 194.557L318.955 180.347L307.851 170.22L325.285 143.368L338.971 146.42L346.993 171.078L387.966 204.803L389.116 154.598L418.167 144.191L407.111 134.356L407.999 113.608L412.356 78.4944L425.928 65.6794L463.169 50.0094L491.505 48.6265L507.217 33.8267L566.929 45.8251L604.551 33.177L636.833 32.4856L644.003 5.75888L655.626 2.38525L676.977 10.9624L691.991 42.4813L683.122 51.6664L675.558 45.6463L660.281 51.0465L675.326 46.0278L681.036 51.124L674.092 64.0165L667.38 62.6277L672.161 65.9476L663.679 73.3625L671.851 67.5689L674.092 75.2877L667.225 82.3926L638.442 81.1588L651.406 84.4787L670.003 79.9965L669.383 87.1788L647.937 91.5061L670.003 87.6437L671.392 96.5189L652.104 97.2937L657.349 98.0626L671.851 97.0613V81.0038L678.103 83.7814L680.267 95.6725L659.739 106.246L655.269 114.126L681.191 96.5189L683.122 102.777L667.38 109.954L685.047 99.0699L696.467 105.013L676.005 113.739L698.244 105.168L693.845 113.506L699.454 105.716L699.012 114.895L701.099 109.876L708.43 116.981L702.565 107.021L710.659 106.884L715.761 100.459L716.918 110.574L722.705 95.0526L732.039 103.391L730.883 120.087L740.14 103.624L771.313 106.324L788.443 129.337L791.644 159.277L759.553 183.732L747.394 205.16L733.971 200.606L718.92 210.644L735.264 203.098L756.293 213.815L773.632 199.838L776.171 184.775L790.911 182.844L795.93 184.388L791.918 206.913L797.318 218.679L799.25 203.694Z"/>
</mask>
<path d="M799.25 203.694L820.749 197.829L830.31 204.88L828.456 215.138L837.009 205.834L848.942 212.903L877.266 195.874L901.335 208.903L976.794 218.994L955.521 230.772L964.635 223.131L991.683 214.119L988.286 270.839L1007.31 293.757L1035.36 295.074L1036.17 341.804L1043.87 359.161L1062.83 373.305L1084.97 367.374L1109.35 380.434L1110.2 417.293L1123.24 449.903L1079.88 482.441L1074.36 479.967L1047.43 548.501L1049.91 581.426L1085.82 613.148L1059.57 667.692L1053.87 705.076L1034.68 692.881L1025.67 701.339L1013.28 699.259L1015.14 689.305L999.277 684.936L1002.39 674.708L986.539 675.822L993.281 662.924L981.848 648.851L987.511 644.822L974.63 641.746L970.243 628.765L963.586 631.667L964.14 616.933L938.248 612.844L933.014 599.892L917.911 605.954L908.392 586.254L895.887 627.417L857.829 643.94L847.869 666.828L851.869 674.541L822.197 709.702L760.554 734.652L719.671 730.08L713.699 721.825L643.735 759.996L630.717 788.714L636.07 829.09L621.151 851.12L643.109 883.819L633.829 904.15L595.014 901.599L583.356 916.613L572.12 917.972L557.583 908.406L530.534 915.063L522.875 908.131L516.581 929.029L497.769 916.721L503.807 897.188L492.172 883.467L479.566 883.092L475.161 867.928L452.672 864.4L459.384 856.174L453.757 838.156L429.409 826.402L439.923 816.054L435.053 809.981L400.858 822.348L376.373 805.081L395.529 760.252L392.025 751.55L364.708 749.386L347.864 733.836L322.776 728.62L283.419 732.185L284.182 717.23L244.02 687.696L242.87 676.573L258.552 674.654L263.529 665.66L251.018 665.195L237.386 652.124L213.706 653.208L157.582 606.109L189.268 589.7L192.635 569.613L209.462 554.938L211.572 529.612L235.932 554.402L251.084 541.217L261.55 527.669L262.331 485.833L235.813 489.111L234.829 475.879L211.178 476.892L204.872 462.712L161.295 480.707L148.212 474.722L122.04 451.399L122.141 420.112L113.856 403.501L93.7452 395.621L75.0234 402.219L55.6996 392.545L45.978 363.655L22.2792 348.778L3.05078 319.44L48.6781 297.714L56.4983 278.355L113.653 300.76L149.75 295.133L158.488 278.784L205.713 255.055L229.173 221.367L218.837 208.486L228.142 191.606L269.245 202.401L278.418 193.734L297.17 204.594L320.279 194.557L318.955 180.347L307.851 170.22L325.285 143.368L338.971 146.42L346.993 171.078L387.966 204.803L389.116 154.598L418.167 144.191L407.111 134.356L407.999 113.608L412.356 78.4944L425.928 65.6794L463.169 50.0094L491.505 48.6265L507.217 33.8267L566.929 45.8251L604.551 33.177L636.833 32.4856L644.003 5.75888L655.626 2.38525L676.977 10.9624L691.991 42.4813L683.122 51.6664L675.558 45.6463L660.281 51.0465L675.326 46.0278L681.036 51.124L674.092 64.0165L667.38 62.6277L672.161 65.9476L663.679 73.3625L671.851 67.5689L674.092 75.2877L667.225 82.3926L638.442 81.1588L651.406 84.4787L670.003 79.9965L669.383 87.1788L647.937 91.5061L670.003 87.6437L671.392 96.5189L652.104 97.2937L657.349 98.0626L671.851 97.0613V81.0038L678.103 83.7814L680.267 95.6725L659.739 106.246L655.269 114.126L681.191 96.5189L683.122 102.777L667.38 109.954L685.047 99.0699L696.467 105.013L676.005 113.739L698.244 105.168L693.845 113.506L699.454 105.716L699.012 114.895L701.099 109.876L708.43 116.981L702.565 107.021L710.659 106.884L715.761 100.459L716.918 110.574L722.705 95.0526L732.039 103.391L730.883 120.087L740.14 103.624L771.313 106.324L788.443 129.337L791.644 159.277L759.553 183.732L747.394 205.16L733.971 200.606L718.92 210.644L735.264 203.098L756.293 213.815L773.632 199.838L776.171 184.775L790.911 182.844L795.93 184.388L791.918 206.913L797.318 218.679L799.25 203.694Z" fill="#0D9488"/>
<path d="M799.25 203.694L820.749 197.829L830.31 204.88L828.456 215.138L837.009 205.834L848.942 212.903L877.266 195.874L901.335 208.903L976.794 218.994L955.521 230.772L964.635 223.131L991.683 214.119L988.286 270.839L1007.31 293.757L1035.36 295.074L1036.17 341.804L1043.87 359.161L1062.83 373.305L1084.97 367.374L1109.35 380.434L1110.2 417.293L1123.24 449.903L1079.88 482.441L1074.36 479.967L1047.43 548.501L1049.91 581.426L1085.82 613.148L1059.57 667.692L1053.87 705.076L1034.68 692.881L1025.67 701.339L1013.28 699.259L1015.14 689.305L999.277 684.936L1002.39 674.708L986.539 675.822L993.281 662.924L981.848 648.851L987.511 644.822L974.63 641.746L970.243 628.765L963.586 631.667L964.14 616.933L938.248 612.844L933.014 599.892L917.911 605.954L908.392 586.254L895.887 627.417L857.829 643.94L847.869 666.828L851.869 674.541L822.197 709.702L760.554 734.652L719.671 730.08L713.699 721.825L643.735 759.996L630.717 788.714L636.07 829.09L621.151 851.12L643.109 883.819L633.829 904.15L595.014 901.599L583.356 916.613L572.12 917.972L557.583 908.406L530.534 915.063L522.875 908.131L516.581 929.029L497.769 916.721L503.807 897.188L492.172 883.467L479.566 883.092L475.161 867.928L452.672 864.4L459.384 856.174L453.757 838.156L429.409 826.402L439.923 816.054L435.053 809.981L400.858 822.348L376.373 805.081L395.529 760.252L392.025 751.55L364.708 749.386L347.864 733.836L322.776 728.62L283.419 732.185L284.182 717.23L244.02 687.696L242.87 676.573L258.552 674.654L263.529 665.66L251.018 665.195L237.386 652.124L213.706 653.208L157.582 606.109L189.268 589.7L192.635 569.613L209.462 554.938L211.572 529.612L235.932 554.402L251.084 541.217L261.55 527.669L262.331 485.833L235.813 489.111L234.829 475.879L211.178 476.892L204.872 462.712L161.295 480.707L148.212 474.722L122.04 451.399L122.141 420.112L113.856 403.501L93.7452 395.621L75.0234 402.219L55.6996 392.545L45.978 363.655L22.2792 348.778L3.05078 319.44L48.6781 297.714L56.4983 278.355L113.653 300.76L149.75 295.133L158.488 278.784L205.713 255.055L229.173 221.367L218.837 208.486L228.142 191.606L269.245 202.401L278.418 193.734L297.17 204.594L320.279 194.557L318.955 180.347L307.851 170.22L325.285 143.368L338.971 146.42L346.993 171.078L387.966 204.803L389.116 154.598L418.167 144.191L407.111 134.356L407.999 113.608L412.356 78.4944L425.928 65.6794L463.169 50.0094L491.505 48.6265L507.217 33.8267L566.929 45.8251L604.551 33.177L636.833 32.4856L644.003 5.75888L655.626 2.38525L676.977 10.9624L691.991 42.4813L683.122 51.6664L675.558 45.6463L660.281 51.0465L675.326 46.0278L681.036 51.124L674.092 64.0165L667.38 62.6277L672.161 65.9476L663.679 73.3625L671.851 67.5689L674.092 75.2877L667.225 82.3926L638.442 81.1588L651.406 84.4787L670.003 79.9965L669.383 87.1788L647.937 91.5061L670.003 87.6437L671.392 96.5189L652.104 97.2937L657.349 98.0626L671.851 97.0613V81.0038L678.103 83.7814L680.267 95.6725L659.739 106.246L655.269 114.126L681.191 96.5189L683.122 102.777L667.38 109.954L685.047 99.0699L696.467 105.013L676.005 113.739L698.244 105.168L693.845 113.506L699.454 105.716L699.012 114.895L701.099 109.876L708.43 116.981L702.565 107.021L710.659 106.884L715.761 100.459L716.918 110.574L722.705 95.0526L732.039 103.391L730.883 120.087L740.14 103.624L771.313 106.324L788.443 129.337L791.644 159.277L759.553 183.732L747.394 205.16L733.971 200.606L718.92 210.644L735.264 203.098L756.293 213.815L773.632 199.838L776.171 184.775L790.911 182.844L795.93 184.388L791.918 206.913L797.318 218.679L799.25 203.694Z" stroke="black" stroke-width="4" mask="url(#path-1-outside-1_0_1048)"/>
</svg>
