<svg width="762" height="948" viewBox="0 0 762 948" fill="none" xmlns="http://www.w3.org/2000/svg">
<mask id="path-1-outside-1_0_41" maskUnits="userSpaceOnUse" x="0.102051" y="-0.740601" width="762" height="949" fill="black">
<rect fill="white" x="0.102051" y="-0.740601" width="762" height="949"/>
<path d="M546.608 721.059L550.357 783.971L583.76 824.586L596.676 876.657L579.611 906.131L518.88 945.083L481.025 900.82L476.472 877.652L462.351 858.423L477.938 825.534L475.548 793.103L412.659 705.025L407.724 672.761L389.818 655.16L396.148 649.217L388.972 645.355L398.461 641.886L389.514 635.633L390.903 624.13L359.575 604.138L345.377 607.691L346.843 598.196L353.942 603.137L353.167 587.318L339.435 581.685L339.512 572.881L330.792 579.831L334.648 567.177H341.67L335.113 553.361L347.654 552.991L348.465 544.253L338.862 543.812L342.284 534.919L330.404 523.571L329.481 501.964L317.601 478.349L269.53 434.056L256.37 406.722L209.884 366.384L203.059 350.21L183.187 337.834L162.659 294.006L169.526 276.569L161.193 262.139L128.309 234.3L66.6777 212.473L54.3634 190.261L33.8952 189.114L29.3056 198.609L14.3866 194.598L8.9387 184.274L2.10205 190.869L21.5272 163.547L46.8949 155.542L68.3049 118.024L95.8304 104.508L119.285 111.068L133.882 102.565L143.741 122.533L155.143 128.448L170.98 120.256L205.908 123.346L222.764 110.868L211.147 66.0721L189.553 63.3929L185.702 53.2244L187.627 8.1841L198.261 2.2594L303.135 54.1005L291.226 92.319L310.914 135.917L313.375 163.633L338.332 157.157L360.588 191.808L412.712 204.826L459.58 179.997L467.817 201.84L462.828 221.783L468.717 250.289L458.65 266.007L449.644 258.02L437.723 266.567L450.824 318.581L466.875 335.3L468.562 348.372L485.967 357.819L488.059 345.043L510.649 341.899L521.777 351.644L518.552 365.255L530.807 393.644L556.723 403.542L582.151 428.31L611.613 437.704L610.367 445.506L624.893 454.781L621.609 459.764L677.19 491.032L692.306 514.058L739.048 525.186L740.884 558.493L757.8 560.061L737.79 592.11L708.298 600.407L702.564 609.675L710.76 630.632L703.142 641.093L711.487 649.998L705.949 663.773L667.886 692.514L649.522 719.706L573.174 730.983L563.774 720.528L556.646 726.298L546.608 721.059Z"/>
</mask>
<path d="M546.608 721.059L550.357 783.971L583.76 824.586L596.676 876.657L579.611 906.131L518.88 945.083L481.025 900.82L476.472 877.652L462.351 858.423L477.938 825.534L475.548 793.103L412.659 705.025L407.724 672.761L389.818 655.16L396.148 649.217L388.972 645.355L398.461 641.886L389.514 635.633L390.903 624.13L359.575 604.138L345.377 607.691L346.843 598.196L353.942 603.137L353.167 587.318L339.435 581.685L339.512 572.881L330.792 579.831L334.648 567.177H341.67L335.113 553.361L347.654 552.991L348.465 544.253L338.862 543.812L342.284 534.919L330.404 523.571L329.481 501.964L317.601 478.349L269.53 434.056L256.37 406.722L209.884 366.384L203.059 350.21L183.187 337.834L162.659 294.006L169.526 276.569L161.193 262.139L128.309 234.3L66.6777 212.473L54.3634 190.261L33.8952 189.114L29.3056 198.609L14.3866 194.598L8.9387 184.274L2.10205 190.869L21.5272 163.547L46.8949 155.542L68.3049 118.024L95.8304 104.508L119.285 111.068L133.882 102.565L143.741 122.533L155.143 128.448L170.98 120.256L205.908 123.346L222.764 110.868L211.147 66.0721L189.553 63.3929L185.702 53.2244L187.627 8.1841L198.261 2.2594L303.135 54.1005L291.226 92.319L310.914 135.917L313.375 163.633L338.332 157.157L360.588 191.808L412.712 204.826L459.58 179.997L467.817 201.84L462.828 221.783L468.717 250.289L458.65 266.007L449.644 258.02L437.723 266.567L450.824 318.581L466.875 335.3L468.562 348.372L485.967 357.819L488.059 345.043L510.649 341.899L521.777 351.644L518.552 365.255L530.807 393.644L556.723 403.542L582.151 428.31L611.613 437.704L610.367 445.506L624.893 454.781L621.609 459.764L677.19 491.032L692.306 514.058L739.048 525.186L740.884 558.493L757.8 560.061L737.79 592.11L708.298 600.407L702.564 609.675L710.76 630.632L703.142 641.093L711.487 649.998L705.949 663.773L667.886 692.514L649.522 719.706L573.174 730.983L563.774 720.528L556.646 726.298L546.608 721.059Z" fill="#0D9488"/>
<path d="M546.608 721.059L550.357 783.971L583.76 824.586L596.676 876.657L579.611 906.131L518.88 945.083L481.025 900.82L476.472 877.652L462.351 858.423L477.938 825.534L475.548 793.103L412.659 705.025L407.724 672.761L389.818 655.16L396.148 649.217L388.972 645.355L398.461 641.886L389.514 635.633L390.903 624.13L359.575 604.138L345.377 607.691L346.843 598.196L353.942 603.137L353.167 587.318L339.435 581.685L339.512 572.881L330.792 579.831L334.648 567.177H341.67L335.113 553.361L347.654 552.991L348.465 544.253L338.862 543.812L342.284 534.919L330.404 523.571L329.481 501.964L317.601 478.349L269.53 434.056L256.37 406.722L209.884 366.384L203.059 350.21L183.187 337.834L162.659 294.006L169.526 276.569L161.193 262.139L128.309 234.3L66.6777 212.473L54.3634 190.261L33.8952 189.114L29.3056 198.609L14.3866 194.598L8.9387 184.274L2.10205 190.869L21.5272 163.547L46.8949 155.542L68.3049 118.024L95.8304 104.508L119.285 111.068L133.882 102.565L143.741 122.533L155.143 128.448L170.98 120.256L205.908 123.346L222.764 110.868L211.147 66.0721L189.553 63.3929L185.702 53.2244L187.627 8.1841L198.261 2.2594L303.135 54.1005L291.226 92.319L310.914 135.917L313.375 163.633L338.332 157.157L360.588 191.808L412.712 204.826L459.58 179.997L467.817 201.84L462.828 221.783L468.717 250.289L458.65 266.007L449.644 258.02L437.723 266.567L450.824 318.581L466.875 335.3L468.562 348.372L485.967 357.819L488.059 345.043L510.649 341.899L521.777 351.644L518.552 365.255L530.807 393.644L556.723 403.542L582.151 428.31L611.613 437.704L610.367 445.506L624.893 454.781L621.609 459.764L677.19 491.032L692.306 514.058L739.048 525.186L740.884 558.493L757.8 560.061L737.79 592.11L708.298 600.407L702.564 609.675L710.76 630.632L703.142 641.093L711.487 649.998L705.949 663.773L667.886 692.514L649.522 719.706L573.174 730.983L563.774 720.528L556.646 726.298L546.608 721.059Z" stroke="black" stroke-width="4" mask="url(#path-1-outside-1_0_41)"/>
</svg>
