<svg width="743" height="1138" viewBox="0 0 743 1138" fill="none" xmlns="http://www.w3.org/2000/svg">
<mask id="path-1-outside-1_0_45" maskUnits="userSpaceOnUse" x="-0.34082" y="-0.158325" width="743" height="1138" fill="black">
<rect fill="white" x="-0.34082" y="-0.158325" width="743" height="1138"/>
<path d="M256.611 151.746L351.305 193.431L416.244 232.558L426.031 250.827L470.937 269.31L489.57 298.573L546.128 318.493L574.917 355.74L574.619 368.939L562.007 366.153L558.788 369.339L568.51 382.166L560.797 368.641L575.764 371.27L583.024 354.658L595.904 373.434L610.871 377.144L613.702 416.599L599.528 449.376L618.065 457.172L611.103 464.98L622.524 472.318L615.574 476.57L614.417 482.748L603.861 480.576L607.015 490.148L599.522 494.714L598.998 502.591L591.571 504.436L589.312 497.375L591.511 504.763L599.272 502.823L606.86 491.472L604.469 480.644L614.4 484.918L624.294 473.861L623.215 468.765L612.88 463.899L620.956 454.031L605.083 448.914L616.426 440.107L627.387 437.693L637.711 445.871L639.648 473.453L652.386 502.516L648.177 459.58L659.115 447.346L675.178 447.594L679.613 465.794L705.32 496.562L699.193 544.535L713.963 582.61L693.191 695.799L730.188 707.64L728.149 727.911L740.356 746.991L729.407 772.522L733.126 783.74L721.306 795.878L703.735 798.567L706.024 788.562L695.974 788.458L692.732 792.889L707.645 801.982L701.619 806.077L628.895 820.281L640.167 830.86L650.121 873.275L664.724 887.059L642.265 896.277L658.704 922.017L652.946 935.365L636.495 937.884L650.365 948.773L646.926 969.483L664.914 987.931L579.847 947.364L567.628 953.184L567.36 1005.12L591.148 1011.07L602.765 1055.87L585.909 1068.35L550.98 1065.26L535.143 1073.45L523.741 1067.53L513.882 1047.57L499.285 1056.07L475.831 1049.51L448.305 1063.02L426.895 1100.54L401.528 1108.55L382.096 1134.69L374.24 1129.06L380.445 1124.33L377.972 1108.86L366.313 1103.43L375.206 1089.09L371.993 1066.87L360.722 1052.7L365.86 1038.87L348.7 1022.37L352.437 993.399L327.904 964.244L328.691 943.209L292.046 843.762L295.592 835.039L256.241 766.189L270.898 775.142L275.762 761.096L282.706 764.029L280.625 755.925L291.658 746.97L288.028 734.077L276.918 729.834L279.541 720.955L264.574 704.588L244.511 707.756L261.486 708.37L262.082 722.383L247.908 717.251L186.873 646.995L157.792 643.049L153.381 630.628L131.393 636.341L130.767 626.002L100.917 603.066L110.436 554.149L101.204 528.561L88.6806 524.364L79.2213 483.911L81.9691 467.591L94.2179 459.777L82.3327 438.856L89.3541 424.202L83.9301 415.562L70.6979 414.62L60.2075 396.581L45.7176 393.249L39.0597 348.453L51.3323 346.406L52.9357 331.615L37.9809 303.267L22.8413 296.579L54.1338 289.197L65.9414 273.736L44.3526 256.93L39.4054 241.937L45.9977 231.92L21.3691 205.903L2.65918 164.641L33.4509 136.86L31.7462 112.204L44.144 117.95L46.7011 107.358L64.7493 95.9769L69.6608 58.6048L78.7743 45.8166L74.7987 34.447L84.6692 27.1902L76.9027 17.0723L114.215 2.84167L128.616 9.50249L116.659 17.0067L117.04 24.9759L112.874 23.1967L117.273 25.2858L125.302 13.2933L129.003 31.3238L103.105 44.5917L98.3664 33.9493L100.458 43.5695L107.784 47.414L102.986 64.3239L92.0423 53.294L100.995 64.2762L94.6649 67.2922L102.592 67.474L97.2875 72.7877L102.872 65.6441L108.863 69.2263L103.623 65.0451L109.262 57.0908L109.095 60.0979L127.537 51.1274L144.566 66.8779L143.439 75.3418L136.257 70.2337L128.461 79.4396L134.713 73.1722L140.888 76.6561L131.316 78.4323L126.994 85.1616L144.029 76.2537L145.937 67.4591L155.658 65.6948L177.921 74.7457L169.975 74.102L164.11 79.0522L171.519 74.409L177.921 80.137L170.595 82.6851L171.233 87.6799L169.51 83.9994L165.809 85.859L163.186 96.0127L179.464 76.0362L185.33 81.9132L183.631 85.3941L178.618 82.7626L180.853 87.4803L179.238 82.6851L183.476 85.7786L185.794 82.4556L182.874 76.3461L194.866 79.4366L194.008 93.0563L195.826 83.153L207.324 84.0023L209.773 93.5123L202.657 94.3855L198.526 100.939L203.539 94.8295L206.084 102.182L197.864 105.323L200.296 102.334L206.68 106.062L196.857 109.424L203.39 111.522L207.347 107.099L206.149 120.021L209.523 104.468L215.531 106.053L209.159 111.495L217.874 104.319L220.306 107.269L214.661 108.035L210.274 118.049L217.915 107.445L217.677 113.036L225.509 110.064L222.66 118.251L231.052 111.271L228.084 125.001L245.173 113.066L255.317 143.866L232.465 148.217L230.999 155.158L257.785 144.173L253.136 156.783L259.263 161.617L256.611 151.746Z"/>
</mask>
<path d="M256.611 151.746L351.305 193.431L416.244 232.558L426.031 250.827L470.937 269.31L489.57 298.573L546.128 318.493L574.917 355.74L574.619 368.939L562.007 366.153L558.788 369.339L568.51 382.166L560.797 368.641L575.764 371.27L583.024 354.658L595.904 373.434L610.871 377.144L613.702 416.599L599.528 449.376L618.065 457.172L611.103 464.98L622.524 472.318L615.574 476.57L614.417 482.748L603.861 480.576L607.015 490.148L599.522 494.714L598.998 502.591L591.571 504.436L589.312 497.375L591.511 504.763L599.272 502.823L606.86 491.472L604.469 480.644L614.4 484.918L624.294 473.861L623.215 468.765L612.88 463.899L620.956 454.031L605.083 448.914L616.426 440.107L627.387 437.693L637.711 445.871L639.648 473.453L652.386 502.516L648.177 459.58L659.115 447.346L675.178 447.594L679.613 465.794L705.32 496.562L699.193 544.535L713.963 582.61L693.191 695.799L730.188 707.64L728.149 727.911L740.356 746.991L729.407 772.522L733.126 783.74L721.306 795.878L703.735 798.567L706.024 788.562L695.974 788.458L692.732 792.889L707.645 801.982L701.619 806.077L628.895 820.281L640.167 830.86L650.121 873.275L664.724 887.059L642.265 896.277L658.704 922.017L652.946 935.365L636.495 937.884L650.365 948.773L646.926 969.483L664.914 987.931L579.847 947.364L567.628 953.184L567.36 1005.12L591.148 1011.07L602.765 1055.87L585.909 1068.35L550.98 1065.26L535.143 1073.45L523.741 1067.53L513.882 1047.57L499.285 1056.07L475.831 1049.51L448.305 1063.02L426.895 1100.54L401.528 1108.55L382.096 1134.69L374.24 1129.06L380.445 1124.33L377.972 1108.86L366.313 1103.43L375.206 1089.09L371.993 1066.87L360.722 1052.7L365.86 1038.87L348.7 1022.37L352.437 993.399L327.904 964.244L328.691 943.209L292.046 843.762L295.592 835.039L256.241 766.189L270.898 775.142L275.762 761.096L282.706 764.029L280.625 755.925L291.658 746.97L288.028 734.077L276.918 729.834L279.541 720.955L264.574 704.588L244.511 707.756L261.486 708.37L262.082 722.383L247.908 717.251L186.873 646.995L157.792 643.049L153.381 630.628L131.393 636.341L130.767 626.002L100.917 603.066L110.436 554.149L101.204 528.561L88.6806 524.364L79.2213 483.911L81.9691 467.591L94.2179 459.777L82.3327 438.856L89.3541 424.202L83.9301 415.562L70.6979 414.62L60.2075 396.581L45.7176 393.249L39.0597 348.453L51.3323 346.406L52.9357 331.615L37.9809 303.267L22.8413 296.579L54.1338 289.197L65.9414 273.736L44.3526 256.93L39.4054 241.937L45.9977 231.92L21.3691 205.903L2.65918 164.641L33.4509 136.86L31.7462 112.204L44.144 117.95L46.7011 107.358L64.7493 95.9769L69.6608 58.6048L78.7743 45.8166L74.7987 34.447L84.6692 27.1902L76.9027 17.0723L114.215 2.84167L128.616 9.50249L116.659 17.0067L117.04 24.9759L112.874 23.1967L117.273 25.2858L125.302 13.2933L129.003 31.3238L103.105 44.5917L98.3664 33.9493L100.458 43.5695L107.784 47.414L102.986 64.3239L92.0423 53.294L100.995 64.2762L94.6649 67.2922L102.592 67.474L97.2875 72.7877L102.872 65.6441L108.863 69.2263L103.623 65.0451L109.262 57.0908L109.095 60.0979L127.537 51.1274L144.566 66.8779L143.439 75.3418L136.257 70.2337L128.461 79.4396L134.713 73.1722L140.888 76.6561L131.316 78.4323L126.994 85.1616L144.029 76.2537L145.937 67.4591L155.658 65.6948L177.921 74.7457L169.975 74.102L164.11 79.0522L171.519 74.409L177.921 80.137L170.595 82.6851L171.233 87.6799L169.51 83.9994L165.809 85.859L163.186 96.0127L179.464 76.0362L185.33 81.9132L183.631 85.3941L178.618 82.7626L180.853 87.4803L179.238 82.6851L183.476 85.7786L185.794 82.4556L182.874 76.3461L194.866 79.4366L194.008 93.0563L195.826 83.153L207.324 84.0023L209.773 93.5123L202.657 94.3855L198.526 100.939L203.539 94.8295L206.084 102.182L197.864 105.323L200.296 102.334L206.68 106.062L196.857 109.424L203.39 111.522L207.347 107.099L206.149 120.021L209.523 104.468L215.531 106.053L209.159 111.495L217.874 104.319L220.306 107.269L214.661 108.035L210.274 118.049L217.915 107.445L217.677 113.036L225.509 110.064L222.66 118.251L231.052 111.271L228.084 125.001L245.173 113.066L255.317 143.866L232.465 148.217L230.999 155.158L257.785 144.173L253.136 156.783L259.263 161.617L256.611 151.746Z" fill="#0D9488"/>
<path d="M256.611 151.746L351.305 193.431L416.244 232.558L426.031 250.827L470.937 269.31L489.57 298.573L546.128 318.493L574.917 355.74L574.619 368.939L562.007 366.153L558.788 369.339L568.51 382.166L560.797 368.641L575.764 371.27L583.024 354.658L595.904 373.434L610.871 377.144L613.702 416.599L599.528 449.376L618.065 457.172L611.103 464.98L622.524 472.318L615.574 476.57L614.417 482.748L603.861 480.576L607.015 490.148L599.522 494.714L598.998 502.591L591.571 504.436L589.312 497.375L591.511 504.763L599.272 502.823L606.86 491.472L604.469 480.644L614.4 484.918L624.294 473.861L623.215 468.765L612.88 463.899L620.956 454.031L605.083 448.914L616.426 440.107L627.387 437.693L637.711 445.871L639.648 473.453L652.386 502.516L648.177 459.58L659.115 447.346L675.178 447.594L679.613 465.794L705.32 496.562L699.193 544.535L713.963 582.61L693.191 695.799L730.188 707.64L728.149 727.911L740.356 746.991L729.407 772.522L733.126 783.74L721.306 795.878L703.735 798.567L706.024 788.562L695.974 788.458L692.732 792.889L707.645 801.982L701.619 806.077L628.895 820.281L640.167 830.86L650.121 873.275L664.724 887.059L642.265 896.277L658.704 922.017L652.946 935.365L636.495 937.884L650.365 948.773L646.926 969.483L664.914 987.931L579.847 947.364L567.628 953.184L567.36 1005.12L591.148 1011.07L602.765 1055.87L585.909 1068.35L550.98 1065.26L535.143 1073.45L523.741 1067.53L513.882 1047.57L499.285 1056.07L475.831 1049.51L448.305 1063.02L426.895 1100.54L401.528 1108.55L382.096 1134.69L374.24 1129.06L380.445 1124.33L377.972 1108.86L366.313 1103.43L375.206 1089.09L371.993 1066.87L360.722 1052.7L365.86 1038.87L348.7 1022.37L352.437 993.399L327.904 964.244L328.691 943.209L292.046 843.762L295.592 835.039L256.241 766.189L270.898 775.142L275.762 761.096L282.706 764.029L280.625 755.925L291.658 746.97L288.028 734.077L276.918 729.834L279.541 720.955L264.574 704.588L244.511 707.756L261.486 708.37L262.082 722.383L247.908 717.251L186.873 646.995L157.792 643.049L153.381 630.628L131.393 636.341L130.767 626.002L100.917 603.066L110.436 554.149L101.204 528.561L88.6806 524.364L79.2213 483.911L81.9691 467.591L94.2179 459.777L82.3327 438.856L89.3541 424.202L83.9301 415.562L70.6979 414.62L60.2075 396.581L45.7176 393.249L39.0597 348.453L51.3323 346.406L52.9357 331.615L37.9809 303.267L22.8413 296.579L54.1338 289.197L65.9414 273.736L44.3526 256.93L39.4054 241.937L45.9977 231.92L21.3691 205.903L2.65918 164.641L33.4509 136.86L31.7462 112.204L44.144 117.95L46.7011 107.358L64.7493 95.9769L69.6608 58.6048L78.7743 45.8166L74.7987 34.447L84.6692 27.1902L76.9027 17.0723L114.215 2.84167L128.616 9.50249L116.659 17.0067L117.04 24.9759L112.874 23.1967L117.273 25.2858L125.302 13.2933L129.003 31.3238L103.105 44.5917L98.3664 33.9493L100.458 43.5695L107.784 47.414L102.986 64.3239L92.0423 53.294L100.995 64.2762L94.6649 67.2922L102.592 67.474L97.2875 72.7877L102.872 65.6441L108.863 69.2263L103.623 65.0451L109.262 57.0908L109.095 60.0979L127.537 51.1274L144.566 66.8779L143.439 75.3418L136.257 70.2337L128.461 79.4396L134.713 73.1722L140.888 76.6561L131.316 78.4323L126.994 85.1616L144.029 76.2537L145.937 67.4591L155.658 65.6948L177.921 74.7457L169.975 74.102L164.11 79.0522L171.519 74.409L177.921 80.137L170.595 82.6851L171.233 87.6799L169.51 83.9994L165.809 85.859L163.186 96.0127L179.464 76.0362L185.33 81.9132L183.631 85.3941L178.618 82.7626L180.853 87.4803L179.238 82.6851L183.476 85.7786L185.794 82.4556L182.874 76.3461L194.866 79.4366L194.008 93.0563L195.826 83.153L207.324 84.0023L209.773 93.5123L202.657 94.3855L198.526 100.939L203.539 94.8295L206.084 102.182L197.864 105.323L200.296 102.334L206.68 106.062L196.857 109.424L203.39 111.522L207.347 107.099L206.149 120.021L209.523 104.468L215.531 106.053L209.159 111.495L217.874 104.319L220.306 107.269L214.661 108.035L210.274 118.049L217.915 107.445L217.677 113.036L225.509 110.064L222.66 118.251L231.052 111.271L228.084 125.001L245.173 113.066L255.317 143.866L232.465 148.217L230.999 155.158L257.785 144.173L253.136 156.783L259.263 161.617L256.611 151.746Z" stroke="black" stroke-width="4" mask="url(#path-1-outside-1_0_45)"/>
</svg>
