<svg width="229" height="192" viewBox="0 0 229 192" fill="none" xmlns="http://www.w3.org/2000/svg">
<path d="M188.361 184.93L188.444 184.957L188.53 184.969L225.825 190.172L227.106 190.351L226.956 189.066L224.799 170.565L224.657 169.347L223.492 169.731L212.99 173.197L204.616 137.545L212.856 81.2575L212.984 80.3826L212.131 80.1484L180.839 71.5534L180.617 71.4923L180.39 71.5348L154.076 76.4653L131.766 66.2588L119.053 3.76111L118.696 2.00747L117.389 3.23035L72.306 45.4269L67.4369 32.6846L67.1709 31.9885L66.4278 32.0444L29.2702 34.8398L28.3167 34.9116L28.3457 35.8673L29.0897 60.43L10.5036 79.1626L10.3458 79.3217L10.271 79.5329L1.74155 103.595L1.4265 104.484L2.29527 104.851L89.1187 141.492L113.798 160.74L113.937 160.849L114.105 160.903L188.361 184.93Z" fill="#0D9488" stroke="black" stroke-width="2"/>
</svg>
